<svg xmlns="http://www.w3.org/2000/svg" viewBox="0 0 128 128"><path fill="#B8CBCD" d="M113.468 99.521c0 5.625-21.592 9.813-47.917 9.813-26.326 0-47.417-4.188-47.417-9.813 0-5.626 21.341-10.188 47.667-10.188 26.325.001 47.667 4.562 47.667 10.188z"/><circle fill="#B2EDA6" cx="27.551" cy="82.334" r="22"/><path fill="#3C663E" d="M27.551 107.334c-13.785 0-25-11.215-25-25s11.215-25 25-25 25 11.215 25 25-11.215 25-25 25zm0-44c-10.477 0-19 8.523-19 19s8.523 19 19 19 19-8.523 19-19-8.523-19-19-19z"/><path opacity=".2" fill="#3C663E" d="M27.551 101.334c-13.234 0-24-10.767-24-24a2 2 0 0 1 4 0c0 11.028 8.972 20 20 20s20-8.972 20-20a2 2 0 0 1 4 0c0 13.233-10.766 24-24 24z"/><circle fill="#B2EDA6" cx="99.551" cy="82.334" r="22"/><path fill="#3C663E" d="M99.551 107.334c-13.785 0-25-11.215-25-25s11.215-25 25-25 25 11.215 25 25-11.215 25-25 25zm0-44c-10.477 0-19 8.523-19 19s8.523 19 19 19 19-8.523 19-19-8.523-19-19-19zm-37 23h-36a3.001 3.001 0 0 1-2.573-4.543l21-35a3 3 0 0 1 2.572-1.456h36a3 3 0 0 1 2.572 4.543l-21 35a2.997 2.997 0 0 1-2.571 1.456zm-30.702-6h29.003l17.4-29H49.25l-17.401 29z"/><path fill="#3C663E" d="M62.553 86.335a3 3 0 0 1-2.75-1.799l-21-48a3 3 0 0 1 5.497-2.405l21 48.001a3 3 0 0 1-2.747 4.203z"/><path fill="#B2EDA6" d="M27.551 26.334c0-2.209 5.596-4 12.5-4s18.5 1.791 18.5 4v7c0 2.209-11.596 4-18.5 4s-12.5-1.791-12.5-4v-7z"/><path fill="#3C663E" d="M40.051 40.334c-7.15 0-15.5-1.833-15.5-7v-7c0-5.167 8.35-7 15.5-7 3.666 0 8.536.481 12.406 1.226 4.723.909 9.094 2.237 9.094 5.774v7c0 3.537-4.371 4.865-9.094 5.774-3.87.745-8.739 1.226-12.406 1.226zm-9.5-7.683c1.101.684 4.463 1.683 9.5 1.683 5.659 0 13.026-1.203 15.5-2.222v-4.557c-2.474-1.019-9.841-2.222-15.5-2.222-5.037 0-8.399.998-9.5 1.683v5.635z"/><path fill="#3C663E" d="M40.051 32.334c-7.217 0-14.5-1.855-14.5-6a2 2 0 0 1 3.99-.205c.612.703 4.229 2.205 10.51 2.205 6.597 0 14.91-1.505 16.61-2.656a2 2 0 0 1 3.89.656c0 5.742-20.295 6-20.5 6zm59.5 53c-12.341 0-19-24.73-19-48a3 3 0 0 1 3-3h19c3.216 0 8 2.397 8 9 0 2.913-1.211 4.686-2.227 5.66-2.74 2.627-6.885 2.453-9.113 2.361-.259-.011-.483-.021-.661-.021a3 3 0 1 1 0-6c.245 0 .554.012.911.026 1.143.048 3.816.16 4.709-.696.094-.091.38-.364.38-1.33 0-2.783-1.531-3-2-3h-16c.553 24.245 7.783 39 13 39a3 3 0 0 1 .001 6z"/><circle fill="#B2EDA6" cx="63.551" cy="81.334" r="7"/><path fill="#3C663E" d="M63.551 91.334c-5.514 0-10-4.486-10-10s4.486-10 10-10 10 4.486 10 10-4.486 10-10 10zm0-14c-2.206 0-4 1.794-4 4s1.794 4 4 4 4-1.794 4-4-1.794-4-4-4z"/><path fill="#3C663E" d="M63.551 101.334a3 3 0 0 1-3-3v-10a3 3 0 1 1 6 0v10a3 3 0 0 1-3 3z"/><path fill="#3C663E" d="M68.551 101.334h-10a3 3 0 1 1 0-6h10a3 3 0 1 1 0 6z"/><path opacity=".2" fill="#3C663E" d="M99.551 101.334c-13.234 0-24-10.767-24-24a2 2 0 0 1 4 0c0 11.028 8.972 20 20 20s20-8.972 20-20a2 2 0 0 1 4 0c0 13.233-10.766 24-24 24z"/></svg>