<svg xmlns="http://www.w3.org/2000/svg" viewBox="0 0 128 128"><ellipse fill="#B8CBCD" cx="64.884" cy="114.147" rx="47.667" ry="10.186"/><path fill="#F7BB83" d="M42.464 14.867c-4.626 0-7.448 4.005-7.448 10.208 0 6.64 1.535 8.925 1.535 19.259 0 14.039-8.461 17.818-8.461 32.083 0 10.895 2.302 18.139 6.683 30.55.309 1.601 1.955 2.695 7.691 2.695l.086-.001.087.001c5.737 0 7.383-1.095 7.691-2.695 4.381-12.411 6.683-19.655 6.683-30.55 0-14.264-9.348-18.308-9.348-32.347 0-10.333 1.888-12.096 1.888-18.736 0-6.203-2.287-10.467-6.914-10.467h-.173z"/><path fill="#6E4123" d="M42.637 111.662c-.021 0-.1-.003-.12-.001-4.363 0-8.843-.501-9.674-4.151-4.314-12.224-6.753-19.726-6.753-31.093 0-7.608 2.261-12.399 4.447-17.033 2.063-4.375 4.014-8.506 4.014-15.05 0-5.591-.464-8.785-.873-11.602-.341-2.344-.662-4.558-.662-7.657 0-7.416 3.709-12.208 9.448-12.208h.173c5.582 0 8.914 4.661 8.914 12.467 0 3.141-.399 5.268-.823 7.52-.499 2.656-1.064 5.667-1.064 11.216 0 6.508 2.149 10.691 4.425 15.121 2.42 4.711 4.923 9.582 4.923 17.226 0 11.367-2.44 18.869-6.753 31.093-.833 3.654-5.323 4.152-9.622 4.152zm-.057-4.001h.003l.054 2.001v-2c4.357 0 5.65-.675 5.728-1.074.019-.098.045-.194.078-.287 4.195-11.885 6.568-19.133 6.568-29.885 0-6.677-2.177-10.913-4.481-15.398-2.393-4.658-4.867-9.474-4.867-16.949 0-5.922.603-9.127 1.134-11.955.404-2.153.754-4.013.754-6.781 0-2.546-.479-8.467-4.914-8.467h-.173c-5.056 0-5.448 6.283-5.448 8.208 0 2.81.287 4.79.62 7.082.429 2.952.915 6.297.915 12.177 0 7.44-2.235 12.176-4.397 16.757-2.09 4.43-4.064 8.613-4.064 15.326 0 10.752 2.373 18 6.568 29.885.033.093.06.189.078.287.077.399 1.37 1.074 5.728 1.074l.116-.001z"/><path fill="#FFF" d="M37.551 38.334H47.551V48.334H37.551z"/><path fill="#6E4123" d="M47.551 50.334h-10a2 2 0 0 1-2-2v-10a2 2 0 0 1 2-2h10a2 2 0 0 1 2 2v10a2 2 0 0 1-2 2zm-8-4h6v-6h-6v6z"/><path opacity=".2" fill="#6E4123" d="M47.888 109.866a2 2 0 0 1-1.886-2.666c4.195-11.885 6.568-19.133 6.568-29.885 0-6.677-2.176-10.913-4.479-15.399-2.393-4.657-4.866-9.473-4.866-16.948 0-5.967.776-9.275 1.462-12.193.514-2.189.958-4.079.958-6.802 0-4.756-2.737-8.208-6.51-8.208a2 2 0 0 1 0-4c5.991 0 10.51 5.249 10.51 12.208 0 3.186-.517 5.386-1.063 7.716-.667 2.839-1.356 5.775-1.356 11.279 0 6.508 2.148 10.691 4.424 15.121 2.42 4.71 4.922 9.581 4.922 17.226 0 11.405-2.456 18.918-6.797 31.216a2.003 2.003 0 0 1-1.887 1.335z"/><path fill="#F7BB83" d="M86.068 14.867c-4.626 0-7.448 4.005-7.448 10.208 0 6.64 1.932 8.925 1.932 19.259 0 14.039-8.857 17.818-8.857 32.083 0 10.895 2.302 18.139 6.683 30.55.309 1.601 1.955 2.695 7.691 2.695l.086-.001.087.001c5.737 0 7.383-1.095 7.691-2.695 4.381-12.411 6.683-19.655 6.683-30.55 0-14.264-9.063-18.043-9.063-32.083 0-10.333 2.138-12.619 2.138-19.259 0-6.203-2.821-10.208-7.448-10.208h-.175z"/><path fill="#6E4123" d="M86.24 111.662c-.021 0-.099-.003-.12-.001-4.363 0-8.843-.501-9.674-4.151-4.313-12.224-6.753-19.726-6.753-31.093 0-7.627 2.37-12.425 4.662-17.065 2.157-4.368 4.195-8.493 4.195-15.018 0-5.555-.58-8.729-1.092-11.53-.432-2.362-.84-4.593-.84-7.728 0-7.416 3.709-12.208 9.448-12.208h.173c5.739 0 9.448 4.792 9.448 12.208 0 3.154-.453 5.394-.933 7.766-.564 2.792-1.205 5.958-1.205 11.493 0 6.515 2.084 10.637 4.29 15.001 2.347 4.643 4.773 9.444 4.773 17.082 0 11.367-2.439 18.869-6.753 31.093-.83 3.653-5.32 4.151-9.619 4.151zm-.056-4.001h.003l.054 2.001v-2c4.357 0 5.65-.675 5.728-1.074a1.87 1.87 0 0 1 .078-.287c4.195-11.885 6.568-19.133 6.568-29.885 0-6.684-2.11-10.858-4.344-15.277-2.32-4.59-4.72-9.337-4.72-16.806 0-5.936.683-9.31 1.284-12.286.458-2.264.854-4.219.854-6.973 0-1.925-.393-8.208-5.448-8.208h-.173c-5.056 0-5.448 6.283-5.448 8.208 0 2.773.358 4.736.774 7.01.542 2.968 1.157 6.332 1.157 12.249 0 7.458-2.343 12.202-4.609 16.789-2.185 4.423-4.248 8.6-4.248 15.293 0 10.752 2.373 18 6.568 29.885.033.093.06.189.078.287.077.399 1.37 1.074 5.728 1.074h.116z"/><path fill="#FFF" d="M81.551 38.334H91.551V48.334H81.551z"/><path fill="#6E4123" d="M91.551 50.334h-10a2 2 0 0 1-2-2v-10a2 2 0 0 1 2-2h10a2 2 0 0 1 2 2v10a2 2 0 0 1-2 2zm-8-4h6v-6h-6v6z"/><path opacity=".2" fill="#6E4123" d="M91.491 109.866a2 2 0 0 1-1.886-2.666c4.195-11.885 6.568-19.133 6.568-29.885 0-6.677-2.176-10.913-4.479-15.399-2.393-4.657-4.866-9.473-4.866-16.948 0-5.967.776-9.275 1.462-12.193.514-2.189.958-4.079.958-6.802 0-4.756-2.737-8.208-6.51-8.208a2 2 0 0 1 0-4c5.991 0 10.51 5.249 10.51 12.208 0 3.186-.517 5.386-1.064 7.716-.667 2.839-1.356 5.775-1.356 11.279 0 6.508 2.148 10.691 4.424 15.121 2.42 4.71 4.922 9.581 4.922 17.226 0 11.405-2.456 18.918-6.797 31.216a2 2 0 0 1-1.886 1.335z"/><path fill="#F7BB83" d="M63.924 7.334c-5.148 0-8.289 4.457-8.289 11.361 0 7.389 1.916 9.139 1.916 20.639 0 15.625-9.624 20.625-9.624 36.5 0 12.125 2.561 20.188 7.436 34 .344 1.781 2.176 3 8.561 3l.096-.002.097.002c6.385 0 8.217-1.219 8.561-3 4.875-13.813 7.436-21.875 7.436-34 0-15.875-10.562-20.875-10.562-36.5 0-11.5 2.854-13.25 2.854-20.639 0-6.904-3.141-11.361-8.289-11.361h-.193z"/><path fill="#6E4123" d="M64.116 114.834a6.144 6.144 0 0 1-.192 0c-4.699 0-9.604-.535-10.49-4.458-4.795-13.589-7.507-21.924-7.507-34.542 0-8.41 2.556-13.919 5.026-19.247 2.364-5.098 4.598-9.913 4.598-17.253 0-6.21-.577-9.512-1.086-12.425-.427-2.444-.83-4.753-.83-8.214 0-8.116 4.039-13.361 10.289-13.361h.192c6.25 0 10.289 5.245 10.289 13.361 0 3.543-.61 5.89-1.257 8.373-.785 3.018-1.598 6.139-1.598 12.266 0 7.302 2.444 12.104 5.032 17.187 2.719 5.341 5.53 10.864 5.53 19.313 0 12.617-2.712 20.953-7.507 34.542-.884 3.924-5.789 4.458-10.489 4.458zm-.05-4.001h.016l.035 2.001v-2c4.668 0 6.468-.712 6.597-1.379.019-.098.045-.193.078-.287 4.677-13.251 7.322-21.332 7.322-33.335 0-7.489-2.475-12.351-5.095-17.498-2.689-5.281-5.468-10.741-5.468-19.002 0-6.639.917-10.164 1.727-13.273.605-2.326 1.128-4.334 1.128-7.366 0-2.196-.453-9.361-6.289-9.361h-.192c-5.836 0-6.289 7.165-6.289 9.361 0 3.114.357 5.158.77 7.525.537 3.073 1.146 6.557 1.146 13.114 0 8.223-2.526 13.669-4.969 18.936-2.395 5.161-4.655 10.036-4.655 17.564 0 12.003 2.645 20.084 7.322 33.335.033.093.06.189.078.287.129.666 1.929 1.379 6.597 1.379l.141-.001z"/><path fill="#FFF" d="M58.551 34.334H69.551V45.334H58.551z"/><path fill="#6E4123" d="M69.551 47.334h-11a2 2 0 0 1-2-2v-11a2 2 0 0 1 2-2h11a2 2 0 0 1 2 2v11a2 2 0 0 1-2 2zm-9-4h7v-7h-7v7z"/><path opacity=".2" fill="#6E4123" d="M69.961 112.834a2 2 0 0 1-1.886-2.666c4.677-13.251 7.322-21.332 7.322-33.335 0-7.485-2.435-12.224-5.011-17.24-2.65-5.159-5.392-10.495-5.392-18.76 0-6.615.861-10.283 1.622-13.518.575-2.45 1.072-4.565 1.072-7.621 0-5.424-3.143-9.361-7.472-9.361a2 2 0 0 1 0-4c6.54 0 11.472 5.744 11.472 13.361 0 3.52-.572 5.956-1.179 8.536-.71 3.024-1.516 6.452-1.516 12.603 0 7.298 2.404 11.978 4.949 16.932 2.681 5.219 5.453 10.615 5.453 19.068 0 12.656-2.729 21.002-7.551 34.666a1.994 1.994 0 0 1-1.883 1.335z"/><circle fill="#F6E89A" cx="64.02" cy="95.301" r="24.469"/><path fill="#6E4123" d="M64.02 121.77c-14.595 0-26.469-11.874-26.469-26.469S49.425 68.832 64.02 68.832c14.596 0 26.47 11.874 26.47 26.469S78.615 121.77 64.02 121.77zm0-48.938c-12.39 0-22.469 10.08-22.469 22.469 0 12.39 10.079 22.469 22.469 22.469s22.47-10.08 22.47-22.469c-.001-12.389-10.081-22.469-22.47-22.469z"/><path fill="#FFF" d="M40.451 103.519a2 2 0 0 1-2-2c0-17.528 14.26-31.789 31.787-31.789a2 2 0 0 1 0 4c-15.322 0-27.787 12.466-27.787 27.789a2 2 0 0 1-2 2z"/><path opacity=".2" fill="#6E4123" d="M57.751 120.818a2 2 0 0 1 0-4c15.322 0 27.787-12.466 27.787-27.789a2 2 0 0 1 4 0c0 17.529-14.26 31.789-31.787 31.789z"/><circle fill="#6E4123" cx="62.129" cy="89.864" r="3.323"/><circle fill="#6E4123" cx="72.78" cy="86.54" r="3.323"/><circle fill="#6E4123" cx="71.572" cy="97.193" r="3.323"/><path fill="#6E4123" d="M64.02 121.77c-14.595 0-26.469-11.874-26.469-26.469S49.425 68.832 64.02 68.832c14.596 0 26.47 11.874 26.47 26.469S78.615 121.77 64.02 121.77zm0-48.938c-12.39 0-22.469 10.08-22.469 22.469 0 12.39 10.079 22.469 22.469 22.469s22.47-10.08 22.47-22.469c-.001-12.389-10.081-22.469-22.47-22.469z"/><path fill="#6E4123" d="M63.956 123.77c-8.622 0-16.852-4.125-22.319-11.112-3.301-.027-8.76-.387-9.819-4.87-4.338-12.296-6.791-19.858-6.791-31.372 0-7.837 2.327-12.733 4.578-17.467 2.029-4.268 3.946-8.3 3.946-14.615 0-5.51-.477-8.661-.898-11.441-.36-2.385-.701-4.638-.701-7.818 0-7.9 4.199-13.208 10.448-13.208h.173c4.823 0 9.978 3.538 9.978 13.467 0 3.243-.423 5.419-.87 7.723-.531 2.736-1.081 5.566-1.081 11.013 0 3.267.34 5.875.934 8.155 1.713-3.725 3.018-7.679 3.018-12.891 0-6.121-.568-9.342-1.119-12.458-.453-2.566-.881-4.991-.881-8.542 0-8.505 4.439-14 11.31-14h.192c6.857 0 11.289 5.637 11.289 14.361 0 3.664-.611 6.066-1.259 8.609-.753 2.96-1.532 6.023-1.532 12.03 0 5.616 1.854 9.666 4.034 13.694.635-2.355.966-5.053.966-8.694 0-5.455-.565-8.443-1.109-11.333-.456-2.413-.886-4.691-.886-7.926 0-7.9 4.199-13.208 10.448-13.208h.173c6.249 0 10.448 5.308 10.448 13.208 0 3.302-.53 5.558-1.091 7.945-.654 2.783-1.331 5.661-1.331 11.049 0 6.266 2.096 10.345 4.314 14.664 2.359 4.592 5.033 9.797 5.033 17.683 0 11.514-2.453 19.076-6.791 31.372-1.052 4.45-6.439 4.837-9.711 4.871-4.848 6.802-13.699 11.111-23.093 11.111zm-19.312-17.209l.941 1.349c4.249 6.082 11.288 9.86 18.371 9.86 6.362 0 14.454-2.824 18.561-9.111l.658-.784.3-.803.35-.59 1.836.119c.177.011.343.032.499.06 3.218-.001 4.438-.377 4.828-.55l.051-.143c4.159-11.782 6.512-18.963 6.512-29.552 0-6.435-2.123-10.567-4.37-14.941-2.447-4.763-4.978-9.688-4.978-17.406 0-6.083.791-9.451 1.49-12.422.521-2.216.932-3.966.932-6.572 0-1.691-.32-7.208-4.448-7.208h-.173c-4.128 0-4.448 5.517-4.448 7.208 0 2.673.362 4.592.781 6.813.569 3.014 1.214 6.43 1.214 12.446 0 7.941-1.436 12.291-3.914 17.12l-2.733 5.325-2.631-5.377c-.606-1.241-1.283-2.464-1.999-3.76-2.683-4.851-5.723-10.35-5.723-18.308 0-6.759.913-10.345 1.718-13.509.6-2.356 1.073-4.218 1.073-7.13 0-1.961-.382-8.361-5.289-8.361h-.192c-4.62 0-5.31 5.012-5.31 8 0 3.025.366 5.098.79 7.498.567 3.213 1.21 6.855 1.21 13.501 0 8.577-3.022 14.485-5.689 19.697-.323.632-.645 1.262-.961 1.893l-2.647 5.302-2.705-5.272C45.744 55.487 44.6 50.595 44.6 44.07c0-6.024.633-9.283 1.191-12.157.425-2.186.76-3.913.76-6.579 0-2.245-.388-7.467-3.978-7.467H42.4c-4.128 0-4.448 5.517-4.448 7.208 0 2.729.294 4.671.634 6.92.452 2.989.965 6.377.965 12.338 0 7.669-2.302 12.51-4.527 17.191-2.056 4.324-3.997 8.408-3.997 14.891 0 10.588 2.353 17.77 6.512 29.552l.051.143c.39.173 1.608.551 4.812.551l.185-.001c.164-.02.305-.025.414-.03l1.643-.069zm-.92 5.971z"/></svg>