<svg xmlns="http://www.w3.org/2000/svg" viewBox="0 0 128 128"><path fill="#FFF" d="M83.551 21.834h-53c-9.941 0-18 8.059-18 18v4c0 9.941 8.059 18 18 18h16.915c1.752-4.114 5.831-7 10.585-7 4.754 0 8.833 2.886 10.585 7h14.915c9.941 0 18-8.059 18-18v-4c0-9.941-8.059-18-18-18z"/><path fill="#324654" d="M83.551 64.834H68.636a3 3 0 0 1-2.76-1.824 8.493 8.493 0 0 0-7.825-5.176 8.493 8.493 0 0 0-7.825 5.176 3 3 0 0 1-2.76 1.824H30.551c-11.579 0-21-9.421-21-21v-4c0-11.58 9.421-21 21-21h53c11.579 0 21 9.42 21 21v4c0 11.579-9.421 21-21 21zm-13.088-6h13.088c8.271 0 15-6.729 15-15v-4c0-8.271-6.729-15-15-15h-53c-8.272 0-15 6.729-15 15v4c0 8.271 6.728 15 15 15h15.088a14.48 14.48 0 0 1 12.412-7 14.48 14.48 0 0 1 12.412 7z"/><path fill="#B8CBCD" d="M111.886 109.021c0 5.625-21.01 9.813-47.335 9.813-26.326 0-48-4.188-48-9.813 0-5.626 21.341-10.188 47.667-10.188 26.325.001 47.668 4.562 47.668 10.188z"/><path fill="#324654" d="M87.051 110.834c-17.369 0-31.5-14.131-31.5-31.5a3 3 0 1 1 6 0c0 14.061 11.439 25.5 25.5 25.5 14.06 0 25.5-11.439 25.5-25.5v-71.5a3 3 0 1 1 6 0v71.5c0 17.369-14.131 31.5-31.5 31.5z"/><path fill="#B9E3ED" d="M42.551 73.834c0 3.866 3.134 10 7 10h18c3.866 0 7-6.134 7-10h-32z"/><path fill="#324654" d="M67.551 85.834h-18c-5.221 0-9-7.168-9-12a2 2 0 0 1 2-2h32a2 2 0 0 1 2 2c0 4.832-3.779 12-9 12zm-22.715-10c.751 2.869 2.85 6 4.715 6h18c1.864 0 3.964-3.131 4.715-6h-27.43z"/><path transform="rotate(45.001 38.302 40.834)" fill="#B9E3ED" d="M35.301 15.378H41.300000000000004V66.28999999999999H35.301z"/><path transform="rotate(45.001 49.927 41.959)" fill="#B9E3ED" d="M47.926 15.619H51.926V68.298H47.926z"/><path fill="#324654" d="M83.551 64.834H68.636a3 3 0 0 1-2.76-1.824 8.493 8.493 0 0 0-7.825-5.176 8.493 8.493 0 0 0-7.825 5.176 3 3 0 0 1-2.76 1.824H30.551c-11.579 0-21-9.421-21-21v-4c0-11.58 9.421-21 21-21h53c11.579 0 21 9.42 21 21v4c0 11.579-9.421 21-21 21zm-13.088-6h13.088c8.271 0 15-6.729 15-15v-4c0-8.271-6.729-15-15-15h-53c-8.272 0-15 6.729-15 15v4c0 8.271 6.728 15 15 15h15.088a14.48 14.48 0 0 1 12.412-7 14.48 14.48 0 0 1 12.412 7z"/><path opacity=".2" fill="#324654" d="M101.551 45.834a3 3 0 0 1-3-3c0-8.271-6.729-15-15-15h-53c-8.272 0-15 6.729-15 15a3 3 0 1 1-6 0c0-11.58 9.421-21 21-21h53c11.579 0 21 9.42 21 21a3 3 0 0 1-3 3z"/></svg>