<svg xmlns="http://www.w3.org/2000/svg" viewBox="0 0 128 128"><path fill="#F7BB83" d="M107.842 11.025L73.559 45.307l1.566 1.566c.349 1.099 1.043 2.244 2.046 3.248 1.003 1.002 2.149 1.697 3.247 2.045l1.352 1.353 34.301-34.3c1.493-1.494 1.016-4.36-1.31-6.687-2.328-2.327-5.426-3.001-6.919-1.507z"/><path fill="#6E4123" d="M81.77 55.519c-.531 0-1.04-.211-1.415-.586l-1.03-1.031c-1.278-.491-2.502-1.301-3.567-2.366-1.065-1.066-1.875-2.29-2.367-3.569l-1.245-1.245a2.001 2.001 0 0 1 0-2.829l34.283-34.282c.902-.903 2.126-1.38 3.539-1.38 2.079 0 4.399 1.08 6.207 2.888 3.085 3.085 3.648 7.175 1.312 9.514l-34.302 34.3a2.005 2.005 0 0 1-1.415.586zm-5.382-10.212l.151.151c.227.227.396.504.492.81.265.835.817 1.701 1.555 2.439.736.736 1.603 1.288 2.436 1.552.277.088.533.235.747.432l32.888-32.886c.602-.603.212-2.335-1.311-3.858-1.267-1.267-2.611-1.716-3.379-1.716-.23 0-.538.036-.711.208L76.388 45.307z"/><path fill="#F7BB83" d="M84.594 9.228l-6.507 6.507 5.831 5.833c1.534 3.856 4.267 7.983 8.003 11.72 3.737 3.737 7.863 6.469 11.721 8.002l6.438 6.437 6.507-6.507c4.621-4.621.734-15.997-7.933-24.664-8.668-8.667-19.441-11.949-24.06-7.328z"/><path fill="#6E4123" d="M110.079 49.728a1.995 1.995 0 0 1-1.414-.585l-6.151-6.15c-4.158-1.725-8.301-4.583-12.007-8.289-3.705-3.705-6.563-7.847-8.289-12.006l-5.545-5.547a2 2 0 0 1 0-2.828l6.507-6.507c1.752-1.753 4.235-2.68 7.179-2.68 5.984 0 13.536 3.835 19.709 10.008 9.767 9.767 13.325 22.101 7.933 27.493l-6.507 6.507a2 2 0 0 1-1.415.584zM80.915 15.736l4.417 4.419c.192.192.344.422.444.675 1.485 3.733 4.17 7.655 7.559 11.045 3.391 3.39 7.313 6.074 11.046 7.558.253.101.482.251.675.444l5.023 5.023 5.093-5.093c3.281-3.281.586-13.317-7.933-21.836-5.368-5.368-11.994-8.836-16.881-8.836-1.886 0-3.35.507-4.351 1.508l-5.092 5.093z"/><ellipse transform="rotate(-45.001 94.105 31.71)" fill="#F7BB83" cx="94.107" cy="31.708" rx="11.831" ry="22.622"/><path fill="#6E4123" d="M104.417 51.764c-6.055 0-13.753-3.938-20.091-10.276-4.497-4.497-7.819-9.673-9.355-14.577-1.675-5.346-1.062-9.826 1.726-12.613 1.732-1.731 4.186-2.646 7.099-2.646 6.055 0 13.754 3.938 20.092 10.275 4.497 4.497 7.819 9.674 9.355 14.577 1.675 5.347 1.063 9.826-1.726 12.613-1.731 1.732-4.186 2.647-7.1 2.647zM83.795 15.652c-1.855 0-3.292.496-4.271 1.474-1.658 1.658-1.927 4.789-.736 8.589 1.346 4.299 4.317 8.896 8.366 12.944 5.53 5.53 12.307 9.104 17.263 9.104 1.856 0 3.293-.496 4.271-1.474 1.658-1.658 1.927-4.789.736-8.589-1.347-4.298-4.317-8.896-8.366-12.945-5.53-5.529-12.306-9.103-17.263-9.103z"/><path fill="#F7BB83" d="M69.055 13.283l-8.842 8.843 7.927 7.927c2.083 5.242 5.797 10.85 10.874 15.927 5.077 5.078 10.686 8.791 15.928 10.875l8.747 8.748 8.843-8.843c6.279-6.281 1-21.739-10.778-33.518-11.78-11.78-26.419-16.24-32.699-9.959z"/><path fill="#6E4123" d="M103.689 67.602a2 2 0 0 1-1.414-.586l-8.459-8.459c-5.609-2.301-11.208-6.154-16.216-11.163-5.01-5.01-8.862-10.608-11.162-16.215l-7.639-7.639a2 2 0 0 1 0-2.828l8.842-8.843c2.246-2.246 5.445-3.433 9.25-3.433 7.948 0 18.017 5.131 26.276 13.391 12.991 12.991 17.826 29.296 10.778 36.346l-8.843 8.843a1.997 1.997 0 0 1-1.413.586zM63.041 22.126l6.513 6.513c.192.192.344.422.444.675 2.051 5.16 5.755 10.576 10.43 15.252 4.674 4.674 10.091 8.379 15.252 10.43.254.101.483.251.676.444l7.333 7.333 7.429-7.428c5.302-5.304.266-19.645-10.778-30.69-7.537-7.537-16.521-12.219-23.448-12.219-2.761 0-4.922.761-6.422 2.261l-7.429 7.429z"/><path fill="#B8CBCD" d="M111.886 111.104c0 5.626-21.343 10.187-47.668 10.187-26.326 0-47.667-4.561-47.667-10.187 0-5.626 21.674-9.771 48-9.771 26.325.001 47.335 4.145 47.335 9.771z"/><ellipse transform="rotate(-45.001 82.117 43.698)" fill="#F7BB83" cx="82.117" cy="43.697" rx="16.079" ry="30.743"/><path fill="#6E4123" d="M96.13 70.234c-8.045 0-18.313-5.27-26.797-13.753C56.35 43.498 51.796 27.713 58.964 20.545c2.215-2.214 5.375-3.385 9.141-3.385 8.045 0 18.313 5.27 26.796 13.753 6.031 6.031 10.483 12.962 12.536 19.518 2.192 6.998 1.423 12.83-2.167 16.418-2.215 2.215-5.375 3.385-9.14 3.385zM68.105 21.16c-2.72 0-4.843.745-6.312 2.213-5.396 5.396-.647 19.262 10.369 30.279 7.644 7.643 17.052 12.582 23.969 12.582 2.719 0 4.843-.745 6.312-2.213 2.485-2.485 2.903-6.887 1.179-12.395-1.864-5.951-5.965-12.302-11.548-17.885-7.645-7.642-17.052-12.581-23.969-12.581z"/><path fill="#F7BB83" d="M77.832 41.034L43.55 75.316l1.566 1.566c.349 1.099 1.043 2.245 2.046 3.248 1.002 1.002 2.149 1.697 3.247 2.045l1.352 1.352 34.3-34.3c1.494-1.494 1.016-4.36-1.31-6.686-2.327-2.327-5.425-3.001-6.919-1.507z"/><path fill="#6E4123" d="M51.761 85.527a2 2 0 0 1-1.414-.586l-1.032-1.031c-1.279-.492-2.504-1.303-3.567-2.366-1.065-1.064-1.876-2.289-2.367-3.569l-1.245-1.245a2 2 0 0 1 0-2.828L76.418 39.62c.903-.903 2.127-1.38 3.539-1.38 2.079 0 4.399 1.08 6.208 2.888 1.396 1.396 2.333 3.065 2.639 4.701.35 1.865-.135 3.62-1.329 4.813l-34.3 34.299a2 2 0 0 1-1.414.586zm-5.382-10.211l.151.152a2 2 0 0 1 .492.809c.265.835.817 1.702 1.554 2.439.737.736 1.603 1.288 2.438 1.553.277.088.532.235.746.431l32.887-32.887c.337-.337.286-.927.226-1.249-.159-.851-.705-1.778-1.535-2.609-1.267-1.267-2.612-1.716-3.38-1.716-.229 0-.538.036-.711.208L46.379 75.316z"/><path fill="#F7BB83" d="M23.112 59.225l-8.842 8.843 7.927 7.927c2.084 5.242 5.797 10.85 10.875 15.928 5.078 5.078 10.686 8.79 15.928 10.874l8.747 8.747 8.843-8.843c6.279-6.28 1.001-21.738-10.779-33.518-11.781-11.778-26.418-16.238-32.699-9.958z"/><path fill="#6E4123" d="M57.746 113.545a2 2 0 0 1-1.414-.586l-8.459-8.459c-5.609-2.302-11.208-6.155-16.215-11.162-5.009-5.009-8.862-10.608-11.163-16.216l-7.639-7.639a2 2 0 0 1 0-2.828l8.842-8.843c2.246-2.246 5.444-3.432 9.25-3.432 7.948 0 18.016 5.131 26.276 13.391 12.992 12.991 17.828 29.296 10.779 36.346l-8.843 8.843a2.004 2.004 0 0 1-1.414.585zM17.098 68.068l6.513 6.513c.193.192.344.422.444.675 2.052 5.161 5.756 10.578 10.431 15.253 4.673 4.673 10.09 8.377 15.252 10.43.253.101.483.252.675.444l7.333 7.332 7.429-7.429c5.303-5.304.266-19.644-10.779-30.689-7.537-7.537-16.522-12.219-23.448-12.219-2.761 0-4.922.761-6.422 2.261l-7.428 7.429z"/><ellipse transform="rotate(-45.001 36.641 89.178)" fill="#F7BB83" cx="36.64" cy="89.175" rx="16.079" ry="30.742"/><path fill="#6E4123" d="M50.652 115.712c-8.045 0-18.313-5.271-26.795-13.754-6.031-6.03-10.483-12.962-12.537-19.518-2.192-6.999-1.422-12.829 2.167-16.418 2.214-2.214 5.375-3.385 9.139-3.385 8.045 0 18.313 5.27 26.796 13.753 6.031 6.031 10.483 12.962 12.537 19.518 2.191 6.999 1.422 12.829-2.168 16.419-2.214 2.214-5.374 3.385-9.139 3.385zM22.627 66.638c-2.719 0-4.842.745-6.311 2.213-2.485 2.485-2.904 6.887-1.179 12.395 1.864 5.95 5.965 12.302 11.548 17.885 7.643 7.643 17.05 12.582 23.967 12.582 2.719 0 4.843-.745 6.312-2.213 2.485-2.485 2.903-6.887 1.178-12.395-1.864-5.951-5.965-12.302-11.547-17.885-7.644-7.644-17.051-12.582-23.968-12.582z"/><path fill="#F7BB83" d="M18.129 75.694L11.621 82.2l5.833 5.833c1.534 3.858 4.266 7.984 8.002 11.72 3.736 3.736 7.863 6.469 11.721 8.002l6.436 6.437 6.508-6.506c4.621-4.621.735-15.996-7.933-24.664-8.666-8.668-19.439-11.949-24.059-7.328z"/><path fill="#6E4123" d="M43.613 116.192a1.99 1.99 0 0 1-1.414-.586l-6.15-6.15c-4.158-1.724-8.302-4.583-12.007-8.289-3.706-3.705-6.564-7.848-8.289-12.006l-5.546-5.547a2 2 0 0 1 0-2.829l6.508-6.506c1.753-1.753 4.235-2.68 7.179-2.68 5.984 0 13.536 3.835 19.709 10.008 9.767 9.766 13.325 22.099 7.933 27.492l-6.508 6.507a1.996 1.996 0 0 1-1.415.586zM14.45 82.2l4.418 4.419c.193.192.344.422.444.675 1.484 3.732 4.168 7.655 7.558 11.045 3.39 3.39 7.313 6.074 11.045 7.558.253.101.483.251.675.444l5.022 5.022 5.094-5.093c3.281-3.281.586-13.317-7.933-21.835-5.368-5.368-11.994-8.837-16.88-8.837-1.886 0-3.35.507-4.351 1.508L14.45 82.2z"/><ellipse transform="rotate(-45.001 27.64 98.173)" fill="#F7BB83" cx="27.642" cy="98.173" rx="11.831" ry="22.622"/><path fill="#6E4123" d="M37.953 118.228c-6.055 0-13.753-3.938-20.091-10.276-4.497-4.497-7.82-9.673-9.355-14.577-1.675-5.347-1.062-9.826 1.726-12.613 1.731-1.731 4.185-2.646 7.099-2.646 6.055 0 13.753 3.938 20.091 10.276 4.498 4.497 7.82 9.674 9.356 14.577 1.675 5.347 1.062 9.826-1.726 12.613-1.732 1.731-4.187 2.646-7.1 2.646zM17.331 82.117c-1.856 0-3.293.496-4.271 1.474-1.658 1.658-1.927 4.789-.736 8.589 1.346 4.298 4.317 8.896 8.366 12.944 5.531 5.53 12.307 9.104 17.263 9.104 1.856 0 3.292-.496 4.271-1.474 1.659-1.659 1.927-4.789.737-8.589-1.347-4.298-4.318-8.896-8.367-12.945-5.531-5.53-12.307-9.103-17.263-9.103z"/><path fill="#F7BB83" d="M22.346 96.52l-6.795 6.813 1.209 1.904c.347 1.099 1.042 2.246 2.045 3.248 1.002 1.003 2.148 1.697 3.248 2.045l1.352 1.352 7.17-7.17c1.493-1.494 1.015-4.36-1.311-6.686-2.327-2.325-5.423-3-6.918-1.506z"/><path fill="#6E4123" d="M23.405 113.884a1.99 1.99 0 0 1-1.414-.586l-1.031-1.031c-1.279-.491-2.504-1.301-3.569-2.366-1.128-1.128-1.972-2.436-2.451-3.796l-1.078-1.699a2 2 0 0 1 .273-2.484l6.795-6.813c.905-.905 2.129-1.383 3.542-1.383 2.078 0 4.398 1.08 6.207 2.888 3.085 3.085 3.649 7.175 1.311 9.514l-7.17 7.17a2 2 0 0 1-1.415.586zm-5.308-10.271l.351.553c.093.146.167.305.219.47.263.833.814 1.698 1.552 2.436.737.737 1.603 1.289 2.437 1.553.278.088.533.235.747.432l5.757-5.757c.602-.602.212-2.335-1.311-3.858-1.267-1.267-2.612-1.716-3.378-1.716-.229 0-.539.036-.712.209l-5.662 5.678z"/><ellipse transform="rotate(-45.001 21.032 107.494)" fill="#F7BB83" cx="21.032" cy="107.492" rx="3.573" ry="5.806"/><path fill="#6E4123" d="M23.209 114.314c-2.027 0-4.314-1.077-6.118-2.881-1.354-1.354-2.312-2.985-2.695-4.593-.458-1.925-.052-3.699 1.116-4.867.852-.852 2.008-1.302 3.344-1.302 2.026 0 4.313 1.077 6.117 2.881 1.354 1.354 2.312 2.986 2.695 4.594.458 1.925.052 3.7-1.116 4.867-.852.851-2.008 1.301-3.343 1.301zm-4.353-9.644c-.241 0-.434.049-.516.131-.124.123-.193.524-.053 1.111.21.884.806 1.865 1.632 2.691 1.678 1.679 3.475 1.907 3.804 1.58.123-.123.193-.524.053-1.111-.211-.884-.806-1.866-1.632-2.692-1.261-1.262-2.559-1.71-3.288-1.71z"/><path fill="#6E4123" d="M90.359 7.134c4.323 0 9.81 2.294 14.952 6.422l2.531-2.531c.538-.538 1.282-.794 2.125-.794 1.498 0 3.303.812 4.793 2.302 2.326 2.326 2.804 5.192 1.31 6.687l-2.813 2.814c5.271 7.491 7.021 15.496 3.329 19.188l-2.251 2.251c1.524 5.539 1.093 10.39-1.804 13.287l-8.671 8.671-.005.005-.005.005-.162.162-.008-.008c-1.888 1.786-4.501 2.634-7.555 2.634-5.847 0-13.308-3.11-20.368-8.699l-15.13 15.131c8.276 10.712 11.303 22.698 5.961 28.041l-8.21 8.211v.001l-.631.631-.035-.035c-1.838 1.489-4.264 2.199-7.058 2.199-1.775 0-3.699-.286-5.715-.842l-1.295 1.295-.004.005a.022.022 0 0 0-.005.004l-.019.02-.002-.002c-1.393 1.378-3.35 2.03-5.645 2.03-3.685 0-8.242-1.682-12.739-4.746-.034.039-.053.087-.089.124-.485.485-1.159.716-1.929.716-1.445 0-3.224-.816-4.703-2.295-1.685-1.684-2.503-3.752-2.244-5.278l-.052-1.198-.205-.681C9.686 94.885 7.66 86.21 11.624 82.203l-.003-.003 1.325-1.325c-1.429-5.189-1.077-9.767 1.358-12.772l-.035-.035 8.842-8.843c1.93-1.93 4.65-2.846 7.833-2.845 6.259 0 14.312 3.539 21.682 9.859L67.42 51.446c-9.391-11.113-12.632-23.573-7.2-29.313l-.007-.007.146-.146.019-.021.021-.019 8.656-8.657c1.929-1.929 4.647-2.843 7.829-2.843 1.766 0 3.675.281 5.671.827l2.039-2.039c1.42-1.42 3.421-2.094 5.765-2.094m0-4c-3.486 0-6.458 1.13-8.594 3.267l-.472.472c-1.524-.287-3-.432-4.409-.432-4.346 0-8.032 1.388-10.658 4.014l-8.61 8.611-.042.041-.095.097-.095.095a3.92 3.92 0 0 0-.3.336c-6.127 6.831-4.044 19.403 4.985 31.507l-9.733 9.733c-7.212-5.431-14.859-8.493-21.391-8.493-4.347 0-8.033 1.389-10.662 4.017l-8.842 8.843a3.98 3.98 0 0 0-.703.948c-2.444 3.42-3.199 8.105-2.186 13.44-5.054 5.438-3.574 15.313 3.699 24.918l.001.027c-.277 2.772.979 5.829 3.427 8.275 2.202 2.202 4.947 3.466 7.531 3.466.627 0 1.236-.077 1.814-.226 4.494 2.678 9.022 4.133 12.943 4.133 3.298 0 6.131-1.021 8.218-2.957 1.548.296 3.043.445 4.468.445 3.485 0 6.578-.914 8.998-2.65.332-.178.644-.406.924-.685l.631-.631.016-.016 8.195-8.196c6.19-6.19 4.659-18.406-3.547-30.455l10.276-10.277c6.841 4.753 13.98 7.43 19.979 7.43 4.021 0 7.483-1.203 10.037-3.483.121-.096.238-.199.35-.311l.159-.159.05-.05 8.638-8.638c3.408-3.408 4.577-8.627 3.376-14.859l.679-.679c4.575-4.576 4.102-12.79-1.043-21.475l.528-.528c3.144-3.146 2.58-8.452-1.311-12.343-2.207-2.207-4.985-3.473-7.621-3.473-1.927 0-3.686.698-4.954 1.966l-.104.105c-4.949-3.315-10.115-5.17-14.55-5.17z"/></svg>