<svg xmlns="http://www.w3.org/2000/svg" viewBox="0 0 128 128"><path fill="#FFF" d="M105.635 91.501s6.214 10.787-2.584 10.787h-13c-2.883 0-4.542-3.84-4.542-7.919-3.488-.455-6.977-1-6.977-1s1.647 8.919-5.481 8.919h-33c-4.246 0-7.173-2.117-7.932-7.577-.759-5.46-6.826-2.275-6.826-2.275s2.251 9.853-6.242 9.853c-13.856 0-11.697 5.468-12 8.046h104.267c5.447 0 8.799-1.812 10.149-4.541-2.265-1.203-4.409-.769-4.409-.769l2.274-3.488-5.157-.606s-.52-8.332-3.033-10.617c-2.167-1.972-4.902-2.301-5.507 1.187z"/><path fill="#324654" d="M111.319 112.334H7.051a2.001 2.001 0 0 1-1.987-2.234 8.78 8.78 0 0 0 .02-.909c-.012-1.521-.03-3.821 1.896-5.762 2.127-2.144 5.962-3.142 12.07-3.142 1.638 0 2.78-.433 3.49-1.324 1.391-1.744 1.036-5.06.802-6.083a2 2 0 0 1 1.02-2.216c.225-.118 2.258-1.152 4.431-1.152 2.893 0 4.877 1.84 5.306 4.923.57 4.103 2.35 5.853 5.951 5.853h33c1.208 0 2.07-.33 2.635-1.009 1.272-1.528 1.056-4.594.88-5.547a2 2 0 0 1 2.275-2.339c.035.005 3.505.546 6.927.992a2 2 0 0 1 1.741 1.983c0 3.153 1.187 5.919 2.542 5.919h13c.908 0 2.073-.143 2.467-.821.814-1.405-.483-4.99-1.617-6.97a2.013 2.013 0 0 1-.236-1.338c.694-4.001 3.535-4.313 4.39-4.313 1.45 0 3.025.705 4.435 1.986 2.344 2.131 3.225 7.424 3.538 10.301l3.54.416a2.002 2.002 0 0 1 1.442 3.079l-.436.666a9.192 9.192 0 0 1 1.833.731 2.002 2.002 0 0 1 .855 2.653c-1.045 2.115-3.986 5.657-11.942 5.657zm-102.227-4h102.226c2.686 0 4.853-.476 6.366-1.373a2.57 2.57 0 0 0-.251.028 2.012 2.012 0 0 1-2.03-.864 1.996 1.996 0 0 1-.02-2.193l.513-.786-1.953-.229a2 2 0 0 1-1.763-1.861c-.229-3.621-1.205-8.191-2.383-9.263-.718-.652-1.394-.945-1.743-.945-.075.023-.186.135-.287.389 1.043 2.019 3.146 6.89 1.215 10.231-.744 1.287-2.377 2.821-5.931 2.821h-13c-3.451 0-5.971-3.275-6.457-8.158a329.028 329.028 0 0 1-2.892-.411c-.029 1.854-.414 4.283-1.942 6.119-.93 1.118-2.675 2.45-5.709 2.45h-33c-3.932 0-8.844-1.613-9.913-9.302-.205-1.474-.784-1.474-1.344-1.474-.422 0-.877.088-1.289.204.186 2.004.111 5.298-1.836 7.741-1.029 1.291-3.013 2.83-6.618 2.83-6.023 0-8.344 1.065-9.231 1.959-.545.55-.694 1.196-.728 2.087z"/><path fill="#FFF" d="M45.705 22.488s-20.932 3.246-21.69-1.911c-.758-5.156 2.846-4.891 7.281-6.4 5.46-1.859 22.6-8.767 23.965-1.79 1.216 6.219-4.55 10.799-9.556 10.101z"/><path fill="#324654" d="M33.317 25.497c-4.55 0-10.67-.479-11.281-4.628-.873-5.931 3.117-7.025 6.322-7.904a39.089 39.089 0 0 0 2.292-.68c.522-.178 1.152-.402 1.865-.657 4.507-1.606 12.051-4.293 17.438-4.293 5.53 0 6.928 2.925 7.269 4.668.603 3.085-.159 6.114-2.147 8.528-2.296 2.789-5.915 4.338-9.343 3.976-1.329.195-7.064.989-12.415.99zm-7.323-5.211c.017 0 1.017 1.211 7.323 1.211 5.657 0 12.019-.975 12.082-.985.193-.03.39-.031.582-.004 2.106.297 4.532-.727 6.008-2.52.859-1.043 1.783-2.795 1.309-5.217-.077-.393-.281-1.437-3.343-1.437-4.697 0-11.833 2.542-16.096 4.061-.733.262-1.382.492-1.918.675-.897.306-1.761.543-2.524.752-3.406.934-3.769 1.115-3.423 3.464-.001 0-.001 0 0 0z"/><path fill="#B9E3ED" d="M46.767 69.092L44.036 85.473 37.051 92.334 36.756 70.911"/><path fill="#324654" d="M37.05 94.334a1.999 1.999 0 0 1-1.999-1.972l-.295-21.423a2 2 0 0 1 1.973-2.027 2.008 2.008 0 0 1 2.027 1.973l.23 16.746 3.184-3.128 2.624-15.739a2 2 0 1 1 3.945.658l-2.73 16.381a2 2 0 0 1-.571 1.098l-6.985 6.861a2.004 2.004 0 0 1-1.403.572z"/><path fill="#B9E3ED" d="M37.051 92.334L21.051 92.334 18.555 71.821 39.486 71.821z"/><path fill="#324654" d="M37.051 94.334h-16a2 2 0 0 1-1.985-1.759L16.57 72.062a1.997 1.997 0 0 1 1.985-2.241h20.931a1.997 1.997 0 0 1 1.986 2.235l-2.435 20.513a2 2 0 0 1-1.986 1.765zm-14.229-4h12.452l1.96-16.513H20.813l2.009 16.513z"/><path fill="#B9E3ED" d="M24.015 21.768s1.82 6.371.91 13.651c-.91 7.28-8.874 15.904-8.874 25.915s-.227 16.858 12.515 16.858c28.212 0 33.672 14.561 57.334 14.561 18.201 0 27.302-4.55 27.302-10.011 0-5.46.91-15.243-18.504-18.809-18.102-3.323-31.55-13.953-38.83-50.356-11.832 0-18.202 8.191-31.853 8.191z"/><path fill="#324654" d="M85.9 94.753c-11.753 0-19.389-3.552-26.772-6.987-8.003-3.724-16.278-7.573-30.562-7.573-6.602 0-10.641-1.769-12.71-5.565-1.808-3.317-1.806-7.701-1.804-12.778v-.515c0-6.23 2.794-11.847 5.259-16.803 1.69-3.397 3.287-6.607 3.631-9.36.845-6.759-.833-12.796-.85-12.856a2 2 0 0 1 1.924-2.548c6.659 0 11.576-2.111 16.331-4.153 4.625-1.985 9.406-4.038 15.521-4.038a2 2 0 0 1 1.961 1.608c7.228 36.14 20.11 45.638 37.23 48.782 20.256 3.72 20.185 14.366 20.146 20.085l-.003.69c-.001 7.408-11.228 12.011-29.302 12.011zm-59.411-71.07c.487 2.637 1.031 7.1.42 11.984-.429 3.429-2.172 6.935-4.018 10.646-2.38 4.784-4.84 9.732-4.84 15.021v.517c-.002 4.529-.003 8.44 1.316 10.862.883 1.62 2.727 3.479 9.198 3.479 15.168 0 23.852 4.04 32.249 7.946 7.311 3.401 14.217 6.614 25.085 6.614 16.61 0 25.302-4.03 25.302-8.011l.003-.717c.037-5.491.088-13.011-16.868-16.125-21.774-3.997-33.464-18.603-40.089-50.267-4.551.32-8.337 1.946-12.322 3.657-4.543 1.952-9.224 3.961-15.436 4.394z"/><path fill="#324654" d="M85.9 87.473c-11.753 0-19.389-3.553-26.772-6.988-8.003-3.723-16.278-7.573-30.562-7.573-9.347 0-13.957-3.634-14.51-11.436a2 2 0 0 1 1.854-2.137c1.1-.07 2.058.751 2.136 1.854.328 4.633 2.242 7.719 10.52 7.719 15.168 0 23.852 4.04 32.249 7.947 7.311 3.401 14.217 6.614 25.085 6.614 15.646 0 24.986-2.409 24.986-6.444a2 2 0 0 1 4 0c0 7.028-9.482 10.444-28.986 10.444z"/><path fill="#324654" d="M92.051 74.334a2 2 0 0 1-1.898-1.367l-2.122-6.368-5.78 4.335a2 2 0 0 1-3.191-1.401l-.725-7.248-6.473 2.876a2 2 0 0 1-2.802-2.026l.731-7.31-7.349 1.47a2 2 0 0 1-2.249-2.704l2.903-7.257H55.05a1.999 1.999 0 0 1-1.692-3.066l4.278-6.788-8.847-1.163a1.999 1.999 0 0 1-1.394-3.107l7.241-10.655a2 2 0 1 1 3.308 2.248l-5.417 7.971 8.726 1.148a2.001 2.001 0 0 1 1.431 3.049l-4.01 6.363h7.376a1.998 1.998 0 0 1 1.857 2.743l-2.629 6.571 6.379-1.275a1.997 1.997 0 0 1 2.382 2.16l-.658 6.575 5.855-2.602a2.001 2.001 0 0 1 2.802 1.628l.646 6.472 5.163-3.872a2 2 0 0 1 3.098.966l1.883 5.649 3.701-4.318a2 2 0 1 1 3.037 2.603l-6 7c-.38.45-.938.7-1.515.7z"/><path fill="#324654" d="M66.824 29.778c-1.028 0-2.087-.054-3.146-.159a2.999 2.999 0 0 1-2.065-4.836c1.129-1.44 6.916-8.728 10.014-10.751 1.656-1.08 3.719-1.698 5.662-1.698 3.794 0 6.531 2.274 6.973 5.794.251 2.004-.514 4.129-2.152 5.985-3.131 3.547-8.846 5.665-15.286 5.665zm10.465-11.444c-.786 0-1.699.277-2.383.723-.914.597-2.628 2.386-4.411 4.418 3.564-.613 5.988-2.054 7.116-3.332.622-.705.708-1.18.697-1.269-.032-.265-.068-.54-1.019-.54z"/><path fill="#324654" d="M62.712 26.334a3 3 0 0 1-2.954-2.478c-.31-1.753-1.822-10.673-1.14-14.11.76-3.826 4.016-6.71 7.573-6.71 1.579 0 3.144.56 4.523 1.62 2.035 1.564 3.132 4.197 3.011 7.226-.205 5.076-3.712 10.298-9.382 13.971a3.013 3.013 0 0 1-1.631.481zm3.479-17.298c-.676 0-1.496.913-1.688 1.879-.195.982.005 3.696.382 6.703 1.956-2.186 2.78-4.364 2.845-5.978.049-1.223-.314-1.952-.67-2.226-.225-.172-.558-.378-.869-.378z"/><path fill="#324654" d="M78.462 48.931c-.48 0-.968-.116-1.42-.36-6.245-3.365-5.188-8.098-4.557-10.926.534-2.394.614-3.266-.492-4.432-.816-.861-2.849-1.271-4.482-1.6-2.495-.503-5.911-1.191-6.491-4.454a3 3 0 0 1 5.616-1.909c.51.168 1.416.351 2.059.48 2.462.496 5.527 1.114 7.65 3.352 3.398 3.582 2.554 7.366 1.994 9.87-.592 2.648-.698 3.126 1.547 4.336a2.999 2.999 0 0 1 1.218 4.063 2.995 2.995 0 0 1-2.642 1.58z"/><path fill="#324654" d="M86.054 39.967a2.99 2.99 0 0 1-.627-.066c-5.371-1.143-5.981-4.928-6.307-6.962-.257-1.597-.375-1.947-1.155-2.378-.57-.314-1.867-.211-2.905-.127-1.838.148-4.617.369-6.04-2.033a3 3 0 1 1 4.45-3.877c.326-.008.777-.044 1.111-.071 1.745-.141 4.136-.332 6.287.857 3.405 1.883 3.888 4.884 4.177 6.677.282 1.759.282 1.759 1.631 2.045a3.001 3.001 0 0 1-.622 5.935z"/><path fill="#FFF" d="M43.882 52.135L38.097 49.494 32.641 52.762 33.366 46.443 28.572 42.266 34.805 41.002 37.298 35.151 40.425 40.689 46.759 41.252 42.46 45.937z"/><path fill="#324654" d="M32.641 54.762a1.996 1.996 0 0 1-1.987-2.227l.605-5.273-4.001-3.487a2.001 2.001 0 0 1 .916-3.468l5.203-1.055 2.08-4.883a2 2 0 0 1 3.582-.199l2.61 4.623 5.287.469a2.001 2.001 0 0 1 1.297 3.344l-3.589 3.911 1.125 4.902a2 2 0 0 1-1.867 2.718h-.021c-.281 0-.564-.06-.83-.181l-4.829-2.204-4.554 2.728a2.016 2.016 0 0 1-1.027.282zm.301-11.342l1.739 1.515c.497.433.748 1.082.673 1.735l-.263 2.293 1.979-1.186a1.995 1.995 0 0 1 1.858-.104l2.099.958-.516-2.248a2.002 2.002 0 0 1 .476-1.8l1.56-1.699-2.297-.204a2.001 2.001 0 0 1-1.565-1.009l-1.134-2.009-.904 2.122a1.999 1.999 0 0 1-1.442 1.176l-2.263.46z"/><path fill="#324654" d="M49.955 10.334c2.792 0 4.867.807 5.306 3.053.08.411.126.814.148 1.21.155-.003.301-.019.458-.019 7.28 36.403 20.729 47.033 38.83 50.356 13.666 2.51 17.258 8.1 18.189 13.095v.001c.392 2.101.315 4.097.315 5.713 0 2.063-1.305 3.996-3.904 5.604.575.045 1.199.344 1.846.932 2.514 2.285 3.033 10.617 3.033 10.617l5.157.606-2.274 3.488s.377-.076.982-.076c.838 0 2.112.146 3.427.845-1.351 2.729-4.702 4.541-10.149 4.541H12.828 7.052c.303-2.578-.856-8.046 13-8.046 6.879 0 5.71-6.462 5.397-8.919h-4.397l-2.049-16.842c-3.039-2.887-2.951-7.905-2.951-14.158 0-10.011 7.964-18.635 8.874-25.915.91-7.28-.91-13.651-.91-13.651.222 0-.14-.388.078-.392-.348-.331-.011-.346-.078-.799-.758-5.156 2.846-4.891 7.281-6.4 3.702-1.262 12.775-4.845 18.658-4.844m0-4c-5.733-.001-13.48 2.76-18.109 4.409-.704.251-1.325.472-1.84.648-.726.247-1.463.449-2.177.645-3.022.829-8.574 2.352-7.852 9.481-.07.489-.055.975.042 1.444.015.304.064.608.149.906.013.047 1.578 5.733.787 12.056-.302 2.416-1.825 5.477-3.437 8.718-2.563 5.153-5.468 10.993-5.468 17.693v.514c-.002 5.857-.004 11.42 3.133 15.381l1.897 15.588a4 4 0 0 0 3.971 3.517h.622c-.051.363-.138.562-.229.666-.047.053-.42.252-1.393.252-6.629 0-11.002 1.14-13.762 3.587-2.894 2.566-3.074 5.722-3.171 7.417-.012.207-.02.401-.04.575a3.997 3.997 0 0 0 3.973 4.467h104.267c9.037 0 12.484-4.24 13.735-6.767a3.999 3.999 0 0 0-1.78-5.343 3.998 3.998 0 0 0-3.473-4.659l-1.977-.233c-.374-2.591-1.094-5.752-2.481-8.079 1.55-2.127 1.859-4.178 1.859-5.474l.003-.656c.01-1.593.022-3.574-.378-5.747l-.008-.044C115.213 68.68 108.213 63.349 95.42 61c-16.319-2.996-28.623-12.17-35.63-47.207a3.992 3.992 0 0 0-.694-1.578c-.519-2.045-2.394-5.881-9.141-5.881z"/></svg>