<svg xmlns="http://www.w3.org/2000/svg" viewBox="0 0 128 128"><path fill="#B8CBCD" d="M110.303 114.305c0 5.625-21.343 10.187-47.669 10.187-26.326 0-47.667-4.562-47.667-10.187 0-5.626 21.884-9.813 48.21-9.813 26.326-.001 47.126 4.187 47.126 9.813z"/><path fill="#783741" d="M56.751 121.681c-5.662 0-10.93-2.159-14.878-6.107-4.043-4.043-6.156-9.491-5.95-15.342.201-5.688 2.553-11.061 6.622-15.13L89.639 38.01c2.854-2.854 4.344-6.721 4.197-10.888-.147-4.165-1.876-8.106-4.869-11.1-6.076-6.074-15.238-6.075-21.315 0L37.299 46.375a2.998 2.998 0 0 1-4.242 0 2.998 2.998 0 0 1 0-4.242L63.41 11.78c8.355-8.354 21.445-8.354 29.799 0 4.07 4.069 6.422 9.442 6.623 15.13.206 5.85-1.907 11.298-5.951 15.342L46.788 89.344c-2.992 2.993-4.721 6.935-4.869 11.1-.147 4.168 1.343 8.034 4.196 10.888 2.885 2.885 6.777 4.459 10.954 4.346a16.028 16.028 0 0 0 11.07-4.717l18.917-18.916a3 3 0 1 1 4.242 4.242l-18.916 18.916a21.999 21.999 0 0 1-15.631 6.478z"/><path fill="#FFBAB0" d="M20.682 70.215c-1.757 1.757-5.611.753-8.606-2.243-2.996-2.996-4-6.849-2.243-8.607l18.711-16.644c1.757-1.757 4.577-1.786 7.573 1.21 2.996 2.996 2.967 5.815 1.209 7.573L20.682 70.215z"/><path fill="#783741" d="M18.332 74.08c-2.75 0-5.882-1.49-8.378-3.987-4.302-4.302-5.266-9.825-2.242-12.849a2.05 2.05 0 0 1 .127-.12L26.493 40.53c1.335-1.3 3.067-2.015 4.888-2.015 1.626 0 4.135.571 6.857 3.294 4.459 4.458 3.86 9.093 1.279 11.745L22.924 72.209a2.91 2.91 0 0 1-.121.128c-1.141 1.14-2.687 1.743-4.471 1.743zm-6.381-12.583c-.135.398.242 2.349 2.246 4.354 1.54 1.54 3.187 2.229 4.136 2.229.13 0 .211-.014.255-.024L35.085 49.51a3.6 3.6 0 0 1 .12-.127c.958-.958-.527-2.648-1.209-3.331-.962-.962-1.94-1.536-2.615-1.536-.181 0-.426.037-.716.326a2.05 2.05 0 0 1-.127.12L11.951 61.497z"/><path fill="#783741" d="M20.682 72.215a2 2 0 0 1-1.414-3.414c.704-.704.169-3.367-2.242-5.778-2.41-2.41-5.073-2.945-5.778-2.243a2 2 0 1 1-2.828-2.828c2.577-2.578 7.6-1.592 11.435 2.243 3.834 3.834 4.82 8.857 2.243 11.435a2.006 2.006 0 0 1-1.416.585z"/><path fill="#FFBAB0" d="M102.463 69.005c1.757-1.757 5.611-.753 8.606 2.243 2.996 2.996 4.001 6.849 2.243 8.606L94.601 96.499c-1.757 1.757-4.577 1.786-7.573-1.21-2.996-2.996-2.967-5.815-1.21-7.573l16.645-18.711z"/><path fill="#783741" d="M91.764 100.704c-1.626 0-4.135-.571-6.857-3.294-4.459-4.458-3.86-9.093-1.279-11.745l16.594-18.654a2.91 2.91 0 0 1 .121-.128c1.141-1.14 2.687-1.743 4.471-1.743 2.75 0 5.882 1.49 8.378 3.987 4.302 4.302 5.266 9.825 2.242 12.849a2.05 2.05 0 0 1-.127.12L96.652 98.689c-1.335 1.3-3.067 2.015-4.888 2.015zm12.793-29.54L88.06 89.71a3.6 3.6 0 0 1-.12.127c-.958.958.527 2.648 1.209 3.331.962.962 1.94 1.536 2.615 1.536.181 0 .426-.037.716-.326a2.05 2.05 0 0 1 .127-.12l18.587-16.535c.135-.398-.242-2.349-2.246-4.354-1.54-1.54-3.187-2.229-4.136-2.229a1.09 1.09 0 0 0-.255.024z"/><path fill="#783741" d="M110.977 82.703c-2.435 0-5.292-1.284-7.685-3.678-3.835-3.834-4.82-8.857-2.243-11.435a2 2 0 0 1 2.83 2.828c-.704.704-.168 3.367 2.242 5.778 2.41 2.41 5.074 2.946 5.778 2.243a2 2 0 1 1 2.828 2.828c-.969.97-2.284 1.436-3.75 1.436z"/></svg>