<svg xmlns="http://www.w3.org/2000/svg" xmlns:xlink="http://www.w3.org/1999/xlink" viewBox="0 0 128 128"><path fill="#702C17" d="M82.696 84.365a3 3 0 1 1 0-6c9.501 0 23-11.896 23-23 0-3.282-.863-5.391-2.567-6.268-2.617-1.345-7.643-.182-11.688 2.709a3.004 3.004 0 0 1-4.186-.697 3.002 3.002 0 0 1 .697-4.186c5.017-3.584 12.505-5.95 17.923-3.161 2.655 1.367 5.821 4.489 5.821 11.602 0 14.663-16.605 29.001-29 29.001zm-38.983 0c-12.395 0-29-14.338-29-29 0-7.113 3.166-10.235 5.821-11.602 5.419-2.787 12.905-.422 17.923 3.161a3.001 3.001 0 0 1-3.489 4.883c-4.047-2.891-9.072-4.054-11.689-2.709-1.704.877-2.567 2.985-2.567 6.268 0 11.105 13.499 23 23 23a3 3 0 0 1 .001 5.999z"/><ellipse fill="#B8CBCD" cx="64.01" cy="112.179" rx="47.667" ry="10.186"/><path fill="#F6E89A" d="M35.696 58.365c0 3.59 11.959 6.626 27.146 6.626 15.187 0 27.854-3.036 27.854-6.626v-15c0-3.59-12.666-6.374-27.854-6.374-15.188 0-27.146 2.784-27.146 6.374v15z"/><path fill="#702C17" d="M62.843 66.991c-10.825 0-29.146-1.816-29.146-8.626v-15c0-8.139 26.163-8.374 29.146-8.374 3.056 0 29.854.235 29.854 8.374v15c-.001 6.823-19.528 8.626-29.854 8.626zm-25.147-8.693c.795 1.658 10.014 4.693 25.146 4.693 15.4 0 24.933-3.046 25.854-4.719V43.465c-.952-1.632-10.247-4.474-25.854-4.474-15.326 0-24.318 2.831-25.146 4.447v14.86z"/><defs><path id="a" d="M87.46 32.938c.409 13.924-10.841 25.075-24.224 25.435-13.501.558-25.453-10.948-25.366-25.616.145-14.865 12.347-24.921 24.938-23.891 12.652.354 24.085 10.12 24.652 24.072z"/></defs><defs><path id="b" d="M87.46 32.938c.409 13.924-10.841 25.075-24.224 25.435-13.501.558-25.453-10.948-25.366-25.616.145-14.865 12.347-24.921 24.938-23.891 12.652.354 24.085 10.12 24.652 24.072z"/></defs><use xlink:href="#b" overflow="visible" fill="#FFF"/><clipPath id="c"><use xlink:href="#b" overflow="visible"/></clipPath><path clip-path="url(#c)" fill="#F6E89A" d="M18.559 49.258c-1.121-2.233-2.054-4.514-2.733-6.735.32-2.003.856-4.172 1.613-6.44 1.498-.008 3.463-.014 5.702-.019a115.756 115.756 0 0 0 3.732 7.305c-1.094 2.368-2.037 4.635-2.785 6.721-2.137-.218-4.03-.49-5.529-.832z"/><path clip-path="url(#c)" fill="#8D4520" d="M24.09 52.09c-.067 0-.136-.003-.204-.011-2.336-.237-4.277-.531-5.771-.871a2.002 2.002 0 0 1-1.343-1.053c-1.193-2.378-2.155-4.749-2.858-7.048-.09-.291-.111-.6-.063-.9.345-2.159.914-4.433 1.691-6.758a2 2 0 0 1 1.886-1.366c1.5-.008 3.467-.014 5.709-.019h.004c.779 0 1.487.452 1.814 1.159a114.105 114.105 0 0 0 3.668 7.177c.309.558.333 1.229.065 1.808-1.088 2.356-2.003 4.563-2.718 6.557a1.998 1.998 0 0 1-1.88 1.325zm-4.165-4.591c.821.154 1.768.299 2.835.43a89.302 89.302 0 0 1 1.878-4.477 118.63 118.63 0 0 1-2.763-5.385l-2.969.009a37.672 37.672 0 0 0-1.028 4.305 40.941 40.941 0 0 0 2.047 5.118z"/><path clip-path="url(#c)" fill="#F6E89A" d="M17.439 36.083c-.742-2.26-1.259-4.417-1.567-6.403.695-2.226 1.645-4.498 2.777-6.722 1.501-.355 3.388-.637 5.518-.863.73 2.063 1.659 4.313 2.74 6.669a115.546 115.546 0 0 0-3.766 7.301c-2.238.004-4.203.011-5.702.018z"/><path clip-path="url(#c)" fill="#8D4520" d="M17.439 38.083a2 2 0 0 1-1.9-1.376c-.755-2.298-1.308-4.559-1.644-6.721a2.015 2.015 0 0 1 .067-.903c.714-2.285 1.691-4.651 2.904-7.033a2.003 2.003 0 0 1 1.322-1.038c1.516-.358 3.401-.654 5.766-.906a2.012 2.012 0 0 1 2.098 1.322c.697 1.97 1.596 4.157 2.672 6.502.267.58.24 1.252-.071 1.809a113.9 113.9 0 0 0-3.7 7.173 2 2 0 0 1-1.808 1.153c-2.236.005-4.199.012-5.697.019l-.009-.001zm.484-8.251c.233 1.374.565 2.796.988 4.245l2.966-.01a119.11 119.11 0 0 1 2.794-5.394 85.418 85.418 0 0 1-1.836-4.41 44.623 44.623 0 0 0-2.823.446 41.254 41.254 0 0 0-2.089 5.123z"/><path clip-path="url(#c)" fill="#8D4520" d="M18.653 22.933a37.3 37.3 0 0 1-.639-5.048 33.756 33.756 0 0 1 3.859-5.742c1.558-.499 3.334-.941 5.269-1.334.294 1.292.773 2.852 1.447 4.659a90.91 90.91 0 0 0-4.42 6.601c-2.128.227-4.015.509-5.516.864z"/><path clip-path="url(#c)" fill="#F6E89A" d="M21.874 12.143c-.096-1.249-.091-2.312-.103-3.295 1.521-1.406 3.264-2.518 5.245-3.084 1.847-.054 3.706-.106 5.576-.152-.241.067-.329.406-.206 1.092-1.857.977-3.604 2.422-5.243 4.106-1.936.392-3.711.833-5.269 1.333z"/><path clip-path="url(#c)" fill="#8D4520" d="M21.874 14.143a1.998 1.998 0 0 1-1.994-1.848c-.087-1.129-.096-2.114-.104-2.982l-.005-.441a2.003 2.003 0 0 1 .642-1.492c1.88-1.737 3.917-2.929 6.055-3.538.16-.046.324.118.49.113 1.85-.054 3.712.037 5.585.037h.051c.987 0 1.83.533 1.977 1.514.063.424-.011.744-.192 1.103.076.802-.338 1.532-1.061 1.912-1.528.804-3.079 2.001-4.741 3.707a1.98 1.98 0 0 1-1.034.553c-1.933.393-3.635.817-5.059 1.272-.2.064-.405.09-.61.09zm5.464-6.388c-1.069.337-2.119.893-3.137 1.662a63.87 63.87 0 0 1 1.946-.444c.438-.433.871-.841 1.304-1.221l-.113.003z"/><path clip-path="url(#c)" fill="#F6E89A" d="M28.261 56.811a92.762 92.762 0 0 1-4.391-6.643c.733-2.076 1.659-4.334 2.743-6.694 2.43.077 5.057.127 7.758.16a348.695 348.695 0 0 0 4.323 7.344 212.184 212.184 0 0 0-3.346 6.517 139.366 139.366 0 0 1-7.087-.684z"/><path clip-path="url(#c)" fill="#8D4520" d="M35.349 59.495c-.049 0-.098-.002-.148-.005a142.052 142.052 0 0 1-7.19-.694 1.991 1.991 0 0 1-1.369-.81 94.875 94.875 0 0 1-4.486-6.786 2 2 0 0 1-.172-1.697c.752-2.13 1.698-4.439 2.812-6.863a1.965 1.965 0 0 1 1.881-1.164c2.228.07 4.752.123 7.719.159a2.002 2.002 0 0 1 1.711 1.006 343.65 343.65 0 0 0 4.299 7.302c.365.604.386 1.354.054 1.976a211.87 211.87 0 0 0-3.313 6.454 2.007 2.007 0 0 1-1.798 1.122zm-5.976-4.563c1.466.171 3.066.326 4.781.466a224.269 224.269 0 0 1 2.242-4.356 336.238 336.238 0 0 1-3.191-5.423 411.544 411.544 0 0 1-5.317-.106 78.463 78.463 0 0 0-1.811 4.435 91.086 91.086 0 0 0 3.296 4.984z"/><path clip-path="url(#c)" fill="#FFF" d="M26.613 43.475a111.644 111.644 0 0 1-3.716-7.296 113.506 113.506 0 0 1 3.736-7.294c2.426-.081 5.048-.133 7.747-.17a337.622 337.622 0 0 0 4.041 7.457 346.653 346.653 0 0 0-4.051 7.463 412.42 412.42 0 0 1-7.757-.16z"/><path clip-path="url(#c)" fill="#F6E89A" d="M26.635 28.856c-1.074-2.353-1.991-4.599-2.712-6.661a89.596 89.596 0 0 1 4.405-6.606c2.207-.282 4.582-.513 7.067-.699a208.364 208.364 0 0 0 3.315 6.467 342.73 342.73 0 0 0-4.329 7.329c-2.7.036-5.321.089-7.746.17z"/><path clip-path="url(#c)" fill="#8D4520" d="M26.635 30.991c-.781 0-1.493-.522-1.819-1.236a81.425 81.425 0 0 1-2.78-6.866 2.038 2.038 0 0 1 .177-1.713 91.352 91.352 0 0 1 4.505-6.762 2 2 0 0 1 1.357-.803c2.155-.276 4.567-.517 7.172-.712a2.006 2.006 0 0 1 1.947 1.116c.916 1.88 2.021 4.034 3.283 6.403a1.997 1.997 0 0 1-.057 1.979 336.31 336.31 0 0 0-4.304 7.286c-.353.613-1.002 1.062-1.708 1.072-2.921.038-5.442.237-7.707.237l-.066-.001zm-.506-8.568a77.134 77.134 0 0 0 1.782 4.393c1.624-.046 3.377-.084 5.306-.112a340.308 340.308 0 0 1 3.195-5.411 215.323 215.323 0 0 1-2.21-4.301c-1.692.141-3.288.301-4.767.477a87.527 87.527 0 0 0-3.306 4.954z"/><path clip-path="url(#c)" fill="#F6E89A" d="M28.328 15.59c-.67-1.809-1.14-3.371-1.428-4.669 1.635-1.692 3.375-3.15 5.228-4.146 1.972-.298 4.039-.562 6.177-.783.355.611.964 1.677 1.788 3.124-1.598 1.653-3.165 3.64-4.698 5.774-2.484.189-4.86.418-7.067.7z"/><path clip-path="url(#c)" fill="#8D4520" d="M28.327 17.59a2.002 2.002 0 0 1-1.875-1.306c-.68-1.837-1.186-3.495-1.504-4.93a2 2 0 0 1 .514-1.823c1.953-2.022 3.824-3.5 5.721-4.517.202-.108.421-.182.647-.216 2.029-.307 4.139-.574 6.27-.795a2.016 2.016 0 0 1 1.935.984c.358.614.969 1.685 1.798 3.14a2 2 0 0 1-.3 2.379c-1.376 1.424-2.852 3.24-4.513 5.552a2.004 2.004 0 0 1-1.473.827c-2.611.198-4.89.424-6.965.688a1.84 1.84 0 0 1-.255.017zm.785-6.053c.158.587.349 1.214.569 1.876 1.438-.163 2.973-.31 4.638-.444 1.17-1.593 2.265-2.959 3.311-4.136l-.407-.712c-1.507.171-2.994.364-4.442.579-1.191.68-2.4 1.614-3.669 2.837z"/><path clip-path="url(#c)" fill="#F6E89A" d="M38.736 50.867a360.583 360.583 0 0 1-4.321-7.379c1.287-2.449 2.658-4.497 4.056-7.497h8.451c1.415 3 2.832 5.062 4.245 7.569-1.41 2.504-2.816 5.014-4.176 7.424a525.715 525.715 0 0 1-8.255-.117z"/><path clip-path="url(#c)" fill="#8D4520" d="M46.991 52.991h-.017c-2.799 0-5.574-.063-8.287-.129a1.998 1.998 0 0 1-1.662-.962 356.731 356.731 0 0 1-4.346-7.389 1.996 1.996 0 0 1-.035-1.924 345.353 345.353 0 0 1 4.079-7.538c.353-.634 1.021-1.058 1.746-1.058h8.453c.722 0 1.389.42 1.742 1.05l4.244 7.551a2.013 2.013 0 0 1 0 1.972l-4.176 7.409a1.996 1.996 0 0 1-1.741 1.018zm-7.109-4.098c1.958.043 3.944.074 5.947.096l3.042-5.428-3.118-5.569h-6.105c-1.104 2-2.078 3.817-2.949 5.457a364.803 364.803 0 0 0 3.183 5.444z"/><path clip-path="url(#c)" fill="#F6E89A" d="M38.471 35.991c-1.394-2-2.761-4.982-4.039-7.423a337.03 337.03 0 0 1 4.33-7.31A487.33 487.33 0 0 1 47 21.122c1.354 2.396 2.758 4.86 4.167 7.36-1.413 2.503-2.83 5.509-4.245 7.509h-8.451z"/><path clip-path="url(#c)" fill="#8D4520" d="M46.678 38.022v-.031h-8v.031c-1 0-1.499-.378-1.852-1.013-1.584-2.85-2.965-5.295-4.114-7.49-.317-.605-.33-1.328.011-1.921a341.09 341.09 0 0 1 4.344-7.366c.352-.58.97-1.01 1.649-1.027 2.569-.068 5.346-.213 8.266-.213h.019c.721 0 1.387.457 1.741 1.086L52.91 27.5c.344.61.344 1.373-.001 1.983-1.412 2.502-2.951 5.012-4.365 7.526-.356.63-.866 1.013-1.866 1.013zm-3.995-4.031h3.068c1.04-2 2.08-3.665 3.118-5.505l-3.031-5.359c-2.064.023-4.052.065-5.934.11a330.734 330.734 0 0 0-3.19 5.371c.867 1.638 1.835 3.383 2.934 5.383h3.035z"/><path clip-path="url(#c)" fill="#F6E89A" d="M40.155 9.04a363.803 363.803 0 0 0-1.778-3.085c1.781-.824 3.611-1.084 5.393-.566 1.909-.026 3.828-.048 5.748-.062.517-.702 1.316-.749 2.317-.19-1.313.601-2.749 1.822-4.216 3.436-2.545.106-5.046.26-7.464.467z"/><path clip-path="url(#c)" fill="#8D4520" d="M40.154 11.04a1.998 1.998 0 0 1-1.735-1.008 319.638 319.638 0 0 0-1.767-3.063 2.003 2.003 0 0 1 .884-2.829c2.198-1.017 4.412-1.276 6.483-.755 1.565-.021 3.138-.039 4.71-.052 1.101-.765 2.584-.776 4.078.058a2 2 0 1 1-.143 3.565c-.684.312-1.857 1.079-3.568 2.962-.359.396-.862.63-1.396.652-2.566.107-5.048.263-7.376.463a1.901 1.901 0 0 1-.17.007z"/><path clip-path="url(#c)" fill="#F6E89A" d="M50.958 58.12c-1.411-2.201-2.844-4.579-4.271-7.01 1.356-2.405 2.582-4.616 3.991-7.119 2.826 0 6.183.004 9 0 1.4 2.5 2.443 4.699 3.788 7.103-1.431 2.432-2.871 4.816-4.29 7.021-2.732.036-5.485.037-8.218.005z"/><path clip-path="url(#c)" fill="#8D4520" d="M59.678 41.991c.724 0 1.038.104 1.393.735l4.141 7.391a2 2 0 0 1-.021 1.991c-1.671 2.839-3.047 5.092-4.332 7.088a2 2 0 0 1-1.654.918 342.88 342.88 0 0 1-8.269.006 2 2 0 0 1-1.66-.921c-1.27-1.979-2.64-4.227-4.313-7.076a2.002 2.002 0 0 1-.018-1.995l4.169-7.4c.355-.629.842-.736 1.565-.736h8.999zm-7.615 14.14c1.999.02 4.008.017 6.008-.004a203.31 203.31 0 0 0 3.087-5.059l-2.48-5.076c-2.04.003-4.955 0-7 0l-2.683 5.097a213.128 213.128 0 0 0 3.068 5.042z"/><path clip-path="url(#c)" fill="#F6E89A" d="M50.856 28.605c-1.407-2.502-2.813-4.991-4.165-7.388 1.429-2.424 2.574-5.045 3.986-7.227 2.729-.034 6.274-.038 9 0 1.42 2.183 2.349 4.817 3.779 7.241-1.341 2.395-2.732 4.881-4.133 7.379-2.816-.005-5.643-.007-8.467-.005z"/><path clip-path="url(#c)" fill="#8D4520" d="M50.678 30.991c-.723 0-1.211-.777-1.565-1.407a3966.208 3966.208 0 0 0-3.889-6.898l-.274-.485a1.999 1.999 0 0 1 .018-1.996c1.678-2.848 3.051-5.088 4.32-7.048.363-.56.978-.903 1.646-.911 2.754-.034 5.522-.031 8.271.007.664.009 1.277.35 1.639.907 1.263 1.942 2.641 4.184 4.336 7.056.361.612.37 1.374.023 1.995l-4.624 8.253a1.033 1.033 0 0 1-.901.528h-1c-2.111-.005-3.884 0-6 0h-2m7-4.001l3.472-5.73c-1.156-1.941-2.548-3.822-3.472-5.27-1.996-.019-4-.018-6 0-.924 1.454-1.532 3.325-2.677 5.25.991 1.755 1.658 3.939 2.677 5.75h6"/><path clip-path="url(#c)" fill="#F6E89A" d="M50.965 14.246c-1.318-2.144-2.56-4.067-3.633-5.586 1.47-1.627 2.913-2.869 4.24-3.489 2.318-.049 4.651-.05 6.97-.002 1.32.623 2.767 1.861 4.24 3.493-1.071 1.521-2.306 3.447-3.614 5.591a307.27 307.27 0 0 0-8.203-.007z"/><path clip-path="url(#c)" fill="#8D4520" d="M50.678 15.991c-.694 0-1.052-.106-1.416-.697-1.374-2.233-2.573-4.077-3.564-5.48a2.002 2.002 0 0 1 .149-2.494c1.769-1.958 3.364-3.253 4.878-3.96.252-.118.526-.183.805-.188 2.346-.048 4.707-.05 7.053-.002.281.006.559.071.813.191 1.496.706 3.135 2.038 4.871 3.961.626.694.688 1.728.15 2.493-.975 1.383-2.166 3.227-3.542 5.48-.363.596-1.501.696-2.197.696h-8zm4.142-3.769c1.08 0 2.16.006 3.238.017a116.13 116.13 0 0 1 2.154-3.364c-.925-.894-1.647-1.414-2.177-1.716a171.674 171.674 0 0 0-5.961.002c-.525.298-1.246.814-2.172 1.71.66.984 1.385 2.108 2.168 3.363.916-.008 1.833-.012 2.75-.012z"/><path clip-path="url(#c)" fill="#F6E89A" d="M63.402 50.981c-1.346-2.405-2.742-4.927-4.143-7.426 1.416-2.506 2.83-4.564 4.237-7.564h8.39c1.383 3 2.74 5.029 4.014 7.469a332.055 332.055 0 0 1-4.288 7.355c-2.682.072-5.432.136-8.21.166z"/><path clip-path="url(#c)" fill="#8D4520" d="M63.402 52.991a2.001 2.001 0 0 1-1.745-1.028l-4.143-7.397a2.004 2.004 0 0 1 .004-1.963c1.415-2.503 2.827-5.047 4.233-7.558.354-.631 1.021-1.054 1.744-1.054h8.391c.727 0 1.397.427 1.75 1.063 1.6 2.891 2.882 5.283 4.037 7.495a2.022 2.022 0 0 1-.034 1.922 336.71 336.71 0 0 1-4.314 7.388 2.007 2.007 0 0 1-1.66.974c-2.692.072-5.453.158-8.241.158h-.022zm-1.847-9.432l3.012 5.393a530.8 530.8 0 0 0 5.896-.101 337.102 337.102 0 0 0 3.158-5.436 321.724 321.724 0 0 0-2.915-5.425h-6.037c-1.035 2.001-2.074 3.725-3.114 5.569z"/><path clip-path="url(#c)" fill="#F6E89A" d="M63.497 35.991c-1.408-2-2.822-4.996-4.239-7.499 1.4-2.497 2.794-4.967 4.135-7.36 2.771.034 5.518.094 8.193.17a315.708 315.708 0 0 1 4.299 7.291c-1.266 2.432-2.618 5.398-3.998 7.398h-8.39z"/><path clip-path="url(#c)" fill="#8D4520" d="M71.678 38.022v-.031h-8.181c-.724 0-1.391-.36-1.744-.991-1.407-2.509-2.82-5.007-4.235-7.508a1.983 1.983 0 0 1-.004-1.956l4.134-7.37a2.025 2.025 0 0 1 1.77-1.02c2.781.034 5.539.088 8.225.164a2 2 0 0 1 1.653.962 323.038 323.038 0 0 1 4.326 7.364 2 2 0 0 1 .037 1.915c-1.144 2.196-2.525 4.554-4.126 7.453-.352.638-.855 1.018-1.855 1.018zm-7.01-4.031h6.037c1.102-2 2.044-3.725 2.899-5.352a320.308 320.308 0 0 0-3.166-5.376c-1.934-.05-3.9-.08-5.883-.108l-3.003 5.329c1.042 1.842 2.081 3.507 3.116 5.507z"/><path clip-path="url(#c)" fill="#F6E89A" d="M62.714 8.584c-1.472-1.617-2.917-2.844-4.233-3.445.999-.559 1.794-.511 2.317.193 1.92.016 3.835.038 5.744.066 1.775-.518 3.608-.256 5.39.573-.347.598-.95 1.652-1.763 3.092-2.414-.211-4.912-.37-7.455-.479z"/><path clip-path="url(#c)" fill="#8D4520" d="M70.17 11.062c-.059 0-.116-.003-.175-.008a171.045 171.045 0 0 0-7.367-.473 2.001 2.001 0 0 1-1.394-.652c-1.717-1.887-2.897-2.657-3.585-2.972a1.999 1.999 0 1 1-.145-3.565c1.493-.834 2.975-.821 4.079-.054 1.572.014 3.142.033 4.706.055 2.07-.521 4.287-.26 6.485.764a1.998 1.998 0 0 1 .886 2.817c-.345.594-.944 1.641-1.751 3.071a1.993 1.993 0 0 1-1.739 1.017z"/><path clip-path="url(#c)" fill="#F6E89A" d="M74.652 57.475a230.295 230.295 0 0 0-3.34-6.523 343.94 343.94 0 0 0 4.29-7.341c2.683-.035 5.285-.085 7.697-.162 1.081 2.354 2.017 4.607 2.762 6.685a93.213 93.213 0 0 1-4.335 6.653c-2.208.276-4.588.505-7.074.688z"/><path clip-path="url(#c)" fill="#8D4520" d="M74.651 59.475a2 2 0 0 1-1.796-1.122 227.53 227.53 0 0 0-3.31-6.465 2.001 2.001 0 0 1 .054-1.968 350.737 350.737 0 0 0 4.266-7.298 2.002 2.002 0 0 1 1.712-1.012c2.984-.039 5.49-.092 7.66-.161.763-.042 1.544.433 1.881 1.164 1.132 2.465 2.083 4.768 2.827 6.846a1.997 1.997 0 0 1-.163 1.695 95.26 95.26 0 0 1-4.429 6.797c-.324.453-.823.75-1.377.819-2.183.274-4.597.509-7.177.699a1.83 1.83 0 0 1-.148.006zm-1.045-8.461a237.303 237.303 0 0 1 2.239 4.362c1.678-.137 3.271-.294 4.761-.469a92.636 92.636 0 0 0 3.248-4.984 83.254 83.254 0 0 0-1.828-4.437c-1.571.043-3.308.079-5.253.107a344.441 344.441 0 0 1-3.167 5.421z"/><path clip-path="url(#c)" fill="#F6E89A" d="M75.592 28.71a326.973 326.973 0 0 0-4.296-7.325 223.71 223.71 0 0 0 3.311-6.476c2.48.189 4.85.421 7.052.704a90.67 90.67 0 0 1 4.353 6.619 84.224 84.224 0 0 1-2.732 6.651 410.234 410.234 0 0 0-7.688-.173z"/><path clip-path="url(#c)" fill="#8D4520" d="M83.28 30.991h-.068c-2.153 0-4.584-.182-7.649-.227-.708-.011-1.357-.422-1.708-1.037a328.42 328.42 0 0 0-4.271-7.294 2.015 2.015 0 0 1-.056-1.978 220.42 220.42 0 0 0 3.281-6.419 2.018 2.018 0 0 1 1.95-1.119c2.612.199 5.02.44 7.154.714a2 2 0 0 1 1.364.809 91.919 91.919 0 0 1 4.449 6.766c.308.513.369 1.137.167 1.7a87.49 87.49 0 0 1-2.796 6.863c-.325.714-1.037 1.222-1.817 1.222zm-6.518-4.264c1.979.032 3.69.07 5.243.115a81.476 81.476 0 0 0 1.799-4.397 88.406 88.406 0 0 0-3.26-4.956 136.98 136.98 0 0 0-4.743-.479 230.945 230.945 0 0 1-2.21 4.308 343.545 343.545 0 0 1 3.171 5.409z"/><path clip-path="url(#c)" fill="#8D4520" d="M81.66 17.613a1.83 1.83 0 0 1-.255-.017 135.48 135.48 0 0 0-6.949-.693 1.999 1.999 0 0 1-1.477-.833c-1.656-2.322-3.129-4.144-4.501-5.571a2 2 0 0 1-.296-2.377 234.081 234.081 0 0 1 1.828-3.164 2.019 2.019 0 0 1 1.927-.968c2.124.221 4.236.488 6.277.795.229.034.448.108.651.217 1.902 1.025 3.769 2.51 5.706 4.54.464.486.652 1.174.502 1.829-.329 1.429-.848 3.092-1.542 4.944a2 2 0 0 1-1.871 1.298zm-5.973-4.625c1.621.132 3.169.282 4.627.448a36.94 36.94 0 0 0 .594-1.912c-1.254-1.221-2.455-2.155-3.644-2.837a135.112 135.112 0 0 0-4.462-.58l-.42.728c1.046 1.18 2.137 2.553 3.305 4.153z"/><path clip-path="url(#c)" fill="#F6E89A" d="M86.113 50.026c-.747-2.079-1.681-4.335-2.766-6.692a115.847 115.847 0 0 0 3.673-7.267c2.206.004 4.138.01 5.611.018.745 2.251 1.274 4.406 1.596 6.396-.663 2.21-1.57 4.477-2.663 6.705-1.476.345-3.342.619-5.451.84z"/><path clip-path="url(#c)" fill="#8D4520" d="M86.112 52.026a1.999 1.999 0 0 1-1.881-1.323c-.724-2.014-1.633-4.212-2.7-6.533a1.998 1.998 0 0 1 .062-1.796 113.647 113.647 0 0 0 3.609-7.178c.325-.711 1.036-1.205 1.818-1.205h.004c2.208 0 4.143.048 5.618.056a2.02 2.02 0 0 1 1.888 1.39c.763 2.305 1.325 4.57 1.672 6.717.048.298.028.608-.059.898-.686 2.283-1.622 4.644-2.783 7.013a2.002 2.002 0 0 1-1.341 1.068c-1.481.346-3.345.635-5.697.882-.07.007-.141.011-.21.011zm-.532-8.614a90.114 90.114 0 0 1 1.86 4.448 43.655 43.655 0 0 0 2.745-.426 41.672 41.672 0 0 0 1.991-5.088 38.532 38.532 0 0 0-1.016-4.269l-2.868-.008a117.923 117.923 0 0 1-2.712 5.343z"/><path clip-path="url(#c)" fill="#F6E89A" d="M87.02 36.067a115.895 115.895 0 0 0-3.703-7.266c1.07-2.345 1.99-4.584 2.721-6.642 2.103.228 3.96.515 5.439.869 1.106 2.22 2.026 4.481 2.707 6.694-.31 1.974-.823 4.117-1.553 6.361-1.471-.005-3.405-.012-5.611-.016z"/><path clip-path="url(#c)" fill="#8D4520" d="M92.632 37.991h-.01c-1.47 0-3.401.033-5.605.029a1.98 1.98 0 0 1-1.811-1.136 114.069 114.069 0 0 0-3.64-7.128 1.987 1.987 0 0 1-.068-1.791c1.06-2.321 1.952-4.498 2.655-6.478a2.003 2.003 0 0 1 2.1-1.318c2.277.246 4.191.554 5.69.913a2.004 2.004 0 0 1 1.324 1.053c1.171 2.351 2.123 4.705 2.828 6.999.09.29.111.598.064.898-.335 2.137-.882 4.334-1.626 6.623-.268.825-1.035 1.336-1.901 1.336zM88.29 34.07c1.04.002 2.003.005 2.866.009.418-1.441.745-2.851.978-4.209a41.99 41.99 0 0 0-2.031-5.095 42.162 42.162 0 0 0-2.734-.442 89.228 89.228 0 0 1-1.818 4.383c.997 1.84 1.915 3.633 2.739 5.354z"/><path clip-path="url(#c)" fill="#8D4520" d="M86.034 22.134a89.04 89.04 0 0 0-4.356-6.606c.675-1.808 1.153-3.371 1.45-4.668 1.924.398 3.686.845 5.228 1.35a33.23 33.23 0 0 1 3.779 5.76 37.878 37.878 0 0 1-.662 5.035c-1.478-.356-3.336-.641-5.439-.871z"/><path clip-path="url(#c)" fill="#F6E89A" d="M83.128 10.859c-1.626-1.693-3.364-3.148-5.216-4.131.122-.688.033-1.03-.208-1.098 1.868.049 3.721.102 5.564.159 1.975.569 3.709 1.692 5.208 3.108-.018.989-.019 2.058-.121 3.311-1.543-.504-3.302-.949-5.227-1.349z"/><path clip-path="url(#c)" fill="#8D4520" d="M88.355 14.209c-.209 0-.419-.032-.622-.1-1.398-.457-3.084-.892-5.012-1.292a1.989 1.989 0 0 1-1.036-.573c-1.646-1.713-3.187-2.939-4.712-3.749a2.001 2.001 0 0 1-1.053-1.958 1.988 1.988 0 0 1-.194-1.204c.15-.998.98-1.745 2.03-1.701 1.871.049 3.728.102 5.574.159.166.005.332.031.491.077 2.141.617 4.169 1.82 6.027 3.576.409.387.637.927.627 1.489l-.008.454c-.013.87-.027 1.856-.12 2.984a1.999 1.999 0 0 1-1.992 1.838zm-4.22-5.181c.687.148 1.337.3 1.956.455-1.016-.788-2.07-1.358-3.149-1.702l-.128-.004c.438.389.877.806 1.321 1.251z"/><path clip-path="url(#c)" fill="#F6E89A" d="M92.105 54.435a37.833 37.833 0 0 0-.721-5.113c1.107-2.229 2.038-4.5 2.725-6.717 1.028-.22 1.529-.485 1.363-.791-.175 1.701-.495 3.22-.827 4.587a18.909 18.909 0 0 1-.229 6.169c-.322.713-1.133 1.33-2.311 1.865z"/><path clip-path="url(#c)" fill="#8D4520" d="M92.105 56.435a2.002 2.002 0 0 1-1.995-1.859 36.14 36.14 0 0 0-.684-4.845 1.999 1.999 0 0 1 .167-1.299c1.088-2.191 1.965-4.351 2.605-6.419a1.998 1.998 0 0 1 1.492-1.364c.069-.015.131-.028.187-.042a2 2 0 0 1 3.352.253c.304.56.354 1.188.163 1.762a35.819 35.819 0 0 1-.72 3.896 20.869 20.869 0 0 1-.297 6.448 1.99 1.99 0 0 1-.139.429c-.52 1.151-1.601 2.088-3.306 2.862a1.989 1.989 0 0 1-.825.178z"/><path clip-path="url(#c)" fill="#8D4520" d="M94.109 42.605a42.482 42.482 0 0 0-1.642-6.416c.751-2.253 1.285-4.406 1.614-6.392 1.03.23 1.533.506 1.375.826a20.674 20.674 0 0 1-.708 5.608c.462 1.694.733 3.577.724 5.584.166.306-.334.57-1.363.79z"/><path clip-path="url(#c)" fill="#F6E89A" d="M17.738 62.472a15.193 15.193 0 0 1-1.948-5.697c.119-1.256.038-2.493-.059-3.847.353.713 1.189 1.336 2.391 1.873a34.517 34.517 0 0 0 3.892 5.753c-.104 1.256-.101 2.321-.108 3.301-1.538-.423-2.939-.883-4.168-1.383z"/><path clip-path="url(#c)" fill="#8D4520" d="M21.905 65.854c-.178 0-.355-.023-.53-.071-1.651-.454-3.128-.945-4.391-1.459a2.006 2.006 0 0 1-.972-.842 17.32 17.32 0 0 1-2.206-6.448 2.034 2.034 0 0 1-.008-.448c.1-1.054.037-2.122-.063-3.516a2 2 0 0 1 1.471-2.072 1.994 1.994 0 0 1 2.317 1.043c.053.107.411.485 1.414.934.402.181.734.488.943.876a32.456 32.456 0 0 0 3.664 5.418c.339.403.505.926.461 1.451-.089 1.068-.095 1.992-.1 2.886l-.002.263a2 2 0 0 1-1.998 1.985zm-2.766-4.982c.252.095.513.188.781.281a36.44 36.44 0 0 1-1.561-2.117 13.4 13.4 0 0 0 .78 1.836z"/><path clip-path="url(#c)" fill="#F6E89A" d="M27.016 66.946c-1.98-.566-3.726-1.676-5.245-3.081.011-.985.007-2.048.103-3.296 1.557.499 3.334.939 5.269 1.333 1.642 1.685 3.387 3.128 5.243 4.106-.125.685-.034 1.022.206 1.092-1.869-.048-3.728-.1-5.576-.154z"/><path clip-path="url(#c)" fill="#8D4520" d="M32.594 69.1l-.052-.001c-1.872-.048-3.733-.1-5.584-.153a1.994 1.994 0 0 1-.491-.076c-2.143-.612-4.179-1.802-6.054-3.535a2.006 2.006 0 0 1-.642-1.49l.004-.4c.008-.882.017-1.88.104-3.027a2 2 0 0 1 2.604-1.751c1.411.452 3.112.882 5.058 1.277.393.08.754.276 1.034.564 1.662 1.706 3.214 2.927 4.742 3.732a2.002 2.002 0 0 1 1.063 1.926 2 2 0 0 1-1.768 2.936c-.006-.002-.013-.002-.018-.002zm-5.255-4.145l.111.003a30.07 30.07 0 0 1-1.303-1.22 64.908 64.908 0 0 1-1.947-.444c1.015.766 2.066 1.322 3.139 1.661z"/><path clip-path="url(#c)" fill="#8D4520" d="M21.874 60.569a33.746 33.746 0 0 1-3.859-5.743c.085-1.5.271-3.176.639-5.049 1.503.353 3.387.638 5.518.864a90.935 90.935 0 0 0 4.42 6.602c-.677 1.808-1.153 3.366-1.447 4.659-1.937-.393-3.714-.835-5.271-1.333z"/><path clip-path="url(#c)" fill="#F6E89A" d="M32.38 65.974c-1.853-.989-3.595-2.444-5.234-4.134.3-1.302.782-2.868 1.465-4.685 2.222.278 4.607.506 7.103.689 1.53 2.135 3.097 4.125 4.689 5.775a220.084 220.084 0 0 1-1.824 3.125 138.673 138.673 0 0 1-6.199-.77z"/><path clip-path="url(#c)" fill="#8D4520" d="M38.578 68.745c-.067 0-.135-.003-.203-.011a143.3 143.3 0 0 1-6.287-.782 1.953 1.953 0 0 1-.649-.214c-1.892-1.01-3.766-2.483-5.729-4.506a2 2 0 0 1-.514-1.842c.331-1.435.85-3.096 1.542-4.938a1.986 1.986 0 0 1 2.121-1.281c2.108.264 4.463.492 7 .68a1.997 1.997 0 0 1 1.479.829c1.66 2.317 3.134 4.133 4.503 5.552.618.642.738 1.614.294 2.387a214.714 214.714 0 0 1-1.844 3.158 1.998 1.998 0 0 1-1.713.968zm-5.551-4.698c1.475.214 2.977.405 4.483.573l.423-.726c-1.04-1.172-2.13-2.535-3.296-4.126-1.645-.13-3.211-.277-4.682-.44a35.621 35.621 0 0 0-.591 1.899c1.271 1.218 2.478 2.147 3.663 2.82z"/><path clip-path="url(#c)" fill="#F6E89A" d="M43.769 67.322c-1.781.517-3.61.256-5.393-.567.351-.597.957-1.647 1.778-3.084 2.416.205 4.919.363 7.463.466 1.468 1.614 2.901 2.834 4.216 3.437-1.001.56-1.797.513-2.317-.19a909.43 909.43 0 0 1-5.747-.062z"/><path clip-path="url(#c)" fill="#8D4520" d="M50.606 69.956c-.69 0-1.33-.201-1.875-.579-1.574-.013-3.146-.03-4.711-.051-2.069.517-4.282.261-6.482-.756a1.993 1.993 0 0 1-1.069-1.218 1.996 1.996 0 0 1 .184-1.611c.349-.592.951-1.636 1.767-3.063a2 2 0 0 1 1.905-1.001c2.427.206 4.908.361 7.374.461a2 2 0 0 1 1.399.652c1.711 1.882 2.886 2.65 3.569 2.964a2 2 0 0 1 .142 3.564c-.755.423-1.497.638-2.203.638z"/><path clip-path="url(#c)" fill="#F6E89A" d="M51.772 67.544c-1.317-.619-2.756-1.856-4.222-3.483 1.082-1.521 2.328-3.448 3.649-5.593 2.73.031 5.479.026 8.204-.013 1.305 2.142 2.533 4.065 3.599 5.584-1.478 1.631-2.931 2.875-4.26 3.5a166.96 166.96 0 0 1-6.97.005z"/><path clip-path="url(#c)" fill="#8D4520" d="M55.17 69.578c-1.147 0-2.294-.012-3.438-.034a2.015 2.015 0 0 1-.811-.189c-1.51-.71-3.099-2.004-4.857-3.955a2 2 0 0 1-.144-2.498c.981-1.379 2.185-3.462 3.576-5.721.364-.592 1.01-1.189 1.703-1.189h.022c2.715 1 5.444 1 8.153 0h.028c.697 0 1.345.595 1.708 1.191 1.374 2.256 2.56 4.214 3.528 5.592.536.765.472 1.857-.155 2.549-1.746 1.928-3.392 3.291-4.891 3.996a2.032 2.032 0 0 1-.808.205c-1.199.025-2.407.053-3.614.053zm-2.894-4.025c1.983.034 3.979.034 5.962-.004.532-.302 1.261-.824 2.196-1.726a120.824 120.824 0 0 1-2.141-3.354c-1.993.022-3.994.026-5.987.01a115.051 115.051 0 0 1-2.183 3.376c.917.886 1.631 1.4 2.153 1.698z"/><path clip-path="url(#c)" fill="#F6E89A" d="M60.798 67.378c-.521.706-1.319.754-2.317.193 1.315-.603 2.762-1.826 4.233-3.445 2.543-.107 5.041-.269 7.455-.478a308.491 308.491 0 0 0 1.763 3.091c-1.782.829-3.614 1.09-5.39.574-1.909.029-3.825.05-5.744.065z"/><path clip-path="url(#c)" fill="#8D4520" d="M59.705 69.954c-.708 0-1.449-.215-2.204-.639a2 2 0 0 1 .146-3.562c.691-.316 1.875-1.09 3.586-2.972a1.995 1.995 0 0 1 1.396-.653 168.51 168.51 0 0 0 7.366-.472 2.001 2.001 0 0 1 1.914 1.008 291.388 291.388 0 0 0 1.749 3.067 1.997 1.997 0 0 1-.883 2.821c-2.196 1.022-4.412 1.286-6.483.765-1.565.022-3.135.041-4.706.055a3.257 3.257 0 0 1-1.881.582z"/><path clip-path="url(#c)" fill="#F6E89A" d="M72.002 66.702c-.351-.614-.956-1.683-1.773-3.131 1.598-1.66 3.167-3.654 4.693-5.796a131.34 131.34 0 0 0 7.018-.716c.667 1.81 1.139 3.376 1.431 4.678-1.62 1.702-3.354 3.168-5.202 4.172-1.968.301-4.031.566-6.167.793z"/><path clip-path="url(#c)" fill="#8D4520" d="M72.001 68.702c-.711 0-1.376-.38-1.734-1.007-.354-.616-.96-1.688-1.78-3.141a2 2 0 0 1 .301-2.37c1.391-1.445 2.864-3.267 4.506-5.57a2.003 2.003 0 0 1 1.475-.833c2.534-.196 4.859-.434 6.91-.704a2.003 2.003 0 0 1 2.139 1.291c.677 1.837 1.184 3.496 1.505 4.932a1.997 1.997 0 0 1-.503 1.816c-1.932 2.029-3.795 3.518-5.696 4.551-.203.11-.424.185-.651.219-1.979.303-4.084.573-6.257.805a2.26 2.26 0 0 1-.215.011zm.685-4.846l.403.713c1.523-.176 3.004-.371 4.419-.583 1.192-.688 2.396-1.629 3.65-2.854a35.174 35.174 0 0 0-.573-1.889c-1.429.166-2.962.317-4.583.452-1.163 1.596-2.26 2.972-3.316 4.161z"/><path clip-path="url(#c)" fill="#F6E89A" d="M77.704 67.08c.241-.068.331-.409.208-1.098 1.852-.983 3.588-2.438 5.216-4.131 1.924-.399 3.686-.846 5.228-1.349.104 1.253.105 2.321.121 3.311-1.499 1.415-3.233 2.534-5.208 3.106-1.842.058-3.696.112-5.565.161z"/><path clip-path="url(#c)" fill="#8D4520" d="M77.703 68.991c-.985 0-1.827-.675-1.977-1.655a1.938 1.938 0 0 1 .194-1.185 1.985 1.985 0 0 1 1.053-1.947c1.52-.807 3.062-2.028 4.713-3.745.279-.29.641-.486 1.035-.569 1.923-.399 3.609-.833 5.014-1.291a2.004 2.004 0 0 1 2.614 1.736c.096 1.153.109 2.158.122 3.045l.006.4a1.997 1.997 0 0 1-.627 1.485c-1.854 1.75-3.88 2.952-6.024 3.573-.161.047-.327.029-.494.034-1.845.058-3.702.116-5.575.116-.019.003-.036.003-.054.003zm6.431-5.308c-.443.445-.883.861-1.32 1.251l.127-.005c1.082-.346 2.138-.916 3.152-1.702a65.08 65.08 0 0 1-1.959.456z"/><path clip-path="url(#c)" fill="#8D4520" d="M83.128 61.852c-.296-1.298-.774-2.86-1.45-4.668a89.161 89.161 0 0 0 4.356-6.607c2.102-.23 3.961-.515 5.438-.87.372 1.866.567 3.54.662 5.036a33.51 33.51 0 0 1-3.779 5.761c-1.541.502-3.304.949-5.227 1.348z"/><path clip-path="url(#c)" fill="#F6E89A" d="M94.079 29.771c-.696-2.218-1.633-4.485-2.752-6.709.389-1.877.596-3.563.702-5.071 1.184.541 2.004 1.164 2.345 1.877a18.79 18.79 0 0 1 .266 6.174c.322 1.36.643 2.868.817 4.56.159-.322-.346-.598-1.378-.831z"/><path clip-path="url(#c)" fill="#8D4520" d="M95.458 32.602a2.001 2.001 0 0 1-1.625-.833c-.057-.015-.121-.029-.193-.046a2.001 2.001 0 0 1-1.469-1.352c-.655-2.086-1.54-4.242-2.63-6.408a1.997 1.997 0 0 1-.172-1.305c.333-1.609.551-3.182.665-4.807a2 2 0 0 1 2.827-1.679c1.69.773 2.776 1.7 3.318 2.834.069.145.12.297.153.454a20.76 20.76 0 0 1 .335 6.467c.26 1.118.532 2.425.713 3.885a2.243 2.243 0 0 1-.131 1.678 2.002 2.002 0 0 1-1.791 1.112z"/><path clip-path="url(#c)" fill="#F6E89A" d="M92.029 17.991a34.017 34.017 0 0 0-3.813-5.768c.111-1.259.114-2.33.129-3.315 1.523.428 2.913.892 4.128 1.398a15.342 15.342 0 0 1 1.878 5.718c-.13 1.258-.063 2.494.022 3.845-.34-.714-1.161-1.336-2.344-1.878z"/><path clip-path="url(#c)" fill="#8D4520" d="M94.393 21.868c-.343 0-.667-.087-.949-.239a2.007 2.007 0 0 1-.875-.898c-.002-.003-.197-.382-1.373-.921a2.014 2.014 0 0 1-.937-.887 31.986 31.986 0 0 0-3.586-5.428 1.998 1.998 0 0 1-.449-1.447c.093-1.048.104-1.961.117-2.843l.004-.326a2.003 2.003 0 0 1 2.541-1.896c1.649.464 3.115.96 4.355 1.477.409.171.751.473.97.857a17.457 17.457 0 0 1 2.125 6.465c.018.148.02.299.004.447-.103.994-.062 2.021.012 3.233a1.999 1.999 0 0 1-1.959 2.406zm-4.102-10.256c.52.665 1.021 1.356 1.499 2.072a13.262 13.262 0 0 0-.735-1.792 40.078 40.078 0 0 0-.764-.28z"/><g><defs><path id="d" d="M87.46 32.938c.409 13.924-10.841 25.075-24.224 25.435-13.501.558-25.453-10.948-25.366-25.616.145-14.865 12.347-24.921 24.938-23.891 12.652.354 24.085 10.12 24.652 24.072z"/></defs></g><path fill="#FFF" d="M48.604 57.743a2.99 2.99 0 0 1-2.121-.879c-9.88-9.877-11.292-25.959-3.284-37.408 7.874-11.26 23.307-15.521 35.898-9.909a3 3 0 1 1-2.441 5.48c-10.013-4.463-22.283-1.079-28.541 7.868-6.258 8.948-5.111 22.006 2.61 29.727a2.998 2.998 0 0 1-2.121 5.121z"/><path fill="#8D4520" d="M62.893 62.781c-16.109 0-29.215-13.105-29.215-29.215S46.784 4.351 62.893 4.351s29.216 13.106 29.216 29.216-13.106 29.214-29.216 29.214zm0-52.43c-12.801 0-23.215 10.415-23.215 23.216s10.414 23.215 23.215 23.215 23.216-10.414 23.216-23.215-10.415-23.216-23.216-23.216z"/><path fill="#F6E89A" d="M30.696 99.365c0-5.354 14.645-9.782 33.146-9.782s32.854 4.429 32.854 9.782v10c0 5.353-14.353 10-32.854 10-18.502 0-33.146-3.647-33.146-9v-11z"/><path fill="#702C17" d="M63.843 121.365c-16.213 0-35.146-2.881-35.146-11v-11c0-7.735 17.681-11.782 35.146-11.782 17.32 0 34.854 4.047 34.854 11.782v10c-.001 7.878-17.534 12-34.854 12zm0-29.782c-20.449 0-31.146 5.066-31.146 7.782v11c0 2.861 11.092 7 31.146 7 19.963 0 30.854-5.285 30.854-8v-10c-.001-2.716-10.598-7.782-30.854-7.782z"/><path fill="#F6E89A" d="M71.192 109.167c-2.082.13-4.252.198-6.496.198-18.502 0-34-4.647-34-10 0-5.354 14.645-9.782 33.146-9.782s32.854 4.429 32.854 9.782c0 2.755-3.577 5.324-9.572 7.168"/><path fill="#702C17" d="M64.696 111.365c-17.452 0-36-4.206-36-12 0-7.735 17.681-11.782 35.146-11.782 17.32 0 34.854 4.047 34.854 11.782 0 3.729-3.798 6.869-10.984 9.08a2.005 2.005 0 0 1-2.5-1.324 2.002 2.002 0 0 1 1.324-2.5c5.637-1.733 8.16-3.889 8.16-5.256 0-2.716-10.597-7.782-30.854-7.782-20.449 0-31.146 5.066-31.146 7.782 0 2.82 12.149 8 32 8 2.16 0 4.304-.065 6.371-.194a1.988 1.988 0 0 1 2.121 1.871 2 2 0 0 1-1.871 2.121c-2.15.134-4.378.202-6.621.202z"/><path fill="#F6E89A" d="M44.62 96.491c0 2.485 8.523 4.5 19.039 4.5 10.514 0 19.037-2.015 19.037-4.5v-33.5c0 2.485-8.523 3-19.037 3-10.516 0-19.039-.515-19.039-3v33.5z"/><path fill="#702C17" d="M63.659 102.991c-3.514 0-21.039-.313-21.039-6.5v-33.5a2 2 0 0 1 3.946-.464c.922.595 4.437 1.464 17.093 1.464 12.655 0 16.169-.869 17.091-1.464a2 2 0 0 1 3.946.464v33.5c0 6.187-17.524 6.5-21.037 6.5zM46.62 96.197c1.097 1.011 7.007 2.794 17.039 2.794 10.031 0 15.94-1.783 17.037-2.794V66.771c-3.217.88-8.614 1.22-17.037 1.22-8.423 0-13.822-.34-17.039-1.22v29.426z"/><path fill="#FFF" d="M48.695 99.365a2 2 0 0 1-1.999-1.959l-.613-30.03a2.001 2.001 0 0 1 3.109-1.705c2.537 1.691 10.957 1.691 15.004 1.691 9.649 0 14.572-1.186 15.611-1.999a2.002 2.002 0 0 1 3.965.377c0 1.391 0 5.622-19.576 5.622-5.156 0-10.374-.102-14.052-1.055l.552 27.017a2.001 2.001 0 0 1-1.959 2.041h-.042z"/><path fill="#F6E89A" d="M35.696 44.865c0 3.59 11.959 6.5 27.146 6.5 15.187 0 27.854-3.41 27.854-7v14c0 3.59-12.666 6.626-27.854 6.626-15.188 0-27.146-3.036-27.146-6.626v-13.5z"/><path fill="#702C17" d="M92.696 44.365v14c0 6.823-19.527 8.626-29.854 8.626-10.825 0-29.146-1.816-29.146-8.626v-13.5c0-1.104-.092-1.032 1.013-1.032 1.08 0 .5-.217 2.986.959 2.224 1.033 9.802 4.573 25.147 4.573 15.21 0 25.474-4.589 27.401-5.521l2.453.521m-55 13.933c.795 1.658 10.014 4.693 25.146 4.693 15.4 0 24.933-3.046 25.854-4.719V49.13c-5.957 3.036-17.368 4.234-25.854 4.234-2.251 0-17.698-.136-25.146-3.751v8.685z"/><path fill="#FFF" d="M62.843 57.49c-2.983 0-29.146-.238-29.146-8.5a2 2 0 0 1 3.999-.073c.809 1.659 9.802 4.573 25.147 4.573 15.21 0 24.985-3.338 25.855-5.088a2 2 0 0 1 3.998.088c0 6.604-17.853 9-29.853 9z"/><path fill="#702C17" d="M65.696 94.365a2 2 0 0 1-2-2V78.873l-1.466 1.752a2 2 0 0 1-3.068-2.566l5-5.977a1.998 1.998 0 0 1 2.217-.597 1.983 1.983 0 0 1 1.299 1.88v19c0 1.105-.877 2-1.982 2z"/><path fill="#702C17" d="M69.678 94.991h-9a2 2 0 0 1 0-4h9a2 2 0 0 1 0 4z"/><path fill="#702C17" d="M63.659 102.991c-3.514 0-21.039-.313-21.039-6.5v-33.04a2 2 0 0 1 3.449-1.379c1.618.641 8.75 1.919 17.59 1.919 9.269 0 15.927-1.482 17.415-2.171a2 2 0 0 1 3.622 1.171v33.5c0 6.187-17.524 6.5-21.037 6.5zM46.62 96.197c1.097 1.011 7.007 2.794 17.039 2.794 10.031 0 15.94-1.783 17.037-2.794V66.16c-.896.243-1.964.472-3.224.698-2.361.423-7.297 1.133-13.813 1.133-6.404 0-11.377-.625-13.771-.998-1.29-.2-2.37-.397-3.269-.604v29.808z"/><path fill="#702C17" d="M92.696 44.365v14c0 6.823-19.527 8.626-29.854 8.626-10.825 0-29.146-1.816-29.146-8.626v-13.5c0-1.104.377.251 1.481.251 1.08 0 .17.168 2.469.156.808 1.659 9.85 4.093 25.196 4.093 15.21 0 24.822-3.654 26.168-5M37.678 57.991c.795 1.658 10.032 5 25.165 5 15.4 0 24.933-3.046 25.854-4.719V49.13c-5.957 3.036-17.368 4.234-25.854 4.234-2.251 0-17.717.241-25.165-3.374v8.001z"/><path fill="#702C17" d="M35.696 47.491c0 3.59 11.959 6.5 27.146 6.5 15.187 0 27.854-2.41 27.854-6v11c0 1.767-3.072 3.398-8 4.602v27.37c8.531 1.775 14 4.726 14 8.028v10c0 5.353-14.353 10-32.854 10-18.502 0-33.146-3.647-33.146-9v-11c0-3.268 5.463-6.189 13.924-7.971V63.894c-5.503-1.224-8.924-2.983-8.924-4.903v-11.5m-.018-2.781c-2.209 0-3.981.572-3.981 2.781v11.5c0 4.6 5.17 6.867 8.981 8v21c-11.412 3.034-13.981 7.522-13.981 11v11c0 12.063 28.432 13 37.146 13 18.344 0 36.835-4.329 36.835-14v-10c0-3.513-2.525-7.976-14-11v-21c3.472-1.142 8-3.729 8-8v-11c0-2.209-1.772-4-3.981-4a4.002 4.002 0 0 0-3.812 2.784c-1.918 1.151-9.652 3.216-24.042 3.216-13.24 0-21.342-2.208-23.29-3.565-2.313-1.091-2.084-1.247-3.875-1.716z"/></svg>