<svg xmlns="http://www.w3.org/2000/svg" xmlns:xlink="http://www.w3.org/1999/xlink" viewBox="0 0 128 128"><ellipse fill="#B8CBCD" cx="65.234" cy="108.179" rx="47.667" ry="10.186"/><circle fill="#FFF" cx="63.178" cy="58.991" r="48"/><defs><path id="a" d="M114.726 56.565c1.449 27.092-20.727 49.714-48.285 50.316-26.952 1.799-53.551-20.332-52.95-51.035 1.028-31.052 27.354-47.7 51.687-45.666 25.151.255 48.868 18.862 49.548 46.385z"/></defs><defs><path id="b" d="M114.726 56.565c1.449 27.092-20.727 49.714-48.285 50.316-26.952 1.799-53.551-20.332-52.95-51.035 1.028-31.052 27.354-47.7 51.687-45.666 25.151.255 48.868 18.862 49.548 46.385z"/></defs><clipPath id="c"><use xlink:href="#b" overflow="visible"/></clipPath><path clip-path="url(#c)" fill="#B9E3ED" d="M-14.896 17.266c-.043-2.269.089-4.189.188-5.952 2.972-2.635 6.434-4.652 10.294-5.687 3.515-.161 7.076-.309 10.674-.439-.475.12-.705.684-.589 1.83-3.731 1.703-7.317 4.275-10.65 7.399-3.699.843-7.034 1.792-9.917 2.849z"/><path clip-path="url(#c)" fill="#324654" d="M-14.896 19.266a2.001 2.001 0 0 1-2-1.962c-.039-2.096.065-3.913.157-5.517l.033-.585a2 2 0 0 1 .67-1.385c3.376-2.993 7.111-5.053 11.104-6.122.14-.037.282-.06.426-.066 3.522-.161 7.089-.309 10.693-.44.999-.049 1.907.703 2.052 1.716a1.996 1.996 0 0 1-.594 1.726c.003.054.008.115.016.186a2 2 0 0 1-1.16 2.021c-3.366 1.537-6.768 3.905-10.112 7.039-.26.243-.578.412-.924.491-3.677.837-6.931 1.77-9.672 2.775a1.98 1.98 0 0 1-.689.123zm2.136-6.992c-.04.711-.08 1.434-.107 2.189a91.927 91.927 0 0 1 6.919-1.875c2.212-2.034 4.46-3.768 6.722-5.187-1.634.069-3.259.14-4.875.213-3.072.857-5.98 2.423-8.659 4.66z"/><path clip-path="url(#c)" fill="#B9E3ED" d="M-3.587 102.892c-3.132-4.025-6.046-8.408-8.658-12.916 1.155-3.889 2.663-8.171 4.508-12.736 4.368.28 9.258.519 14.499.71a259.978 259.978 0 0 0 9.105 14.751c-2.25 4.436-4.211 8.485-5.811 12.008-4.883-.505-9.471-1.107-13.643-1.817z"/><path clip-path="url(#c)" fill="#324654" d="M10.058 106.708c-.068 0-.137-.004-.206-.011-5.05-.521-9.684-1.138-13.774-1.834a2 2 0 0 1-1.242-.743c-3.107-3.993-6.071-8.415-8.811-13.142a1.998 1.998 0 0 1-.186-1.572c1.194-4.021 2.732-8.367 4.57-12.916a1.986 1.986 0 0 1 1.982-1.247 528.3 528.3 0 0 0 14.444.707 1.998 1.998 0 0 1 1.662 1.005c2.907 5.075 5.947 10 9.035 14.637a2 2 0 0 1 .118 2.013c-2.251 4.439-4.193 8.453-5.773 11.931a1.998 1.998 0 0 1-1.819 1.172zm-12.541-5.659c3.421.565 7.22 1.074 11.319 1.519a321.134 321.134 0 0 1 4.721-9.732A260.94 260.94 0 0 1 5.58 79.907a539.96 539.96 0 0 1-11.998-.581c-1.434 3.638-2.663 7.124-3.662 10.394 2.386 4.048 4.936 7.853 7.597 11.329z"/><path clip-path="url(#c)" fill="#324654" d="M-7.737 77.239a168.19 168.19 0 0 1-6.667-14.353 167.767 167.767 0 0 1 6.718-14.357c4.365-.296 9.251-.542 14.487-.746a379.15 379.15 0 0 0 7.748 15.066 374.607 374.607 0 0 0-7.787 15.1 532.535 532.535 0 0 1-14.499-.71z"/><path clip-path="url(#c)" fill="#B9E3ED" d="M-7.684 48.474c-1.823-4.545-3.31-8.796-4.444-12.654 2.629-4.491 5.56-8.846 8.708-12.832 4.164-.716 8.742-1.324 13.609-1.832 1.579 3.474 3.519 7.476 5.752 11.878a257.048 257.048 0 0 0-9.138 14.692c-5.234.204-10.119.451-14.487.748z"/><path clip-path="url(#c)" fill="#324654" d="M-7.685 50.474a2 2 0 0 1-1.856-1.255c-1.82-4.538-3.337-8.856-4.507-12.835a2.002 2.002 0 0 1 .193-1.575c2.757-4.71 5.739-9.104 8.864-13.061a1.993 1.993 0 0 1 1.23-.731c4.091-.703 8.714-1.326 13.74-1.851a2.01 2.01 0 0 1 2.028 1.161c1.561 3.432 3.483 7.402 5.715 11.801a1.999 1.999 0 0 1-.123 2.02 253.9 253.9 0 0 0-9.065 14.577 1.998 1.998 0 0 1-1.654.998c-5.399.211-10.254.462-14.43.745a1.49 1.49 0 0 1-.135.006zm-2.277-14.39c.977 3.228 2.185 6.683 3.6 10.298 3.575-.228 7.596-.433 11.986-.611a258.933 258.933 0 0 1 8.005-12.877 317.527 317.527 0 0 1-4.658-9.597c-4.083.448-7.873.963-11.294 1.533-2.675 3.442-5.24 7.222-7.639 11.254z"/><path clip-path="url(#c)" fill="#B9E3ED" d="M-3.42 22.987c-1.02-3.271-1.684-6.055-2.035-8.348 3.316-3.148 6.892-5.751 10.618-7.492a249.67 249.67 0 0 1 12.038-1.475c.592.993 1.605 2.716 3.017 5.126-3.356 2.838-6.738 6.378-10.028 10.358-4.868.507-9.446 1.115-13.61 1.831z"/><path clip-path="url(#c)" fill="#324654" d="M-3.421 24.987a2 2 0 0 1-1.908-1.404c-1.016-3.255-1.723-6.162-2.103-8.641-.1-.648.124-1.302.6-1.753C-3.192 9.733.559 7.09 4.316 5.335c.175-.082.361-.139.553-.167 3.82-.567 7.903-1.068 12.135-1.487.768-.076 1.519.3 1.915.967.594.995 1.61 2.723 3.024 5.139a2 2 0 0 1-.434 2.538c-3.14 2.655-6.43 6.055-9.778 10.104-.333.403-.813.66-1.333.715-4.94.516-9.475 1.126-13.479 1.814a2.072 2.072 0 0 1-.34.029zm.117-9.617c.295 1.606.727 3.398 1.292 5.356a218.736 218.736 0 0 1 11.184-1.474c2.876-3.429 5.722-6.405 8.481-8.874-.603-1.028-1.111-1.893-1.521-2.588A248.84 248.84 0 0 0 5.75 9.082c-3.021 1.449-6.062 3.561-9.054 6.288z"/><path clip-path="url(#c)" fill="#B9E3ED" d="M15.941 92.489A262.22 262.22 0 0 1 6.84 77.72c2.361-4.85 5.381-10.414 8.19-15.582 5.327.002 10.761.007 16.776.004 3.004 5.281 6.444 11.056 9.525 16.243-2.978 5.152-5.854 10.133-8.523 14.752a576.88 576.88 0 0 1-16.867-.648z"/><path clip-path="url(#c)" fill="#324654" d="M32.809 95.138l-.049-.001a582.67 582.67 0 0 1-16.927-.65 2.002 2.002 0 0 1-1.559-.89 264.192 264.192 0 0 1-9.17-14.883 2.001 2.001 0 0 1-.063-1.869c2.429-4.987 5.512-10.658 8.232-15.661a1.998 1.998 0 0 1 1.757-1.045h.001l12.863.005 3.911-.001h.001c.719 0 1.383.386 1.738 1.011 2.786 4.898 6.014 10.331 8.86 15.123l.647 1.088c.369.622.374 1.396.012 2.022L34.54 94.139a1.997 1.997 0 0 1-1.731.999zm-15.755-4.593c4.656.241 9.563.431 14.618.563l7.343-12.709-.048-.08c-2.662-4.481-5.655-9.519-8.32-14.177l-2.751.001-11.676-.003c-2.378 4.377-4.974 9.179-7.114 13.507a258.768 258.768 0 0 0 7.948 12.898z"/><path clip-path="url(#c)" fill="#B9E3ED" d="M15.031 63.019c-2.791-5.162-5.791-10.652-8.125-15.47a255.456 255.456 0 0 1 9.145-14.682 554.738 554.738 0 0 1 16.814-.671c2.649 4.566 5.514 9.507 8.481 14.634-3.081 5.166-6.525 10.906-9.538 16.19-6.017.003-11.17-.007-16.777-.001z"/><path clip-path="url(#c)" fill="#324654" d="M29.591 65.021l-10.42-.004-4.138.002h-.002c-.734 0-1.41-.402-1.76-1.049l-.792-1.464C9.904 57.747 7.24 52.825 5.106 48.42a2 2 0 0 1 .068-1.873 257.644 257.644 0 0 1 9.217-14.797 2 2 0 0 1 1.548-.881 555.49 555.49 0 0 1 16.875-.673 1.976 1.976 0 0 1 1.78.995c2.65 4.567 5.515 9.509 8.482 14.636a2.002 2.002 0 0 1-.014 2.026l-1.068 1.79c-2.847 4.77-5.791 9.702-8.45 14.366a2 2 0 0 1-1.736 1.01l-2.217.002zm-10.42-4.003l10.42.004 1.057-.001c2.522-4.395 5.26-8.98 7.913-13.426l.466-.78c-2.537-4.383-4.992-8.617-7.295-12.588-5.08.14-9.972.335-14.574.583a253.43 253.43 0 0 0-7.985 12.82c2.014 4.081 4.457 8.596 6.826 12.973l.225.416 2.947-.001z"/><path clip-path="url(#c)" fill="#B9E3ED" d="M41.399 106.489c-2.978-3.938-6.087-8.394-9.215-13.146 2.652-4.604 5.41-9.396 8.38-14.542a9414.8 9414.8 0 0 1 18.41-.003c2.97 5.149 5.76 9.944 8.418 14.551-3.125 4.755-6.232 9.21-9.203 13.146a467.54 467.54 0 0 1-16.79-.006z"/><path clip-path="url(#c)" fill="#324654" d="M49.978 108.567c-2.861 0-5.761-.026-8.615-.078a2.003 2.003 0 0 1-1.559-.794c-2.911-3.851-6.036-8.31-9.29-13.253a2.004 2.004 0 0 1-.063-2.098l2.345-4.07c1.931-3.353 3.931-6.824 6.036-10.474a2.002 2.002 0 0 1 1.73-1c3.584-.004 7.163-.006 10.743-.006l7.671.003a1.998 1.998 0 0 1 1.73 1.001c1.563 2.71 3.077 5.323 4.548 7.861a6017.59 6017.59 0 0 1 3.87 6.688 2 2 0 0 1-.062 2.099c-3.236 4.925-6.358 9.384-9.277 13.253-.371.49-.946.784-1.561.795-2.719.049-5.495.073-8.246.073zm-7.567-4.061c4.913.08 9.889.082 14.767.006 2.493-3.341 5.133-7.111 7.865-11.233a9320.621 9320.621 0 0 0-3.249-5.612c-1.29-2.228-2.613-4.512-3.975-6.868l-6.514-.003c-3.194 0-6.389.001-9.586.005-1.895 3.284-3.704 6.427-5.458 9.471l-1.728 3c2.746 4.135 5.39 7.907 7.878 11.234z"/><path clip-path="url(#c)" fill="#B9E3ED" d="M40.681 47.016l-8.457-14.64c3.128-4.72 6.151-8.862 9.122-12.744 5.313.008 11.509.01 16.822.003 2.967 3.883 6.061 8.013 9.188 12.733-2.646 4.572-5.505 9.517-8.47 14.646-6.048-.038-12.16-.039-18.205.002z"/><path clip-path="url(#c)" fill="#324654" d="M40.681 49.016a1.998 1.998 0 0 1-1.731-1l-8.457-14.639a2 2 0 0 1 .064-2.105c2.807-4.235 5.731-8.32 9.201-12.856a2 2 0 0 1 1.588-.784h.003c3.091.005 6.48.007 9.821.007l6.995-.004h.003c.623 0 1.211.29 1.589.786 2.758 3.608 5.975 7.874 9.266 12.843.42.633.444 1.449.064 2.106l-8.47 14.645a2 2 0 0 1-1.731.999h-.013c-6.039-.038-12.142-.04-18.179.002h-.013zm-6.104-16.564l7.254 12.556c5.287-.031 10.616-.03 15.905-.001l7.265-12.563c-2.75-4.084-5.441-7.684-7.822-10.809l-6.009.003c-2.989 0-6.017-.002-8.835-.006a223.444 223.444 0 0 0-7.758 10.82z"/><path clip-path="url(#c)" fill="#B9E3ED" d="M41.346 19.632c-2.584-3.779-4.844-7.284-6.835-9.777 3.043-2.712 5.939-4.677 8.542-5.658 4.508-.087 9.047-.09 13.556-.007 2.588.979 5.469 2.939 8.504 5.649-2.006 2.495-4.351 6.014-6.945 9.796-5.315.007-11.508.005-16.822-.003z"/><path clip-path="url(#c)" fill="#324654" d="M51.169 21.639c-3.342 0-6.732-.002-9.826-.007a2 2 0 0 1-1.648-.871 563.035 563.035 0 0 1-1.896-2.8c-1.754-2.6-3.41-5.056-4.85-6.858a2 2 0 0 1 .232-2.741c3.33-2.967 6.414-4.998 9.167-6.036.214-.081.44-.124.668-.129 4.534-.085 9.098-.088 13.632-.006.229.005.456.048.67.129 2.737 1.035 5.809 3.063 9.129 6.027a2 2 0 0 1 .227 2.745c-1.638 2.037-3.578 4.879-5.633 7.888l-1.222 1.786a2 2 0 0 1-1.646.869l-7.004.004zm-8.765-4.006c2.799.004 5.801.006 8.765.006l5.943-.003.624-.912c1.636-2.396 3.201-4.688 4.634-6.605-2.261-1.867-4.326-3.187-6.156-3.935a357.42 357.42 0 0 0-12.766.006c-1.848.751-3.927 2.077-6.202 3.952 1.216 1.651 2.514 3.575 3.868 5.583.42.623.851 1.26 1.29 1.908z"/><path clip-path="url(#c)" fill="#B9E3ED" d="M67.269 93.132l-8.512-14.748c3.082-5.188 5.97-10.961 8.971-16.241 6.008.004 12.037-.007 17.636-.003 2.808 5.166 5.492 10.726 7.85 15.572a263.037 263.037 0 0 1-9.091 14.767c-5.402.29-11.064.51-16.854.653z"/><path clip-path="url(#c)" fill="#324654" d="M67.269 95.132c-.714 0-1.374-.38-1.732-1l1.732-1-1.733.998-8.511-14.747a2 2 0 0 1 .013-2.021c1.746-2.94 3.466-6.136 5.128-9.227 1.245-2.315 2.532-4.709 3.823-6.981a2.003 2.003 0 0 1 1.739-1.012h.001l2.855.001 12.087-.005 2.693.001a2.001 2.001 0 0 1 1.756 1.045c2.666 4.905 5.222 10.162 7.477 14.8l.415.853a2 2 0 0 1-.063 1.868 266.017 266.017 0 0 1-9.161 14.88c-.35.526-.928.856-1.559.891-5.427.292-11.116.513-16.912.655l-.048.001zm-6.197-16.739l7.335 12.71c4.99-.133 9.893-.323 14.604-.568a259.766 259.766 0 0 0 7.941-12.9c-2.064-4.244-4.379-9.004-6.782-13.494l-1.498-.001-12.087.005-1.688-.001c-1.079 1.929-2.158 3.937-3.208 5.888-1.496 2.778-3.036 5.643-4.617 8.361z"/><path clip-path="url(#c)" fill="#B9E3ED" d="M67.728 63.02c-3.011-5.283-5.901-11.022-8.984-16.188 2.964-5.126 5.822-10.065 8.47-14.63 5.77.149 11.414.374 16.799.677a254.72 254.72 0 0 1 9.136 14.679c-2.332 4.815-4.995 10.302-7.785 15.462-5.599-.008-11.628.003-17.636 0z"/><path clip-path="url(#c)" fill="#324654" d="M69.811 65.02h-2.084a1.998 1.998 0 0 1-1.736-1.01c-1.282-2.249-2.559-4.61-3.793-6.894-1.677-3.103-3.411-6.311-5.172-9.26a2.002 2.002 0 0 1-.014-2.026c2.965-5.127 5.823-10.067 8.471-14.633.367-.632 1.053-1.031 1.782-.995 5.878.152 11.55.381 16.859.679a1.998 1.998 0 0 1 1.547.881 256.77 256.77 0 0 1 9.209 14.795c.331.574.356 1.275.067 1.872-2.208 4.559-4.955 10.232-7.825 15.541a2.002 2.002 0 0 1-1.76 1.049h-.003l-4.419-.003-11.129.004zm-.916-4l15.271-.002c2.431-4.558 4.763-9.342 6.719-13.377a251.968 251.968 0 0 0-7.98-12.82 560.25 560.25 0 0 0-14.559-.588c-2.301 3.97-4.753 8.205-7.287 12.588 1.594 2.728 3.148 5.604 4.656 8.394 1.042 1.923 2.11 3.9 3.18 5.805z"/><path clip-path="url(#c)" fill="#B9E3ED" d="M64.972 9.713c-3.029-2.688-5.902-4.621-8.48-5.568 1.922-.871 3.455-.797 4.515.312 3.737.033 7.465.084 11.172.15 3.39-.797 6.953-.37 10.531 1.007-.587.967-1.596 2.67-3 5.061-4.761-.429-9.704-.75-14.738-.962z"/><path clip-path="url(#c)" fill="#324654" d="M79.71 12.674c-.061 0-.12-.003-.18-.008a309.066 309.066 0 0 0-14.642-.955 1.99 1.99 0 0 1-1.243-.502c-2.943-2.611-5.582-4.357-7.843-5.188a2 2 0 0 1-.136-3.699c2.375-1.078 4.499-1.004 6.085.14 3.418.032 6.828.079 10.221.14 3.574-.782 7.46-.392 11.456 1.145a2 2 0 0 1 .991 2.905 469 469 0 0 0-2.985 5.035 2.001 2.001 0 0 1-1.724.987zM65.76 7.745c4.391.194 8.709.472 12.865.826.398-.677.759-1.286 1.079-1.827-2.5-.642-4.875-.708-7.068-.19a2.034 2.034 0 0 1-.494.053 1206.07 1206.07 0 0 0-7.896-.117c.497.395 1.003.814 1.514 1.255z"/><path clip-path="url(#c)" fill="#B9E3ED" d="M89.377 104.759c-1.623-3.533-3.602-7.59-5.868-12.032 3.15-4.734 6.223-9.72 9.116-14.76a561.358 561.358 0 0 0 14.579-.702c1.864 4.574 3.396 8.867 4.577 12.77-2.623 4.515-5.55 8.902-8.685 12.93-4.202.702-8.818 1.299-13.719 1.794z"/><path clip-path="url(#c)" fill="#324654" d="M89.376 106.759a2 2 0 0 1-1.816-1.165c-1.612-3.511-3.575-7.534-5.832-11.958a2.002 2.002 0 0 1 .116-2.018 262.351 262.351 0 0 0 9.047-14.647 2 2 0 0 1 1.662-1.003c5.338-.194 10.226-.43 14.526-.699a2.002 2.002 0 0 1 1.978 1.241c1.857 4.558 3.418 8.913 4.639 12.944a2 2 0 0 1-.185 1.585c-2.741 4.717-5.714 9.143-8.837 13.153a2.001 2.001 0 0 1-1.248.744c-4.134.691-8.793 1.302-13.848 1.813-.067.007-.135.01-.202.01zm-3.557-13.901a336.056 336.056 0 0 1 4.772 9.764c4.115-.438 7.94-.942 11.402-1.504 2.674-3.489 5.231-7.296 7.617-11.337-1.021-3.283-2.271-6.782-3.724-10.433-3.667.218-7.72.41-12.083.576a264.197 264.197 0 0 1-7.984 12.934z"/><path clip-path="url(#c)" fill="#B9E3ED" d="M92.581 47.709a257.47 257.47 0 0 0-9.144-14.702c2.248-4.407 4.207-8.423 5.807-11.902 4.889.499 9.491 1.101 13.685 1.81 3.153 3.988 6.094 8.347 8.737 12.844-1.162 3.87-2.671 8.135-4.518 12.689-4.4-.293-9.31-.539-14.567-.739z"/><path clip-path="url(#c)" fill="#324654" d="M107.149 50.447c-.045 0-.089-.001-.134-.004-4.288-.285-9.17-.532-14.511-.735a1.998 1.998 0 0 1-1.656-.999 255.261 255.261 0 0 0-9.071-14.587 2 2 0 0 1-.121-2.024c2.238-4.388 4.18-8.367 5.771-11.828a1.982 1.982 0 0 1 2.02-1.154c5.023.513 9.67 1.127 13.815 1.827a2 2 0 0 1 1.236.731c3.128 3.956 6.119 8.354 8.893 13.07.281.48.351 1.056.19 1.589-1.206 4.018-2.747 8.346-4.579 12.866a2 2 0 0 1-1.853 1.248zm-13.39-4.694c4.364.174 8.413.376 12.072.605 1.429-3.61 2.658-7.078 3.665-10.34-2.411-4.036-4.984-7.817-7.662-11.259a210.42 210.42 0 0 0-11.377-1.518 339.766 339.766 0 0 1-4.706 9.628 260.839 260.839 0 0 1 8.008 12.884z"/><path clip-path="url(#c)" fill="#B9E3ED" d="M89.244 21.104c-3.287-3.981-6.664-7.522-10.013-10.356a324.69 324.69 0 0 1 3.089-5.125c4.182.405 8.225.891 12.077 1.458 3.726 1.73 7.307 4.319 10.632 7.463-.371 2.298-1.057 5.087-2.101 8.369-4.193-.707-8.793-1.31-13.684-1.809z"/><path clip-path="url(#c)" fill="#324654" d="M102.93 24.914c-.11 0-.222-.009-.334-.028-4.062-.686-8.622-1.288-13.555-1.792a1.997 1.997 0 0 1-1.339-.716c-3.349-4.055-6.634-7.454-9.763-10.102a2 2 0 0 1-.428-2.548 321.31 321.31 0 0 1 3.112-5.163 1.963 1.963 0 0 1 1.89-.931c4.258.412 8.354.907 12.175 1.47a2 2 0 0 1 .551.164c3.766 1.748 7.522 4.381 11.164 7.824.481.455.706 1.118.601 1.772-.4 2.476-1.13 5.388-2.169 8.656a2.002 2.002 0 0 1-1.905 1.394zm-12.669-5.715c4.026.423 7.806.913 11.269 1.46.583-1.972 1.031-3.775 1.341-5.388-2.991-2.713-6.032-4.813-9.056-6.254-3.3-.481-6.807-.91-10.446-1.28-.422.694-.945 1.563-1.564 2.601 2.748 2.462 5.585 5.434 8.456 8.861z"/><path clip-path="url(#c)" fill="#B9E3ED" d="M111.881 89.823c-1.182-3.907-2.717-8.206-4.585-12.787 2.532-4.852 4.784-9.7 6.692-14.37 3.85.013 7.078.028 9.494.047 1.222 4.295 2.057 8.368 2.555 12.116-1.102 4.213-2.638 8.578-4.588 12.903-2.52.786-5.765 1.482-9.568 2.091z"/><path clip-path="url(#c)" fill="#324654" d="M111.879 91.823a1.998 1.998 0 0 1-1.912-1.421c-1.182-3.905-2.703-8.148-4.522-12.611a2.002 2.002 0 0 1 .078-1.681 168.708 168.708 0 0 0 6.614-14.201 2 2 0 0 1 1.851-1.243h.007c3.852.013 7.084.028 9.503.047a2 2 0 0 1 1.908 1.453c1.202 4.229 2.082 8.4 2.613 12.399.034.258.019.519-.048.77-1.154 4.417-2.735 8.865-4.699 13.22a2.001 2.001 0 0 1-1.229 1.087c-2.536.79-5.85 1.516-9.847 2.156a1.992 1.992 0 0 1-.317.025zm-2.384-14.683c1.462 3.638 2.729 7.132 3.777 10.422 2.623-.46 4.875-.957 6.724-1.483a79.911 79.911 0 0 0 4.006-11.375 83.08 83.08 0 0 0-2.046-10.001c-1.867-.012-4.099-.022-6.633-.031a173.778 173.778 0 0 1-5.828 12.468z"/><path clip-path="url(#c)" fill="#B9E3ED" d="M113.988 62.666a170.976 170.976 0 0 0-6.774-14.379c1.837-4.548 3.34-8.804 4.493-12.666 3.797.631 7.044 1.35 9.573 2.161a81.483 81.483 0 0 1 4.682 12.89c-.478 3.716-1.285 7.761-2.479 12.041-2.418-.019-5.646-.033-9.495-.047z"/><path clip-path="url(#c)" fill="#324654" d="M123.482 64.713h-.016c-2.415-.019-5.641-.033-9.485-.047a2.002 2.002 0 0 1-1.842-1.235 168.15 168.15 0 0 0-6.694-14.21 2 2 0 0 1-.086-1.683c1.786-4.423 3.277-8.625 4.432-12.489a2.006 2.006 0 0 1 2.244-1.4c4.001.664 7.316 1.415 9.857 2.23a2 2 0 0 1 1.205 1.068 83.276 83.276 0 0 1 4.797 13.208c.067.252.085.514.052.772-.511 3.977-1.364 8.122-2.536 12.323a2.004 2.004 0 0 1-1.928 1.463zm-8.161-4.042c2.532.01 4.763.02 6.633.031a82.596 82.596 0 0 0 1.973-9.894 79.066 79.066 0 0 0-4.096-11.379c-1.848-.543-4.103-1.058-6.729-1.536a150.118 150.118 0 0 1-3.688 10.281 173.92 173.92 0 0 1 5.907 12.497z"/><path clip-path="url(#c)" fill="#324654" d="M111.697 35.572c-2.645-4.489-5.59-8.839-8.744-12.816 1.034-3.267 1.71-6.039 2.07-8.323 3.693.843 7.024 1.795 9.902 2.852 2.836 3.328 5.266 7.098 7.22 11.041a73.189 73.189 0 0 1-.875 9.409c-2.528-.81-5.775-1.531-9.573-2.163z"/><path clip-path="url(#c)" fill="#B9E3ED" d="M105.023 14.433c-3.329-3.129-6.912-5.702-10.645-7.408.118-1.145-.114-1.712-.588-1.832 3.598.131 7.156.278 10.672.44 3.856 1.036 7.317 3.057 10.283 5.694.096 1.765.225 3.688.18 5.958-2.877-1.058-6.209-2.008-9.902-2.852z"/><path clip-path="url(#c)" fill="#324654" d="M114.926 19.285c-.232 0-.467-.04-.69-.123-2.722-1.001-5.972-1.937-9.658-2.78a2.002 2.002 0 0 1-.924-.492c-3.336-3.135-6.735-5.506-10.105-7.046a2 2 0 0 1-1.158-2.024c.007-.07.012-.132.015-.185a1.998 1.998 0 0 1-.593-1.726c.146-1.012 1.041-1.768 2.052-1.715 3.605.132 7.17.279 10.692.441.144.007.288.029.427.066 3.993 1.073 7.726 3.136 11.094 6.132.398.354.639.854.668 1.386l.033.596c.089 1.603.19 3.419.149 5.511a2 2 0 0 1-2.002 1.959zm-8.931-6.681a92.57 92.57 0 0 1 6.906 1.877 99.845 99.845 0 0 0-.105-2.196c-2.672-2.239-5.576-3.807-8.647-4.665-1.617-.074-3.243-.146-4.879-.213 2.264 1.422 4.513 3.159 6.725 5.197z"/><path clip-path="url(#c)" fill="#B9E3ED" d="M122.111 97.56a74.409 74.409 0 0 0-.974-9.557c1.984-4.331 3.563-8.706 4.706-12.937 1.671-.469 2.461-.986 2.202-1.556-.287 3.209-.826 6.085-1.39 8.688a39.499 39.499 0 0 1-.537 11.616c-.56 1.368-1.943 2.615-4.007 3.746z"/><path clip-path="url(#c)" fill="#324654" d="M122.111 99.56a1.998 1.998 0 0 1-1.999-1.929 72 72 0 0 0-.947-9.301 2.001 2.001 0 0 1 .154-1.16c1.913-4.176 3.459-8.424 4.594-12.625a1.996 1.996 0 0 1 1.391-1.404c.388-.108.661-.204.851-.278a1.997 1.997 0 0 1 1.556-1.323 1.991 1.991 0 0 1 2.156 1.145c.274.603.302 1.253.09 1.854-.317 3.038-.838 5.716-1.278 7.774a41.356 41.356 0 0 1-.596 11.886 2.004 2.004 0 0 1-.113.378c-.733 1.783-2.335 3.332-4.896 4.737a2.01 2.01 0 0 1-.963.246zm1.098-11.28c.291 1.838.514 3.638.669 5.43a3.02 3.02 0 0 0 .321-.501c.551-2.918.76-5.851.623-8.748a89.849 89.849 0 0 1-1.613 3.819z"/><path clip-path="url(#c)" fill="#324654" d="M125.844 75.067c-.523-3.76-1.382-7.845-2.631-12.154 1.231-4.298 2.075-8.366 2.583-12.107 1.675.49 2.475 1.033 2.226 1.628a44.872 44.872 0 0 1-1.108 10.559 45.05 45.05 0 0 1 1.133 10.52c.258.568-.533 1.085-2.203 1.554z"/><path clip-path="url(#c)" fill="#B9E3ED" d="M-4.414 120.83c-3.86-1.034-7.321-3.052-10.294-5.687-.099-1.762-.229-3.683-.188-5.951 2.884 1.056 6.219 2.005 9.916 2.847 3.333 3.126 6.918 5.695 10.65 7.4-.117 1.146.114 1.709.589 1.83-3.597-.13-7.158-.277-10.673-.439z"/><path clip-path="url(#c)" fill="#324654" d="M6.261 123.269l-.073-.001c-3.604-.132-7.173-.278-10.693-.44a2.043 2.043 0 0 1-.426-.066c-3.99-1.068-7.727-3.129-11.103-6.121a2.004 2.004 0 0 1-.671-1.386l-.032-.567c-.092-1.608-.196-3.431-.158-5.532a2.002 2.002 0 0 1 2.687-1.841c2.745 1.005 5.999 1.938 9.673 2.774a2 2 0 0 1 .924.491c3.338 3.131 6.74 5.499 10.113 7.04a1.998 1.998 0 0 1 1.158 2.022 5.123 5.123 0 0 0-.014.167 2 2 0 0 1-1.385 3.46zm-10.362-4.426c1.615.074 3.24.145 4.874.212-2.264-1.42-4.512-3.153-6.723-5.187a92.566 92.566 0 0 1-6.918-1.874c.027.755.067 1.478.107 2.188 2.681 2.239 5.59 3.804 8.66 4.661z"/><path clip-path="url(#c)" fill="#B9E3ED" d="M5.653 119.381c-3.727-1.725-7.31-4.314-10.64-7.454.37-2.297 1.055-5.085 2.098-8.367 4.2.708 8.807 1.31 13.7 1.806 3.29 3.979 6.667 7.517 10.015 10.348a310.69 310.69 0 0 1-3.093 5.124 249.981 249.981 0 0 1-12.08-1.457z"/><path clip-path="url(#c)" fill="#324654" d="M17.733 122.837c-.063 0-.128-.003-.192-.009a250.764 250.764 0 0 1-12.178-1.469 1.977 1.977 0 0 1-.551-.164c-3.76-1.74-7.519-4.37-11.171-7.814a2.002 2.002 0 0 1-.603-1.773c.398-2.475 1.128-5.386 2.166-8.654a2.005 2.005 0 0 1 2.238-1.367c4.073.688 8.639 1.289 13.57 1.788a2.005 2.005 0 0 1 1.339.716c3.354 4.055 6.639 7.451 9.765 10.095a2 2 0 0 1 .428 2.55 308.41 308.41 0 0 1-3.115 5.161c-.367.587-1.01.94-1.696.94zm-11.499-5.393c3.341.485 6.85.914 10.452 1.279.423-.693.946-1.563 1.566-2.6-2.746-2.459-5.583-5.428-8.457-8.853a218.774 218.774 0 0 1-11.284-1.457c-.582 1.971-1.03 3.773-1.339 5.384 3 2.714 6.044 4.812 9.062 6.247z"/><path clip-path="url(#c)" fill="#B9E3ED" d="M27.875 121.853c-3.39.796-6.953.369-10.53-1.007.587-.967 1.597-2.667 3.002-5.057 4.763.426 9.707.746 14.741.957 3.027 2.686 5.898 4.617 8.475 5.567-1.923.869-3.458.795-4.515-.312a1176.76 1176.76 0 0 1-11.173-.148z"/><path clip-path="url(#c)" fill="#324654" d="M41.206 124.906c-1.083 0-2.071-.312-2.902-.91-3.419-.033-6.828-.078-10.223-.139-3.576.78-7.461.392-11.454-1.145a2.002 2.002 0 0 1-.992-2.905c.584-.962 1.589-2.654 2.988-5.032a2.013 2.013 0 0 1 1.901-.979c4.71.421 9.638.741 14.647.951.46.02.898.196 1.243.502 2.939 2.607 5.577 4.353 7.84 5.187a2.002 2.002 0 0 1 .133 3.7c-1.129.511-2.2.77-3.181.77zm-20.855-5.19c2.499.644 4.872.707 7.066.19.161-.038.314-.056.493-.053 2.626.047 5.261.086 7.902.116a47.53 47.53 0 0 1-1.514-1.255 315.381 315.381 0 0 1-12.87-.823c-.397.676-.756 1.285-1.077 1.825z"/><path clip-path="url(#c)" fill="#B9E3ED" d="M43.443 122.268c-2.586-.978-5.464-2.938-8.496-5.647 2.009-2.492 4.367-5.724 6.964-9.51 5.559.1 11.174.094 16.729-.011 2.581 3.779 4.92 7.009 6.909 9.501-3.047 2.713-5.943 4.677-8.55 5.66a364.64 364.64 0 0 1-13.556.007z"/><path clip-path="url(#c)" fill="#324654" d="M50.025 124.327c-2.208 0-4.416-.02-6.618-.06a2.028 2.028 0 0 1-.671-.129c-2.734-1.034-5.804-3.062-9.122-6.027a2 2 0 0 1-.225-2.746c1.934-2.398 4.246-5.557 6.872-9.386a1.998 1.998 0 0 1 1.649-.869h.036c5.447.099 11.089.095 16.655-.011.65.012 1.31.315 1.689.872 2.624 3.843 4.919 6.999 6.821 9.381a2 2 0 0 1-.233 2.742c-3.332 2.967-6.419 4.998-9.174 6.037a2.006 2.006 0 0 1-.668.129c-2.324.045-4.684.067-7.011.067zm-6.186-4.053c4.249.073 8.521.072 12.766-.007 1.845-.751 3.922-2.072 6.193-3.941-1.54-2.011-3.281-4.425-5.198-7.208-4.904.081-9.834.085-14.649.01-1.926 2.783-3.683 5.203-5.246 7.226 2.253 1.861 4.309 3.175 6.134 3.92z"/><path clip-path="url(#c)" fill="#B9E3ED" d="M61.006 122.002c-1.059 1.107-2.593 1.182-4.515.312 2.577-.95 5.452-2.881 8.48-5.569 5.034-.212 9.979-.533 14.737-.96a480.688 480.688 0 0 0 3 5.06c-3.578 1.378-7.142 1.804-10.531 1.008-3.708.065-7.434.115-11.171.149z"/><path clip-path="url(#c)" fill="#324654" d="M58.847 124.906c-.981 0-2.052-.259-3.182-.771a2.002 2.002 0 0 1 .134-3.7c2.27-.837 4.909-2.582 7.844-5.188a2.004 2.004 0 0 1 1.244-.502c5.012-.211 9.938-.532 14.642-.954a2.015 2.015 0 0 1 1.903.979 466.738 466.738 0 0 0 2.984 5.035 2 2 0 0 1-.99 2.905c-3.991 1.538-7.878 1.927-11.456 1.146-3.395.061-6.803.106-10.221.14-.83.598-1.818.91-2.902.91zm13.331-5.054c.154 0 .308.018.457.053 2.196.515 4.571.451 7.069-.19l-1.079-1.827c-4.16.354-8.479.632-12.864.825-.512.441-1.017.86-1.516 1.256 2.64-.03 5.272-.069 7.896-.116l.037-.001z"/><path clip-path="url(#c)" fill="#B9E3ED" d="M82.851 120.781a774.183 774.183 0 0 1-3.013-5.127c3.359-2.84 6.739-6.383 10.025-10.366 4.865-.508 9.439-1.117 13.597-1.835 1.021 3.272 1.684 6.054 2.036 8.35-3.312 3.152-6.885 5.756-10.611 7.502-3.832.57-7.864 1.064-12.034 1.476z"/><path clip-path="url(#c)" fill="#324654" d="M82.851 122.781a2.002 2.002 0 0 1-1.718-.977c-.592-.995-1.61-2.724-3.021-5.143a1.999 1.999 0 0 1 .437-2.535c3.141-2.654 6.429-6.057 9.773-10.111a2.001 2.001 0 0 1 1.335-.717c4.936-.515 9.465-1.126 13.465-1.816a2 2 0 0 1 2.249 1.375c1.016 3.256 1.724 6.164 2.104 8.642.1.646-.124 1.301-.598 1.752-3.629 3.455-7.378 6.102-11.142 7.865a2.022 2.022 0 0 1-.555.167 249.968 249.968 0 0 1-12.132 1.488 1.87 1.87 0 0 1-.197.01zm-.45-6.706c.603 1.029 1.11 1.894 1.52 2.588a245.83 245.83 0 0 0 10.377-1.293c3.025-1.455 6.063-3.569 9.048-6.296-.295-1.606-.728-3.4-1.293-5.358-3.412.55-7.157 1.045-11.17 1.476-2.874 3.433-5.72 6.413-8.482 8.883z"/><path clip-path="url(#c)" fill="#B9E3ED" d="M93.791 121.266c.474-.121.705-.687.588-1.832 3.733-1.707 7.315-4.28 10.645-7.409 3.692-.844 7.024-1.794 9.902-2.852.045 2.271-.084 4.192-.18 5.956-2.967 2.64-6.426 4.66-10.283 5.695-3.516.162-7.075.31-10.672.442z"/><path clip-path="url(#c)" fill="#324654" d="M93.79 123.266a2.002 2.002 0 0 1-1.386-3.442 4.478 4.478 0 0 0-.015-.188 1.998 1.998 0 0 1 1.157-2.022c3.37-1.54 6.771-3.911 10.106-7.047.259-.243.578-.413.925-.493 3.677-.84 6.926-1.774 9.658-2.778a2.001 2.001 0 0 1 2.689 1.838c.041 2.092-.061 3.906-.149 5.507l-.033.597a2 2 0 0 1-.668 1.386c-3.369 2.998-7.103 5.062-11.094 6.133-.14.037-.282.06-.427.067-3.522.162-7.086.309-10.691.442h-.072zm12.204-9.414c-2.211 2.038-4.459 3.775-6.724 5.197 1.635-.067 3.262-.139 4.879-.213 3.069-.857 5.974-2.425 8.646-4.666.04-.712.079-1.438.105-2.194a91.934 91.934 0 0 1-6.906 1.876z"/><path clip-path="url(#c)" fill="#324654" d="M105.023 112.024c-.361-2.283-1.036-5.057-2.07-8.323 3.154-3.978 6.099-8.326 8.744-12.815 3.798-.633 7.046-1.354 9.573-2.166.551 3.499.798 6.62.875 9.411-1.954 3.944-4.383 7.713-7.22 11.042-2.878 1.057-6.208 2.008-9.902 2.851z"/><path clip-path="url(#c)" fill="#B9E3ED" d="M125.793 50.757c-1.164-4.233-2.762-8.606-4.769-12.926.576-3.519.846-6.664.939-9.473 2.077 1.142 3.483 2.397 4.079 3.771.788 3.912.975 7.86.599 11.625.551 2.587 1.087 5.447 1.378 8.638.248-.597-.55-1.143-2.226-1.635z"/><path clip-path="url(#c)" fill="#324654" d="M128.02 54.392a2 2 0 0 1-1.913-1.412 8.174 8.174 0 0 0-.878-.304 1.999 1.999 0 0 1-1.365-1.389c-1.16-4.222-2.726-8.465-4.653-12.613a2 2 0 0 1-.16-1.166c.513-3.131.812-6.146.914-9.216a1.999 1.999 0 0 1 2.962-1.687c2.562 1.408 4.182 2.955 4.951 4.728.056.129.098.264.126.401a41.15 41.15 0 0 1 .658 11.905c.434 2.065.95 4.744 1.266 7.727a2.517 2.517 0 0 1-.062 1.793 1.999 1.999 0 0 1-1.846 1.233zm-4.924-16.845a88.976 88.976 0 0 1 1.7 3.983 37.345 37.345 0 0 0-.667-8.77 3.398 3.398 0 0 0-.387-.573 76.675 76.675 0 0 1-.646 5.36z"/><path clip-path="url(#c)" fill="#B9E3ED" d="M121.964 28.358c-1.982-3.95-4.436-7.726-7.29-11.058.056-2.281-.068-4.208-.173-5.965 2.887.875 5.475 1.828 7.705 2.862 1.904 3.231 3.139 6.918 3.648 10.749-.164 2.326.002 4.642.188 7.182-.595-1.372-2.001-2.628-4.078-3.77z"/><path clip-path="url(#c)" fill="#324654" d="M126.042 34.129a2 2 0 0 1-1.834-1.204c-.272-.629-1.051-1.629-3.207-2.813a2 2 0 0 1-.824-.855c-1.977-3.938-4.339-7.521-7.022-10.654a1.995 1.995 0 0 1-.48-1.35c.051-2.096-.055-3.856-.156-5.561l-.014-.236a1.999 1.999 0 0 1 2.576-2.033c3.024.917 5.705 1.913 7.966 2.962a2 2 0 0 1 .882.799c2.009 3.408 3.36 7.385 3.908 11.501.018.134.022.27.013.404-.149 2.124-.002 4.308.167 6.612a2 2 0 0 1-1.939 2.429l-.036-.001zm-2.567-7.212l.313.188c-.003-.693.015-1.388.059-2.089-.464-3.304-1.515-6.489-3.055-9.265a52.213 52.213 0 0 0-4.142-1.618c.027.771.044 1.585.036 2.45 2.568 3.09 4.848 6.56 6.789 10.334z"/><g><defs><path id="d" d="M114.726 56.565c1.449 27.092-20.727 49.714-48.285 50.316-26.952 1.799-53.551-20.332-52.95-51.035 1.028-31.052 27.354-47.7 51.687-45.666 25.151.255 48.868 18.862 49.548 46.385z"/></defs></g><path fill="#FFF" d="M28.167 95.895a3.99 3.99 0 0 1-3.142-1.521c-12.767-16.166-15.292-38.179-6.434-56.08 8.354-16.882 25.698-28.27 44.184-29.012 14.532-.572 27.537 3.501 37.578 11.814a4 4 0 1 1-5.102 6.162c-8.497-7.035-19.62-10.484-32.156-9.983-15.604.626-30.258 10.269-37.334 24.566-7.495 15.146-5.32 33.819 5.541 47.572a4 4 0 0 1-.659 5.618 3.966 3.966 0 0 1-2.476.864z"/><path opacity=".2" fill="#324654" d="M60.437 108.991c-14.191 0-27.533-5.526-37.567-15.563a2.998 2.998 0 0 1 0-4.242 2.998 2.998 0 0 1 4.242 0c8.901 8.902 20.736 13.805 33.325 13.805 12.589 0 24.424-4.902 33.325-13.805 8.901-8.901 13.804-20.736 13.804-33.325 0-12.588-4.902-24.424-13.804-33.326a2.998 2.998 0 0 1 0-4.242 2.998 2.998 0 0 1 4.242 0c10.035 10.035 15.562 23.378 15.562 37.568 0 14.191-5.526 27.533-15.562 37.567-10.033 10.037-23.375 15.563-37.567 15.563z"/><path fill="#324654" d="M63.618 112.204c-29.295 0-53.129-23.834-53.129-53.129S34.323 5.946 63.618 5.946c29.295 0 53.129 23.834 53.129 53.129s-23.834 53.129-53.129 53.129zm0-100.258c-25.987 0-47.129 21.142-47.129 47.129s21.142 47.129 47.129 47.129 47.129-21.142 47.129-47.129-21.142-47.129-47.129-47.129z"/></svg>