<svg width="64" height="48" viewBox="0 0 64 48" xmlns="http://www.w3.org/2000/svg"><g fill="none" fill-rule="evenodd"><path d="M5 25H1c-.55 0-1-.45-1-1s.45-1 1-1h4c.55 0 1 .45 1 1s-.45 1-1 1m5.708 13.706L7.88 41.534a1.004 1.004 0 0 1-1.415 0 1.003 1.003 0 0 1 0-1.414l2.83-2.828a1.003 1.003 0 0 1 1.413 0 1.003 1.003 0 0 1 0 1.414M24 48c-.55 0-1-.45-1-1v-4c0-.55.45-1 1-1s1 .45 1 1v4c0 .55-.45 1-1 1m0-42c-.55 0-1-.45-1-1V1c0-.55.45-1 1-1s1 .45 1 1v4c0 .55-.45 1-1 1M9.294 10.708L6.466 7.88a1.004 1.004 0 0 1 0-1.415 1.003 1.003 0 0 1 1.414 0l2.828 2.83a1.003 1.003 0 0 1 0 1.413 1.003 1.003 0 0 1-1.414 0M54 18a5 5 0 1 0 .001 10.001A5 5 0 0 0 54 18m0 1c2.206 0 4 1.794 4 4s-1.794 4-4 4-4-1.794-4-4 1.794-4 4-4m3 10a2 2 0 1 0-.001 3.999A2 2 0 0 0 57 29m0 1c.551 0 1 .449 1 1 0 .551-.449 1-1 1-.551 0-1-.449-1-1 0-.551.449-1 1-1m-15-8.5c-1.93 0-3.5-1.57-3.5-3.5s1.57-3.5 3.5-3.5a.5.5 0 0 1 0 1 2.503 2.503 0 0 0-2.5 2.5c0 1.378 1.121 2.5 2.5 2.5a.5.5 0 0 1 0 1m4 8.5a.5.5 0 0 1-.5-.5c0-2.206-1.794-4-4-4s-4 1.794-4 4a.5.5 0 0 1-1 0c0-2.757 2.243-5 5-5s5 2.243 5 5a.5.5 0 0 1-.5.5m5.268-14.232a.502.502 0 0 1-.354-.854c.378-.377.586-.88.586-1.414 0-.534-.208-1.036-.586-1.414a2.003 2.003 0 0 0-2.828 0 .5.5 0 0 1-.707-.707 3.003 3.003 0 0 1 4.243 0c.566.567.878 1.32.878 2.12 0 .803-.312 1.556-.878 2.123a.502.502 0 0 1-.354.146M37 34a2.002 2.002 0 0 1 1.897 2.635l.859.551a3 3 0 0 0-4.071-3.883l.491.875c.252-.114.531-.178.824-.178m13 1.5a.5.5 0 0 1 0-1c.827 0 1.5-.673 1.5-1.5s-.673-1.5-1.5-1.5a.5.5 0 0 1 0-1c1.379 0 2.5 1.122 2.5 2.5s-1.121 2.5-2.5 2.5" fill="#f2b430"/><path d="M33.932 35.21C31.282 37.56 27.81 39 24 39c-8.271 0-15-6.73-15-15 0-8.271 6.729-15 15-15 3.81 0 7.283 1.44 9.932 3.79.21-.263.432-.514.655-.764C31.765 9.529 28.065 8 24 8 15.164 8 8 15.164 8 24c0 8.837 7.164 16 16 16 4.065 0 7.765-1.528 10.587-4.026-.223-.25-.445-.5-.655-.763" fill="#1d7ed0"/><path d="M48 8c-8.837 0-16 7.163-16 16s7.163 16 16 16 16-7.163 16-16S56.837 8 48 8zm0 1c8.271 0 15 6.729 15 15s-6.729 15-15 15-15-6.729-15-15S39.729 9 48 9z" fill="#1d7ed0"/></g></svg>