<svg width="64" height="64" viewBox="0 0 64 64" xmlns="http://www.w3.org/2000/svg"><g fill="none" fill-rule="evenodd"><path d="M11.5 37.5a.5.5 0 0 1-.5-.5v-5c0-4.62 3.871-8.523 9.414-9.493a.505.505 0 0 1 .579.407.501.501 0 0 1-.407.579C15.531 24.376 12 27.875 12 32v5a.5.5 0 0 1-.5.5M60 34v8a4 4 0 0 0 0-8m1 1.171c1.164.413 2 1.525 2 2.829a3.006 3.006 0 0 1-2 2.829v-5.658M4 34a4 4 0 0 0 0 8v-8zm-1 1.171v5.658A3.006 3.006 0 0 1 1 38c0-1.304.836-2.416 2-2.829z" fill="#f2b430"/><path d="M54 51.5v9.711C51.82 61.692 44.716 63 32 63c-12.845 0-19.852-1.304-22-1.785V51.5L9 51v11s6.946 2 23 2c15.867 0 23-2 23-2V51" fill="#1d7ed0"/><path d="M19 19.5a.5.5 0 0 1-.5-.5c0-2.618-2.21-7.242-5.674-8.531a.501.501 0 0 1 .348-.938C17.094 10.99 19.5 16.029 19.5 19a.5.5 0 0 1-.5.5m26 0a.5.5 0 0 1-.5-.5c0-2.971 2.406-8.01 6.326-9.469a.5.5 0 0 1 .348.938C47.71 11.758 45.5 16.382 45.5 19a.5.5 0 0 1-.5.5" fill="#f2b430"/><path d="M32 0C16.6 0 7 12.6 7 28v22s4 6 25 6c20.875 0 25-6 25-6V28c0-15.4-9.6-28-25-28m0 1c7.068 0 13.124 2.723 17.514 7.874C53.696 13.782 56 20.574 56 28v21.625C55.003 50.631 49.65 55 32 55c-17.808 0-23.057-4.393-24-5.366V28c0-7.426 2.303-14.218 6.486-19.126C18.876 3.723 24.932 1 32 1" fill="#1d7ed0"/><path d="M32 17C10.083 17 7 27 7 27v17s8.056 4 25 4c16.676 0 25-4 25-4V27s-3.25-10-25-10m0 1c19.323 0 23.524 8.1 24 9.189v16.15C53.877 44.19 45.819 47 32 47c-14.026 0-21.926-2.803-24-3.654V27.183C8.458 26.095 12.529 18 32 18" fill="#1d7ed0"/><path d="M59 29h-3v18h3a2 2 0 0 0 2-2V31a2 2 0 0 0-2-2m0 1c.551 0 1 .449 1 1v14c0 .551-.449 1-1 1h-2V30h2M8 29H5a2 2 0 0 0-2 2v14a2 2 0 0 0 2 2h3V29zm-1 1v16H5c-.551 0-1-.449-1-1V31c0-.551.449-1 1-1h2z" fill="#1d7ed0"/><path d="M58 29h1V14h-1v15z" fill="#f2b430"/><path d="M60 13.5a1.5 1.5 0 1 1-3.001-.001A1.5 1.5 0 0 1 60 13.5" fill="#f2b430"/></g></svg>