<svg width="64" height="46" viewBox="0 0 64 46" xmlns="http://www.w3.org/2000/svg"><g fill="none" fill-rule="evenodd"><path d="M14 39a1 1 0 1 1-2 0 1 1 0 0 1 2 0m19 0a1 1 0 1 1-2 0 1 1 0 0 1 2 0m19 0a1 1 0 1 1-2 0 1 1 0 0 1 2 0" fill="#f2b430"/><path d="M62 23c.551 0 1 .449 1 1v11a3 3 0 0 1-3 3h-2.562v1H60a4 4 0 0 0 4-4V24a2 2 0 0 0-2-2H2a2 2 0 0 0-2 2v11a4 4 0 0 0 4 4h2.46v-1H4a3 3 0 0 1-3-3V24a1 1 0 0 1 1-1h60zM44.429 38h-6.077l.163 1h5.873l.041-1zm-18.964 0H19.47l-.041 1h5.954l.082-1z" fill="#1d7ed0"/><path d="M16 19h-6a1 1 0 0 0-1 1v2a1 1 0 0 0 1 1h6a1 1 0 0 0 1-1v-2a1 1 0 0 0-1-1zm-6 3h6v-2h-6v2z" fill="#1d7ed0"/><path d="M12 26a1 1 0 1 1-2 0 1 1 0 0 1 2 0m4 0a1 1 0 1 1-2 0 1 1 0 0 1 2 0m9 1h-6c-.55 0-1-.45-1-1s.45-1 1-1h6c.55 0 1 .45 1 1s-.45 1-1 1m17.568-10.252l7-12 .606.946-6.368 10.917-1.238.137zm3.5 0L52.087 6.43l1.182-.041-6.026 10.331-1.175.028zM31 3h19V2H31v1z" fill="#f2b430"/><path d="M31 6h19V5H31v1z" fill="#f2b430"/><path d="M30 1v6h-9c-.551 0-1-.449-1-1V5h-1v1a2 2 0 0 0 2 2h10V0H21a2 2 0 0 0-2 2v1h1V2c0-.551.449-1 1-1h9m22 0a3 3 0 1 0 0 6 3 3 0 0 0 0-6m0 1c1.103 0 2 .897 2 2s-.897 2-2 2-2-.897-2-2 .897-2 2-2m-6.46 14c-4.476 0-8.265 2.943-9.54 7h19.082c-1.275-4.057-5.064-7-9.541-7m0 1a8.958 8.958 0 0 1 8.066 5H37.475a8.958 8.958 0 0 1 8.066-5M13 32a7 7 0 1 0 0 14 7 7 0 0 0 0-14m0 1c3.308 0 6 2.692 6 6s-2.692 6-6 6-6-2.692-6-6 2.692-6 6-6m38-1a7 7 0 1 0 0 14 7 7 0 0 0 0-14m0 1c3.308 0 6 2.692 6 6s-2.692 6-6 6-6-2.692-6-6 2.692-6 6-6m-19-1a7 7 0 1 0 0 14 7 7 0 0 0 0-14m0 1c3.308 0 6 2.692 6 6s-2.692 6-6 6-6-2.692-6-6 2.692-6 6-6" fill="#1d7ed0"/></g></svg>