<svg width="64" height="64" viewBox="0 0 64 64" xmlns="http://www.w3.org/2000/svg"><g fill="none" fill-rule="evenodd"><path d="M13 49h38v-6H13v6zm1-1h36v-4H14v4z" fill="#f2b430"/><path d="M10.447 25.533L21 44h2l.137-1H21.58L11.565 25.472l-1.117.061zm1.17-5.097L21.58 3h7.011l.136-1H21L10.494 20.386l1.123.05zm41.918 0L43 2h-7.727l.137 1h7.01l9.975 17.456 1.14-.02zm-1.136 5.1L42.419 43h-1.555L41 44h2l10.56-18.481-1.161.018z" fill="#1d7ed0"/><path d="M35.736 5.393l.146 1.071C43.389 8.227 49 14.964 49 23c0 6.414-3.575 12.007-8.832 14.901l.144 1.055C46.066 35.952 50 29.94 50 23c0-8.66-6.117-15.887-14.265-17.607M23.832 37.901C18.574 35.008 15 29.414 15 23.002c0-8.038 5.612-14.774 13.119-16.537l.146-1.07C20.117 7.114 14 14.34 14 23c0 6.94 3.934 12.951 9.688 15.955l.144-1.055z" fill="#f2b430"/><path d="M35 0h-6l-6 44h18L35 0zm-.873 1l5.727 42H24.146l5.727-42h4.254zM9 62H1a1 1 0 0 0 0 2h8a1 1 0 0 0 0-2m54 0h-8a1 1 0 0 0 0 2h8a1 1 0 0 0 0-2m-27 0h-8a1 1 0 0 0 0 2h8a1 1 0 0 0 0-2m-5 0h2V52h-2v10zm27 0h2V52h-2v10zM4 62h2V52H4v10z" fill="#1d7ed0"/><path d="M18 48h1v-4h-1v4zm27 0h1v-4h-1v4z" fill="#f2b430"/><path d="M30 62h4v-1h-4v1zM3 62h4v-1H3v1zm54 0h4v-1h-4v1zM14 44h10v-2H14v2zM10 3h12V2H10v1zm30 41h10v-2H40v2z" fill="#1d7ed0"/><path d="M5.414 53.414L4 52l10-10 1.414 1.414-10 10zm53.172 0L60 52 50 42l-1.414 1.414 10 10zM52 24c-.55 0-1-.45-1-1s.45-1 1-1 1 .45 1 1-.45 1-1 1" fill="#1d7ed0"/><path d="M43 48H21l2 5h18l2-5zm-1.477 1l-1.2 3H23.677l-1.2-3h19.046z" fill="#f2b430"/><path d="M35 31h-6c-1.1 0-2 .9-2 2v6c0 1.1.9 2 2 2h6c1.1 0 2-.9 2-2v-6c0-1.1-.9-2-2-2m0 1c.551 0 1 .449 1 1v6c0 .551-.449 1-1 1h-6c-.551 0-1-.449-1-1v-6c0-.551.449-1 1-1h6" fill="#1d7ed0"/><path d="M31 34a2 2 0 1 0-.001 3.999A2 2 0 0 0 31 34m0 1c.551 0 1 .449 1 1 0 .551-.449 1-1 1-.551 0-1-.449-1-1 0-.551.449-1 1-1M10 2a4 4 0 1 0 0 8 4 4 0 0 0 0-8m0 1c1.654 0 3 1.346 3 3s-1.346 3-3 3-3-1.346-3-3 1.346-3 3-3" fill="#1d7ed0"/><path d="M11 6a1 1 0 1 1-2 0 1 1 0 0 1 2 0" fill="#f2b430"/><path d="M18.646 7.354l-4.5-4.5.707-.708 4.5 4.5-.707.708zM56 24h-1c-.55 0-1-.45-1-1s.45-1 1-1h1c.55 0 1 .45 1 1s-.45 1-1 1M9 24H8c-.55 0-1-.45-1-1s.45-1 1-1h1c.55 0 1 .45 1 1s-.45 1-1 1m17.5-2H14v-1h13l-.5 1zM14 24h12v-1H14v1zm36-2H37.5l-.5-1h13v1zm-12 2h12v-1H38v1z" fill="#1d7ed0"/><path d="M56.5 11a.502.502 0 0 1-.354-.146l-3-3a.502.502 0 0 1 .708-.708l3 3A.502.502 0 0 1 56.5 11m2-2a.502.502 0 0 1-.354-.146l-3-3a.502.502 0 0 1 .708-.708l3 3A.502.502 0 0 1 58.5 9" fill="#f2b430"/><path d="M50.293 13l7.353-7.353a.5.5 0 1 1 .708.707L50.707 14l-.414-1z" fill="#f2b430"/><path d="M50 9v6l1 1V8h-5.049l.5 1H50z" fill="#1d7ed0"/><path d="M9 26h6v-6H9v6zm1-1h4v-4h-4v4zm39 1h6v-6h-6v6zm1-1h4v-4h-4v4z" fill="#f2b430"/></g></svg>