<svg width="64" height="64" viewBox="0 0 64 64" xmlns="http://www.w3.org/2000/svg"><g fill="none" fill-rule="evenodd"><path d="M52.693 55.363c-.021-.187-.506-4.602-.19-7.419.095-.842.206-1.59.305-2.262.404-2.719.588-3.96-1.115-5.288-1.318-1.026-3.11-.627-5.005-.202-1.606.358-3.266.731-4.824.29-3.373-.957-4.747-6.519-4.362-11.52.208-2.706 1.46-6.16 3.788-7.78 1.174-.818 2.505-1.046 3.847-.663.989.283 1.972.242 3.01.197 1.498-.06 3.196-.134 5.083.84.556.286 1.11.242 1.69-.14 1.005-.66 1.607-2.01 1.58-2.382 0 0-.023-.16-.416-.469-1.46-1.148-5.521-2.412-7.008-2.185-.607.093-1.035.79-1.38 1.347a7.595 7.595 0 0 1-.29.448c-.64.9-2.854 1.628-4.531 1.194a1.445 1.445 0 0 1-1-.84c-.62-1.419.672-3.855.685-3.88.368-.687 1.56-1.853 3.33-2.25.508-.116 1.099-.184 1.672-.25.688-.08 1.84-.216 2.024-.429.278-.42.174-.992.053-1.654-.061-.34-.125-.69-.138-1.048-.01-.228-.022-.458-.035-.689-.045-.799-.092-1.627.04-2.413l.987.167c-.114.675-.071 1.446-.03 2.19.015.237.028.474.037.708.01.285.065.587.123.906.139.764.297 1.63-.206 2.39-.391.59-1.428.711-2.74.864-.546.064-1.111.13-1.567.232-1.357.305-2.378 1.206-2.67 1.75-.376.702-.955 2.305-.648 3.003.065.15.165.232.333.275 1.388.36 3.127-.326 3.468-.806.079-.11.162-.247.252-.392.429-.696 1.015-1.648 2.079-1.812 1.769-.272 6.143 1.08 7.806 2.41.49.391.742.772.769 1.164.059.846-.833 2.501-2.03 3.287-.881.582-1.816.648-2.698.192-1.651-.852-3.075-.793-4.581-.728-1.074.045-2.183.092-3.327-.235-1.061-.304-2.07-.127-3.003.522-2.047 1.424-3.177 4.645-3.361 7.035-.346 4.483.812 9.68 3.637 10.481 1.314.371 2.85.028 4.333-.303 2.04-.456 4.148-.928 5.839.39 2.162 1.686 1.909 3.393 1.489 6.223a61.206 61.206 0 0 0-.3 2.226c-.304 2.706.185 7.153.19 7.197l-.994.111zM14.5 58.008l-1-.016c.001-.054.057-5.523-1.925-8.73l-.588-.947c-1.819-2.925-3.02-4.858-3.478-7.22-.123-.634-.132-1.504-.141-2.51-.024-2.537-.058-6.012-1.811-9.352-2.476-4.72-3.957-6.932-3.972-6.954l.83-.558c.061.09 1.522 2.27 4.028 7.047 1.865 3.554 1.901 7.318 1.925 9.808.009.957.017 1.784.123 2.329.423 2.18 1.523 3.95 3.345 6.882l.589.95c2.137 3.458 2.078 9.035 2.075 9.27m5.001 3.023c-.122-2.039 2.453-6.594 4.136-8.374.742-.786 1.518-1.18 2.202-1.529 1.28-.652 2.29-1.166 2.665-4.189.242-1.955-.019-6.038-2.74-7.498-3.569-1.913-4.527-3.34-5.74-5.146-.413-.615-.84-1.25-1.417-1.985-.795-1.012-3.012-1.433-4.969-1.804-2.374-.45-4.616-.877-5.112-2.346-.675-1.999.1-4.787 2.072-7.457 1.736-2.349 4.189-3.589 6.786-4.903.77-.389 1.565-.79 2.375-1.237 2.025-1.116 3.202-2.296 3.498-3.507.213-.868-.007-1.777-.673-2.778-1.432-2.152-4.771-3.812-4.805-3.829l.442-.897c.147.072 3.616 1.798 5.196 4.172.817 1.23 1.091 2.431.812 3.57-.371 1.515-1.675 2.871-3.988 4.145-.82.452-1.625.86-2.406 1.254-2.596 1.312-4.837 2.446-6.433 4.605-1.752 2.371-2.49 4.878-1.928 6.543.308.915 2.363 1.305 4.351 1.682 2.233.424 4.542.862 5.568 2.17a31.564 31.564 0 0 1 1.461 2.045c1.18 1.757 2.033 3.026 5.382 4.822 3.2 1.716 3.532 6.311 3.26 8.502-.439 3.55-1.782 4.233-3.203 4.957-.642.327-1.306.665-1.93 1.325-1.678 1.776-3.96 6.02-3.864 7.626l-.998.061zM33.487 4.516c-.19 0-.366-.006-.522-.017-3.57-.257-6.548-1.572-7.411-3.273l.892-.452c.688 1.355 3.459 2.502 6.59 2.728 1.96.133 6.336-.674 7.624-1.868l.68.733c-1.535 1.424-5.687 2.149-7.853 2.149" fill="#f2b430"/><path d="M32 0C14.327 0 0 14.327 0 32c0 17.673 14.327 32 32 32 17.673 0 32-14.327 32-32C64 14.327 49.673 0 32 0m0 1c17.093 0 31 13.907 31 31S49.093 63 32 63 1 49.093 1 32 14.907 1 32 1" fill="#1d7ed0"/></g></svg>