<svg width="36" height="64" viewBox="0 0 36 64" xmlns="http://www.w3.org/2000/svg"><g fill="none" fill-rule="evenodd"><path d="M18 13c-4.054 0-6.136-1.009-6.222-1.052l.443-.896c.019.009 1.985.948 5.779.948 3.746 0 5.764-.941 5.783-.951l.435.901C24.129 11.993 21.998 13 18 13" fill="#f2b430"/><path d="M18 17a5 5 0 1 0 .001 10.001A5 5 0 0 0 18 17m0 1c2.206 0 4 1.794 4 4s-1.794 4-4 4-4-1.794-4-4 1.794-4 4-4" fill="#1d7ed0"/><path d="M20.5 22a.5.5 0 0 1-.5-.5c0-.827-.673-1.5-1.5-1.5a.5.5 0 0 1 0-1c1.379 0 2.5 1.121 2.5 2.5a.5.5 0 0 1-.5.5" fill="#f2b430"/><path d="M21 33h-6c-1.1 0-2 .9-2 2v10c0 1.1.9 2 2 2h6c1.1 0 2-.9 2-2V35c0-1.1-.9-2-2-2m0 1c.551 0 1 .449 1 1v10c0 .551-.449 1-1 1h-6c-.551 0-1-.449-1-1V35c0-.551.449-1 1-1h6" fill="#1d7ed0"/><path d="M18 35c-1.65 0-3 1.35-3 3s1.35 3 3 3 3-1.35 3-3-1.35-3-3-3m0 1c1.103 0 2 .897 2 2s-.897 2-2 2-2-.897-2-2 .897-2 2-2M8.51 55.102l-4-19 .98-.204 4 19-.98.204zm18.98 0l-.98-.204 4-19 .98.204-4 19z" fill="#f2b430"/><path d="M11.237 53.49c-3.133 1.01-6.556 3.45-8.188 9.103-.03.104-.051.183-.073.244-.015.04-.033.091-.051.136-5.28-15.116 1.569-25.657 4.633-29.853a60.468 60.468 0 0 1-.108-1.535c-2.39 3.22-11.396 14.79-5.46 31.745.143.404.399.67.945.67.694 0 .853-.466.987-.838.273-.76 1.705-7.904 9.447-9.162h-2s-.05-.185-.132-.51m17.272-21.962a73.06 73.06 0 0 1-.12 1.58l.01-.049c3.04 4.154 9.982 14.726 4.677 29.914-.018-.045-.036-.096-.051-.136-.021-.06-.043-.14-.073-.244-1.632-5.654-5.055-8.094-8.188-9.104-.083.326-.132.511-.132.511h-2c7.742 1.258 9.174 8.401 9.448 9.162.133.372.292.838.987.838.545 0 .802-.266.944-.67 5.969-17.049-3.173-28.657-5.502-31.802" fill="#1d7ed0"/><path d="M24 53H12l.721 4.329A2.001 2.001 0 0 0 14.694 59h6.612c.977 0 1.812-.707 1.973-1.671L24 53zm-1.18 1l-.528 3.164a.996.996 0 0 1-.986.836h-6.612a.996.996 0 0 1-.986-.836L13.18 54h9.64z" fill="#f2b430"/><path d="M18 0S7 14.11 7 29c0 9.949 4 25 4 25h14s4-15.056 4-26C29 15.872 18 0 18 0m-.04 1.756C20.447 5.628 28 18.2 28 28c0 9.316-2.986 21.845-3.777 25H11.776C10.984 49.859 8 37.461 8 29c0-11.982 7.433-23.63 9.96-27.244" fill="#1d7ed0"/></g></svg>