<svg width="44" height="64" viewBox="0 0 44 64" xmlns="http://www.w3.org/2000/svg"><g fill="none" fill-rule="evenodd"><path d="M36.243 16.743a.502.502 0 0 1-.354-.854 5.458 5.458 0 0 0 1.61-3.89 5.46 5.46 0 0 0-1.61-3.888 5.462 5.462 0 0 0-3.89-1.611c-1.468 0-2.85.572-3.888 1.61a.5.5 0 0 1-.707-.706 6.509 6.509 0 0 1 9.193 0 6.509 6.509 0 0 1 0 9.193.502.502 0 0 1-.354.146" fill="#f2b430"/><path d="M39.071 19.571a.502.502 0 0 1-.354-.854c3.705-3.704 3.705-9.73 0-13.435-3.704-3.704-9.73-3.704-13.435 0a.5.5 0 0 1-.707-.707c4.094-4.094 10.756-4.094 14.85 0 4.093 4.094 4.093 10.755 0 14.85a.502.502 0 0 1-.354.146" fill="#f2b430"/><path d="M33 12a1 1 0 1 1-2 0 1 1 0 0 1 2 0" fill="#1d7ed0"/><path d="M29.854 14.854l-.707-.707 2.5-2.5.706.707-2.5 2.5z" fill="#1d7ed0"/><path d="M39 29.5a.502.502 0 0 1-.354-.146l-24-24a.502.502 0 0 1 .708-.708l24 24A.502.502 0 0 1 39 29.5" fill="#f2b430"/><path d="M16 23c-1.853 0-3.707.977-4.581 2.932L2 55h28l-9.419-29.068C19.707 23.977 17.853 23 16 23m0 1c1.256 0 2.867.604 3.647 2.294L28.625 54H3.375l8.978-27.706C13.133 24.604 14.744 24 16 24" fill="#1d7ed0"/><path d="M16 26a3 3 0 1 0 0 6 3 3 0 0 0 0-6m0 1c1.103 0 2 .897 2 2s-.897 2-2 2-2-.897-2-2 .897-2 2-2" fill="#f2b430"/><path d="M2 64h28v-6H2v6zm1-1h26v-4H3v4z" fill="#1d7ed0"/><path d="M0 59h32v-5H0v5zm1-1h30v-3H1v3z" fill="#f2b430"/><path d="M42.568 28.149a18.781 18.781 0 0 1-12.651 4.85c-2.842 0-5.59-.621-8.084-1.802l.272 1.213A19.945 19.945 0 0 0 29.917 34 19.854 19.854 0 0 0 44 28.167L15.834 0c-6.65 6.65-7.615 16.83-2.895 24.506l.896-.457c-4.35-7.02-3.678-16.292 2.017-22.616l26.716 26.716z" fill="#1d7ed0"/><path d="M7.235 51.441l-.47-.883 15-8 .47.883-15 8z" fill="#f2b430"/><path d="M24.765 51.441l-15-8 .47-.883 15 8-.47.883zm-3.078-8.05l-10-8 .626-.781 10 8-.625.78z" fill="#f2b430"/><path d="M10.313 43.39l-.626-.78 10-8 .625.78-10 8z" fill="#f2b430"/><path d="M20 34h-8L6 52h20l-6-18zm-.721 1l5.334 16H7.387l5.334-16h6.558z" fill="#1d7ed0"/></g></svg>