<svg width="40" height="64" viewBox="0 0 40 64" xmlns="http://www.w3.org/2000/svg"><g fill="none" fill-rule="evenodd"><path d="M36.07 63.704L24.297 54.07l.632-.774 11.774 9.633-.633.774z" fill="#f2b430"/><path d="M24.93 54.704l-.633-.774 11.774-9.633.632.774-11.773 9.633z" fill="#f2b430"/><path d="M36.07 45.704L24.297 36.07l.632-.774 11.774 9.633-.633.774z" fill="#f2b430"/><path d="M24.93 36.704l-.633-.774 11.774-9.633.632.774-11.773 9.633z" fill="#f2b430"/><path d="M36.07 27.704L24.297 18.07l.632-.774 11.774 9.633-.633.774z" fill="#f2b430"/><path d="M24.93 18.704l-.633-.774L36.07 8.297l.632.774-11.773 9.633zM25 22h-9.5l-.5-1h10v1zm-9 25h9v-1h-9v1zM28 6h8V0h-8v6zm1-1h6V1h-6v4z" fill="#f2b430"/><path d="M24 64h16V5H24v59zm1-1h14V6H25v57z" fill="#1d7ed0"/><path d="M15 60H7v2a2 2 0 0 0 2 2h4a2 2 0 0 0 2-2v-2zm-1 1v1c0 .551-.449 1-1 1H9c-.551 0-1-.449-1-1v-1h6z" fill="#f2b430"/><path d="M14 14H8L5 26v35h12V26l-3-12zm-.781 1L16 26.123V60H6V26.123L8.781 15h4.438zM36 63h1V8h-1v55z" fill="#1d7ed0"/><path d="M25 9h12V8H25v1zM5 27h12v-1H5v1zm1 24L.213 59.386A1 1 0 0 0 1.002 61H6V51zm-1 3.21V60H1.002l.017-.022.017-.024L5 54.21zM16 51v10h4.998a1 1 0 0 0 .789-1.614L16 51zm1 3.21l3.964 5.744.017.024.017.022H17v-5.79z" fill="#1d7ed0"/><path d="M12 35a1 1 0 1 1-2 0 1 1 0 0 1 2 0m0 6a1 1 0 1 1-2 0 1 1 0 0 1 2 0m-1 11c-.55 0-1-.45-1-1v-4c0-.55.45-1 1-1s1 .45 1 1v4c0 .55-.45 1-1 1m1-44h-2V1c0-.55.45-1 1-1s1 .45 1 1v7z" fill="#f2b430"/><path d="M11 7a3 3 0 0 0-3 3v5h6v-5a3 3 0 0 0-3-3m0 1c1.103 0 2 .897 2 2v4H9v-4c0-1.103.897-2 2-2" fill="#1d7ed0"/></g></svg>