<svg width="64" height="48" viewBox="0 0 64 48" xmlns="http://www.w3.org/2000/svg"><g fill="none" fill-rule="evenodd"><path d="M58.813 17.106l4.62 1.044c.756.208.756 1.282 0 1.49l-4.62 1.044c-.388.095-.692.364-.799.709l-1.269 4.934c-.208.757-1.282.757-1.49 0l-1.27-4.934c-.106-.345-.41-.614-.798-.71l-4.619-1.043c-.758-.208-.758-1.282 0-1.491l4.618-1.043c.39-.095.692-.365.8-.71l1.268-4.933c.208-.757 1.283-.757 1.491 0l1.27 4.933c.106.346.41.615.798.71m-48 21.105l4.62 1.044c.756.208.756 1.282 0 1.49l-4.62 1.044c-.388.095-.692.364-.799.71l-1.269 4.933c-.208.757-1.282.757-1.49 0l-1.27-4.934c-.106-.345-.41-.614-.798-.709L.568 40.745c-.758-.208-.758-1.282 0-1.49l4.618-1.044c.39-.095.692-.365.8-.71l1.268-4.933c.208-.757 1.283-.757 1.491 0l1.27 4.933c.106.346.41.615.798.71" fill="#1d7ed0"/><path d="M40 3.106l2.309.522c.379.104.379.64 0 .745L40 4.895a.543.543 0 0 0-.399.355l-.635 2.466c-.104.379-.641.379-.745 0l-.635-2.466a.54.54 0 0 0-.399-.355l-2.31-.522c-.378-.104-.378-.641 0-.745l2.31-.522a.543.543 0 0 0 .399-.355l.635-2.467c.104-.378.641-.378.745 0L39.6 2.75a.544.544 0 0 0 .4.355" fill="#f2b430"/><path d="M46.407 35.106l2.309.522c.379.104.379.64 0 .745l-2.31.522a.543.543 0 0 0-.398.355l-.635 2.466c-.104.379-.641.379-.745 0l-.635-2.466a.54.54 0 0 0-.4-.355l-2.31-.522c-.377-.104-.377-.641 0-.745l2.31-.522a.543.543 0 0 0 .4-.355l.635-2.467c.104-.378.64-.378.745 0l.634 2.467a.544.544 0 0 0 .4.355" fill="#1d7ed0"/><path d="M35.703 43.553l1.155.26c.19.053.19.322 0 .374l-1.155.26a.271.271 0 0 0-.2.178l-.317 1.233c-.052.19-.32.19-.373 0l-.317-1.233a.27.27 0 0 0-.2-.177l-1.154-.261c-.19-.052-.19-.321 0-.373l1.154-.261a.273.273 0 0 0 .2-.177l.317-1.234c.052-.19.321-.19.373 0l.317 1.234a.273.273 0 0 0 .2.177m-17-38l1.155.26c.19.053.19.322 0 .374l-1.155.26a.271.271 0 0 0-.2.178l-.317 1.233c-.052.19-.32.19-.373 0l-.317-1.233a.27.27 0 0 0-.2-.177l-1.154-.261c-.19-.052-.19-.321 0-.373l1.154-.261a.273.273 0 0 0 .2-.177l.317-1.234c.052-.19.321-.19.373 0l.317 1.234a.273.273 0 0 0 .2.177M11 17a2 2 0 1 1-3.999.001A2 2 0 0 1 11 17m20 5.5c-4.132 0-7.365-1.472-10.242-3.063l.484-.875C24.002 20.088 27.094 21.5 31 21.5c3.888 0 5.751-.935 5.77-.944l.462.887c-.083.043-2.067 1.057-6.232 1.057m-7.807 10.961l-.386-.923c2.752-1.15 8.58-.832 10.402.007l-.418.91c-1.636-.755-7.1-1.04-9.598.006m8.31-5.335c-1.91 0-3.984-.49-5.784-1.713-.924-.627-1.762-1.305-2.572-1.962-1.372-1.11-2.668-2.16-4.369-3.003l.443-.896c1.802.892 3.201 2.026 4.555 3.122.794.643 1.615 1.309 2.504 1.913 2.784 1.89 6.292 1.837 8.536.948l2.174-.863.368.93-2.174.863c-1.037.41-2.317.66-3.68.66" fill="#f2b430"/><path d="M28 15c-5.523 0-10 4.477-10 10s4.477 10 10 10 10-4.477 10-10-4.477-10-10-10m0 1c4.963 0 9 4.037 9 9s-4.037 9-9 9-9-4.037-9-9 4.037-9 9-9" fill="#1d7ed0"/></g></svg>