<svg width="64" height="64" viewBox="0 0 64 64" xmlns="http://www.w3.org/2000/svg"><g fill="none" fill-rule="evenodd"><path d="M32 8C14.327 8 0 13.373 0 20s14.327 12 32 12c17.673 0 32-5.373 32-12S49.673 8 32 8m0 1c18.543 0 31 5.688 31 11S50.543 31 32 31 1 25.312 1 20 13.457 9 32 9" fill="#1d7ed0"/><path d="M32 1c6.449 0 12.07 3.609 14.951 8.913l1.184.099C45.192 4.079 39.072 0 32 0c-7.099 0-13.239 4.11-16.169 10.081l1.186-.108C19.888 4.636 25.527 1 32 1m0 55c-8.284 0-17 1.791-17 4s8.716 4 17 4 17-1.791 17-4-8.716-4-17-4m0 1c8.995 0 15.474 1.948 15.989 3-.515 1.052-6.994 3-15.989 3-8.995 0-15.474-1.948-15.989-3 .515-1.052 6.994-3 15.989-3" fill="#f2b430"/><path d="M15.986 60.118l-.972-.236 9-37 .972.236-9 37zm32.028 0l-9-37 .972-.236 9 37-.972.236z" fill="#f2b430"/><path d="M40 23c0 1.657-3.582 3-8 3s-8-1.343-8-3 3.582-3 8-3 8 1.343 8 3" fill="#1d7ed0"/></g></svg>