<svg xmlns="http://www.w3.org/2000/svg" viewBox="0 0 893.5173 1010"><path fill="#FFAB00" d="M513.818 505c0 37.04-30.039 67.076-67.068 67.076-37.039 0-67.068-30.037-67.068-67.076 0-37.03 30.03-67.068 67.068-67.068 37.029 0 67.068 30.038 67.068 67.068z"/><path fill="#78909C" d="M128.19 404.403c0 27.765-22.551 50.299-50.316 50.299-27.766 0-50.299-22.533-50.299-50.299 0-27.775 22.533-50.307 50.299-50.307 27.765 0 50.316 22.532 50.316 50.307zM597.61 873.85c0 27.801-22.507 50.326-50.272 50.326-27.784 0-50.308-22.525-50.308-50.326 0-27.747 22.524-50.29 50.308-50.29 27.765 0 50.271 22.543 50.271 50.29zm167.708-637.11c0 27.765-22.56 50.289-50.307 50.289-27.784 0-50.326-22.524-50.326-50.29 0-27.783 22.542-50.298 50.326-50.298 27.747 0 50.307 22.515 50.307 50.299z"/><path fill="#43525B" d="M741.42 505c109.706-94.018 178.12-191.086 142.675-252.528-16.603-28.745-52.25-42.757-105.288-42.097-10.391-25.034-35.06-42.702-63.796-42.702-36.819 0-66.728 29.021-68.708 65.346a933.242 933.242 0 0 0-52.268 16.667C567.46 107.716 517.61 0 446.75 0c-70.898 0-120.757 107.772-147.322 249.797-136.279-48.008-254.552-58.71-290.024 2.694-16.22 28.095-11.198 64.942 14.46 109.393-9.283 11.757-15.056 26.41-15.056 42.52 0 38.082 30.982 69.064 69.066 69.064 11.243 0 21.708-2.96 31.1-7.743 13.397 13.058 27.62 26.18 42.931 39.33-25.978 22.34-49.712 44.699-70.055 66.691C9.477 650.04-15.575 714.258 9.385 757.51c16.266 28.168 50.85 42.408 101.715 42.408 27.225 0 59.133-4.068 95.374-12.28 29.277-6.634 60.57-16.035 92.964-27.398C326.012 902.256 375.86 1010 446.75 1010c23.083 0 56.273-12.48 88.217-68.323 4.032.733 8.137 1.264 12.37 1.264 38.065 0 69.038-31.01 69.038-69.092 0-25.255-13.8-47.173-34.106-59.214a935.132 935.132 0 0 0 11.894-54.432c70.54 24.833 136.316 39.77 188.2 39.752 48.31 0 84.652-12.866 101.75-42.445C919.542 696.077 851.145 599.018 741.42 505zM715.01 205.207c17.393 0 31.541 14.149 31.541 31.532s-14.148 31.522-31.54 31.522c-17.412 0-31.56-14.139-31.56-31.522s14.148-31.532 31.56-31.532zm-60.351 64.475c11.748 21.396 34.254 36.113 60.352 36.113 34.307 0 62.64-25.21 67.956-58.033 35.7.165 59.837 8.257 68.634 23.486C872.476 307.453 820.3 389.412 712.3 480.882c-30.863-24.723-64.218-48.998-98.985-72.099-2.62-41.611-6.945-82.581-12.92-121.627 18.639-6.68 36.672-12.389 54.266-17.474zM512.79 619.415c-22.065 12.737-44.113 24.577-66.068 35.866-21.662-11.142-43.618-22.908-66.05-35.847-22.001-12.72-43.408-25.914-64.264-39.367A1577.644 1577.644 0 0 1 314.64 505c0-25.768.614-50.812 1.768-75.03 20.81-13.407 42.152-26.62 64.264-39.386 21.928-12.664 44.012-24.585 66.05-35.902 21.662 11.161 43.619 22.927 66.069 35.884 22.506 12.994 43.728 26.171 64.29 39.394 1.156 24.22 1.76 49.263 1.76 75.04 0 25.328-.714 50.398-1.942 75.14-20.49 13.178-41.657 26.318-64.108 39.275zm61.159 7.093c-2.31 28.48-5.389 56.263-9.256 82.856-24.503-9.768-49.977-20.91-76.277-33.41a1587.933 1587.933 0 0 0 43.142-24.026c14.222-8.211 28.37-16.715 42.39-25.42zm-168.82 49.373c-25.95 12.315-51.499 23.459-76.515 33.392-3.793-26.134-6.937-53.772-9.255-82.875 13.974 8.687 28.132 17.227 42.546 25.547 14.222 8.211 28.682 16.164 43.224 23.936zM277.931 554.446c-23.495-16.237-45.946-32.768-67.013-49.41 21.058-16.65 43.435-33.162 67.013-49.427-.54 16.475-.825 32.97-.825 49.391 0 16.44.284 32.951.825 49.446zm41.437-170.927c2.319-29.121 5.471-56.804 9.274-82.957 24.558 9.778 50.115 20.957 76.515 33.511-14.451 7.753-28.893 15.706-43.252 24a1591.385 1591.385 0 0 0-42.537 25.447zm168.975-49.464c25.877-12.26 51.498-23.504 76.496-33.456 3.813 26.171 6.965 53.854 9.274 82.985-14.057-8.742-28.26-17.283-42.555-25.53-14.222-8.22-28.664-16.219-43.215-23.999zm127.208 121.499c24.027 16.567 46.458 33.08 67.187 49.446-20.729 16.357-43.16 32.879-67.205 49.446.513-16.384.842-32.86.842-49.446 0-16.44-.293-32.952-.824-49.446zM446.75 37.534c41.776 0 86.732 85.962 111.95 225.275-36.434 14.194-74.04 30.936-111.95 49.794-37.406-18.556-75.122-35.316-111.978-49.693C359.981 123.542 404.946 37.534 446.75 37.534zM46.342 404.404c0-17.393 14.148-31.542 31.532-31.542 17.392 0 31.55 14.149 31.55 31.541 0 17.383-14.158 31.532-31.55 31.532-17.384 0-31.532-14.149-31.532-31.532zm90.288 35.856c6.423-10.483 10.327-22.68 10.327-35.857 0-38.083-30.991-69.074-69.083-69.074-8.284 0-16.137 1.704-23.505 4.389-16.393-29.616-20.93-53.771-12.453-68.46 20.893-36.214 117.962-32 251.19 15.816-5.975 39.009-10.3 79.96-12.93 121.535-35.463 23.468-68.525 47.687-98.984 72.108a904.025 904.025 0 0 1-44.562-40.457zm61.55 310.761c-82.626 18.712-141.062 14.112-156.282-12.279-15.248-26.39 9.997-79.3 67.507-141.502 20.673-22.36 45.011-45.14 71.824-67.902 30.431 24.393 63.704 48.53 98.938 71.916 2.62 41.547 6.946 82.47 12.902 121.47-33.181 11.84-65.143 21.553-94.888 28.297zm349.158 154.387c-17.393 0-31.541-14.148-31.541-31.56 0-17.373 14.148-31.522 31.54-31.522 17.375 0 31.504 14.149 31.504 31.523 0 17.41-14.13 31.56-31.503 31.56zm-1.32-100.469c-37.46.733-67.755 31.303-67.755 68.91 0 20.342 8.998 38.467 23.038 51.132-17.87 30.698-36.903 47.486-54.551 47.486-41.795 0-86.75-85.973-111.96-225.294 36.416-14.167 73.977-30.716 112.079-49.703 37.295 18.51 74.902 35.243 111.666 49.575-3.684 20.25-7.917 39.457-12.518 57.894zm305.584-66.197c-20.91 36.178-117.934 31.963-251.116-15.798 5.9-38.596 10.208-79.503 12.828-121.727 34.767-23.11 68.122-47.375 98.985-72.099 108 91.47 160.177 173.41 139.303 209.624z"/></svg>