<svg xmlns="http://www.w3.org/2000/svg" viewBox="0 0 835.5273 1010"><path fill="#EBEEF0" d="M260.206 18.811c-41.122 0-79.772 15.064-105.95 41.342-25.617 25.755-39.128 61.457-38.99 103.296.44 120.738 89.233 191.399 169.437 248.796C346.71 456.627 407.69 512.39 417.776 520.031c10.085-7.641 81.204-71.69 133.045-115.262 147.467-123.944 169.236-177.907 169.456-241.32.13-41.839-13.328-77.54-38.981-103.287-26.214-26.287-64.82-41.35-105.969-41.35-28.005 0-55.22 6.805-78.688 19.702-34.399 18.94-54.541 46.577-65.306 66.454a15.396 15.396 0 0 1-13.557 8.082c-5.677 0-10.894-3.105-13.557-8.082-10.811-19.877-30.88-47.515-65.288-66.454-23.495-12.897-50.72-19.703-78.725-19.703z"/><path fill="#FFAB00" d="M692.584 193.64c61.549-9.617 110.7-10.498 112.774-10.535a11.332 11.332 0 0 1 9.13 4.492c2.122 2.865 2.81 6.585 1.745 10.011-.578 1.984-15.182 48.92-41.608 105.334-35.877 76.457-74.62 130.667-115.217 161.143-52.374 39.294-104.728 35.822-139.44 26.067-37.06-10.48-61.823-30.044-62.862-30.87a12.472 12.472 0 0 1-1.984-2.011 10.648 10.648 0 0 1-1.36-2.462c-.541-1.23-12.39-30.449-12.077-68.99.293-36.06 11.619-87.313 63.992-126.579 40.58-30.467 103.47-52.539 186.907-65.6zm-549.635 0c-61.577-9.617-110.717-10.498-112.756-10.535a11.32 11.32 0 0 0-9.13 4.492 11.16 11.16 0 0 0-1.745 10.011c.597 1.984 15.165 48.92 41.609 105.334C96.804 379.4 135.564 433.61 176.135 464.085c52.355 39.294 104.728 35.822 139.439 26.067 37.107-10.48 61.852-30.044 62.862-30.87a11.804 11.804 0 0 0 1.993-2.011c.579-.772 1.01-1.59 1.397-2.462.504-1.23 12.335-30.449 12.041-68.99-.294-36.06-11.628-87.313-64.01-126.579-40.562-30.467-103.47-52.539-186.908-65.6z"/><path fill="#AEBCC4" d="M477.176 942.747V538.19H356.75v404.557c0 26.738 26.995 48.442 60.218 48.442 33.231 0 60.208-21.704 60.208-48.442z"/><g fill="#43525B"><path d="M199.015 176.262h.092c10.351 0 18.765-8.359 18.81-18.719.038-7.44 10.518-25.967 26.243-36.915 6.999-4.877 17.396-9.911 27.436-6.265 9.735 3.546 20.555-1.478 24.11-11.25 3.546-9.764-1.488-20.557-11.252-24.112-19.628-7.155-41.599-3.325-61.797 10.756-24.046 16.754-42.26 45.815-42.361 67.602-.046 10.388 8.33 18.857 18.72 18.903z"/><path d="M829.487 176.253c-5.657-7.486-14.64-11.96-24.45-11.96h-.01c-3.811.074-29.731.717-66.177 4.455.045-1.754.229-3.472.238-5.244.147-46.954-15.229-87.276-44.474-116.623C664.91 17.085 621.428 0 575.327 0c-31.184 0-61.521 7.615-87.764 22.035-35.508 19.556-57.24 47.184-69.787 68.677-12.593-21.502-34.37-49.195-69.798-68.686C321.737 7.616 291.38 0 260.206 0c-46.127 0-89.6 17.085-119.287 46.89-29.245 29.402-44.62 69.724-44.465 116.669.01 1.773.184 3.444.23 5.199-36.437-3.739-62.459-4.39-66.582-4.464-9.388 0-18.38 4.464-24.084 12.014-5.768 7.688-7.504 17.736-4.712 26.72.138.477 15.091 49.24 42.591 107.906 37.19 79.257 77.88 135.846 120.95 168.197 32.028 24.046 67.51 36.234 105.462 36.234 16.644 0 33.59-2.388 50.38-7.108 14.274-4.032 26.757-9.315 37.2-14.523 11.711 9.866 21.99 18.72 30.008 25.646h-49.958v423.367c0 37.08 35.455 67.253 79.029 67.253 43.573 0 79.018-30.173 79.018-67.253V519.38h-48.414a7814.462 7814.462 0 0 0 24.074-21.107l5.42-4.758c10.526 5.262 23.265 10.635 37.814 14.75 16.764 4.713 33.71 7.1 50.353 7.1 37.934 0 73.416-12.188 105.463-36.234 43.06-32.322 83.75-88.912 120.968-168.207 27.73-59.216 42.499-107.594 42.535-107.732 2.82-9.074 1.103-19.095-4.712-26.94zm-695.41-12.868c-.12-36.686 11.472-67.795 33.506-89.96 22.67-22.75 56.425-35.803 92.623-35.803 24.864 0 48.956 6.008 69.65 17.37 30.394 16.735 48.231 41.295 57.774 58.848 5.952 11.114 17.498 18.021 30.146 18.021 12.602 0 24.147-6.888 30.099-17.938C457.409 96.315 475.183 71.8 505.695 55c20.695-11.371 44.768-17.379 69.632-17.379 36.18 0 69.944 13.062 92.64 35.822 22.027 22.1 33.61 53.21 33.499 89.922-.019 3.399-.276 6.714-.45 10.067-3.775.542-7.449 1.02-11.343 1.626-86.515 13.539-152.225 36.804-195.284 69.126-58.51 43.877-71.185 101.156-71.516 141.478-.349 43.437 13.42 76.135 13.429 76.135.992 2.49 2.222 4.694 4.06 7.137 1.066 1.35 2.332 2.461 3.572 3.601-9.79 8.607-19.196 16.863-26.177 22.916-1.524-1.313-3.168-2.737-4.932-4.252a3602.166 3602.166 0 0 0-21.475-18.434c1.415-1.26 2.811-2.508 4.134-4.207 1.368-1.829 2.526-3.84 3.747-6.605 1.406-3.444 13.76-34.774 13.447-76.29-.33-40.323-13.006-97.601-71.524-141.47-43.05-32.33-108.751-55.588-195.303-69.135-3.885-.607-7.559-1.084-11.343-1.626-.165-3.343-.413-6.641-.431-10.048zM310.485 472.04c-43.657 12.28-86.367 4.519-123.053-22.99-38.09-28.621-74.922-80.462-109.476-154.09C58.96 254.438 46.258 219 40.617 202.266c17.837.753 55.193 3.05 99.42 9.957 80.387 12.583 140.457 33.47 178.54 62.072 46.209 34.637 56.22 79.855 56.478 111.673.23 29.833-7.707 53.76-9.892 59.785-.56.413-1.387 1-2.27 1.616-.633-.771-1.019-1.67-1.79-2.35l-29.475-25.83c.285-2.02.45-4.086.028-6.199l-18.848-95.341c-2.012-10.196-11.867-16.845-22.1-14.806-10.195 2.01-16.817 11.913-14.806 22.098l10.857 54.927-35.785-31.357c-.018-1.093.239-2.14.018-3.242l-14.705-74.446c-2.012-10.186-11.858-16.827-22.1-14.806-10.195 2.011-16.817 11.904-14.806 22.1l6.016 30.448-48.304-42.334c-7.825-6.862-19.701-6.072-26.545 1.745-6.852 7.816-6.062 19.702 1.745 26.545l49.325 43.225-28.924 2.563c-10.343.918-17.994 10.048-17.075 20.399.863 9.782 9.074 17.149 18.719 17.149.55 0 1.111-.028 1.68-.074l64.737-5.731 39.395 34.517-48.736 4.3c-10.352.908-17.994 10.038-17.084 20.39.863 9.782 9.074 17.158 18.719 17.158.551 0 1.111-.028 1.672-.074l84.585-7.467 28.657 25.13c-5.42 2.177-11.215 4.262-17.48 6.035zm147.88 470.707c0 16.065-18.959 29.631-41.397 29.631-22.449 0-41.407-13.566-41.407-29.63V557.001h21.677v279.96h37.622v-279.96h23.504v385.745zm299.23-647.796C723.034 368.606 686.2 420.456 648.12 449.04c-36.713 27.528-79.506 35.262-123.034 23.009-10.545-2.976-20.023-6.806-28.06-10.655l20.95-16.947 92.247 8.139c.56.046 1.12.073 1.671.073 9.644 0 17.856-7.376 18.72-17.157.908-10.353-6.733-19.483-17.085-20.392l-53.466-4.712 43.482-35.178c.138.01.248.101.386.11l75.565 6.696c.57.046 1.13.074 1.68.074 9.645 0 17.857-7.367 18.72-17.149.92-10.351-6.732-19.481-17.075-20.4l-37.29-3.307 57.157-46.247c8.075-6.53 9.332-18.379 2.793-26.453-6.558-8.082-18.407-9.34-26.453-2.792l-47.101 38.11 4.261-21.485c2.022-10.187-4.601-20.088-14.796-22.108-10.131-2.048-20.088 4.61-22.109 14.796l-13.043 65.756-47.018 38.045 9.81-49.691c2.01-10.186-4.62-20.078-14.816-22.09-10.195-2.104-20.078 4.629-22.09 14.815l-18.526 93.881-26.05 21.07c-3.15-10.837-7.237-29.116-7.054-50.875.258-31.836 10.27-77.045 56.48-111.69 38.09-28.603 98.15-49.481 178.511-62.064 43.924-6.862 81.812-9.186 99.448-9.948-5.576 16.551-18.251 51.932-37.338 92.677z"/></g></svg>