<svg xmlns="http://www.w3.org/2000/svg" viewBox="0 0 1010.0098 1010"><path fill="#FFAB00" d="M771.544 373.674c0 50.448-40.826 91.275-91.255 91.275-50.388 0-91.275-40.827-91.275-91.275 0-50.408 40.887-91.234 91.275-91.234 50.429 0 91.255 40.826 91.255 91.234z"/><path fill="#78909C" d="M199.878 373.674c0 50.448-40.827 91.275-91.275 91.275-50.378 0-91.266-40.827-91.266-91.275 0-50.408 40.888-91.234 91.266-91.234 50.448 0 91.275 40.826 91.275 91.234zm569.165 528.953c0 50.469-40.827 91.275-91.255 91.275-50.368 0-91.275-40.806-91.275-91.275 0-50.428 40.907-91.275 91.275-91.275 50.428 0 91.255 40.847 91.255 91.275z"/><path fill="#FFAB00" d="M194.058 898.068c0 50.47-40.816 91.276-91.265 91.276-50.378 0-91.265-40.807-91.265-91.276 0-50.468 40.887-91.275 91.265-91.275 50.449 0 91.265 40.807 91.265 91.275z"/><path fill="#78909C" d="M992.663 108.603c0 50.427-40.828 91.254-91.275 91.254-50.37 0-91.276-40.827-91.276-91.254 0-50.43 40.907-91.276 91.276-91.276 50.447 0 91.275 40.847 91.275 91.276z"/><path fill="#FFAB00" d="M417.668 108.603c0 50.427-40.827 91.254-91.275 91.254-50.369 0-91.256-40.827-91.256-91.254 0-50.43 40.887-91.276 91.256-91.276 50.448 0 91.275 40.847 91.275 91.276zm574.995 529.336c0 50.468-40.867 91.295-91.275 91.295s-91.276-40.827-91.276-91.296c0-50.427 40.868-91.254 91.276-91.254s91.275 40.827 91.275 91.255z"/><path fill="#78909C" d="M417.668 633.38c0 50.448-40.827 91.296-91.275 91.296-50.369 0-91.256-40.848-91.256-91.296 0-50.429 40.887-91.255 91.256-91.255 50.448 0 91.275 40.826 91.275 91.255z"/><path fill="#43525B" d="M908.024 529.74v-313.2c56.742-3.51 101.986-50.328 101.986-107.938C1010.01 48.714 961.276 0 901.388 0c-59.264 0-107.434 47.745-108.442 106.767H436.77C435.096 48.33 387.31 1.23 328.49 1.23c-59.888 0-108.613 48.733-108.613 108.622 0 26.243 9.744 50.025 25.295 68.825-.907.766-1.956 1.25-2.743 2.198l-79.434 95.37c-.788.948-1.08 2.058-1.675 3.087-15.683-8.795-33.494-14.241-52.717-14.241C48.713 265.092 0 313.806 0 373.694c0 54.462 40.413 99.243 92.758 107.01v313.663C40.413 802.134 0 846.914 0 901.377 0 961.266 48.713 1010 108.603 1010c52.818 0 96.832-37.943 106.525-87.968h355.63c1.05 0 1.957-.443 2.946-.605 9.46 50.328 53.574 88.573 106.585 88.573 59.889 0 108.603-48.734 108.603-108.623 0-26.243-9.743-50.025-25.295-68.825.908-.767 2.017-1.19 2.803-2.138l79.556-95.512c.746-.887 1.03-1.976 1.594-2.945 15.652 8.755 33.404 14.18 52.587 14.18 59.889 0 108.622-48.713 108.622-108.602 0-57.185-44.578-103.68-100.736-107.796zM791.816 634.49H696.95V480.602c51.942-8.07 91.942-52.729 91.942-106.909 0-26.263-9.743-50.045-25.316-68.844.929-.767 2.038-1.211 2.824-2.159l79.556-95.43c1.13-1.352 1.674-2.946 2.4-4.458a107.954 107.954 0 0 0 18.356 8.21v323.73c-42.541 13.877-73.564 52.95-74.896 99.746zm-355.036 0c-1.503-52.789-40.685-95.935-91.618-103.863V394.35h228.622c8.11 41.956 40.464 75.199 81.856 84.86v155.28H436.78zM162.995 803.928c-.788.948-1.08 2.057-1.675 3.087-8.492-4.761-17.549-8.553-27.251-10.913V478.969c40.998-9.946 72.99-42.946 81.059-84.62h88.723V532c-48.008 11.235-83.974 54.16-83.974 105.536 0 26.243 9.744 50.026 25.295 68.825-.907.767-1.956 1.25-2.743 2.199l-79.434 95.37zm98.193-166.394c0-37.095 30.197-67.29 67.302-67.29 37.095 0 67.282 30.195 67.282 67.29 0 37.096-30.186 67.292-67.282 67.292-37.105 0-67.302-30.196-67.302-67.292zm486.393-263.84c0 37.094-30.197 67.29-67.292 67.29s-67.292-30.196-67.292-67.29c0-37.096 30.197-67.293 67.292-67.293s67.292 30.197 67.292 67.292zM901.388 41.31c37.115 0 67.31 30.197 67.31 67.292s-30.195 67.292-67.31 67.292-67.313-30.197-67.313-67.292 30.197-67.292 67.313-67.292zM429.78 148.077h370.67c4.275 10.873 10.407 20.676 17.75 29.51-1.372.99-2.845 1.837-3.995 3.209l-79.555 95.43c-.787.948-1.09 2.078-1.674 3.086-15.673-8.774-33.464-14.22-52.688-14.22-52.809 0-96.823 37.922-106.505 87.947H345.162V216.761c38.991-6.071 71.003-32.718 84.619-68.684zM328.49 42.541c37.095 0 67.281 30.196 67.281 67.311 0 37.096-30.186 67.292-67.282 67.292-37.105 0-67.302-30.196-67.302-67.292 0-37.115 30.197-67.311 67.302-67.311zm-54.312 164.76c.777-.928 1.07-2.037 1.654-3.046 8.724 4.882 18.023 8.795 28.018 11.135v137.65h-88.724c-3.52-18.176-11.85-34.454-23.227-48.19.928-.788 2.047-1.211 2.844-2.18l79.435-95.37zM41.31 373.694c0-37.095 30.186-67.292 67.292-67.292 37.105 0 67.301 30.197 67.301 67.292s-30.197 67.291-67.301 67.291c-37.106 0-67.292-30.196-67.292-67.29zm67.292 594.995c-37.106 0-67.292-30.197-67.292-67.312 0-37.096 30.186-67.292 67.292-67.292 37.105 0 67.301 30.196 67.301 67.292 0 37.115-30.196 67.312-67.301 67.312zm465.12-87.363c-1.008-.161-1.915-.604-2.964-.604H215.127c-3.52-18.175-11.85-34.453-23.227-48.19.928-.787 2.047-1.21 2.844-2.179l79.435-95.37c.777-.927 1.07-2.037 1.654-3.045 15.663 8.774 33.454 14.2 52.657 14.2 46.364 0 85.738-29.349 101.28-70.337h225.87v120.06c-41.594 9.722-73.989 43.227-81.916 85.465zm106.566 87.362c-37.095 0-67.292-30.196-67.292-67.311 0-37.096 30.197-67.292 67.292-67.292s67.292 30.196 67.292 67.292c0 37.115-30.197 67.312-67.292 67.312zm54.362-164.699c-.767.928-1.05 2.037-1.634 3.027-11.034-6.194-23.096-10.53-36.067-12.547V675.8h101.886c4.257 11.255 10.429 21.441 17.993 30.56-.867.745-1.877 1.21-2.623 2.118l-79.555 95.51zm165.486-99.162c-37.116 0-67.312-30.196-67.312-67.292 0-37.095 30.195-67.29 67.312-67.29 37.115 0 67.311 30.195 67.311 67.29 0 37.096-30.196 67.292-67.311 67.292z"/></svg>