<svg enable-background="new 0 0 671.4306 1010" viewBox="0 0 671.4306 1010" xmlns="http://www.w3.org/2000/svg"><path d="m339.8847 425.1572h-83.559v-40.8081h83.559z" fill="#43525b"/><path d="m415.0849 425.1572h-75.2002v-40.8081h75.2002z" fill="#ffab00"/><path d="m339.8847 351.6309h-133.6923v-40.8081h133.6923z" fill="#43525b"/><path d="m465.2383 351.6309h-125.3536v-40.8081h125.3536z" fill="#ffab00"/><path d="m339.8847 278.0947h-183.8354v-40.8081h183.8354z" fill="#43525b"/><path d="m515.3515 278.0947h-175.4668v-40.8081h175.4668z" fill="#ffab00"/><path d="m339.8847 204.5684h-250.6669v-40.8081h250.6669z" fill="#43525b"/><path d="m582.1826 204.5684h-242.2979v-40.8081h242.2979z" fill="#ffab00"/><path d="m339.8847 131.0522h-284.0825v-40.8081h284.0825z" fill="#43525b"/><path d="m615.5986 131.0522h-275.7139v-40.8081h275.7139z" fill="#ffab00"/><path d="m339.8847 57.5259h-317.5078v-40.8081h317.5078z" fill="#43525b"/><path d="m649.0342 57.5259h-309.1495v-40.8081h309.1495z" fill="#ffab00"/><path d="m339.8847 625.6504h-83.559v-40.8076h83.559z" fill="#43525b"/><path d="m415.0849 625.6504h-75.2002v-40.8076h75.2002z" fill="#ffab00"/><path d="m339.8847 699.1973h-133.6923v-40.8086h133.6923z" fill="#43525b"/><path d="m465.2383 699.1973h-125.3536v-40.8086h125.3536z" fill="#ffab00"/><path d="m339.8847 772.7227h-183.8354v-40.8077h183.8354z" fill="#43525b"/><path d="m515.3515 772.7227h-175.4668v-40.8077h175.4668z" fill="#ffab00"/><path d="m339.8847 846.25h-217.2509v-40.8086h217.2509z" fill="#43525b"/><path d="m548.7666 846.25h-208.8819v-40.8086h208.8819z" fill="#ffab00"/><path d="m339.8847 919.7754h-233.9589v-40.8076h233.9589z" fill="#43525b"/><path d="m565.4648 919.7754h-225.5801v-40.8076h225.5801z" fill="#ffab00"/><path d="m339.8847 993.3027h-250.6669v-40.8086h250.6669z" fill="#43525b"/><path d="m582.1826 993.3027h-242.2979v-40.8086h242.2979z" fill="#ffab00"/><g fill="#43525b"><path d="m584.1953 1010s0 0-.0205 0c-11.2578 0-20.3838-9.126-20.3838-20.4043.04-163.5703-188.3779-407.1641-339.7651-602.8755-125.1641-161.8174-224.0259-289.6318-224.0259-366.3164 0-11.2681 9.1362-20.4038 20.4043-20.4038 11.268 0 20.4038 9.1357 20.4038 20.4038 0 62.7368 104.6802 198.0728 215.498 341.3496 163.2622 211.0747 348.3335 450.3433 348.2925 627.8423 0 11.2783-9.1455 20.4043-20.4033 20.4043z"/><path d="m87.1953 1010c-11.2681 0-20.4038-9.126-20.4038-20.4043-.0298-177.499 185.0312-416.748 348.313-627.8325 110.8281-143.2769 215.5176-278.6128 215.5176-341.3594 0-11.2681 9.1464-20.4038 20.4042-20.4038 11.2784 0 20.4043 9.1357 20.4043 20.4038 0 76.6846-98.872 204.5088-224.0459 366.3364-151.3964 195.711-339.8149 439.2852-339.7851 602.8555 0 11.2783-9.1362 20.4043-20.4043 20.4043z"/></g></svg>