<svg xmlns="http://www.w3.org/2000/svg" viewBox="0 0 758.7639 1009.9998"><path fill="#AEBCC4" d="M211.074 147.994c120.733-120.759 316.498-120.75 437.248.019 120.741 120.75 120.769 316.534.019 437.229-120.769 120.787-316.553 120.787-437.267 0-120.777-120.731-120.777-316.479 0-437.248z"/><path fill="#FFAB00" d="M220.038 917.73H639.332V991.3820000000001H220.038z"/><path fill="#43525B" d="M753.31 665.093l-79.86-79.841c54.133-60.207 84.068-137.005 84.06-218.602-.01-87.56-34.109-169.885-96.025-231.8-61.916-61.935-144.24-96.033-231.81-96.033-81.579 0-158.385 29.926-218.582 84.06L93.66 5.454c-7.272-7.272-19.054-7.272-26.326 0-7.273 7.273-7.273 19.054 0 26.327l46.417 46.416C40.526 157.876 0 260.237 0 369.014 0 599.951 182.639 788.98 411.076 799.398v99.715H220.038c-10.282 0-18.618 8.336-18.618 18.617v73.653c0 10.28 8.336 18.617 18.618 18.617h419.294c10.281 0 18.617-8.336 18.617-18.617V917.73c0-10.281-8.336-18.617-18.617-18.617h-191.02v-100.06c102.341-4.055 198.138-43.57 273.508-112.795l5.163 5.162a18.555 18.555 0 0 0 13.163 5.455c4.764 0 9.528-1.819 13.164-5.455 7.272-7.272 7.272-19.063 0-26.327zM620.714 972.765h-382.06v-36.417h382.06v36.417zM139.113 366.632c0-52.525 14.146-102.769 40.117-146.886 2.909 38.617 12.482 92.124 38.844 149.25-35.78 12.435-63.125 12.381-78.334 10.572-.19-4.318-.627-8.59-.627-12.936zm76.416-187.857l117.15 117.169c-28.8 26.699-55.752 45.307-80.124 57.988-35.236-76.597-37.844-146.658-37.026-175.157zM359.124 322.39l44.234 44.243-85.56 85.56c-19.363-21.307-35.417-43.234-48.198-65.16 27.635-14.336 57.789-35.036 89.524-64.643zm70.56 70.57l44.381 44.389c-29.526 31.708-50.461 61.852-64.761 89.47-21.908-12.8-43.844-28.89-65.18-48.29l85.56-85.57zm70.68 70.697l117.16 117.168c-28.481.882-98.443-1.582-175.113-36.917 12.664-24.436 31.263-51.443 57.953-80.251zm143.495 90.85L526.682 437.311c28.789-26.69 55.743-45.298 80.106-57.98 35.271 76.625 37.88 146.704 37.071 175.175zM500.392 411.021l-44.381-44.389 85.543-85.533c19.372 21.317 35.434 43.253 48.216 65.188-27.59 14.309-57.707 35.227-89.378 64.734zm41.17-182.593c-25.017-22.98-50.707-41.58-76.279-56.262 14.254-38.716 16.254-70.324 14.9-91.514 52.343 9.135 100.842 32.444 141.168 67.997l-79.788 79.779zm-26.335 26.345l-85.543 85.533-44.388-44.398c29.525-31.69 50.452-61.826 64.76-89.434 21.909 12.8 43.836 28.89 65.171 48.299zm-156.23 14.835L241.836 152.44c28.444-.873 98.405 1.582 175.112 36.944-12.673 24.426-31.271 51.425-57.953 80.224zM155.148 417.567c20.5 0 47.908-3.373 80.097-15.236 14.682 25.544 33.263 51.216 56.217 76.206L211.72 558.28c-35.544-40.307-58.862-88.787-67.997-141.103 3.553.227 7.3.39 11.426.39zm162.512 87.415c25.026 23.008 50.79 41.543 76.38 56.242-14.209 38.663-16.209 70.226-14.854 91.39-52.334-9.138-100.833-32.455-141.141-68.008l79.615-79.624zm99.124 151.604c-1.754-15.11-1.79-42.409 10.6-78.189 57.025 26.317 110.542 35.808 149.14 38.726-44.098 25.954-94.324 40.09-146.84 40.09-4.336 0-8.591-.437-12.9-.627zm263.373-143.041c-2.919-38.617-12.5-92.142-38.89-149.285 35.844-12.473 63.208-12.418 78.37-10.6.191 4.336.636 8.627.636 12.99 0 52.544-14.144 102.787-40.116 146.895zm35.508-197.42c-21.19-1.355-52.799.655-91.516 14.908-14.69-25.571-33.289-51.261-56.261-76.279l79.779-79.779c35.544 40.317 58.861 88.815 67.998 141.15zM442.576 76.679c1.763 15.127 1.808 42.471-10.637 78.315-57.088-26.344-110.55-35.917-149.14-38.826 44.107-25.971 94.351-40.116 146.877-40.116 4.336 0 8.6.436 12.9.627zM430.93 762.664c-217.084 0-393.696-176.595-393.696-393.65 0-98.833 36.635-191.866 102.842-264.49l44.744 44.734c-53.425 60.044-82.943 136.359-82.943 217.374 0 87.551 34.1 169.867 96.024 231.773 61.908 61.935 144.222 96.042 231.783 96.042 81.024 0 157.33-29.516 217.374-82.933l48.434 48.425c-72.597 66.125-165.648 102.725-264.562 102.725z"/></svg>