<svg xmlns="http://www.w3.org/2000/svg" viewBox="0 0 945.9384 1009.9997"><path fill="#EBEEF0" d="M289.297 1003.188c1.686-73.579-22.327-113.755-59.66-123.213-14.624-8.586-31.041-14.604-52.428-19.063l-9.958-1.804c-12.174-2.048-24.563-3.362-37-4.684-16.359-1.715-31.767-3.382-46.969-6.675l-7.89-1.5c-18.574-3.382-27.62-5.9-30.453-13.467-3.93-11.322.5-22.866 8.37-40.637l3.421-7.919c6.999-16.418 12.605-34.384 6.273-54.035-1.783-5.567-4.508-10.958-8.076-16.094a45.37 45.37 0 0 0 8.076-8.253c15.604-23.424-1.411-42.42-7.782-49.555-.421-.49-.921-1.02-1.323-1.451.852-1.274 1.676-2.558 2.529-3.832 9.761-14.85 19.426-33.306 16.917-57.515-.078-.794-.373-2.244-.51-3.098-6.488-29.05-29.884-38.185-45.331-44.262-7.743-3.019-15.035-5.852-18.398-9.439-.725-.892-1.42-2.843-1.42-4.597l89.408-95.172a4515.157 4515.157 0 0 0 36.716-39.528 21.433 21.433 0 0 0 3.93-6.165l4.224-10.321c9.145-23.572-.49-41.607-7.518-54.819l-3.166-6.136c-1.088-2.215-2.146-4.48-2.832-6.822-.706-2.46-.922-4.557-.97-4.646 4.4-20.66 11.056-40.999 20.308-62.17 7.763-17.848 17.398-36.039 28.562-54.083 10.261-16.575 21.739-33.012 35.147-50.4 10.32-13.378 21.093-26.463 30.316-37.391 10.732-9.586 22.425-18.73 34.716-27.17 5.146-3.499 10.42-6.86 15.741-10.144 6.979-4.234 13.997-8.224 21.191-11.938 22.121-11.438 46.037-21.034 71.157-28.434 47.175-14.026 98.641-20.73 151.48-19.877 67.894 5.46 124.33 16.349 172.524 33.295a487.308 487.308 0 0 1 23.827 9.047c10.322 4.361 20.525 9.076 30.492 14.212 21.406 11.075 41.412 23.945 60.014 38.705 4.98 3.666 9.722 7.43 14.252 11.34a236.275 236.275 0 0 1 20.935 20.348c9.037 9.988 17.516 21.093 25.16 33.07 23.377 36.55 39.176 80.724 48.32 135.033.942 5.45 1.745 10.91 2.5 16.212l2.47 22.67c3.714 43.577 1.226 83.44-7.448 118.529-.98 3.999-2.068 7.85-3.205 11.771-1.598 5.312-3.324 10.644-5.861 17.79-5.284 19.808-13.596 39.822-25.475 61.102-3.225 5.772-6.645 11.447-10.145 17.043-2.949 4.715-5.939 9.43-9.076 14.115-8.79 13.075-18.22 25.905-27.914 38.637-6.312 8.38-12.81 16.672-19.25 25.052-18.984 24.493-38.675 49.83-55.584 76.265-15.25 23.7-26.658 45.792-34.931 67.512-6.293 16.28-10.89 32.765-13.938 51.015-.646 9.381-1.196 21.515-1.656 35.197-.902 25.346-1.607 55.917-2.156 82.92l-.167 8.9c-.304 15.3 3.822 36.53 3.645 36.53"/><path fill="#FFAB00" d="M378.48 221.548c6.194 0 12.212.647 18.122 1.676 7.695-68.59 65.817-121.928 136.484-121.928 58.965 0 109.08 37.196 128.614 89.33 8.321-2.157 17.005-3.441 26.012-3.441 56.908 0 103.062 46.164 103.062 103.08 0 13.83-2.754 26.974-7.674 39 34.285 11.262 59.219 43.166 59.219 81.254 0 47.448-38.45 85.9-85.889 85.9-56.946 0-120.263 46.154-120.263 103.07v-103.07c0-37.952-30.776-68.719-68.717-68.719H378.48c-56.907 0-103.062-46.154-103.062-103.07 0-56.937 46.155-103.082 103.062-103.082z"/><g fill="#43525B"><path d="M944.215 342.988l-2.5-22.69c-.763-5.362-1.568-10.86-2.5-16.3-9.379-55.623-25.709-101.062-49.927-138.925-8.008-12.516-16.926-24.23-26.542-34.863a250.812 250.812 0 0 0-22.132-21.515c-4.793-4.136-9.83-8.135-14.496-11.536-18.838-14.976-39.598-28.365-61.71-39.813-10.154-5.234-20.552-10.047-31.217-14.545A478.19 478.19 0 0 0 709 33.617C660.465 16.553 603.891 5.595 534.743.067c-53.947-.823-105.57 5.93-153.44 20.171-25.562 7.538-50.056 17.33-72.776 29.081-7.439 3.822-14.682 7.939-21.955 12.37A426.366 426.366 0 0 0 270.4 72.106c-12.692 8.704-24.738 18.142-35.804 28.032a19.676 19.676 0 0 0-1.94 2c-9.185 10.85-19.858 23.827-30.091 37.098-13.545 17.544-25.12 34.148-35.393 50.751-11.467 18.524-21.269 37.098-29.11 55.162-9.576 21.897-16.447 42.96-21.014 64.376-.53 2.5-.578 5.057-.157 7.546a52.587 52.587 0 0 0 1.48 6.871c.99 3.333 2.421 6.567 4.166 10.135l3.234 6.273c7.165 13.447 11.468 23.259 6.43 36.255l-4.137 10.076c-11.741 12.781-23.572 25.542-35.598 38.313L5.44 517.62A20.085 20.085 0 0 0 0 531.36c0 6.194 2.186 12.595 6.832 18.24 6.37 6.782 15.505 10.341 25.277 14.154 16.28 6.4 28.091 12.203 31.913 29.443 1.785 17.22-5.332 30.796-13.143 42.705l-2.509 3.793c-5.097 7.605-3.078 19.143 3.028 25.974 10.458 11.721 10.164 17.171 6.567 22.651a24.559 24.559 0 0 1-4.4 4.508c-8.302 6.587-10.037 18.496-3.98 27.19 2.352 3.37 4.107 6.85 5.234 10.34 3.92 12.153.647 24.21-5.45 38.49l-3.234 7.517c-7.616 17.152-15.486 34.892-8.596 54.74 7.087 18.938 27.14 22.583 44.665 25.769l7.204 1.362c16.359 3.548 33.1 5.303 48.017 6.861 11.644 1.235 23.23 2.45 34.363 4.332l9.204 1.666c18.603 3.872 32.472 8.87 44.96 16.211a19.62 19.62 0 0 0 5.252 2.157c39.098 9.9 43.675 66.904 42.921 100.004-.255 11.086 8.517 20.279 19.602 20.523.157.01.314.01.471.01 10.87 0 19.809-8.684 20.053-19.611 2.323-101.504-41.783-130.761-70.354-139.063-15.593-8.8-33.1-15.035-55.22-19.632l-9.949-1.803c-12.203-2.06-24.601-3.391-37.275-4.735-17.172-1.793-30.345-3.293-44.027-6.253l-7.87-1.499c-2.824-.51-10.106-1.834-14.477-3.117.5-4.93 3.842-12.82 7.84-21.838l3.352-7.782c7.96-18.651 14.977-41.155 6.764-66.63a75.626 75.626 0 0 0-2.402-6.41c9.606-14.418 16.34-36.344-.98-62.121 8.969-15.456 16.898-35.412 14.3-60.425-.107-1.128-.46-3.117-.891-5.312-7.92-35.609-34.874-48.752-52.261-55.79l70.913-75.48a4357.506 4357.506 0 0 0 35.932-38.687c3.205-3.499 5.743-7.498 7.585-11.938l4.254-10.39c12.223-31.5-.607-55.602-8.193-69.844l-2.862-5.547c-.363-.736-.745-1.47-1.147-2.588 3.988-17.26 9.752-34.403 17.583-52.31 7.096-16.348 15.987-33.197 26.445-50.075 9.536-15.417 20.337-30.914 33.03-47.36 9.517-12.32 19.417-24.396 28.042-34.609 9.517-8.42 19.847-16.476 30.629-23.876a395.317 395.317 0 0 1 14.506-9.34c6.38-3.882 12.8-7.528 19.417-10.939 20.494-10.605 42.606-19.436 65.767-26.268 43.988-13.084 91.475-19.308 140.11-18.583 64.365 5.185 117.646 15.437 162.928 31.364a427.051 427.051 0 0 1 22.004 8.351c9.566 4.038 19.024 8.4 28.239 13.154 19.789 10.242 38.351 22.21 55.78 36.049a203.49 203.49 0 0 1 12.661 10.056 211.567 211.567 0 0 1 18.574 18.054c8.096 8.949 15.663 18.887 22.475 29.542 21.25 33.217 35.688 73.765 44.154 124.007.883 5.126 1.627 10.232 2.256 14.584l2.371 21.573c3.43 40.224 1.166 76.852-6.744 108.854-.89 3.617-1.88 7.116-2.871 10.516-1.46 4.882-3.039 9.782-5.861 17.908-4.744 17.78-12.242 35.726-22.955 54.898-2.96 5.332-6.106 10.536-9.31 15.672-2.774 4.41-5.567 8.83-8.499 13.193-7.527 11.182-15.937 22.817-26.562 36.725-4.272 5.685-8.635 11.33-13.006 16.986l-6.332 8.194c-18.514 23.886-37.657 48.585-54.338 74.677-15.576 24.2-27.317 46.909-35.844 69.335-6.764 17.475-11.547 35.01-14.87 55.505-.646 9.321-1.195 21.367-1.655 34.931-.883 24.779-1.569 54.643-2.108 81.068l-.156 8.636c-.266 13.662 2.44 30.471 3.704 38.36l19.917-2.41-15.163-13.154 30.443 26.17c6.038-7.095 4.843-14.554 4.195-18.563-.784-4.832-3.157-19.564-2.95-29.65l.157-8.625c.52-26.17 1.205-55.818 2.088-80.44.44-13.035.95-24.59 1.353-31.628 2.647-15.87 6.732-30.826 12.525-45.822 7.567-19.887 18.075-40.166 32.149-62.032 15.74-24.612 34.314-48.576 53.103-72.815l5.55-7.194c4.468-5.783 8.927-11.556 13.23-17.261 11.037-14.457 19.886-26.718 27.894-38.598 3.166-4.723 6.176-9.477 9.194-14.28 3.587-5.754 7.087-11.556 10.36-17.436 12.34-22.093 21.063-43.058 26.19-62.534 2.627-7.35 4.381-12.84 6.057-18.446 1.186-4.067 2.312-8.096 3.342-12.251 8.969-36.276 11.586-77.295 7.734-122.38z"/><path d="M852.563 413.038c0-37.97-20.74-72.168-53.203-90.193a119.85 119.85 0 0 0 3.039-26.875c0-70.795-61.397-128.113-133.78-119.606-25.963-51.094-79.117-84.4-137.13-84.4-71.697 0-132.789 49.115-149.363 117.078-66.502-.54-121.527 53.623-121.527 120.38 0 66.395 54.015 120.41 120.4 120.41h183.932c25.826 0 46.831 20.995 46.831 46.811V596.97c0 11.085 8.987 20.074 20.072 20.074 11.086 0 20.075-8.989 20.075-20.074 0-44.459 53.045-80.253 96.964-80.253 57.172 0 103.69-46.508 103.69-103.68zM651.909 514.453v-17.81c0-47.948-39.02-86.957-86.978-86.957H381c-44.253 0-80.254-36.01-80.254-80.264 0-44.243 36-80.244 80.254-80.244 4.499 0 9.125.432 14.153 1.314a20.09 20.09 0 0 0 15.506-3.695 20.07 20.07 0 0 0 7.92-13.83c6.458-57.495 54.995-100.856 112.91-100.856 47.067 0 89.82 29.708 106.384 73.922 3.617 9.615 13.89 14.927 23.828 12.399 7.056-1.823 13.692-2.715 20.289-2.715 44.253 0 80.263 36 80.263 80.253 0 10.439-2.02 20.661-5.988 30.394a20.072 20.072 0 0 0 .361 16.006 20.053 20.053 0 0 0 11.96 10.654c26.218 8.606 43.831 32.727 43.831 60.014 0 35.03-28.503 63.532-63.543 63.532-34.1 0-70.315 14.29-96.964 37.883z"/><path d="M531.489 292.638H564.931V332.78499999999997H531.489z"/><path d="M464.604 292.638H498.036V332.78499999999997H464.604z"/><path d="M598.383 292.638H631.8340000000001V332.78499999999997H598.383z"/></g></svg>