<svg xmlns="http://www.w3.org/2000/svg" viewBox="0 0 945.9546 1010.0001"><path fill="#EBEEF0" d="M294.187 989.927c1.666-71.592-21.74-110.72-58.046-119.934-14.27-8.35-30.208-14.231-51.067-18.544l-9.683-1.764c-11.86-2-23.877-3.293-35.972-4.568-15.997-1.667-30.974-3.294-45.754-6.489L86 837.138c-18.094-3.254-26.895-5.724-29.66-13.055-3.823-11.057.47-22.309 8.155-39.599l3.332-7.684c6.822-15.996 12.252-33.483 6.116-52.615-1.763-5.41-4.41-10.664-7.88-15.644a46.63 46.63 0 0 0 7.88-8.037c15.173-22.818-1.391-41.284-7.566-48.243-.451-.49-.902-1-1.314-1.412.785-1.235 1.627-2.49 2.45-3.744 9.528-14.467 18.898-32.405 16.467-55.987-.078-.745-.352-2.195-.47-2.98-6.352-28.307-29.091-37.207-44.186-43.127-7.488-2.921-14.585-5.665-17.878-9.174-.725-.863-1.372-2.784-1.372-4.47l87.058-92.645a4264.608 4264.608 0 0 0 35.717-38.48 20.974 20.974 0 0 0 3.803-5.98l4.116-10.036c8.9-22.976-.47-40.54-7.311-53.4l-3.098-5.96c-1.02-2.156-2.078-4.351-2.744-6.645-.667-2.372-.862-4.41-.922-4.528 4.293-20.093 10.763-39.873 19.741-60.496 7.606-17.388 16.937-35.09 27.778-52.654 10.017-16.153 21.191-32.15 34.247-49.047 10.037-13.017 20.524-25.759 29.522-36.423a340.65 340.65 0 0 1 33.796-26.445 371.32 371.32 0 0 1 15.33-9.86c6.783-4.117 13.644-8.018 20.603-11.625 21.563-11.115 44.833-20.466 69.277-27.68 45.93-13.644 95.978-20.172 147.436-19.348 66.103 5.332 121.031 15.917 167.96 32.423a483.09 483.09 0 0 1 23.173 8.802c10.056 4.235 19.994 8.842 29.678 13.82 20.859 10.783 40.304 23.309 58.418 37.678a227.3 227.3 0 0 1 13.88 11.037c7.252 6.253 14.074 12.86 20.387 19.819 8.821 9.723 17.055 20.524 24.504 32.188 22.74 35.58 38.128 78.57 47.008 131.42.922 5.332 1.686 10.625 2.431 15.8l2.39 22.074c3.647 42.42 1.218 81.196-7.212 115.385-.98 3.861-2.02 7.626-3.137 11.448-1.548 5.155-3.234 10.35-5.685 17.33-5.155 19.27-13.233 38.734-24.817 59.475a364.807 364.807 0 0 1-9.88 16.585c-2.863 4.587-5.784 9.174-8.842 13.721-8.528 12.723-17.701 25.21-27.131 37.6-6.174 8.154-12.486 16.25-18.76 24.387-18.486 23.856-37.638 48.517-54.125 74.256-14.84 23.074-25.934 44.578-33.972 65.71-6.155 15.84-10.625 31.914-13.565 49.675-.666 9.115-1.176 20.917-1.627 34.228-.883 24.699-1.568 54.457-2.098 80.725l-.157 8.685c-.313 14.898 3.705 35.541 3.528 35.541"/><path fill="#78909C" d="M807.419 362.818c0 129.343-104.8 234.142-234.103 234.142-129.302 0-234.101-104.799-234.101-234.142 0-129.263 104.799-234.082 234.101-234.082 129.303 0 234.103 104.819 234.103 234.082z"/><path fill="#FFAB00" d="M673.665 329.3951L606.7597 329.3951 606.7597 262.5284 539.873 262.5284 539.873 329.3951 472.9873 329.3951 472.9873 396.3009 539.873 396.3009 539.873 463.1866 606.7597 463.1866 606.7597 396.3009 673.665 396.3009z"/><g fill="#43525B"><path d="M944.21 343.02l-2.47-22.78c-.784-5.351-1.57-10.84-2.51-16.27-9.33-55.536-25.66-100.977-49.89-138.89-8.018-12.565-16.956-24.288-26.562-34.873-6.724-7.43-14.173-14.683-22.152-21.544a229.006 229.006 0 0 0-14.506-11.547c-18.957-15.055-39.717-28.444-61.71-39.814-10.136-5.214-20.546-10.037-31.249-14.546a522.978 522.978 0 0 0-24.111-9.154C660.53 16.547 603.937 5.589 534.737.042 480.75-.587 429.253 5.96 381.303 20.212c-25.386 7.488-49.87 17.27-72.826 29.11-7.351 3.804-14.624 7.94-21.819 12.292a392.79 392.79 0 0 0-16.212 10.449c-12.408 8.488-24.445 17.917-35.795 28.012a18.16 18.16 0 0 0-2.02 2.059c-9.154 10.86-19.837 23.837-30.051 37.089-13.487 17.447-25.072 34.051-35.442 50.772-11.312 18.31-21.093 36.874-29.112 55.184-9.547 21.935-16.407 42.97-20.955 64.318a20.01 20.01 0 0 0-.118 7.86 53.36 53.36 0 0 0 1.392 6.47c.922 3.195 2.294 6.312 4.195 10.291l3.215 6.176c7.175 13.467 11.487 23.308 6.45 36.305l-4.156 10.076a4247.578 4247.578 0 0 1-35.541 38.305L5.45 517.625A20.008 20.008 0 0 0 0 531.367c0 6.352 2.274 12.86 6.803 18.212 6.37 6.782 15.427 10.31 25.23 14.133 16.328 6.411 28.17 12.213 31.972 29.465 1.784 17.289-5.313 30.835-13.978 43.989l-1.901 2.92c-4.803 7.567-2.607 18.898 3.333 25.602 9.429 10.625 10.781 16.173 6.567 22.583a26.66 26.66 0 0 1-4.549 4.626c-8.212 6.626-9.918 18.467-3.88 27.112 2.333 3.372 4.116 6.861 5.234 10.311 3.92 12.213.646 24.269-5.411 38.501l-3.274 7.508c-7.625 17.153-15.505 34.874-8.585 54.83 7.134 18.957 27.189 22.544 44.616 25.68l7.254 1.412c15.231 3.293 30.07 4.98 47.89 6.822 11.684 1.235 23.288 2.47 34.462 4.352l9.234 1.685c18.486 3.823 32.365 8.822 44.989 16.213a20.757 20.757 0 0 0 5.195 2.137c39.128 9.919 43.695 66.905 42.911 99.996-.255 11.095 8.528 20.289 19.604 20.544h.47c10.88 0 19.819-8.685 20.074-19.604 2.352-101.505-41.794-130.772-70.356-139.085-15.722-8.84-33.227-15.074-55.222-19.603l-9.96-1.822c-12.27-2.059-24.699-3.412-37.226-4.725-16.584-1.745-30.346-3.293-44.009-6.234l-7.94-1.55c-6.664-1.195-11.506-2.234-14.466-3.096.51-4.94 3.842-12.82 7.821-21.818l3.392-7.782c7.94-18.624 14.957-41.09 6.743-66.71a74.465 74.465 0 0 0-2.391-6.332s0-.02.019-.02c9.469-14.232 16.134-35.815-1.098-61.985 8.998-15.448 16.977-35.424 14.37-60.614-.079-.784-.275-2.058-.471-3.195-.059-.353-.294-1.745-.372-2.078-7.96-35.541-34.796-48.694-52.282-55.772l70.944-75.511a4100.498 4100.498 0 0 0 35.932-38.716c3.137-3.45 5.647-7.39 7.529-11.86l4.273-10.41c12.213-31.522-.628-55.633-8.214-69.905l-2.901-5.587c-.333-.686-.706-1.391-1.078-2.47 3.98-17.211 9.742-34.384 17.525-52.282 7.253-16.564 16.153-33.423 26.445-50.105 9.625-15.527 20.446-31.013 33.09-47.382 9.507-12.31 19.408-24.386 28.033-34.619 9.782-8.606 20.113-16.662 30.659-23.896a379.08 379.08 0 0 1 14.468-9.312c6.41-3.881 12.859-7.547 19.387-10.939 20.661-10.644 42.794-19.485 65.808-26.268 44.049-13.095 91.292-19.27 140.103-18.583 64.417 5.194 117.7 15.447 162.924 31.345a454.754 454.754 0 0 1 22.033 8.37c9.586 4.039 19.055 8.43 28.248 13.154a342.459 342.459 0 0 1 55.752 36.031 199.134 199.134 0 0 1 12.645 10.057c6.724 5.782 12.996 11.88 18.642 18.094 8.077 8.919 15.643 18.838 22.446 29.502 21.27 33.287 35.717 73.826 44.146 124.03.883 5.156 1.627 10.253 2.254 14.546l2.354 21.641c3.449 40.187 1.195 76.806-6.686 108.72-.92 3.627-1.88 7.175-2.9 10.605-1.47 4.9-3.059 9.841-5.842 17.918-4.764 17.819-12.271 35.756-22.956 54.87a347.55 347.55 0 0 1-9.39 15.76c-2.744 4.392-5.528 8.783-8.488 13.173-7.234 10.802-15.643 22.446-26.445 36.658-4.43 5.842-8.939 11.664-13.447 17.506l-5.862 7.587c-18.545 23.916-37.717 48.655-54.458 74.806-15.565 24.17-27.288 46.89-35.796 69.298-6.782 17.426-11.565 34.971-14.879 55.476-.685 9.331-1.214 21.407-1.666 34.973-.901 24.798-1.588 54.673-2.117 81.098l-.156 8.606c-.275 13.703 2.43 30.503 3.685 38.383l19.916-2.41-15.171-13.155 30.462 26.17c6.038-7.095 4.842-14.545 4.196-18.545-.784-4.841-3.156-19.544-2.942-29.659l.159-8.626c.529-26.17 1.214-55.81 2.077-80.451.45-13.017.94-24.543 1.372-31.64 2.646-15.918 6.724-30.875 12.527-45.812 7.567-19.898 18.074-40.187 32.11-62.024 15.8-24.662 34.404-48.676 53.125-72.827l5.175-6.685c4.586-5.94 9.174-11.88 13.662-17.8 11.273-14.82 20.133-27.071 27.819-38.559a467.872 467.872 0 0 0 9.154-14.212 367.463 367.463 0 0 0 10.429-17.505c12.33-22.055 21.053-43.01 26.23-62.614 2.567-7.332 4.35-12.781 6.017-18.348 1.176-4.058 2.294-8.037 3.352-12.272 8.958-36.325 11.566-77.335 7.685-122.343z"/><path d="M827.492 362.818c0-140.143-114.032-254.155-254.176-254.155S319.141 222.675 319.141 362.818c0 140.183 114.032 254.215 254.175 254.215s254.176-114.032 254.176-254.215zM573.316 576.886c-118.011 0-214.028-96.036-214.028-214.067 0-118.012 96.017-214.009 214.028-214.009 118.012 0 214.029 95.997 214.029 214.009 0 118.03-96.017 214.067-214.029 214.067z"/><path d="M673.665 309.321h-46.832v-46.793c0-11.095-8.979-20.073-20.073-20.073h-66.887c-11.095 0-20.073 8.978-20.073 20.073v46.793h-46.813c-11.095 0-20.074 8.979-20.074 20.074v66.906c0 11.096 8.979 20.074 20.074 20.074H519.8v46.812c0 11.095 8.978 20.074 20.073 20.074h66.887c11.095 0 20.073-8.979 20.073-20.074v-46.812h46.832c11.096 0 20.074-8.978 20.074-20.074v-66.906c0-11.095-8.978-20.074-20.074-20.074zm-20.073 66.906H606.76c-11.096 0-20.073 8.978-20.073 20.074v46.812h-26.74v-46.812c0-11.096-8.978-20.074-20.074-20.074H493.06V349.47h46.813c11.096 0 20.073-8.979 20.073-20.074v-46.793h26.74v46.793c0 11.095 8.978 20.074 20.074 20.074h46.832v26.758z"/></g></svg>