<svg xmlns="http://www.w3.org/2000/svg" viewBox="0 0 678.9746 1010"><path fill="#AEBCC4" d="M457.085 404.187v478.87c0 60.08-49.143 109.223-109.223 109.223-60.062 0-109.205-49.143-109.205-109.222V404.187"/><path fill="#78909C" d="M457.085 773.87v109.188c0 60.079-49.143 109.222-109.223 109.222-60.062 0-109.205-49.143-109.205-109.222V773.869"/><path fill="#FFAB00" d="M255.459 135.352S229.538 17.719 104.222 17.719h-84.01S44.713 202.56 171.431 202.56c0 0 84.027 6.991 84.027-67.208z"/><path fill="#EBEEF0" d="M473.888 404.187H221.855c-18.481 0-33.622-15.124-33.622-33.604 0-18.481 15.141-33.605 33.622-33.605h252.033c18.48 0 33.604 15.124 33.604 33.605 0 18.48-15.124 33.603-33.604 33.603z"/><path fill="#FFAB00" d="M423.516 202.56S449.42 84.928 574.736 84.928h84.028S634.26 269.769 507.526 269.769c0 0-84.01 6.991-84.01-67.209z"/><path fill="#43525B" d="M574.735 67.209c-137.964 0-168.246 130.23-168.523 131.544l-.416 3.808c0 3.633.208 7.077.52 10.451-2.493 2.284-5.07 4.465-7.407 6.94-32.133 33.95-40.733 75.635-42.914 99.307H339.92c-2.025-34.764-12.442-111.646-64.007-164.717-1.247-1.28-2.63-2.37-3.911-3.617a104.372 104.372 0 0 0 1.177-15.573l-.416-3.807C272.47 130.23 242.187 0 104.223 0H0l2.647 20.055c1.09 8.168 28.137 200.173 167.261 200.155h.052s2.665.243 7.146.243c11.594 0 34.072-1.592 54.474-12.303 8.617-4.517 17.875-11.403 25.54-21.354 36.39 43.14 45.198 103.27 47.223 132.463h-82.488c-28.31 0-51.341 23.031-51.341 51.323 0 27.981 22.547 50.736 50.423 51.237v461.239c0 69.995 56.93 126.942 126.925 126.942s126.943-56.947 126.943-126.942V421.819c27.86-.501 50.407-23.256 50.407-51.237 0-28.292-23.032-51.323-51.324-51.323h-82.194c2.006-17.287 8.27-44.922 27.444-68.61 17.875 26.561 51.029 37.013 82.713 37.013 3.425 0 5.779-.14 6.056-.173 140.301-.346 167.33-192.057 168.42-200.225l2.648-20.055h-104.24zM215.124 176.76c-14.19 7.458-31.32 8.254-38.018 8.254-2.439 0-3.98-.103-5.675-.173-86.52 0-119.588-104.533-129.78-149.403h62.571c82.782 0 116.473 57.277 128.344 86.763-27.202-14.207-58.885-21.388-94.74-21.388v35.438c36.737 0 67.815 8.947 92.906 26.39-3.686 5.779-8.739 10.52-15.608 14.12zm132.738 797.802c-50.44 0-91.486-41.046-91.486-91.504V421.906h182.99v28.967h-91.504v35.438h91.504v65.41h-91.504v35.438h91.504v65.374h-91.504v35.44h91.504v65.374h-91.504v35.438h91.504v65.375h-91.504V889.6h90.846c-3.426 47.361-42.637 84.962-90.846 84.962zm141.91-603.98c0 8.756-7.128 15.885-15.884 15.885H221.855c-8.774 0-15.902-7.129-15.902-15.885 0-8.755 7.128-15.885 15.902-15.885h252.033c8.756 0 15.885 7.13 15.885 15.885zm16.336-118.48c-.277.017-1.818.121-4.257.121-17.512 0-43.97-4.153-55.165-25.921 24.225-15.176 55.857-22.842 94.428-22.842v-35.438c-35.975 0-67.07 6.108-93.321 17.857 12.856-30.264 46.738-83.232 126.942-83.232h62.588c-10.26 44.887-43.57 149.42-131.215 149.455z"/></svg>