<svg xmlns="http://www.w3.org/2000/svg" viewBox="0 0 1009.8008 1009.9998"><path fill="#FFAB00" d="M879.904 414.556L518.63 775.832c-78.607 78.587-206.033 78.587-284.64 0L124.506 885.304c139.073 139.042 364.534 139.042 503.615 0L989.397 524.03 879.904 414.556z"/><path fill="#78909C" d="M233.989 491.172l361.275-361.296L485.79 20.404 124.506 381.68c-139.062 139.102-139.062 364.543 0 503.625L233.99 775.832c-78.588-78.627-78.607-206.053 0-284.66z"/><path fill="#FFF" d="M901.8027 611.6033L792.3301 502.1307 879.9043 414.5564 989.3965 524.0291z"/><path fill="#FFF" d="M507.6699 217.4705L398.2075 107.9978 485.7915 20.4041 595.2637 129.8763z"/><g fill="#43525B"><path d="M1003.822 509.602L894.33 400.13c-7.97-7.97-20.883-7.97-28.853 0L504.204 761.405c-34.164 34.153-79.585 52.963-127.895 52.963s-93.73-18.81-127.884-52.963c-70.517-70.537-70.517-185.29-.01-255.808l361.274-361.295c7.971-7.97 7.971-20.882 0-28.852L500.218 5.977c-7.97-7.97-20.883-7.97-28.853 0L110.08 367.253c-146.773 146.813-146.773 385.684 0 532.477C181.195 970.826 275.744 1010 376.31 1010c100.565 0 195.122-39.174 266.237-110.27l361.275-361.275a20.386 20.386 0 0 0 5.979-14.426c0-5.42-2.153-10.6-5.979-14.427zM613.695 870.878c-63.404 63.383-147.72 98.313-237.386 98.313s-173.972-34.93-237.376-98.313c-130.863-130.893-130.863-343.86 0-474.773L485.792 49.257l80.62 80.62-346.85 346.868c-86.418 86.419-86.418 227.055 0 313.513 41.875 41.864 97.538 64.919 156.747 64.919s114.882-23.055 156.746-64.92l346.85-346.848 80.639 80.62-346.849 346.849z"/><path d="M401.8643 237.7347L373.0112 208.8821 351.8604 230.0232 380.7129 258.8758z"/><path d="M444.1465 195.4519L415.294 166.5994 394.1426 187.741 422.9956 216.5935z"/><path d="M359.5415 280.0574L330.729 251.1647 309.5576 272.2859 338.3706 301.1785z"/><path d="M750.9238 629.0583L779.7774 657.91 800.8984 636.7693 772.0449 607.9167z"/><path d="M793.1865 586.7557L822 615.6481 843.1807 594.5065 814.3672 565.6141z"/><path d="M708.582 671.3201L737.3945 700.2126 758.5957 679.0916 729.7832 650.199z"/></g></svg>