<svg xmlns="http://www.w3.org/2000/svg" viewBox="0 0 632.819 1010.0012"><path fill="#FFAB00" d="M490.0269 418.0022L513.3531 474.7658 403.4449 543.3117 367.3355 498.8747"/><path fill="#EBEEF0" d="M138.09 144.712L120.4 127.02c-8.046-12.946-4.128-29.927 8.827-37.964l106.281-66.29c12.937-8.073 29.919-4.091 37.982 8.8 8.064 12.872 8.864 37.963 8.864 37.963"/><path fill="#AEBCC4" d="M194.863 288.293C90.245 341.603 18.618 450.311 18.618 575.802c0 151.11 103.9 277.945 244.163 312.963a64.494 64.494 0 0 1-.436-7.418c0-35.673 28.882-64.618 64.572-64.618 32.836 0 59.874 24.546 63.982 56.255 0 0 223.163-98.655 212.036-98.655h-261.69c-109.655 0-198.573-88.873-198.573-198.527 0-81 48.5-150.636 118-181.509"/><path fill="#78909C" d="M492.062 371.311c9.709 15.51 4.928 35.891-10.581 45.6l-114.854 71.6c-15.51 9.673-35.91 4.946-45.582-10.563L146.299 191.967c-9.663-15.492-4.936-35.91 10.564-45.6l114.846-71.6c15.518-9.673 35.945-4.946 45.618 10.581l174.735 285.963z"/><path fill="#AEBCC4" d="M602.007 978.147L391.008 888.51c-3.636 32.145-30.873 57.127-64.027 57.127-31.31 0-57.409-22.363-63.218-52l-81.263 74.8c-13.7 12.635-9.673 22.945 8.945 22.945h407.872c18.654 0 19.872-5.964 2.69-13.236z"/><path fill="#FFAB00" d="M381.226 881.147c0 29.837-24.182 54.018-54.055 54.018-29.79 0-53.954-24.181-53.954-54.018 0-29.8 24.164-53.982 53.954-53.982 29.874 0 54.055 24.182 54.055 53.982z"/><g fill="#43525B"><path d="M297.363 714.62c0 10.291 8.336 18.618 18.618 18.618h282.173c10.271 0 18.617-8.326 18.617-18.618 0-10.29-8.346-18.619-18.617-18.619H315.98c-10.282 0-18.618 8.328-18.618 18.62z"/><path d="M609.28 961.019l-189.436-80.473c205.69-90.963 205.581-91.562 201.71-109.926-1.82-8.6-9.82-14.91-18.619-14.91h-261.69c-99.227 0-179.954-80.709-179.954-179.908 0-68.272 38.972-130.2 99.608-160.564l44.346 72.564c9.509 15.236 25.918 24.346 43.909 24.346 1.509 0 2.963-.492 4.455-.619l35.38 43.527a18.61 18.61 0 0 0 14.456 6.873c3.38 0 6.8-.908 9.853-2.818l109.91-68.545c7.71-4.8 10.818-14.473 7.364-22.873l-21.91-53.327c9.109-16 9.636-36.218-.708-52.764L333.127 75.512c-7.673-12.327-19.928-20.345-33.8-23.109-1.519-9.746-4.391-21.673-10.055-30.709C275.772.112 247.209-6.47 225.654 6.966L119.409 73.24c-10.5 6.51-17.819 16.727-20.61 28.746-2.781 12-.727 24.381 5.791 34.872a18.282 18.282 0 0 0 2.646 3.328l17.69 17.69c.183.182.428.237.61.4-4.664 14.073-3.518 29.946 4.873 43.4l46.136 75.491C67.427 337.293 0 450.602 0 575.802 0 723.093 93.554 852.02 230.754 898.71l-60.882 56.037c-17.073 15.744-15.073 29.744-12.363 36.69 2.19 5.582 9.863 18.564 33.936 18.564h407.872c19.382 0 30.509-6.327 33.036-18.8 2.527-12.49-5.236-22.655-23.072-30.182zm-328.317-79.672c0-25.363 20.618-46 45.954-46 23 0 42.564 17.2 45.51 40.036.254 1.982 1.217 3.71 2.073 5.473-.837 1.8-1.764 3.546-2 5.563-2.601 23.147-22.182 40.6-45.519 40.6-21.845 0-40.745-15.545-44.945-36.963-.155-.8-.518-1.51-.773-2.273-.018-.381.054-.763.009-1.164a45.84 45.84 0 0 1-.31-5.272zM407.536 518.82l-18.273-22.49 89.818-55.982 11.073 26.945-82.618 51.527zM139.082 104.857l106.28-66.29c4.192-2.564 9.72-1.327 12.346 2.89 2.237 3.564 3.818 10.492 4.837 17.2-.218.146-.473.182-.682.31l-112.836 70.345-13.527-13.528a8.928 8.928 0 0 1-.428-5.38 8.836 8.836 0 0 1 4.01-5.547zm27.626 57.31l114.846-71.6a14.476 14.476 0 0 1 7.645-2.2c5.055 0 9.664 2.545 12.237 6.69L476.28 381.184c4.218 6.745 2.127 15.691-4.637 19.928l-114.872 71.6c-6.636 4.145-15.892 1.854-19.837-4.473L162.1 182.112c-4.228-6.764-2.146-15.727 4.608-19.946zM37.236 575.801c0-112.09 60.663-213.49 158.718-266.854l45.3 74.127c-71.59 37.164-117.2 111.382-117.2 192.727 0 119.727 97.428 217.145 217.19 217.145h182.328c-34.582 15.873-78.127 35.455-120.781 54.4-13.11-29.219-42.492-49.236-75.874-49.236-40.063 0-73.608 28.49-81.454 66.272-123.682-40.8-208.227-156.4-208.227-288.581zm168.055 396.963l51.418-47.327c14.863 23.546 41.127 38.817 70.272 38.817 34.009 0 63.59-20.453 76.355-50.271l138.38 58.78H205.291z"/><path transform="rotate(-31.764 321.623 281.047)" d="M302.979 266.029H340.211V296.03H302.979z"/><path d="M297.9268 207.4026L266.2539 227.0027 282.045 252.53 313.7173 232.9299z"/><path d="M376.899 335.0569L361.1353 309.5295 329.4351 329.0935 345.2085 354.6203z"/></g></svg>