<svg xmlns="http://www.w3.org/2000/svg" viewBox="0 0 1009.9971 1005.9859"><path fill="#78909C" d="M475.82 119.51c18.092 70.515-24.369 142.385-94.923 160.477-70.515 18.092-142.385-24.408-160.477-94.903-18.092-70.555 24.389-142.365 94.924-160.517C385.837 6.476 457.727 48.956 475.82 119.51zM60.024 759.593c52.004-50.968 135.49-50.091 186.419 1.953 50.948 52.004 50.091 135.49-1.953 186.418-52.044 50.93-135.49 50.053-186.459-1.992C7.103 894.007 7.98 810.521 60.024 759.593zm762.203 40.05c-70.137-19.606-111.102-92.294-91.535-162.47 19.586-70.095 92.332-111.062 162.428-91.496 70.157 19.528 111.142 92.333 91.537 162.43-19.607 70.176-92.334 111.101-162.43 91.535z"/><path fill="#FFAB00" d="M573.702 528.503c17.175 66.829-23.093 134.932-89.952 152.108-66.868 17.135-134.913-23.113-152.068-89.982-17.175-66.829 23.073-134.883 89.902-152.078 66.828-17.156 134.962 23.113 152.118 89.952z"/><path fill="#43525B" d="M990.315 597.881c-19.985-35.426-52.563-60.93-91.696-71.85-13.409-3.735-27.216-5.649-41.025-5.649-55.79 0-105.981 31.114-132.441 78.416L597.93 559.666c-.02-12.076-1.374-24.23-4.463-36.225-16.517-64.328-74.37-109.239-140.72-109.239-3.268 0-6.536.399-9.803.618L409.07 291.643c29.15-12.672 53.598-33.952 70.096-61.847 20.682-35.009 26.52-75.975 16.419-115.346C478.31 47.063 417.699 0 348.2 0a152.907 152.907 0 0 0-37.938 4.802C228.988 25.723 179.813 108.87 200.655 190.165c17.294 67.346 77.887 114.39 147.385 114.39 7.293 0 14.566-.678 21.799-1.734l33.055 120.208c-69.38 25.265-109.727 99.745-90.978 172.66 4.802 18.73 13.41 35.508 24.409 50.332l-96.298 83.445c-25.504-18.091-55.81-27.934-87.79-27.934-40.07 0-77.887 15.422-106.48 43.476C16.687 773.46.447 811.518.01 852.166c-.438 40.686 15.004 79.062 43.437 108.073 28.891 29.528 67.546 45.747 108.83 45.747 40.03 0 77.848-15.422 106.48-43.436 29.071-28.453 45.31-66.51 45.728-107.197.379-36.064-11.795-70.336-34.41-97.912l94.783-82.13c24.608 18.689 55.113 29.647 87.75 29.647 12.155 0 24.329-1.513 36.224-4.581 37.609-9.645 69.21-33.395 88.976-66.79 6.216-10.52 10.858-21.638 14.227-33.036l117.855 36.264c-19.207 79.222 27.717 160.356 106.86 182.474 13.388 3.746 27.197 5.658 40.985 5.658 67.984 0 128.256-45.787 146.569-111.341 10.958-39.173 5.996-80.258-13.988-115.725zm-750.13-417.858c-15.261-59.516 20.743-120.387 80.24-135.69a111.168 111.168 0 0 1 27.775-3.526c50.849 0 95.202 34.45 107.854 83.764 7.393 28.852 3.128 58.84-12.015 84.443-15.143 25.624-39.372 43.815-68.203 51.207a111.436 111.436 0 0 1-27.796 3.527c-50.848 0-95.201-34.43-107.854-83.725zm-9.962 753.356c-20.96 20.523-48.656 31.801-77.946 31.801-30.227 0-58.52-11.876-79.68-33.473-20.802-21.24-32.1-49.335-31.781-79.104.319-29.767 12.214-57.623 33.494-78.465 20.941-20.522 48.617-31.8 77.927-31.8 30.206 0 58.5 11.875 79.62 33.474 20.842 21.28 32.14 49.375 31.82 79.143-.298 29.767-12.193 57.623-33.454 78.424zm312.455-320.594c-14.226 24.07-36.95 41.126-63.989 48.06a105.305 105.305 0 0 1-26.082 3.307c-47.7 0-89.284-32.318-101.16-78.584-14.346-55.83 19.408-112.886 75.218-127.251a105.159 105.159 0 0 1 26.082-3.308c47.7 0 89.314 32.298 101.189 78.594 6.954 27.019 2.95 55.152-11.258 79.182zm422.332 89.822c-13.41 48.02-57.523 81.534-107.276 81.534a111.384 111.384 0 0 1-30.007-4.144c-59.178-16.538-93.887-78.146-77.389-137.324 13.408-47.98 57.524-81.494 107.256-81.494 10.102 0 20.204 1.395 30.047 4.145 28.672 8.01 52.503 26.66 67.107 52.601 14.646 25.944 18.272 56.03 10.262 84.682z"/></svg>