<svg xmlns="http://www.w3.org/2000/svg" viewBox="0 0 1010 1010"><path fill="#EBEEF0" d="M20.404 505C20.404 237.366 237.356 20.404 505 20.404S989.596 237.366 989.596 505 772.644 989.596 505 989.596 20.404 772.634 20.404 505z"/><path fill="#78909C" d="M188.977 557.674c0-64.012 51.846-115.869 115.848-115.869 64.042 0 115.889 51.857 115.889 115.869 0 64.002-51.847 115.879-115.889 115.879-64.002 0-115.848-51.877-115.848-115.88m768 122.096c-25.125-29.55-62.506-48.349-104.351-48.349-75.599 0-136.93 61.312-136.93 136.95 0 55.264 32.798 102.757 79.962 124.427 71.972-54.07 128.303-127.735 161.32-213.028M684.093 273.243c75.119 0 136.092-60.545 136.89-135.496C758.575 84.037 682.458 45.91 598.451 29.49c-31.243 25.117-51.329 63.574-51.329 106.793 0 75.638 61.332 136.96 136.97 136.96"/><path fill="#FFAB00" d="M528.193 747.318c-15.7-15.652-41.027-15.652-56.609-.02-15.642 15.632-15.72 40.977-.04 56.63 15.622 15.63 41.028 15.64 56.65 0 15.662-15.603 15.581-40.998 0-56.61zM738.93 429.8c-15.662-15.642-40.989-15.642-56.59-.01-15.643 15.632-15.682 40.978-.04 56.62 15.622 15.641 41.048 15.66 56.669 0 15.622-15.593 15.582-40.988-.04-56.61zM354.6 245.994c-15.662-15.651-40.968-15.651-56.59-.02-15.641 15.642-15.7 40.978-.04 56.62 15.622 15.641 41.048 15.661 56.67 0 15.622-15.592 15.562-40.978-.04-56.6z"/><path fill="#43525B" d="M252.141 610.348c0-11.627 9.465-21.062 21.102-21.062 11.616 0 21.061 9.435 21.061 21.062s-9.445 21.072-21.061 21.072c-11.637 0-21.102-9.445-21.102-21.072m84.286 0c0-11.627 9.465-21.062 21.082-21.062 11.636 0 21.081 9.435 21.081 21.062s-9.444 21.072-21.081 21.072c-11.617 0-21.082-9.445-21.082-21.072m-42.123-42.153c0-11.607 9.445-21.062 21.082-21.062 11.596 0 21.041 9.455 21.041 21.062 0 11.637-9.445 21.091-21.041 21.091-11.637 0-21.082-9.454-21.082-21.09m-84.286 0c0-11.608 9.445-21.063 21.082-21.063 11.636 0 21.041 9.455 21.041 21.062 0 11.637-9.405 21.091-21.041 21.091-11.637 0-21.082-9.454-21.082-21.09m42.123-42.135c0-11.616 9.465-21.061 21.102-21.061 11.616 0 21.061 9.445 21.061 21.061 0 11.637-9.445 21.072-21.061 21.072-11.637 0-21.102-9.435-21.102-21.072m84.286 0c0-11.616 9.465-21.061 21.082-21.061 11.636 0 21.081 9.445 21.081 21.061 0 11.637-9.444 21.072-21.081 21.072-11.617 0-21.082-9.435-21.082-21.072m42.163 42.134c0-11.607 9.445-21.062 21.062-21.062 11.618 0 21.062 9.455 21.062 21.062 0 11.637-9.444 21.091-21.062 21.091-11.617 0-21.062-9.454-21.062-21.09m-84.286-84.267c0-11.627 9.445-21.062 21.082-21.062 11.596 0 21.041 9.435 21.041 21.062 0 11.626-9.445 21.071-21.041 21.071-11.637 0-21.082-9.445-21.082-21.071m-84.286 0c0-11.627 9.445-21.062 21.082-21.062 11.636 0 21.041 9.435 21.041 21.062 0 11.626-9.405 21.071-21.041 21.071-11.637 0-21.082-9.445-21.082-21.071"/><g><path fill="#43525B" d="M787.906 716.722c9.007 7.403 10.283 20.723 2.89 29.67-7.393 8.965-20.702 10.24-29.669 2.838-8.967-7.372-10.242-20.703-2.85-29.638 7.393-8.967 20.683-10.242 29.63-2.87m5.738 59.329c8.966 7.412 10.242 20.703 2.83 29.67-7.413 8.976-20.683 10.242-29.69 2.84-8.927-7.403-10.201-20.694-2.829-29.67 7.412-8.967 20.723-10.252 29.69-2.84m53.6-65.008c8.986 7.402 10.262 20.684 2.87 29.67-7.393 8.967-20.704 10.242-29.69 2.84-8.927-7.373-10.242-20.703-2.83-29.67 7.413-8.938 20.683-10.252 29.65-2.84m-5.68-59.299c8.988 7.372 10.262 20.652 2.85 29.629-7.412 8.977-20.703 10.242-29.65 2.84-8.965-7.383-10.24-20.693-2.868-29.63 7.412-8.986 20.722-10.251 29.668-2.839m59.32-5.719c8.967 7.413 10.242 20.694 2.83 29.67-7.353 8.977-20.644 10.241-29.63 2.84-8.947-7.414-10.242-20.693-2.889-29.67 7.432-8.977 20.742-10.252 29.69-2.84m5.678 59.34c8.987 7.371 10.242 20.682 2.85 29.668-7.373 8.938-20.684 10.242-29.65 2.84-8.966-7.412-10.242-20.703-2.83-29.67 7.393-8.976 20.704-10.252 29.63-2.839m5.699 59.3c8.986 7.402 10.261 20.732 2.85 29.669-7.393 8.967-20.684 10.241-29.651 2.839-8.966-7.372-10.241-20.693-2.87-29.639 7.414-8.967 20.723-10.252 29.67-2.869m-59.298 5.708c8.946 7.372 10.221 20.703 2.85 29.64-7.393 8.967-20.724 10.242-29.69 2.869-8.967-7.402-10.203-20.693-2.85-29.67 7.393-8.966 20.704-10.251 29.69-2.839m-53.66 64.988c8.986 7.403 10.242 20.713 2.869 29.69-7.412 8.946-20.723 10.222-29.65 2.839-8.987-7.403-10.242-20.693-2.85-29.67 7.392-8.966 20.683-10.23 29.63-2.859"/></g><g fill="#43525B"><path d="M304.825 421.401c-75.12 0-136.253 61.133-136.253 136.273 0 75.15 61.133 136.283 136.253 136.283 75.16 0 136.292-61.133 136.292-136.283 0-75.14-61.132-136.273-136.292-136.273zm0 231.747c-52.624 0-95.445-42.83-95.445-95.474 0-52.644 42.821-95.464 95.445-95.464 52.644 0 95.485 42.82 95.485 95.464s-42.84 95.474-95.485 95.474z"/><path d="M966.356 710.31a502.046 502.046 0 0 0 2.875-6.56l.134-.313a500.89 500.89 0 0 0 8.327-20.662l2.699-6.97-.091-.108C999.516 622.356 1010 564.88 1010 505c0-149.323-65.151-283.712-168.516-376.25l.003-.278-7.193-6.187a506.673 506.673 0 0 0-83.36-58.254l-.175-.097a505.837 505.837 0 0 0-5.18-2.86c-.292-.157-.585-.312-.877-.47a507.91 507.91 0 0 0-6.679-3.547 509.747 509.747 0 0 0-4.471-2.31c-.622-.317-1.244-.63-1.867-.944-1.944-.98-3.894-1.949-5.852-2.905-.188-.092-.377-.186-.566-.277a500.945 500.945 0 0 0-129.04-42.357l-3.174-.622-.05.04A506.14 506.14 0 0 0 505 0C226.537 0 0 226.547 0 505s226.537 505 505 505c109.06 0 210.154-34.754 292.795-93.763l.394.181 9.723-7.313c67.332-50.578 120.701-116.802 155.74-192.845.6-1.297 1.2-2.594 1.79-3.898.307-.682.61-1.368.914-2.052zM604.211 51.508c35.71 7.792 70.37 19.852 103.205 35.807.258.125.514.252.77.378 1.567.764 3.127 1.54 4.685 2.322a430.737 430.737 0 0 1 5.201 2.658c.922.478 1.844.953 2.762 1.437.503.265 1.002.535 1.504.802a465.969 465.969 0 0 1 77.754 52.024c-5.425 59.196-55.616 105.903-115.998 105.903-64.282 0-116.567-52.286-116.567-116.556 0-32.32 13.25-62.727 36.684-84.775zM40.808 505C40.808 249.043 249.053 40.808 505 40.808c17.537 0 34.849.984 51.887 2.888-19.46 26.616-30.168 58.813-30.168 92.587 0 86.767 70.597 157.364 157.375 157.364 71.534 0 132.453-48.527 151.287-114.394C918.078 263.115 969.19 378.198 969.19 505c0 48.174-7.38 94.656-21.062 138.38-27.207-20.827-60.644-32.364-95.503-32.364-86.757 0-157.335 70.587-157.335 157.353 0 49.793 23.854 96.214 62.781 125.6C685.232 941.522 598.287 969.19 505 969.19 249.053 969.191 40.808 760.957 40.808 505zm888.409 188.396c-.402.907-.805 1.812-1.213 2.714-30.696 67.674-77.174 126.726-134.7 172.442-35.11-20.859-57.204-58.966-57.204-100.183 0-64.26 52.265-116.545 116.526-116.545 30.167 0 58.92 11.686 80.56 32.408a467.83 467.83 0 0 1-2.808 6.559c-.382.871-.774 1.737-1.161 2.605z"/><path d="M457.158 732.861c-11.437 11.448-17.754 26.652-17.734 42.822 0 16.13 6.297 31.294 17.694 42.67 11.398 11.418 26.6 17.705 42.76 17.705 16.161 0 31.345-6.287 42.722-17.675 11.437-11.397 17.734-26.59 17.714-42.78-.02-16.13-6.296-31.294-17.714-42.732-22.934-22.864-62.766-22.774-85.442-.01zm56.59 56.65c-7.393 7.413-20.346 7.403-27.797-.03a19.395 19.395 0 0 1-5.719-13.81c-.02-5.259 2.053-10.21 5.8-13.966a19.36 19.36 0 0 1 13.808-5.73c5.24 0 10.201 2.063 13.908 5.76a19.553 19.553 0 0 1 5.758 13.907c0 5.24-2.032 10.153-5.758 13.869zM710.654 518.55c16.16 0 31.364-6.297 42.721-17.694 11.438-11.408 17.715-26.591 17.694-42.761-.02-16.14-6.296-31.314-17.713-42.731-22.875-22.835-62.687-22.785-85.442-.01-11.418 11.418-17.715 26.59-17.734 42.72-.02 16.15 6.276 31.344 17.673 42.752 11.418 11.427 26.622 17.724 42.782 17.724h.02zm-13.927-46.567c-3.708-3.706-5.74-8.628-5.74-13.868.02-5.241 2.053-10.182 5.8-13.909a19.387 19.387 0 0 1 13.827-5.738 19.534 19.534 0 0 1 13.889 5.759 19.548 19.548 0 0 1 5.759 13.908c0 5.24-2.013 10.152-5.74 13.868-7.412 7.442-20.423 7.382-27.795-.02zm-370.422-137.25h.02c16.16 0 31.364-6.295 42.72-17.693 11.438-11.408 17.715-26.591 17.695-42.761-.02-16.13-6.316-31.294-17.714-42.72-22.875-22.836-62.647-22.806-85.442-.011-11.417 11.417-17.714 26.58-17.734 42.711-.02 16.16 6.257 31.353 17.674 42.75 11.418 11.428 26.622 17.725 42.781 17.725zm-13.868-74.332c3.706-3.707 8.628-5.75 13.848-5.75 5.24 0 10.162 2.054 13.869 5.76 3.726 3.716 5.758 8.657 5.778 13.918 0 5.24-2.033 10.152-5.739 13.858-7.412 7.442-20.423 7.393-27.796-.03-3.706-3.696-5.739-8.617-5.739-13.848 0-5.24 2.052-10.182 5.779-13.908z"/></g></svg>