<svg xmlns="http://www.w3.org/2000/svg" viewBox="0 0 1010.0048 1008.4615"><path fill="#AEBCC4" d="M162.203 847.229c187.823 187.813 498.142 187.813 685.975 0 187.814-187.853 187.814-498.183.02-685.996-187.853-187.813-498.172-187.813-685.995 0-187.814 187.813-187.833 498.142 0 685.996z"/><path fill="#FFAB00" d="M836.36 835.41c-87.679 87.66-205.3 135.946-331.17 135.946-83.53 0-163.371-21.367-233.294-61.297 5.86.2 11.729.676 17.568.676 131.141-.02 258.77-51.729 352.279-145.236 93.986-93.987 145.754-218.99 145.774-351.912 0-132.941-51.788-257.944-145.754-351.91-2.249-2.269-4.596-4.457-6.924-6.686 75.743 21.368 144.899 61.437 201.541 118.08 182.601 182.6 182.582 479.7-.02 662.34z"/><path fill="#FFF" d="M136.816 470.25c15.648 15.637 41.024 15.697 56.692 0 15.668-15.658 15.598-41.005-.05-56.663-15.618-15.638-40.944-15.638-56.602 0-15.698 15.698-15.698 41.005-.04 56.663zM366.43 252.076c15.667 15.637 41.004 15.637 56.642.02 15.648-15.658 15.698-41.005.03-56.682-15.638-15.658-41.074-15.678-56.722 0-15.648 15.598-15.578 41.024.05 56.662zm155.91 342.998c15.668 15.678 41.015 15.678 56.653.04 15.637-15.678 15.677-41.045 0-56.742-15.618-15.598-41.025-15.598-56.702 0-15.638 15.677-15.588 41.064.05 56.702z"/><path fill="#78909C" d="M244.54 759.39c31.306 31.296 82.029 31.216 113.305-.06 31.325-31.294 31.335-82.01.03-113.304-31.306-31.315-82.03-31.315-113.335 0-31.315 31.256-31.335 82.049 0 113.364zm526.185-346.559c-2.447 3.144-4.635 6.406-7.56 9.311-46.973 46.973-123.093 46.954-170.046-.04-46.954-46.913-46.954-123.033 0-170.006 38.557-38.577 96.572-44.944 142.134-20.174 23.576 57.856 35.433 119.352 35.472 180.91z"/><g fill="#43525B"><path d="M225.6 441.899c-.02-16.136-6.317-31.296-17.727-42.716-22.8-22.8-62.561-22.84-85.421 0-11.44 11.44-17.737 26.62-17.747 42.736-.01 16.135 6.277 31.315 17.707 42.735 11.43 11.42 26.62 17.727 42.775 17.727 16.145 0 31.325-6.307 42.726-17.727 11.43-11.42 17.707-26.6 17.687-42.755zm-46.516 13.966a19.496 19.496 0 0 1-13.897 5.77c-5.272 0-10.236-2.07-13.967-5.79-3.72-3.72-5.77-8.655-5.77-13.907 0-5.252 2.07-10.206 5.8-13.927 3.73-3.72 8.674-5.77 13.927-5.77 5.233 0 10.167 2.03 13.867 5.75 3.74 3.741 5.8 8.695 5.81 13.947.01 5.252-2.03 10.187-5.77 13.927zm215.687-171.678c16.125 0 31.285-6.287 42.715-17.687 23.557-23.576 23.566-61.934.03-85.49-22.83-22.821-62.75-22.801-85.52-.02-11.39 11.36-17.678 26.5-17.688 42.615-.02 16.195 6.267 31.416 17.727 42.895 11.43 11.4 26.6 17.687 42.736 17.687zm-13.967-74.39c3.71-3.72 8.655-5.769 13.927-5.769 5.282 0 10.236 2.05 13.957 5.79 7.68 7.68 7.66 20.174-.01 27.853-7.441 7.461-20.413 7.382-27.834 0-3.74-3.74-5.8-8.714-5.79-14.026 0-5.232 2.03-10.126 5.75-13.847zm169.898 417.408c16.134 0 31.295-6.287 42.715-17.706 23.537-23.597 23.537-61.956-.02-85.551-22.82-22.74-62.55-22.82-85.531.039-23.526 23.576-23.496 61.935.06 85.491 11.42 11.44 26.62 17.727 42.776 17.727zm-14.047-74.39c3.74-3.72 8.715-5.77 14.007-5.77 5.272 0 10.225 2.05 13.926 5.73 7.68 7.7 7.68 20.235 0 27.935-7.42 7.44-20.353 7.44-27.833-.04-7.7-7.7-7.72-20.214-.1-27.855zm-306.52 220.98c18.961 18.96 44.179 29.405 70.998 29.405h.01c26.859 0 52.106-10.465 71.096-29.465 19.01-18.98 29.475-44.207 29.485-71.047 0-26.839-10.455-52.086-29.445-71.066-18.98-19-44.228-29.465-71.066-29.465-26.85 0-52.097 10.465-71.067 29.445-19 18.96-29.465 44.207-29.475 71.066-.01 26.88 10.454 52.126 29.465 71.126zm28.81-113.365c11.3-11.3 26.301-17.527 42.267-17.527 15.956 0 30.957 6.226 42.258 17.527 11.29 11.282 17.508 26.282 17.508 42.239-.01 15.956-6.237 30.957-17.538 42.257-11.3 11.301-26.321 17.528-42.297 17.528h-.01c-15.937 0-30.918-6.207-42.189-17.468-11.31-11.3-17.527-26.322-17.527-42.318.01-15.957 6.227-30.957 17.527-42.238z"/><path d="M966.297 709.89c82.528-185.644 48.307-411.04-103.695-563.061C767.901 52.146 640.967 0 505.191 0 369.404 0 242.48 52.146 147.798 146.829c-197.064 197.065-197.064 517.72 0 714.804 94.683 94.682 221.606 146.829 357.392 146.829 135.777 0 262.71-52.147 357.393-146.829 43.77-43.77 77.253-93.847 101.566-147.107.916-1.473 1.632-2.965 2.148-4.636zm-85.689 67.267l-245.889.04c3.204-3.025 6.467-5.99 9.59-9.113 13.907-13.906 26.76-28.55 38.797-43.73l231.125.04c-9.809 18.204-21.228 35.732-33.623 52.763zm45.879-467.742H780.276c-3.76-17.887-8.535-35.494-14.206-52.763h132.007c10.743 17.07 20.093 34.717 28.41 52.763zM790.163 443.709l175.08-.02c2.268 17.548 3.76 35.155 4.039 52.823H784.214a504.664 504.664 0 0 0 5.949-52.803zm.736-40.746c-.377-17.787-1.65-35.394-3.84-52.802h155.922c6.067 17.348 11.18 34.936 15.14 52.782l-167.222.02zm-67.326-143.367c2.846 7.998 5.77 15.976 8.158 24.094 1.95 6.665 3.401 13.45 5.053 20.213 1.691 6.904 3.66 13.768 5.013 20.751a457.48 457.48 0 0 1 6.128 41.502c.538 5.153.578 10.386.935 15.578.558 8.158 1.074 16.335 1.194 24.572-.418.477-.836.954-1.294 1.432-18.86 18.86-43.928 29.246-70.588 29.246-26.68 0-51.768-10.405-70.649-29.286-18.86-18.841-29.247-43.91-29.247-70.57 0-26.679 10.387-51.767 29.268-70.628 18.62-18.642 43.431-28.908 69.851-28.908 14.306 0 28.51 3.084 41.522 8.953 1.671 4.297 3.125 8.694 4.656 13.051zm52.265 277.661h192.23c-1.233 17.707-3.223 35.355-6.485 52.843l-202.377-.04c6.486-17.249 12.096-34.856 16.632-52.803zm-63.605 146.351c10.963-17.05 20.87-34.638 29.624-52.803l210.076.041c-5.033 17.886-11.122 35.513-18.323 52.803l-221.377-.041zm157.094-467.702H750.71a499.43 499.43 0 0 0-26.52-52.803l95.736-.02c4.597 4.238 9.432 8.118 13.867 12.554 12.833 12.833 24.512 26.382 35.534 40.269zM647.95 62.91c43.213 13.708 84.038 33.663 121.422 59.427l-71.505.02A507.272 507.272 0 0 0 647.95 62.91zM176.607 175.637C263.6 88.654 380.297 40.747 505.19 40.747c20.96 0 41.572 1.83 61.965 4.496.955 1.134 1.691 2.407 2.904 3.342 18.344 14.146 32.769 26.62 45.442 39.314 33.066 33.066 60.403 70.29 81.691 110.459-6.566-.915-13.17-1.512-19.797-1.512-37.303 0-72.34 14.504-98.68 40.845-26.561 26.561-41.184 61.875-41.184 99.438 0 37.543 14.623 72.857 41.183 99.378 26.561 26.58 61.875 41.223 99.458 41.223 25.008 0 48.943-6.625 70.032-18.781-4.696 48.207-17.11 94.702-36.13 138.393-2.17 2.527-3.542 5.59-4.258 8.992-22.502 48.745-53.22 93.847-92.316 132.942-14.224 14.225-29.384 27.297-45.181 39.392-3.343 1.274-6.088 3.422-8.337 6.149-97.796 71.365-221.705 102.361-343.386 83.303-.616-.1-1.174.119-1.78.079-13.937-11.023-27.476-22.642-40.209-35.374-181.178-181.189-181.178-476.02 0-657.188zm110.39 738.62c.836 0 1.681.099 2.517.099 17.856 0 35.623-1.035 53.28-2.904.08 0 .149.039.229.039l385.186.04c-67.346 36.588-143.466 56.184-223.019 56.184-77.631 0-152.06-18.562-218.193-53.459zm503.087-43.471l-295.806-.02c32.191-14.305 62.95-31.913 91.619-52.804l261.346-.06c-4.535 4.955-8.674 10.128-13.469 14.923-13.768 13.767-28.53 26.181-43.69 37.96z"/></g></svg>