<svg xmlns="http://www.w3.org/2000/svg" viewBox="0 0 1010 944.206"><path fill="#78909C" d="M881.923 683.276c5.731 32.393-15.99 63.374-48.362 69.106-33.057 5.813-63.477-16.446-69.084-48.383-5.731-32.393 15.989-63.395 48.34-69.106 3.53-.623 7.04-.913 10.487-.913 28.966 0 53.614 20.724 58.619 49.296z"/><path fill="#FFAB00" d="M186.8 757.157c-32.891 0-59.678-26.745-59.678-59.657 0-32.87 26.787-59.637 59.678-59.637 32.87 0 59.637 26.767 59.637 59.637 0 32.912-26.766 59.657-59.637 59.657zm191.535 0c-32.892 0-59.657-26.745-59.657-59.657 0-32.87 26.765-59.637 59.657-59.637 32.891 0 59.636 26.767 59.636 59.637 0 32.912-26.745 59.657-59.636 59.657zM629.547 697.5c0 32.912-26.786 59.657-59.678 59.657-32.871 0-59.637-26.745-59.637-59.657 0-32.87 26.766-59.637 59.637-59.637 32.892 0 59.678 26.767 59.678 59.637z"/><path fill="#EBEEF0" d="M70.601 39.619H939.401V87.066H70.601z"/><path fill="#43525B" d="M1010 84.17h-30.98V0H30.98v84.17H0v42.526h30.981v817.51h42.526v-817.51h92.03V600.28C120.79 610.06 87.15 649.886 87.15 697.5c0 54.944 44.706 99.65 99.65 99.65 45.911 0 84.264-31.396 95.767-73.716 11.483 42.32 49.857 73.716 95.768 73.716 45.91 0 84.264-31.376 95.767-73.694 11.504 42.318 49.857 73.694 95.767 73.694 54.944 0 99.65-44.706 99.65-99.65 0-47.614-33.638-87.44-78.386-97.22V126.695h110.51l83.744 474.89c-42.339 17.402-68.565 62.462-60.301 109.349 8.41 47.717 49.648 82.353 98.052 82.353 5.794 0 11.628-.52 17.38-1.537 54.092-9.55 90.327-61.318 80.796-115.41-8.16-46.389-47.406-80.132-94.023-81.98l-82.499-467.665h191.7v817.51h42.528v-817.51H1010V84.17zM879.432 683.733c5.46 31.002-15.305 60.674-46.286 66.157-31.583 5.564-60.779-15.74-66.177-46.348-5.461-31.002 15.324-60.674 46.326-66.135a56.86 56.86 0 0 1 10.03-.893c27.7 0 51.288 19.85 56.107 47.22zM186.8 754.624c-31.5 0-57.124-25.624-57.124-57.124 0-31.48 25.624-57.083 57.124-57.083 31.48 0 57.083 25.604 57.083 57.083 0 31.5-25.603 57.124-57.083 57.124zm95.767-83.04c-9.676-35.57-38.248-63.372-74.503-71.284V126.696h149.008V600.28c-36.256 7.933-64.849 35.716-74.505 71.306zm95.768 83.04c-31.48 0-57.104-25.624-57.104-57.124 0-31.48 25.625-57.083 57.104-57.083s57.103 25.604 57.103 57.083c0 31.5-25.623 57.124-57.103 57.124zM626.993 697.5c0 31.5-25.624 57.124-57.124 57.124-31.478 0-57.103-25.624-57.103-57.124 0-31.48 25.625-57.083 57.103-57.083 31.5 0 57.124 25.603 57.124 57.083zm-78.387-97.22c-36.254 7.932-64.828 35.694-74.504 71.264-9.676-35.57-38.248-63.332-74.504-71.265V126.696h149.008V600.28zM73.507 84.17V42.526h862.985V84.17H73.507z"/></svg>