<svg xmlns="http://www.w3.org/2000/svg" viewBox="0 0 1010 922.3828"><path fill="#EBEEF0" d="M969.525 363.533l.04-245.677c-.04-21.167-17.253-38.38-38.42-38.419-21.207.039-38.42 17.252-38.42 38.42V302.86h-11.786L880.98 63c-.04-21.206-17.215-38.38-38.42-38.38-21.207 0-38.42 17.174-38.42 38.38V302.86H792.43V58.308c0-21.206-17.214-38.42-38.382-38.458-21.205.038-38.381 17.252-38.381 38.458V302.86h-11.01V110.84c0-21.246-17.174-38.42-38.38-38.42-21.208 0-38.42 17.174-38.42 38.42l.039 252.693-.04 45.437-17.716-45.708c-7.638-19.772-29.891-29.62-49.701-21.943-19.734 7.637-29.542 29.929-21.905 49.701l89.322 230.596v246.801h341.707V363.533h-.039z"/><path fill="#FFAB00" d="M606.768 840.697H990.1510000000001V902.533H606.768z"/><path fill="#43525B" d="M989.414 820.848l-.039-457.315.04-245.715c-.06-32.043-26.19-58.172-58.31-58.23-11.087.018-21.458 3.14-30.277 8.548V62.96c-.059-32.081-26.208-58.191-58.27-58.191-16.613 0-31.634 6.997-42.257 18.182C789.639 9.033 772.87.04 754.01 0c-32.081.058-58.192 26.207-58.192 58.308v2.326a57.917 57.917 0 0 0-29.542-8.064c-32.138 0-58.27 26.13-58.27 58.27l.04 218.752a58.613 58.613 0 0 0-10.157-5.738c-14.247-6.32-30.085-6.707-44.622-1.047-29.91 11.572-44.836 45.379-33.245 75.385l87.985 227.126v195.53h-21.09v101.535H1010V820.848h-20.586zm-432.367-436.98c-3.703-9.576 1.047-20.354 10.564-24.037 4.653-1.822 9.692-1.687 14.229.33 4.535 1.996 8.006 5.64 9.789 10.274l55.981 144.431.136-151.333-.039-252.694c0-10.235 8.336-18.57 18.57-18.57 10.216 0 18.532 8.335 18.532 18.57V322.71h50.709V58.308c0-10.235 8.336-18.59 18.493-18.609 10.235.02 18.57 8.374 18.57 18.61V322.71h51.407V62.999c0-10.216 8.335-18.531 18.57-18.531 10.215 0 18.551 8.335 18.57 18.531l-.038 259.711h51.484V117.856c0-10.215 8.356-18.55 18.532-18.57 10.235.02 18.59 8.374 18.609 18.57v702.992H647.707V617.913l-90.66-234.046zM970.3 882.683H626.617v-22.137h343.684v22.137z"/><g><path fill="#FFAB00" d="M40.475 363.533l-.04-245.677c.04-21.167 17.253-38.38 38.42-38.419 21.207.039 38.42 17.252 38.42 38.42V302.86h11.785L129.022 63c.038-21.207 17.213-38.38 38.42-38.38 21.206 0 38.42 17.173 38.42 38.38V302.86h11.707V58.308c0-21.206 17.214-38.42 38.381-38.458 21.207.038 38.381 17.252 38.381 38.458V302.86h11.01V110.84c0-21.246 17.175-38.42 38.382-38.42 21.206 0 38.42 17.174 38.42 38.42l-.04 252.693.04 45.437 17.716-45.708c7.638-19.772 29.891-29.62 49.701-21.943 19.734 7.637 29.542 29.929 21.905 49.701l-89.323 230.596v246.801H40.435V363.533h.04z"/><path fill="#AEBCC4" d="M19.85 840.697H403.233V902.533H19.85z"/><path fill="#43525B" d="M489.977 398.173c11.591-29.988-3.334-63.794-33.245-75.366-14.517-5.582-30.335-5.234-44.622 1.046a58.594 58.594 0 0 0-10.157 5.739l.039-218.753c0-32.139-26.13-58.269-58.27-58.269a57.916 57.916 0 0 0-29.541 8.064v-2.326c0-32.1-26.11-58.25-58.27-58.308-18.802.039-35.57 9.033-46.212 22.951-10.622-11.204-25.645-18.183-42.258-18.183-32.061 0-58.21 26.11-58.269 58.231v5.156a58.172 58.172 0 0 0-30.356-8.568c-32.042.058-58.172 26.188-58.23 58.27v702.99H0v101.536h423.082V820.848h-21.09v-195.53l87.985-227.145zm-106.594 484.51H39.699v-22.136h343.684v22.137zM60.285 820.849l.039-457.315-.039-245.637c.02-10.236 8.374-18.59 18.531-18.61 10.255.02 18.61 8.355 18.61 18.57V322.71h51.484l-.038-259.672c.019-10.235 8.354-18.57 18.57-18.57 10.235 0 18.57 8.315 18.57 18.531V322.71h51.407V58.308c0-10.235 8.335-18.59 18.493-18.609 10.235.02 18.57 8.374 18.57 18.61V322.71h50.709V110.84c0-10.236 8.316-18.571 18.532-18.571 10.235 0 18.57 8.335 18.57 18.57l-.04 252.714.137 151.313 55.981-144.451a18.353 18.353 0 0 1 9.79-10.255c4.535-2.016 9.614-2.151 14.228-.329 9.517 3.683 14.266 14.461 10.564 24.017l-90.66 234.065v202.935H60.285z"/></g></svg>