<svg xmlns="http://www.w3.org/2000/svg" viewBox="0 0 1010 1010.0001"><path fill="#AEBCC4" d="M676.502 787.947l-42.781 42.76c-56.989-57.027-51.489-147.43 3.447-202.346 54.895-54.976 145.339-60.435 202.387-3.408l-48.978 48.979-114.075 114.015z"/><path fill="#78909C" d="M326.166 326.156c54.916-54.976 143.267-56.26 198.242-1.315L730.58 531.003 531.104 730.561 326.824 526.4c-54.697-54.787-55.554-145.35-.658-200.245z"/><path fill="#FFAB00" d="M989.5957 167.8849L757.8389 399.6422 610.3281 252.1715 842.1055 20.4039z"/><path transform="rotate(134.999 210.041 799.965)" fill="#FFAB00" d="M46.147 695.67H373.929V904.2529999999999H46.147z"/><g fill="#43525B"><path d="M734.486 872.572c.836 0 1.694-.06 2.55-.16 37.501-4.682 72.61-21.659 98.832-47.822 24.728-24.728 40.928-56.41 46.846-91.678 1.852-11.119-5.64-21.64-16.757-23.514-11.139-1.873-21.64 5.64-23.493 16.739-4.503 26.86-16.758 50.93-35.429 69.58-19.845 19.787-46.486 32.639-75.06 36.206-11.178 1.395-19.109 11.577-17.713 22.775 1.274 10.322 10.082 17.874 20.224 17.874z"/><path d="M941.574 709.16c-11.078-.558-21 7.631-21.818 18.85-3.547 48.658-23.91 92.854-58.881 127.863-34.512 34.492-79.942 55.414-127.884 58.881-11.238.838-19.686 10.602-18.87 21.84.777 10.74 9.725 18.93 20.324 18.93.498 0 .997-.021 1.495-.041 57.726-4.224 112.342-29.33 153.788-70.737 41.406-41.445 66.532-96.043 70.716-153.748.818-11.258-7.631-21.04-18.87-21.838zm62.449-555.701L856.53 5.978c-7.97-7.97-20.883-7.97-28.852 0L595.902 237.745a20.407 20.407 0 0 0-5.978 14.427c0 5.41 2.152 10.6 5.978 14.426l59.338 59.319-50.471 50.432-65.935-65.944c-30.028-30.009-69.92-46.537-112.302-46.537-43.199 0-83.967 16.997-114.792 47.862-62.926 62.935-62.647 165.693.657 229.096l63.982 63.963-50.472 50.412-59.3-59.3c-7.97-7.97-20.882-7.97-28.852 0L5.978 827.68A20.388 20.388 0 0 0 0 842.106c0 5.4 2.152 10.6 5.978 14.425l147.49 147.49a20.388 20.388 0 0 0 14.427 5.98c5.42 0 10.6-2.153 14.426-5.98L414.1 772.246a20.423 20.423 0 0 0 5.977-14.427c0-5.42-2.152-10.6-5.977-14.425l-59.32-59.34 50.473-50.432 111.425 111.385a20.4 20.4 0 0 0 14.426 5.959c5.22 0 10.44-1.993 14.426-5.979l28.454-28.454c-.378 3.846-.777 7.692-.897 11.597-1.355 44.275 15.045 85.84 46.209 117.005 3.984 3.985 9.205 5.977 14.426 5.977s10.441-1.992 14.425-5.977L853.981 639.38a20.39 20.39 0 0 0 5.978-14.427c0-5.42-2.152-10.6-5.978-14.426-29.89-29.888-69.7-46.347-112.083-46.347-5.52 0-11.02.28-16.478.837l19.586-19.587c7.97-7.97 7.97-20.893 0-28.854L633.64 405.202l50.453-50.433 59.318 59.3c3.985 3.985 9.206 5.977 14.427 5.977s10.44-1.992 14.427-5.978l231.756-231.757a20.408 20.408 0 0 0 5.978-14.426c0-5.41-2.152-10.6-5.977-14.426zM167.894 960.743L49.257 842.106 252.18 639.18 370.82 757.819 167.895 960.743zM809.447 626.19L634.957 800.6c-14.486-20.604-21.879-45.291-21.082-71.235.977-32.5 14.387-63.245 37.74-86.597 23.97-23.992 56.867-37.78 90.283-37.78 24.55 0 47.922 7.432 67.55 21.202zm-278.343 75.517L341.27 511.975c-47.404-47.474-47.703-124.358-.678-171.403 23.134-23.144 53.66-35.896 85.94-35.896 31.503 0 61.133 12.284 83.45 34.591l191.745 191.736-170.623 170.704zM757.839 370.79L639.18 252.17 842.105 49.257l118.64 118.629L757.838 370.79z"/><path d="M479.8535 504.1832L503.4858 527.795 532.3379 498.9527 508.7061 475.3307z"/><path d="M550.71 575.0587L579.6025 546.2462 555.9902 522.5938 527.0977 551.4279z"/><path d="M461.4424 428.0266L432.5898 456.879 456.2217 480.5313 485.0742 451.6783z"/></g></svg>