<svg xmlns="http://www.w3.org/2000/svg" viewBox="0 0 1009.9996 854.2696"><path fill="#78909C" d="M432.57 626.451v2.241H292.8v-2.24c0-19.432 15.807-35.231 35.23-35.231h69.329c19.414 0 35.212 15.799 35.212 35.23zm-228.462-184.23L66.9 497.055c-.348.122-1.086 2.034-2.285-.99l-28.869-72.25.973-2.276 136.913-54.592c.121 0 1.19.035 1.642 1.095l30.416 73.345-1.582.834z"/><path fill="#AEBCC4" d="M402.042 413.509l-142.891 59.284c-.339.139-1.069 2.068-2.312-.957L238 426.387c-.017-.034-.017-.07-.035-.104l-29.815-71.902c-.009-.017-.026-.034-.035-.069l-20.265-48.873c-.313-.748.191-1.947.956-2.26L332.799 243.6c.113 0 1.156.018 1.6 1.06l68.59 166.572c.365.904-.043 1.912-.947 2.277z"/><path fill="#EBEEF0" d="M702.51 331.84l-255.167 89.316c-.808.26-1.73.07-2.172-.99L395.403 299.32l-28.095-68.235-.01-.017-10.305-25.028c-.357-.868.008-1.859.851-2.259L601.01 88.778c.192 0 1.183.052 1.618 1.077L703.518 329.51l-1.008 2.33z"/><path fill="#FFAB00" d="M740.92 79.097c36.342 0 65.767 29.46 65.767 65.767 0-36.307 29.46-65.767 65.766-65.767-36.307 0-65.766-29.442-65.766-65.75 0 36.308-29.425 65.75-65.767 65.75zM865.136 239.83c36.342 0 65.767 29.477 65.767 65.784 0-36.307 29.46-65.784 65.749-65.784-36.29 0-65.75-29.425-65.75-65.732 0 36.307-29.424 65.732-65.766 65.732zM740.92 426.353c36.342 0 65.767 29.46 65.767 65.784 0-36.325 29.46-65.784 65.766-65.784-36.307 0-65.766-29.425-65.766-65.75 0 36.325-29.425 65.75-65.767 65.75z"/><g><path fill="#43525B" d="M736.332 315.71L635.44 76.039c-8.013-19.014-31.735-28.103-50.402-19.24L342.61 171.612c-14.86 7.038-22.837 22.681-20.917 38.288-1.068.33-2.164.521-3.215.956l-143.308 59.44c-9.22 3.824-16.398 11.002-20.205 20.213-3.815 9.23-3.815 19.38.01 28.574l6.048 14.581c-.4.157-.817.192-1.217.348l-136.278 54.47c-9.273 3.684-16.546 10.775-20.483 19.952-3.936 9.176-4.058 19.326-.356 28.59l28.869 72.25c5.71 14.287 19.326 23.497 34.7 23.497 4.752 0 9.41-.886 13.842-2.659l137.217-54.835c.704-.277 1.312-.712 1.99-1.025l4.65 11.21c5.804 14.009 19.36 23.063 34.525 23.063 4.9 0 9.698-.955 14.286-2.85l72.12-29.91v79.862h-16.86c-39.053 0-70.824 31.77-70.824 70.824v14.998L142.947 827.14c-5.153 8.378-2.546 19.344 5.83 24.489a17.688 17.688 0 0 0 9.308 2.642c5.98 0 11.81-3.007 15.173-8.464l111.694-181.519h59.935v172.186c0 9.837 7.969 17.797 17.798 17.797 9.828 0 17.797-7.96 17.797-17.797V664.287h59.936l111.684 181.519a17.799 17.799 0 0 0 15.173 8.464c3.18 0 6.414-.852 9.316-2.642 8.377-5.145 10.985-16.111 5.823-24.49L468.164 641.45v-14.998c0-39.054-31.762-70.824-70.806-70.824h-16.876v-94.636l35.212-14.598c1.277-.54 2.39-1.27 3.58-1.93 6.944 7.664 16.737 12.392 27.504 12.392 4.207 0 8.36-.712 12.34-2.103l255.141-89.3c9.698-3.406 17.659-10.723 21.813-20.126 4.153-9.385 4.258-20.195.26-29.615zM432.57 626.452v2.241H292.8v-2.24c0-19.432 15.807-35.231 35.23-35.231h69.329c19.414 0 35.212 15.799 35.212 35.23zm-228.462-184.23L66.9 497.055c-.348.122-1.086 2.034-2.285-.99l-28.869-72.25.973-2.276 136.913-54.592c.121 0 1.19.035 1.642 1.095l30.416 73.345-1.582.834zm197.934-28.712l-142.891 59.284c-.339.139-1.069 2.085-2.312-.957L238 426.387c-.017-.034-.017-.07-.035-.104l-29.815-71.902c-.009-.017-.026-.034-.035-.069l-20.265-48.873c-.313-.748.191-1.947.956-2.26L332.799 243.6c.113 0 1.156.018 1.6 1.06l68.59 166.572c.365.904-.043 1.912-.947 2.277zm300.468-81.67l-255.167 89.317c-.816.26-1.746.07-2.172-.99L395.403 299.32l-28.095-68.235-.01-.017-10.305-25.028c-.357-.868.008-1.859.851-2.259L601.027 88.778c.191 0 1.165.052 1.6 1.077L703.518 329.51l-1.008 2.33zm38.41-239.394c28.904 0 52.42 23.516 52.42 52.419 0 7.369 5.978 13.348 13.347 13.348 7.37 0 13.348-5.98 13.348-13.348 0-28.903 23.515-52.42 52.418-52.42 7.37 0 13.348-5.978 13.348-13.347s-5.978-13.348-13.348-13.348c-28.903 0-52.418-23.515-52.418-52.401 0-7.37-5.979-13.348-13.348-13.348-7.369 0-13.348 5.979-13.348 13.348 0 28.886-23.515 52.401-52.419 52.401-7.369 0-13.348 5.98-13.348 13.348s5.98 13.348 13.348 13.348zm65.767-35.177a79.805 79.805 0 0 0 21.83 21.83 80.042 80.042 0 0 0-21.83 21.829 79.804 79.804 0 0 0-21.83-21.83 79.569 79.569 0 0 0 21.83-21.83zM996.652 226.48c-28.886 0-52.4-23.498-52.4-52.384 0-7.369-5.98-13.348-13.35-13.348-7.368 0-13.348 5.98-13.348 13.348 0 28.886-23.515 52.384-52.418 52.384-7.369 0-13.347 5.979-13.347 13.348 0 7.369 5.978 13.348 13.347 13.348 28.903 0 52.418 23.515 52.418 52.436 0 7.369 5.98 13.347 13.349 13.347s13.349-5.978 13.349-13.347c0-28.921 23.514-52.436 52.4-52.436 7.37 0 13.348-5.98 13.348-13.348 0-7.37-5.979-13.348-13.348-13.348zm-65.75 35.195a79.635 79.635 0 0 0-21.828-21.847 79.508 79.508 0 0 0 21.829-21.812 79.75 79.75 0 0 0 21.829 21.812 79.878 79.878 0 0 0-21.83 21.847zm-58.45 151.329c-28.902 0-52.417-23.516-52.417-52.401 0-7.37-5.979-13.349-13.348-13.349-7.369 0-13.348 5.98-13.348 13.349 0 28.885-23.515 52.4-52.419 52.4-7.369 0-13.348 5.98-13.348 13.349s5.98 13.348 13.348 13.348c28.904 0 52.42 23.515 52.42 52.436 0 7.369 5.978 13.347 13.347 13.347 7.37 0 13.348-5.978 13.348-13.347 0-28.921 23.515-52.436 52.418-52.436 7.37 0 13.348-5.98 13.348-13.348 0-7.37-5.978-13.348-13.348-13.348zm-65.765 35.194a79.637 79.637 0 0 0-21.83-21.846 79.567 79.567 0 0 0 21.83-21.83 79.625 79.625 0 0 0 21.847 21.83 79.697 79.697 0 0 0-21.847 21.846z"/></g></svg>