<svg xmlns="http://www.w3.org/2000/svg" width="48" height="48" viewBox="0 0 48 48"><path fill="#F16362" d="M27 41.019c9.941 0 18-8.059 18-18s-8.059-18-18-18-18 8.059-18 18 8.059 18 18 18zM14.043 23.097c.163-.16.265-.188.265-.188l2.521-1.132.456-.105c.261 0 .521.098.72.293l.886.6 3.001-2.878-3.597-3.535c-.398-.391-.645-.776-.248-1.167l1.191-1.249c.309-.304.668-.333 1.044-.166l.003-.007 5.336 2.385 2.498-2.377c.697-.595 2.218-1.172 3.41 0s.45 2.493-.083 3.253l-2.6 2.561 2.393 5.175-.006.003c.17.368.192.773-.117 1.077l-1.109 1.084c-.397.391-.876.226-1.274-.165l-3.597-3.535-2.926 2.802.563.813a.988.988 0 0 1 .298.708.972.972 0 0 1-.119.442l-1.069 2.552s-.027.101-.19.261a1.03 1.03 0 0 1-1.44 0s-2.17-3.533-2.245-3.606c-.127-.126-3.966-2.481-3.966-2.481a.994.994 0 0 1 .001-1.418zM11 42.019H5a.99.99 0 0 0-.885.558l-.009-.005-1 2 .009.005a.971.971 0 0 0-.115.442 1 1 0 0 0 1 1h6a.99.99 0 0 0 .885-.558l.009.005 1-2-.009-.005a.971.971 0 0 0 .115-.442 1 1 0 0 0-1-1zm11 0h-6a.99.99 0 0 0-.885.558l-.009-.005-1 2 .009.005a.971.971 0 0 0-.115.442 1 1 0 0 0 1 1h6a.99.99 0 0 0 .885-.558l.009.005 1-2-.009-.005a.971.971 0 0 0 .115-.442 1 1 0 0 0-1-1zm22 0h-6a.99.99 0 0 0-.885.558l-.009-.005-1 2 .009.005a.971.971 0 0 0-.115.442 1 1 0 0 0 1 1h6a.99.99 0 0 0 .885-.558l.009.005 1-2-.009-.005a.971.971 0 0 0 .115-.442 1 1 0 0 0-1-1zm-11 0h-6a.99.99 0 0 0-.885.558l-.009-.005-1 2 .009.005a.971.971 0 0 0-.115.442 1 1 0 0 0 1 1h6a.99.99 0 0 0 .885-.558l.009.005 1-2-.009-.005a.971.971 0 0 0 .115-.442 1 1 0 0 0-1-1z"/><path fill="#384D68" d="M24 1.981c-10.502 0-19.016 8.514-19.016 19.016S13.498 40.012 24 40.012s19.016-8.514 19.016-19.016S34.502 1.981 24 1.981zm0 36.03c-9.396 0-17.014-7.618-17.014-17.015S14.604 3.983 24 3.983 41.014 11.6 41.014 20.997 33.396 38.011 24 38.011zm7.778-24.77a3 3 0 0 0-4.243 0l-2.212 2.212-5.245-2.384-.003.007c-.369-.168-.723-.138-1.026.165l-1.414 1.414a.999.999 0 0 0 0 1.414l3.535 3.536-2.383 2.383-.871-.6a1.001 1.001 0 0 0-.708-.293l-.447.105-3.207 1.792s-.1.026-.26.188a1 1 0 0 0 0 1.415s4.097 2.686 4.222 2.811c.074.073 2.855 4.267 2.855 4.267a1.001 1.001 0 0 0 1.416 0c.16-.161.188-.261.188-.261l1.78-3.212a.998.998 0 0 0 .117-.442.997.997 0 0 0-.293-.707l-.554-.813 2.389-2.39 3.536 3.536a.999.999 0 0 0 1.414 0l1.415-1.414c.303-.304.282-.709.114-1.077l.006-.003-2.352-5.175 2.231-2.23a3 3 0 0 0 0-4.244zm-12.021 2.121l.125-.184 3.987 1.729-1.283 1.284-2.829-2.829zm10.033 9.723l-.133.176-2.828-2.828 1.274-1.274 1.687 3.926zm.574-9.016l-9.888 9.889a10.746 10.746 0 0 1 1.178 1.998l-.848 1.179s-1.944-2.935-2.013-3.004c-.121-.121-2.96-1.969-2.96-1.969l1.179-.848s1.05.457 2.055 1.224l9.882-9.883a1 1 0 1 1 1.415 1.414zM24 5.985c-8.291 0-15.012 6.721-15.012 15.012S15.709 36.009 24 36.009s15.012-6.722 15.012-15.013S32.291 5.985 24 5.985zm0 28.022c-7.186 0-13.011-5.825-13.011-13.011S16.814 7.986 24 7.986s13.011 5.825 13.011 13.011S31.186 34.007 24 34.007z"/></svg>