<svg xmlns="http://www.w3.org/2000/svg" width="48" height="48" viewBox="0 0 48 48"><path fill="#FFDA8E" d="M44 5H7a1 1 0 0 0-1 1v38a1 1 0 0 0 1 1h37a1 1 0 0 0 1-1V6a1 1 0 0 0-1-1z"/><path fill="#384D68" d="M45 2H3a1 1 0 0 0-1 1v42a1 1 0 0 0 1 1h42a1 1 0 0 0 1-1V3a1 1 0 0 0-1-1zm-2.414 2l-4 4H9.414l-4-4h37.172zM10 34.087v-4.67l28-16.078v4.67L10 34.087zm28-13.748V38h-5V23.21l5-2.871zm-7 4.019V38h-6V27.804l6-3.446zm-8 4.594V38h-6v-5.603l6-3.445zm-8 4.594V38h-5v-1.583l5-2.871zm-5-6.459V10h5v14.216l-5 2.871zm7-4.02V10h6v9.622l-6 3.445zM31.05 15L25 18.474V10h6v5h.05zM33 13.88V10h5v1.009l-5 2.871zM4 5.414l4 4v29.172l-4 4V5.414zM5.414 44l4-4h29.172l4 4H5.414zM44 42.586l-4-4V9.414l4-4v37.172z"/></svg>