<svg xmlns="http://www.w3.org/2000/svg" width="48" height="48" viewBox="0 0 48 48"><circle fill="#898CC5" cx="25.5" cy="24.5" r="19.5"/><path fill="#384D68" d="M24 2C11.85 2 2 11.85 2 24s9.85 22 22 22 22-9.85 22-22S36.15 2 24 2zM7.341 13h6.011c-1.882 2.953-3.129 6.335-3.32 10H4.05a19.904 19.904 0 0 1 3.291-10zm0 22A19.904 19.904 0 0 1 4.05 25h5.997c.14 3.657 1.056 7.042 2.661 10H7.341zM24 44c-6.079 0-11.511-2.719-15.172-7h5.118a19.696 19.696 0 0 0 3.292 3.642A.996.996 0 0 0 19 40c0-.568-.314-.745-.314-.745A17.698 17.698 0 0 1 16.466 37H20a1 1 0 1 0 0-2h-4.997c-1.798-2.887-2.802-6.291-2.956-10H20a1 1 0 1 0 0-2h-7.934c.217-3.717 1.617-7.117 3.693-10H20a1 1 0 1 0 0-2h-2.605a23.564 23.564 0 0 1 2.292-2.224c-.001 0 .313-.201.313-.776a1 1 0 0 0-1.837-.545A25.715 25.715 0 0 0 14.77 11H8.828C12.489 6.718 17.921 4 24 4c11.046 0 20 8.954 20 20s-8.954 20-20 20zm10-21h-9V7a1 1 0 1 0-2 0v17a1 1 0 0 0 1 1h10a1 1 0 1 0 0-2z"/></svg>