<svg xmlns="http://www.w3.org/2000/svg" width="48" height="48" viewBox="0 0 48 48"><path fill="#F16362" d="M45.769 31.904l-8.853-13.918a.997.997 0 0 0-1.366-.368L14.84 29.631a1.011 1.011 0 0 0-.366 1.376L23.252 45a.997.997 0 0 0 1.366.368L45.403 33.28c.478-.278.642-.893.366-1.376z"/><path fill="#384D68" d="M19.011 40.504h-16c-.552 0-1 .443-1 1s.448 1 1 1h16c.552 0 1-.443 1-1s-.448-1-1-1zm-15-3c0 .557.448 1 1 1h12c.552 0 1-.443 1-1s-.448-1-1-1h-12c-.553 0-1 .443-1 1zm3-5h-4c-.552 0-1 .443-1 1s.448 1 1 1h4c.552 0 1-.443 1-1s-.448-1-1-1zm38.863-3.143l-5.075-8.685c.199-.063.391-.145.57-.246a3.822 3.822 0 0 0 1.15-1.031c.559-.763.577-1.468.494-1.926a2.89 2.89 0 0 0-.028-.134c.098-.045.2-.099.291-.15.875-.51 1.479-1.41 1.576-2.352.129-1.263-.609-2.404-1.532-3.147.535-1.459.665-3.011.385-4.626-.25-1.445-.917-3.953-2.56-4.509-.285-.097-.598-.079-.849.09a.992.992 0 0 0-.468.706l-.061.452c-.092.719-.126.987-.556 1.463-.435.479-.953.948-1.587 1.434a36.38 36.38 0 0 1-4.037 2.678c-1.316.751-2.807 1.602-3.667 3.12-.811 1.432-.953 2.923-.478 4.376l-9.008 5.138c-1.036-1.133-2.415-1.757-4.074-1.778-1.762-.023-3.253.826-4.569 1.577a36.409 36.409 0 0 1-4.366 2.114c-.742.3-1.412.51-2.05.642-.632.13-.885.024-1.561-.256l-.427-.174a1.014 1.014 0 0 0-.853.047.942.942 0 0 0-.503.682c-.334 1.684 1.531 3.508 2.672 4.445 1.276 1.047 2.701 1.712 4.248 1.983.19 1.161.821 2.363 1.993 2.884.874.389 1.965.322 2.85-.172.091-.051.188-.111.277-.173.033.031.068.062.103.091.36.3.987.637 1.935.54a3.85 3.85 0 0 0 1.479-.469c.179-.103.346-.226.501-.364l5.075 8.685c.279.477.896.64 1.378.364l20.963-11.957a.992.992 0 0 0 .369-1.362zM31.699 13.532c.592-1.046 1.779-1.723 2.926-2.377a38.292 38.292 0 0 0 4.257-2.825 13.597 13.597 0 0 0 1.853-1.678c.251-.277.437-.541.576-.797.148.43.285.942.385 1.516.259 1.497.068 2.919-.568 4.228a1.035 1.035 0 0 0 .474 1.369c.635.321 1.282 1.031 1.222 1.62-.032.308-.273.643-.601.834-.117.054-.427.219-.707.101a1.004 1.004 0 0 0-1.283.444 1.032 1.032 0 0 0 .339 1.331c.247.169.41.355.436.499.022.12-.065.27-.141.374-.225.307-.584.565-.817.587-.047.005-.069.002-.121-.044a1.033 1.033 0 0 0-.402-.214l-2.73-4.671a1.014 1.014 0 0 0-1.377-.365l-4.153 2.369c-.14-.759-.016-1.511.432-2.301zM16.803 31.904c.015.066.005.088-.022.125-.136.189-.542.367-.923.406-.129.013-.304.013-.399-.066-.112-.094-.194-.327-.219-.623a1.048 1.048 0 0 0-.998-.955.994.994 0 0 0-1.031.875c-.037.298-.336.481-.441.555-.332.185-.747.224-1.032.097-.546-.243-.845-1.151-.809-1.854a1.046 1.046 0 0 0-.963-1.091c-1.465-.109-2.808-.657-3.99-1.627a10.028 10.028 0 0 1-1.136-1.088c.293.009.618-.019.986-.095.758-.156 1.542-.4 2.397-.746a38.51 38.51 0 0 0 4.605-2.23c1.147-.654 2.334-1.331 3.547-1.314.917.012 1.638.282 2.234.78l-4.153 2.368a.99.99 0 0 0-.369 1.361l2.729 4.671a1.006 1.006 0 0 0-.013.451zm7.603 8.552l-8.069-13.808 19.216-10.96 8.069 13.807-19.216 10.961zM35.32 19.273a1.013 1.013 0 0 0-1.377-.364c-.338.192-.387.395-.387.395l-4.201 7.198-8.344.002c-.552 0-1 .443-1 1s.448 1 1 1l8.903.012s.199.062.54-.133a.989.989 0 0 0 .371-.403l.016.008 4.498-7.748-.016-.008a.978.978 0 0 0-.003-.959z"/></svg>