<svg xmlns="http://www.w3.org/2000/svg" width="48" height="48" viewBox="0 0 48 48"><path fill="#FFDA8E" d="M44 7H7a1 1 0 0 0-1 1v34a1 1 0 0 0 1 1h37a1 1 0 0 0 1-1V8a1 1 0 0 0-1-1zM32 20.8c0 2.872-2.238 5.2-5 5.2s-5-2.328-5-5.2v-6.934c0-.478.373-.866.834-.866h8.332c.461 0 .834.388.834.866V20.8z"/><path fill="#384D68" d="M45 4H3a1 1 0 0 0-1 1v38a1 1 0 0 0 1 1h42a1 1 0 0 0 1-1V5a1 1 0 0 0-1-1zm-1 38H4V6h40v36zm-25-6a1 1 0 1 0 0 2h10a1 1 0 1 0 0-2h-4V24.91A5.998 5.998 0 0 0 30 19v-8a1 1 0 0 0-1-1H19a1 1 0 0 0-1 1v8a5.996 5.996 0 0 0 5 5.91V36h-4zm1-17v-7h8v7a4 4 0 0 1-8 0z"/></svg>