<svg xmlns="http://www.w3.org/2000/svg" width="48" height="48" viewBox="0 0 48 48"><path fill="#F16362" d="M45 23h-5l-4-12a1 1 0 0 0-1-1H7a1 1 0 0 0-1 1v24a1 1 0 0 0 1 1h27a.968.968 0 0 0 .5-.153.968.968 0 0 0 .5.153h8c.553 0 3-2.447 3-3v-9a1 1 0 0 0-1-1z"/><path fill="#384D68" d="M21.281 31.362c-.375.373-.375.978 0 1.351s.982.373 1.357 0l4.073-4.053a.954.954 0 0 0 0-1.351l-4.073-4.053c-.375-.373-.982-.373-1.357 0s-.375.978 0 1.351L23.686 27H16a3 3 0 0 1-3-3v-4a1 1 0 1 0-2 0v4a5 5 0 0 0 5 5h7.655l-2.374 2.362zM41 26a1 1 0 1 0 0-2h-2a1 1 0 1 0 0 2h2zm-28 9a3 3 0 1 0 0 6 3 3 0 0 0 0-6zm0 4a1 1 0 1 1 0-2 1 1 0 1 1 0 2zm15-4H18a1 1 0 1 0 0 2h10a1 1 0 1 0 0-2zm14-15h-2a2 2 0 0 1-2-2l-2-7a4 4 0 0 0-4-4H3a1 1 0 0 0-1 1v28a1 1 0 0 0 1 1h5a1 1 0 1 0 0-2H4V9h28a2 2 0 0 1 2 2l2 7a4 4 0 0 0 4 4h2a2 2 0 0 1 2 2v9a2 2 0 0 1-2 2h-4a1 1 0 1 0 0 2h4a4 4 0 0 0 4-4v-9a4 4 0 0 0-4-4zm-10 2a2 2 0 0 0 2-2l-2-7a2 2 0 0 0-2-2h-4a2 2 0 0 0-2 2v7a2 2 0 0 0 2 2h6zm-6-9h4l2 7h-6v-7zm7 22a3 3 0 1 0 0 6 3 3 0 0 0 0-6zm0 4a1 1 0 1 1 0-2 1 1 0 1 1 0 2z"/></svg>