<svg xmlns="http://www.w3.org/2000/svg" width="48" height="48" viewBox="0 0 48 48"><path fill="#898CC5" d="M44.572 23.42l-3.5-6.063a.999.999 0 0 0-1.366-.366l-9.526 5.5a1 1 0 0 0-.366 1.366l3.5 6.063a1 1 0 0 0 1.366.365l9.526-5.5a.997.997 0 0 0 .366-1.365zm-4.269 14.577a4 4 0 1 0 0 8 4 4 0 0 0 0-8z"/><path fill="#384D68" d="M29.679 30.131a.997.997 0 0 0 1.365.366l10.393-6a.999.999 0 0 0 .366-1.366l-4-6.928a.999.999 0 0 0-1.366-.366l-10.393 6a1 1 0 0 0-.365 1.366l4 6.928zm1.696-9.063l1.5 2.599 1.731-1-1.5-2.599 3.464-1.999 3 5.195-8.66 5-3-5.195 3.465-2.001zm8.81 8.418a1.016 1.016 0 0 0-1.383-.367l-9.64 5.515L10.44 2.505a1.014 1.014 0 0 0-1.381-.367L3.8 5.146c-.485.277-.65.89-.37 1.37s.898.644 1.382.367l4.382-2.507 18.722 32.129c.279.479.898.644 1.382.367l10.517-6.017a.998.998 0 0 0 .37-1.369zm-2.882 6.511c-2.762 0-5 2.238-5 5s2.238 5 5 5a5 5 0 1 0 0-10zm0 8a3 3 0 1 1 0-6 3 3 0 0 1 0 6z"/></svg>