<svg xmlns="http://www.w3.org/2000/svg" width="48" height="48" viewBox="0 0 48 48"><path fill-rule="evenodd" clip-rule="evenodd" fill="#F16362" d="M44 38H33V7a1 1 0 0 0-1-1H7a1 1 0 0 0-1 1v32c0 3.667 1.938 5.751 5.435 5.959C13.992 44.548 16 40.615 16 38h2c0 3.667-2.82 6.67-6.41 6.97.139.006.265.03.41.03h27c2.866 0 6-2.134 6-5v-1a1 1 0 0 0-1-1z"/><path fill="#384D68" d="M20 18H9a1 1 0 1 0 0 2h11a1 1 0 1 0 0-2zm0 4H9a1 1 0 1 0 0 2h11a1 1 0 1 0 0-2zm25 15H34V3a1 1 0 0 0-1-1H3a1 1 0 0 0-1 1v36a7 7 0 0 0 7 7h30a7 7 0 0 0 7-7v-1a1 1 0 0 0-1-1zM9 44a5 5 0 0 1-5-5V4h28v33H15a1 1 0 0 0-1 1v1a5 5 0 0 1-5 5zm30 0H13.895A6.98 6.98 0 0 0 16 39h28a5 5 0 0 1-5 5zm-9-31V7a1 1 0 0 0-1-1H7a1 1 0 0 0-1 1v6a1 1 0 0 0 1 1h22a1 1 0 0 0 1-1zm-13-2a1 1 0 0 1-1 1H8V8h8a1 1 0 0 1 1 1v2zm11 1h-8a1 1 0 0 1-1-1V9a1 1 0 0 1 1-1h8v4zM16 27a1 1 0 0 0-1-1H9a1 1 0 1 0 0 2h6a1 1 0 0 0 1-1z"/></svg>