<svg xmlns="http://www.w3.org/2000/svg" width="48" height="48" viewBox="0 0 48 48"><path fill="#898CC5" d="M43.25 15h-36a1 1 0 0 0-1 1v26a1 1 0 0 0 1 1h36a1 1 0 0 0 1-1V16a1 1 0 0 0-1-1z"/><path fill="#384D68" d="M41.25 21a1 1 0 0 0-1 1v17h-36V13h8a1 1 0 0 0 0-2h-9a1 1 0 0 0-1 1v28a1 1 0 0 0 1 1h38a1 1 0 0 0 1-1V22a1 1 0 0 0-1-1zm4.693-9.722l-5.911-5.993a1.098 1.098 0 0 0-1.478 0 .932.932 0 0 0 0 1.381L42.782 11H24.25c-7.732 0-14 6.268-14 14v4a1 1 0 1 0 2 0v-4c0-6.627 5.372-12 12-12h18.482l-4.178 4.333a.933.933 0 0 0 0 1.382c.408.381 1.07.381 1.478 0l5.911-6.056a.93.93 0 0 0 0-1.381z"/></svg>