<svg xmlns="http://www.w3.org/2000/svg" width="48" height="48" viewBox="0 0 48 48"><path fill="#FFDA8E" d="M34 8L13 18v12c0 .076.017.148.044.218A.986.986 0 0 0 14 31l4.303 1.714A1 1 0 0 0 20 32V22l21-11-7-3z"/><path fill="#384D68" d="M45.427 12.104l.003-.007-21-10S24.313 2 24 2s-.43.097-.43.097l-21 10 .002.005C2.493 12.136 2 12.404 2 13v22c0 .397.236.735.573.896l-.003.006 21 10 .003-.006c.131.063.273.104.427.104s.296-.041.427-.104l.003.006 21-10-.003-.006A.994.994 0 0 0 46 35V13c0-.219-.128-.684-.573-.896zM35.024 9.357L15 18.697v9.826l-3-1.2V17l19.736-9.209 3.288 1.566zM24 4.107l5.374 2.56L10.7 15.559 5.326 13 24 4.107zm-1 39.309L4 34.368V14.584l6 2.857V28c0 .421.262.777.63.925l-.001.004 4.981 1.992c-.222-.094.145.079.39.079a1 1 0 0 0 1-1v-9.226l6 2.857v19.785zm1-21.523l-5.475-2.607 18.84-8.813L42.674 13 24 21.893zm20 12.475l-19 9.048V23.632l19-9.048v19.784z"/></svg>