<svg xmlns="http://www.w3.org/2000/svg" width="48" height="48" viewBox="0 0 48 48"><path fill="#898CC5" d="M26.807 37.425s-2.443-2.693-2.443-5.625c0-3.592 2.347-5.476 2.926-6.3.546-.777 3.529-2.708 3.529-6.3 0-2.706-1.757-5.343-2.795-6.634-.233-.401-.842-.566-.842-.566H6.909a.905.905 0 0 0-.909.9v25.2c0 .497.407.9.909.9h19.272a.905.905 0 0 0 .909-.9c.001-.501-.283-.675-.283-.675zM45.091 12l-13.44.016a.895.895 0 0 0-.832.885.89.89 0 0 0 .274.642s1.023 1.106 1.595 2.427c.649 1.497.858 3.231.858 3.231 0 3.592-3.318 5.571-3.898 6.3-.607.763-2.557 2.708-2.557 6.3 0 3.235 2.875 6.807 2.875 6.807s.213.392.761.392h14.364a.905.905 0 0 0 .909-.9V12.9c0-.497-.407-.9-.909-.9z"/><path fill="#384D68" d="M14 21a1 1 0 1 0 2 0c0-1.936-1.718-3.549-4-3.919V16a1 1 0 1 0-2 0v1.081c-2.282.37-4 1.983-4 3.919s1.718 3.549 4 3.919v3.959C8.837 28.602 8 27.869 8 27a1 1 0 1 0-2 0c0 1.936 1.718 3.549 4 3.919V32a1 1 0 1 0 2 0v-1.081c2.282-.37 4-1.983 4-3.919s-1.718-3.549-4-3.919v-3.959c1.163.275 2 1.009 2 1.878zm-4 1.878C8.837 22.602 8 21.869 8 21s.837-1.603 2-1.878v3.756zM14 27c0 .869-.837 1.602-2 1.878v-3.756c1.163.275 2 1.009 2 1.878zM45 9l-18.084.017A.993.993 0 0 0 26 10c0 .28.116.531.301.713C26.509 10.973 29 14.156 29 17c0 3.991-2.55 6.19-3.188 7-.667.848-2.812 3.009-2.812 7 0 3.595 3.162 7.563 3.162 7.563S26.396 39 27 39h18a1 1 0 0 0 1-1V10a1 1 0 0 0-1-1zm-1 28H27.522C26.681 35.806 25 33.976 25 31c0-3.991 2.582-6.085 3.219-7 .166-.238.455-.584.781-1.028V23h15v14zm0-16H30.155A9.598 9.598 0 0 0 31 17h13v4zm0-6H30.764c-.414-1.765-1.293-3.134-1.956-4H44v4zm-9 18a1 1 0 0 0 1-1v-2a1 1 0 1 0-2 0v2a1 1 0 0 0 1 1zm4 0a1 1 0 0 0 1-1v-2a1 1 0 1 0-2 0v2a1 1 0 0 0 1 1zm-16.312 4.25S20 34.257 20 31c0-3.991 2.582-6.085 3.219-7C23.82 23.136 26 20.991 26 17c0-3.006-1.932-5.937-3.075-7.371C22.67 9.184 22 9 22 9H3a1 1 0 0 0-1 1v28a1 1 0 0 0 1 1h19a1 1 0 0 0 1-1c0-.557-.312-.75-.312-.75zM4 37V11h17.449C22.282 12.208 24 13.994 24 17c0 3.991-2.55 6.19-3.188 7-.667.848-2.812 3.009-2.812 7 0 2.744 1.282 4.829 2.178 6H4z"/></svg>