<svg xmlns="http://www.w3.org/2000/svg" width="48" height="48" viewBox="0 0 48 48"><path fill="#FFDA8E" d="M41 29V7a1 1 0 0 0-1-1H24v7a1 1 0 0 1-1 1h-3a1 1 0 0 1-1-1V6h-5a1 1 0 0 0-1 1v22a1 1 0 0 0 1 1h26a1 1 0 0 0 1-1zm-30.5 8a2.5 2.5 0 1 0 0 5 2.5 2.5 0 0 0 0-5zm10 0a2.5 2.5 0 1 0 0 5 2.5 2.5 0 0 0 0-5zm10 0a2.5 2.5 0 1 0 0 5 2.5 2.5 0 0 0 0-5zm10 0a2.5 2.5 0 1 0 0 5 2.5 2.5 0 0 0 0-5z"/><path fill-rule="evenodd" clip-rule="evenodd" fill="#384D68" d="M22 38a3 3 0 1 0-6 0 3 3 0 0 0 6 0zm-4 0a1 1 0 1 1 2 0 1 1 0 1 1-2 0zm24 0a3 3 0 1 0-6 0 3 3 0 0 0 6 0zm-4 0a1 1 0 1 1 2 0 1 1 0 1 1-2 0zm-6 0a3 3 0 1 0-6 0 3 3 0 0 0 6 0zm-4 0a1 1 0 1 1 2 0 1 1 0 1 1-2 0zm-16 0a3 3 0 1 0-6 0 3 3 0 0 0 6 0zm-4 0a1 1 0 1 1 2 0 1 1 0 1 1-2 0zm31-7H3a1 1 0 1 0 0 2h36c2.762 0 5 2.238 5 5s-2.238 5-5 5H3a1 1 0 1 0 0 2h36a7 7 0 1 0 0-14zm-29-2h28a1 1 0 0 0 1-1V4a1 1 0 0 0-1-1H10a1 1 0 0 0-1 1v24a1 1 0 0 0 1 1zM29 6a1 1 0 0 1 1-1h7v22h-7a1 1 0 0 1-1-1V6zM18 5h2v6h-2V5zm-7 0h5v7a1 1 0 0 0 1 1h4a1 1 0 0 0 1-1V5h4a1 1 0 0 1 1 1v20a1 1 0 0 1-1 1H11V5z"/></svg>