<svg xmlns="http://www.w3.org/2000/svg" width="48" height="48" viewBox="0 0 48 48"><path fill="#898CC5" d="M37.4 10.071V10H21.533C17.925 10 15 12.82 15 16.3v10.8c0 .497.418.9.934.9h26.133c.515 0 .933-.403.933-.9V16.3c0-3.173-2.436-5.79-5.6-6.229z"/><path fill="#384D68" d="M16.686 18l-2.404 2.392c-.375.373-.375.979 0 1.352s.982.373 1.357 0l4.073-4.053a.952.952 0 0 0 0-1.351l-4.073-4.053c-.375-.373-.982-.373-1.357 0s-.375.978 0 1.351L16.655 16H13c-3.522 0-6-2.509-6-6V5a1 1 0 1 0-2 0v5a8 8 0 0 0 8 8h3.686zM34 6h-5V3a1 1 0 0 0-1-1h-4a1 1 0 0 0-1 1v3h-5a7 7 0 0 0-7 7v1h2v-1c0-2.762 2.238-5 5-5s5 2.238 5 5v10a1 1 0 0 1-1 1h-9v-4h-2v5a1 1 0 0 0 1 1h11v19a1 1 0 0 0 1 1h4a1 1 0 0 0 1-1V26h11a1 1 0 0 0 1-1V13a7 7 0 0 0-7-7zm-9-2h2v2h-2V4zm2 40h-2V26h2v18zm12-20H26a1 1 0 0 1-1-1V13a6.98 6.98 0 0 0-2.105-5H34a5 5 0 0 1 5 5v11z"/></svg>