<svg xmlns="http://www.w3.org/2000/svg" width="48" height="48" viewBox="0 0 48 48"><path fill="#898CC5" d="M34.5 5h-17C11.148 5 6 10.148 6 16.5V41a1 1 0 0 0 1 1h38a1 1 0 0 0 1-1V16.5C46 10.148 40.852 5 34.5 5z"/><path fill="#384D68" d="M35 2H13C6.925 2 2 6.925 2 13v32a1 1 0 1 0 2 0v-5h20v5a1 1 0 1 0 2 0v-5h18v5a1 1 0 1 0 2 0V13c0-6.075-4.925-11-11-11zM13 4v9H4a9 9 0 0 1 9-9zm11 34H4V15h20v23zm0-25h-9V4h13.688C25.855 5.99 24 9.275 24 13zm20 25H26V13c0-4.971 4.029-9 9-9s9 4.029 9 9v25zM7 31h14a1 1 0 0 0 1-1v-8a1 1 0 0 0-1-1H7a1 1 0 0 0-1 1v8a1 1 0 0 0 1 1zm1-8h12v6H8v-6z"/></svg>