<svg xmlns="http://www.w3.org/2000/svg" width="48" height="48" viewBox="0 0 48 48"><path fill="#F16362" d="M46 28c0-.553-.447-2-1-2H5a1 1 0 0 0-1 1c0 .101.029.191.057.283l-.015.004 6 18 .015-.004A.988.988 0 0 0 11 46h29a.988.988 0 0 0 .943-.717l.015.004 5-17-.015-.004c.028-.092.057-.182.057-.283z"/><path fill="#384D68" d="M24 40a1 1 0 0 0 1-1V29a1 1 0 1 0-2 0v10a1 1 0 0 0 1 1zm22-17a1 1 0 0 0-1-1H34.677L26.929 2.629l-.004.001a.998.998 0 1 0-1.851.74l-.003.001.007.018.001.001L32.523 22H15.477l7.444-18.61.001-.001.007-.018-.004-.001A.974.974 0 0 0 23 3a1 1 0 0 0-1.926-.37l-.003-.001L13.323 22H3a1 1 0 0 0-1 1c0 .101.029.191.057.283l-.015.004 6 20 .015-.004A.988.988 0 0 0 9 44h30a.988.988 0 0 0 .943-.717l.015.004 6-20-.015-.004c.028-.092.057-.182.057-.283zm-7.744 19H9.744l-5.4-18h39.313l-5.401 18zM32 40a1 1 0 0 0 1-1V29a1 1 0 1 0-2 0v10a1 1 0 0 0 1 1zm-16 0a1 1 0 0 0 1-1V29a1 1 0 1 0-2 0v10a1 1 0 0 0 1 1z"/></svg>