<svg xmlns="http://www.w3.org/2000/svg" width="48" height="48" viewBox="0 0 48 48"><path fill="#FFDA8E" d="M45.045 18.438c-1.082-.401-1.909-1.609-1.909-2.813 0-1.213.813-2.418 1.909-2.813.527 0 .955-.42.955-.938 0 0-.005-.875-.955-.875H8v28.063c0 .518.427.938.955.938 0 0 1.045-.051 1.045-1 0-1.036.587-2 1.753-2 .968 0 1.792.959 1.792 2.063 0 .517.428.937.955.937h1.909c.527 0 .955-.42.955-.938.399-1.081 1.625-1.875 2.863-1.875 1.226 0 2.455.813 2.864 1.875 0 .518.427.938.955.938h1.909c.527 0 .955-.42.955-.938.387-1.104 1.608-1.875 2.864-1.875 1.245 0 2.469.785 2.863 1.875 0 .518.427.938.955.938H35.5c.527 0 .955-.42.955-.938.402-1.076 1.628-1.875 2.864-1.875 1.231 0 2.459.804 2.863 1.875 0 .518.428.938.955.938h1.909c.527 0 .954-.42.954-.937v-.938a.946.946 0 0 0-.955-.938c-1.082-.401-1.909-1.609-1.909-2.813 0-1.223.8-2.425 1.909-2.813.527 0 .955-.42.955-.938V28.75a.946.946 0 0 0-.955-.938c-1.091-.397-1.909-1.604-1.909-2.813 0-1.213.813-2.418 1.909-2.813.527 0 .955-.42.955-.938v-1.875a.945.945 0 0 0-.955-.935z"/><path fill="#384D68" d="M21 18a1 1 0 1 0 0-2 1 1 0 0 0 0 2zm17-6H10a1 1 0 0 0-1 1v16a1 1 0 0 0 1 1h28a1 1 0 0 0 1-1V13a1 1 0 0 0-1-1zm-1 10.59l-5.241-5.24-.009.007A.984.984 0 0 0 31 17a.986.986 0 0 0-.75.356l-.009-.007L23.59 24H19a1 1 0 1 0 0 2h5a.984.984 0 0 0 .75-.357l.009.008L31 19.41l6 6V28H11v-4a.997.997 0 0 0 .707-.293L16 19.414l3.293 3.293a1 1 0 1 0 1.414-1.414l-4-4a.997.997 0 0 0-1.414 0L11 21.586V14h26v8.59zM45 8a1 1 0 0 0 1-1V6a1 1 0 0 0-1-1h-2a1 1 0 0 0-1 1c-.411 1.168-1.692 2-3 2-1.318 0-2.598-.818-3-2a1 1 0 0 0-1-1h-2a1 1 0 0 0-1 1c-.408 1.172-1.689 2-3 2-1.298 0-2.582-.847-3-2a1 1 0 0 0-1-1h-2a1 1 0 0 0-1 1c-.408 1.172-1.689 2-3 2-1.322 0-2.6-.813-3-2a1 1 0 0 0-1-1h-2a1 1 0 0 0-1 1c-.405 1.177-1.686 2-3 2-1.301 0-2.584-.842-3-2a1 1 0 0 0-1-1H3a1 1 0 0 0-1 1v1a1 1 0 0 0 1 1c1.163.413 2 1.695 2 3 0 1.325-.808 2.603-2 3a1 1 0 0 0-1 1v2a1 1 0 0 0 1 1c1.177.405 2 1.686 2 3s-.823 2.595-2 3a1 1 0 0 0-1 1v2c0 .859 1.187 1.122 1.123 1.053C4.253 28.49 5 29.715 5 31c0 1.318-.818 2.598-2 3a1 1 0 0 0-1 1v1a1 1 0 0 0 1 1h2a1 1 0 0 0 1-1c.426-1.139 1.712-2 3-2 1.314 0 2.595.823 3 2a1 1 0 0 0 1 1h2a1 1 0 0 0 1-1c.418-1.153 1.702-2 3-2 1.284 0 2.572.866 3 2a1 1 0 0 0 1 1h2a1 1 0 0 0 1-1c.405-1.177 1.685-2 3-2 1.304 0 2.586.838 3 2a1 1 0 0 0 1 1h2a1 1 0 0 0 1-1c.421-1.148 1.706-2 3-2 1.29 0 2.576.857 3 2a1 1 0 0 0 1 1h2a1 1 0 0 0 1-1v-1a1 1 0 0 0-1-1c-1.133-.429-2-1.717-2-3 0-1.305.837-2.587 2-3a1 1 0 0 0 1-1v-2a1 1 0 0 0-1-1c-1.143-.424-2-1.71-2-3 0-1.294.852-2.579 2-3a1 1 0 0 0 1-1v-2a1 1 0 0 0-1-1c-1.133-.429-2-1.717-2-3 0-1.294.852-2.579 2-3zm-1 8c-2.23.281-3 3.801-3 5 0 1.137.77 4.563 3 5-3.662.781-3.069 5.988-3 6-3.187-.522-6.719.801-7 3-.281-2.199-3.676-3-5-3-1.32 0-4.64.805-5 3-.36-2.195-3.783-3-5-3-1.23 0-4.719.832-5 3-.406-2.237-3.833-3.844-7-3-.459-2.287-.859-5.656-3-6 2.167-.375 3-3.863 3-5 0-1.199-.739-4.719-3-5 2.266-.281 3.572-2.494 3-6 3.13.589 6.607-.738 7-3 .416 2.261 3.684 3 5 3 1.324 0 4.656-.801 5-3 .313 2.23 3.708 3 5 3s4.656-.77 5-3c.344 2.216 3.656 3.61 7 3-.594 3.166.765 5.688 3 6z"/></svg>