<svg xmlns="http://www.w3.org/2000/svg" width="48" height="48" viewBox="0 0 48 48"><path fill="#898CC5" d="M44 7H7a1 1 0 0 0-1 1v34a1 1 0 0 0 1 1h37a1 1 0 0 0 1-1V8a1 1 0 0 0-1-1zm-8 16h-4v13a1 1 0 0 1-1 1H21a1 1 0 0 1-1-1V23h-4a1 1 0 0 1-.707-1.707l10-10a.997.997 0 0 1 1.414 0l10 10A1 1 0 0 1 36 23z"/><path fill="#384D68" d="M14 20h4v14a1 1 0 0 0 1 1h10a1 1 0 0 0 1-1V20h4a1 1 0 0 0 .707-1.707l-10-10a.999.999 0 0 0-1.414 0l-10 10A1 1 0 0 0 14 20zm10-9.586L31.586 18H28v15h-8V18h-3.586L24 10.414zM14 39h20a1 1 0 1 0 0-2H14a1 1 0 1 0 0 2zM45 4H3a1 1 0 0 0-1 1v38a1 1 0 0 0 1 1h42a1 1 0 0 0 1-1V5a1 1 0 0 0-1-1zm-1 38H4V6h40v36z"/></svg>