<svg xmlns="http://www.w3.org/2000/svg" width="32" height="32" viewBox="0 0 32 32"><path fill="#75EA9C" d="M13.04 15c0 3.31-3.54 4.54-5.04 4.91V16.7l2.85-2.85c.2-.19.2-.51 0-.7-.19-.2-.51-.2-.7 0L8 15.3v-3.6l1.85-1.85c.2-.19.2-.51 0-.7-.19-.2-.51-.2-.7 0L8 10.3V7.5c0-.28-.22-.5-.5-.5s-.5.22-.5.5v4.8l-1.15-1.15c-.19-.2-.51-.2-.7 0-.2.19-.2.51 0 .7L7 13.7v3.6l-2.15-2.15c-.19-.2-.51-.2-.7 0-.2.19-.2.51 0 .7L7 18.7v1.21c-1.5-.37-5.04-1.6-5.04-4.91 0-3.63 3.85-9.77 5.54-12.3 1.69 2.53 5.54 8.67 5.54 12.3"/><path fill="#FFD878" d="M31 10.44c0 1.54-.41 2.99-1.13 4.24-.75 1.28-2.18 3.47-3.43 5.32-.15.23-.301.45-.44.67v4.28C26 26.5 23.71 28 22.5 28S19 26.5 19 24.95v-4.28c-.14-.22-.29-.439-.44-.67-1.239-1.85-2.68-4.03-3.43-5.32A8.446 8.446 0 0 1 14 10.44c0-4.69 3.81-8.5 8.5-8.5s8.5 3.81 8.5 8.5"/><path fill="#AAA" d="M26.44 20c-.15.23-.301.45-.44.67v4.28C26 26.5 23.71 28 22.5 28S19 26.5 19 24.95v-4.28c-.14-.22-.29-.439-.44-.67h7.88z"/><path fill="#4D5152" d="M22.5 1.94c-4.69 0-8.5 3.81-8.5 8.5 0 1.55.41 2.99 1.13 4.24.84 1.45 2.55 4.02 3.87 5.99v4.28c0 1.359 1.75 2.67 3 2.979v.57c0 1.41-1.25 1.5-1.5 1.5h-8C8.08 30 8 26.64 8 26.5v-5.6c1.53-.36 6-1.75 6-5.9 0-5-6.5-14-6.5-14S1 10 1 15c0 4.15 4.47 5.54 6 5.9v5.6c0 .04.06 4.5 5.5 4.5h8c.86 0 2.5-.52 2.5-2.5v-.57c1.25-.31 3-1.62 3-2.979v-4.28c1.33-1.97 3.03-4.55 3.87-5.99.72-1.25 1.13-2.7 1.13-4.24 0-4.691-3.81-8.501-8.5-8.501M7.5 7c-.28 0-.5.22-.5.5v4.8l-1.15-1.15c-.19-.2-.51-.2-.7 0-.2.19-.2.51 0 .7L7 13.7v3.6l-2.15-2.15c-.19-.2-.51-.2-.7 0-.2.19-.2.51 0 .7L7 18.7v1.21c-1.5-.37-5.04-1.6-5.04-4.91 0-3.63 3.85-9.77 5.54-12.3 1.69 2.53 5.54 8.67 5.54 12.3 0 3.31-3.54 4.54-5.04 4.91V16.7l2.85-2.85c.2-.19.2-.51 0-.7-.19-.2-.51-.2-.7 0L8 15.3v-3.6l1.85-1.85c.2-.19.2-.51 0-.7-.19-.2-.51-.2-.7 0L8 10.3V7.5c0-.28-.22-.5-.5-.5M25 24.95C25 26 23.33 27 22.5 27S20 26 20 24.95V21h5v3.95zm4-10.72c-.82 1.42-2.61 4.04-3.81 5.77h-5.38c-1.199-1.73-2.989-4.35-3.81-5.77-.64-1.1-1-2.38-1-3.74 0-4.15 3.36-7.51 7.5-7.51S30 6.34 30 10.49c0 1.36-.36 2.64-1 3.74"/></svg>