<svg xmlns="http://www.w3.org/2000/svg" width="32" height="32" viewBox="0 0 32 32"><path fill="#FF61E1" d="M31 10s0 17-3 17H13c-3 0-3-17-3-17h21z"/><path fill="#FF80ED" d="M31 5v5H10V5s0-4 4-4h13s4 0 4 4"/><path fill="#FF61E1" d="M14 1v5s0 2 2 2h9s2 0 2-2V1H14z"/><path fill="#4D5152" d="M26.996 2c.506.006 3.004.18 3.004 3v4H11V5.006C11.006 4.504 11.177 2 14 2h12.996M27 1H14c-4 0-4 4-4 4v5h21V5c0-4-4-4-4-4"/><path fill="#4D5152" d="M26 2v4c0 .805-.55.988-1 1h-9c-.805 0-.988-.55-1-1V2h11m1-1H14v5s0 2 2 2h9s2 0 2-2V1zm3 9c0 7.826-.957 15.251-2.056 16H13.056c-1.117-.756-2.055-8.035-2.056-16h19m1-1H10v1s0 17 3 17h15c3 0 3-17 3-17V9z"/><path fill="#AAA" d="M17 7v23c0 .55-.45 1-1 1H2c-.55 0-1-.45-1-1V7c0-.55.45-1 1-1h14c.55 0 1 .45 1 1"/><path fill="#ACF0F2" d="M1 10H17V26H1z"/><path fill="#4D5152" d="M6 9h6V8H6v1zm3 20.25a1.25 1.25 0 1 0 0-2.5 1.25 1.25 0 0 0 0 2.5M16 6H2a1 1 0 0 0-1 1v23a1 1 0 0 0 1 1h14a1 1 0 0 0 1-1V7a1 1 0 0 0-1-1m0 23a1 1 0 0 1-1 1H3a1 1 0 0 1-1-1v-3h14v3zm0-4H2V11h14v14zm0-15H2V8a1 1 0 0 1 1-1h12a1 1 0 0 1 1 1v2z"/></svg>