<svg enable-background="new 0 0 32 32" height="32" viewBox="0 0 32 32" width="32" xmlns="http://www.w3.org/2000/svg"><path d="m22 22.67v7.33h-20v-16h4v-8h8v12h2.33c.12.36.27.69.45 1 .479.82 1.13 1.48 1.84 2 .12.1.25.19.38.27.67.45 1.37.79 2 1.04.36.15.7.27 1 .36" fill="#aaa"/><g fill="#4d5152"><path d="m5 25h2v2h-2z"/><path d="m9 25h2v2h-2z"/><path d="m13 25h2v2h-2z"/><path d="m17 25h2v2h-2z"/><path d="m5 21h2v2h-2z"/><path d="m5 17h2v2h-2z"/><path d="m9 21h2v2h-2z"/><path d="m9 17h2v2h-2z"/><path d="m9 13h2v2h-2z"/><path d="m9 9h2v2h-2z"/><path d="m13 21h2v2h-2z"/><path d="m19 21.27v1.73h-2v-2h1.62c.12.1.25.19.38.27"/></g><path d="m30 16c0 4.15-4.47 5.54-6 5.9v3.6c0 .28-.22.5-.5.5s-.5-.22-.5-.5v-3.6c-1.53-.36-6-1.75-6-5.9 0-5 6.5-14 6.5-14s6.5 9 6.5 14" fill="#75ea9c"/><path d="m21 22.31v6.69h-18v-14h4v-8h6v12h3.78c-.181-.31-.33-.64-.45-1h-2.33v-12h-8v8h-4v16h20v-7.33c-.3-.09-.64-.21-1-.36" fill="#4d5152"/><path d="m23.5 2s-6.5 9-6.5 14c0 4.15 4.47 5.54 6 5.9v3.6c0 .28.22.5.5.5s.5-.22.5-.5v-3.6c1.53-.36 6-1.75 6-5.9 0-5-6.5-14-6.5-14m.5 18.91v-3.21l2.85-2.85c.2-.19.2-.51 0-.7-.188-.2-.51-.2-.698 0l-2.152 2.15v-3.6l1.85-1.85c.2-.19.2-.51 0-.7-.188-.2-.51-.2-.698 0l-1.152 1.15v-2.8c0-.28-.22-.5-.5-.5s-.5.22-.5.5v4.8l-1.15-1.15c-.189-.2-.51-.2-.699 0-.2.19-.2.51 0 .7l1.849 1.85v3.6l-2.15-2.148c-.189-.2-.51-.2-.699 0-.2.188-.2.51 0 .698l2.849 2.85v1.21c-1.5-.37-5.04-1.601-5.04-4.91 0-3.63 3.85-9.77 5.54-12.3 1.69 2.53 5.54 8.67 5.54 12.3 0 3.31-3.54 4.54-5.04 4.91" fill="#4d5152"/></svg>