<svg xmlns="http://www.w3.org/2000/svg" width="32" height="32" viewBox="0 0 32 32"><path fill="none" stroke="#4D5152" stroke-linecap="round" stroke-miterlimit="10" d="M20 12L1 31"/><path fill="#67DDE0" d="M29.55 15.96c1.4 2.07-1.06 4.53-1.06 4.53s-1.5 1.49-3.13 1.49c-.46 0-.95-.12-1.4-.44C23.51 24 20 24 20 24s-3.51 0-3.96-2.46c-.45.32-.94.44-1.4.44-1.63 0-3.13-1.49-3.13-1.49s-2.46-2.471-1.05-4.53C8 15.51 8 12 8 12s0-3.5 2.45-3.96c-1.4-2.07 1.06-4.53 1.06-4.53s1.5-1.49 3.13-1.49c.46 0 .95.12 1.4.44C16.49 0 20 0 20 0s3.51 0 3.96 2.46c.45-.32.94-.44 1.4-.44 1.63 0 3.13 1.49 3.13 1.49s2.46 2.47 1.05 4.53C32 8.49 32 12 32 12s0 3.5-2.45 3.96z"/><circle fill="#FFD878" cx="20" cy="12" r="5"/><path fill="#4D5152" d="M32 12s0-3.51-2.46-3.96c1.41-2.06-1.05-4.53-1.05-4.53s-1.5-1.49-3.13-1.49c-.46 0-.95.12-1.4.44C23.51 0 20 0 20 0s-3.51 0-3.96 2.46c-.45-.32-.94-.44-1.4-.44-1.63 0-3.13 1.49-3.13 1.49s-2.46 2.46-1.06 4.53C8 8.5 8 12 8 12s0 3.51 2.46 3.96c-1.41 2.06 1.05 4.53 1.05 4.53s1.5 1.49 3.13 1.49c.46 0 .95-.12 1.4-.44C16.49 24 20 24 20 24s3.51 0 3.96-2.46c.45.32.94.44 1.4.44 1.63 0 3.13-1.49 3.13-1.49s2.46-2.46 1.06-4.53C32 15.5 32 12 32 12zm-8.05-8.16c.08-.11.18-.22.29-.33.34-.33.689-.49 1.12-.49.979 0 2.08.87 2.42 1.2 0 .01.59.6.939 1.39.54 1.18.12 1.79-.229 2.15-.11.11-.221.21-.33.29-1.11.98-2.57 1.58-3.59 1.91-.41-.9-1.07-1.66-1.891-2.18.501-.97 1.101-2.42 1.271-3.94zM24 12c0 2.21-1.79 4-4 4s-4-1.79-4-4 1.79-4 4-4 4 1.79 4 4zM20 1c.16 0 3 .06 3 2 0 .15-.01.29-.02.44-.101 1.48-.7 2.93-1.181 3.89A5.124 5.124 0 0 0 20 7c-.37 0-.73.04-1.08.12-.34-1.03-.939-2.48-1.9-3.68C17.01 3.3 17 3.15 17 3c0-1.94 2.84-2 3-2zm-7.78 3.22c.31-.31 1.43-1.2 2.42-1.2.42 0 .78.16 1.12.49.11.11.21.22.29.33.98 1.11 1.58 2.57 1.91 3.59-.9.41-1.66 1.07-2.18 1.89-.97-.5-2.42-1.1-3.94-1.27-.11-.08-.22-.18-.33-.29-1.38-1.39.63-3.45.71-3.54zM9 12c0-.12.04-3 2-3 .14 0 .29.01.43.01 1.48.11 2.94.71 3.9 1.19-.21.56-.33 1.17-.33 1.8 0 .37.04.73.12 1.08-1.03.34-2.48.94-3.68 1.9-.15.01-.29.02-.44.02-1.96 0-2-2.88-2-3zm7.05 8.16c-.08.109-.18.22-.29.33-.34.33-.7.49-1.12.49-.98 0-2.08-.87-2.42-1.2-.08-.09-2.1-2.141-.71-3.54.11-.11.22-.21.33-.29 1.11-.98 2.57-1.58 3.59-1.91.41.9 1.07 1.66 1.89 2.18-.5.97-1.099 2.42-1.27 3.94zM20 23c-.12 0-3-.04-3-2 0-.15.01-.29.02-.44.101-1.479.7-2.93 1.181-3.89.559.21 1.169.33 1.799.33.37 0 .73-.04 1.08-.12.34 1.03.939 2.48 1.9 3.68.01.14.02.29.02.44 0 1.96-2.88 2-3 2zm7.78-3.22c-.34.33-1.44 1.2-2.42 1.2-.42 0-.78-.16-1.12-.49-.11-.11-.21-.221-.29-.33-.98-1.11-1.58-2.57-1.91-3.59.9-.41 1.66-1.07 2.18-1.89.971.5 2.42 1.1 3.94 1.27.109.08.22.18.33.29 1.38 1.39-.63 3.45-.71 3.54zM29 15c-.14 0-.29-.01-.43-.01-1.48-.11-2.94-.71-3.9-1.19.21-.56.33-1.17.33-1.8 0-.37-.04-.73-.12-1.08 1.03-.34 2.48-.94 3.68-1.9.15-.01.29-.02.44-.02 1.96 0 2 2.88 2 3s-.04 3-2 3z"/><path fill="#75EA9C" d="M7.72 23.55c-.24.72-.68 1.19-.77 1.28-.09.09-.96.92-2.17.92-.53 0-1.31-.16-2.07-.92C1.05 23.17 1 20.21 1 19.88v-1h1c.33 0 3.29.05 4.95 1.71.85.85 1.13 1.9.77 2.96z"/><path fill="#4D5152" d="M2 19.879s2.829 0 4.243 1.414c1.415 1.414 0 2.828 0 2.828s-.628.629-1.467.629c-.419 0-.891-.157-1.362-.629C2 22.707 2 19.879 2 19.879m0-1H1v1c0 .332.048 3.29 1.707 4.949.762.762 1.546.922 2.069.922 1.217 0 2.08-.827 2.174-.922.087-.087.533-.557.772-1.274.354-1.063.08-2.116-.772-2.968-1.659-1.659-4.618-1.707-4.95-1.707z"/></svg>