<svg xmlns="http://www.w3.org/2000/svg" width="32" height="32" viewBox="0 0 32 32"><path fill="#66C681" d="M20 10.5C20 5.253 15.747 1 10.5 1S1 5.253 1 10.5 5.253 20 10.5 20s9.5-4.253 9.5-9.5"/><path fill="#4D5152" d="M20 10.5C20 5.25 15.75 1 10.5 1S1 5.25 1 10.5c0 5.08 3.98 9.23 9 9.49V25H8.5c-.28 0-.5.22-.5.5s.22.5.5.5h4c.28 0 .5-.22.5-.5s-.22-.5-.5-.5H11v-5.01c5.02-.26 9-4.41 9-9.49M10.5 9c-.28 0-.5.22-.5.5v5l-3.2-2.4a.507.507 0 0 0-.7.1c-.17.22-.12.53.1.7l3.8 2.85v3.24c-4.46-.26-8-3.971-8-8.49C2 5.81 5.81 2 10.5 2S19 5.81 19 10.5c0 4.52-3.54 8.23-8 8.49v-5.24l3.8-2.85c.22-.17.271-.48.101-.7a.507.507 0 0 0-.7-.1L11 12.5v-3c0-.28-.22-.5-.5-.5"/><path fill="#6ED68E" d="M31 12.5C31 7.253 26.747 3 21.5 3S12 7.253 12 12.5s4.253 9.5 9.5 9.5 9.5-4.253 9.5-9.5"/><path fill="#4D5152" d="M31 12.5C31 7.25 26.75 3 21.5 3S12 7.25 12 12.5c0 5.08 3.98 9.23 9 9.49V27h-1.5c-.28 0-.5.22-.5.5s.22.5.5.5h4c.28 0 .5-.22.5-.5s-.22-.5-.5-.5H22v-5.01c5.02-.26 9-4.41 9-9.49M21.5 11c-.28 0-.5.22-.5.5v5l-3.2-2.4a.507.507 0 0 0-.7.1c-.17.22-.119.53.101.7l3.8 2.85v3.24c-4.46-.26-8-3.972-8-8.49C13 7.81 16.81 4 21.5 4S30 7.81 30 12.5c0 4.52-3.54 8.23-8 8.49v-5.24l3.8-2.85a.499.499 0 1 0-.598-.8L22 14.5v-3c0-.28-.22-.5-.5-.5"/><path fill="#75EA9C" d="M25 15.5c0-5.247-4.253-9.5-9.5-9.5S6 10.253 6 15.5s4.253 9.5 9.5 9.5 9.5-4.253 9.5-9.5"/><path fill="#4D5152" d="M25 15.5c0-5.25-4.25-9.5-9.5-9.5S6 10.25 6 15.5c0 5.08 3.98 9.23 9 9.49V30h-1.5c-.28 0-.5.22-.5.5s.22.5.5.5h4c.28 0 .5-.22.5-.5s-.22-.5-.5-.5H16v-5.01c5.02-.26 9-4.41 9-9.49M15.5 14c-.28 0-.5.22-.5.5v5l-3.2-2.4c-.22-.159-.53-.119-.7.101s-.12.53.1.7l3.8 2.85v3.24c-4.46-.26-8-3.972-8-8.49C7 10.81 10.81 7 15.5 7c4.69 0 8.5 3.81 8.5 8.5 0 4.52-3.54 8.23-8 8.49v-5.24l3.8-2.85a.499.499 0 1 0-.598-.8L16 17.5v-3c0-.28-.22-.5-.5-.5"/></svg>