<svg enable-background="new 0 0 32 32" height="32" viewBox="0 0 32 32" width="32" xmlns="http://www.w3.org/2000/svg"><path d="m31 10s0 17-3 17h-15c-3 0-3-17-3-17z" fill="#ef6565"/><path d="m31 5v5h-21v-5s0-4 4-4h13s4 0 4 4" fill="#f27c7c"/><path d="m14 1v5s0 2 2 2h9s2 0 2-2v-5z" fill="#ef6565"/><g fill="#4d5152"><path d="m26.996 2c.506.006 3.004.18 3.004 3v4h-19v-3.994c.006-.502.177-3.006 3-3.006zm.004-1h-13c-4 0-4 4-4 4v4 1h21v-5c0-4-4-4-4-4"/><path d="m26 2v4c0 .805-.55.988-1 1h-9c-.805 0-.988-.55-1-1v-4zm1-1h-13v5s0 2 2 2h9s2 0 2-2z"/><path d="m30 10c0 7.826-.957 15.251-2.056 16h-14.888c-1.117-.756-2.055-8.035-2.056-16zm1-1h-21v1s0 17 3 17h15c3 0 3-17 3-17z"/></g><path d="m17.31 21.86-4.95 4.95-9.2-9.2-.71.71-.7-.71 2.83-2.83-2.13-2.12-1.41 1.41-.71-.7 3.54-3.54.71.71-1.42 1.41 2.12 2.13 2.83-2.83.71.7-.71.71z" fill="#67dde0"/><path d="m22.25 31.05-.7.7-3.54-3.53-.71.7-1.41-1.41h-2.83l-.7-.7 4.95-4.95.7.7v2.83l1.41 1.41-.7.71z" fill="#aaa"/><path d="m3.868 9.832-3.535 3.535.707.707 1.414-1.414 2.121 2.122-2.828 2.829.707.707.707-.708 9.9 9.898h2.828l1.414 1.415.707-.707 3.535 3.535.707-.707-3.535-3.535.707-.707-1.414-1.415v-2.827l-9.899-9.898.707-.707-.707-.707-2.829 2.829-2.121-2.122 1.414-1.414zm13.145 13.727v2.248l.998.996-.707.707-.998-.996h-2.248zm-9.61-10.19 2.121 2.121-1.414 1.414.707.707 1.414-1.414 1.415 1.415-1.414 1.414.707.707 1.414-1.414 1.414 1.414-1.414 1.414.707.706 1.414-1.413 2.122 2.12-3.535 3.535-9.193-9.191z" fill="#4d5152"/></svg>