<svg enable-background="new 0 0 32 32" height="32" viewBox="0 0 32 32" width="32" xmlns="http://www.w3.org/2000/svg"><path d="m25 18c0 9-9.5 9-9.5 9s-9.5 0-9.5-9 9.5-16 9.5-16 9.5 7 9.5 16z" fill="#75ea9c"/><path d="m16 30.5c0 .276-.224.5-.5.5-.276 0-.5-.224-.5-.5v-21c0-.276.224-.5.5-.5.276 0 .5.224.5.5z" fill="#4d5152"/><g fill="none" stroke="#4d5152" stroke-linecap="round" stroke-miterlimit="10"><path d="m15.5 14.5 3-3"/><path d="m15.5 20.5 5-5"/><path d="m15.5 17.5-3-3"/><path d="m15.5 23.5-5-5"/></g><path d="m15.5 3.278c2.021 1.674 8.5 7.598 8.5 14.722 0 7.875-8.155 7.999-8.498 8-.347-.001-8.502-.125-8.502-8 0-7.109 6.481-13.045 8.5-14.722m0-1.278s-9.5 7-9.5 16 9.5 9 9.5 9 9.5 0 9.5-9-9.5-16-9.5-16z" fill="#4d5152"/></svg>