<svg enable-background="new 0 0 32 32" height="32" viewBox="0 0 32 32" width="32" xmlns="http://www.w3.org/2000/svg"><path d="m31 10s0 17-3 17h-15c-3 0-3-17-3-17z" fill="#ffd878"/><path d="m31 5v5h-21v-5s0-4 4-4h13s4 0 4 4" fill="#ffe4a9"/><path d="m14 1v5s0 2 2 2h9s2 0 2-2v-5z" fill="#ffd878"/><path d="m26.996 2c.506.006 3.004.18 3.004 3v4h-19v-3.994c.006-.502.177-3.006 3-3.006zm.004-1h-13c-4 0-4 4-4 4v4 1h21v-5c0-4-4-4-4-4" fill="#4d5152"/><path d="m26 2v4c0 .805-.55.988-1 1h-9c-.805 0-.988-.55-1-1v-4zm1-1h-13v5s0 2 2 2h9s2 0 2-2z" fill="#4d5152"/><path d="m30 10c0 7.826-.957 15.251-2.056 16h-14.888c-1.117-.756-2.055-8.035-2.056-16zm1-1h-21v1s0 17 3 17h15c3 0 3-17 3-17z" fill="#4d5152"/><path d="m1 12h16v19h-16z" fill="#aaa"/><path d="m1 12h16v4h-16z" fill="#bfbfbf"/><path d="m1 27h16v4h-16z" fill="#bfbfbf"/><g fill="#4d5152"><path d="m2 15h14v1h-14z"/><path d="m2 27h14v1h-14z"/><path d="m2 18h5v1h-5z"/><path d="m2 21h3v1h-3z"/><path d="m2 24h6v1h-6z"/><path d="m16 30h-14v-17h14zm1-18h-16v19h16z"/></g></svg>