<svg xmlns="http://www.w3.org/2000/svg" width="32" height="32" viewBox="0 0 32 32"><path fill="#67DDE0" d="M31 10s0 17-3 17H13c-3 0-3-17-3-17h21z"/><path fill="#ACF0F2" d="M31 5v5H10V5s0-4 4-4h13s4 0 4 4"/><path fill="#67DDE0" d="M14 1v5s0 2 2 2h9s2 0 2-2V1H14z"/><path fill="#4D5152" d="M26.996 2c.506.006 3.004.18 3.004 3v4H11V5.006C11.006 4.504 11.177 2 14 2h12.996M27 1H14c-4 0-4 4-4 4v5h21V5c0-4-4-4-4-4"/><path fill="#4D5152" d="M26 2v4c0 .805-.55.988-1 1h-9c-.805 0-.988-.55-1-1V2h11m1-1H14v5s0 2 2 2h9s2 0 2-2V1zm3 9c0 7.826-.957 15.251-2.056 16H13.056c-1.117-.756-2.055-8.035-2.056-16h19m1-1H10v1s0 17 3 17h15c3 0 3-17 3-17V9z"/><path fill="#FFF" d="M18 13v17c0 1-1 1-1 1H2c-1 0-1-1-1-1V9s0-1 1-1h11l5 5z"/><path fill="#4D5152" d="M13 8H2C1 8 1 9 1 9v21s0 1 1 1h15s1 0 1-1V13l-5-5zm4 22H2v-1h15v1zm0-2H2v-1h15v1zm0-2H2V9h9v4s0 2 2 2h4v11zm0-12h-4c-.81 0-.99-.55-1-1V9h.59L17 13.41V14z"/></svg>