<svg xmlns="http://www.w3.org/2000/svg" width="32" height="32" viewBox="0 0 32 32"><path fill="#75EA9C" d="M28.12 5.26l-3.7 5.52c-.1.14-.25.22-.42.22h-7c-.28 0-.5-.22-.5-.5s.22-.5.5-.5h2.15l-2.69-4.84-4.03 6.6c-.08.12-.2.21-.34.23-.03.01-.06.01-.09.01a.51.51 0 0 1-.31-.11l-5-4a.5.5 0 0 1-.11-.67l4-6c.1-.14.25-.22.42-.22h11c.18 0 .34.1.43.25l3.301 5.77 1.56-2.32c.15-.23.46-.29.69-.14.229.16.289.47.139.7M16.208 21.573l-.793 6.354a.505.505 0 0 1-.479.434l-.04-.001-7.199-.269a.508.508 0 0 1-.407-.239l-2.091-3.417c-.01.001-.011-.019-.011-.019L1.54 18.468a.5.5 0 0 1-.013-.5l3.179-5.784-2.786-.158a.486.486 0 0 1-.464-.518.501.501 0 0 1 .518-.474l6.853.369c.17.016.322.102.406.249l3.445 5.86a.495.495 0 0 1-.421.752.496.496 0 0 1-.437-.238l-1.1-1.872-2.75 4.876 7.742-.024c.15.006.283.063.375.169.101.11.147.257.121.398m15.615-3.308l-1.944 3.472-3.418 6.129a.518.518 0 0 1-.43.256l-6.654.064 1.27 2.492a.496.496 0 1 1-.883.448l-3.023-5.919a.536.536 0 0 1 .01-.472l1.944-3.471.003-.021 1.47-2.617a.498.498 0 0 1 .685-.197.503.503 0 0 1 .188.685l-1.048 1.878 5.541.004-3.799-6.735a.515.515 0 0 1-.036-.406.489.489 0 0 1 .283-.302l5.923-2.418a.508.508 0 0 1 .639.24l3.291 6.418c.073.15.076.32-.012.472"/><path fill="#4D5152" d="M27.98 4.56a.498.498 0 0 0-.69.14l-1.56 2.32-3.3-5.77A.504.504 0 0 0 22 1H11c-.17 0-.32.08-.42.22l-4 6a.5.5 0 0 0 .11.67l5 4c.09.07.2.11.31.11.03 0 .06 0 .09-.01.14-.02.26-.11.34-.23l4.03-6.6L19.15 10H17c-.28 0-.5.22-.5.5s.22.5.5.5h7c.17 0 .32-.08.42-.22l3.7-5.52c.15-.23.09-.54-.14-.7m-16.11 6.19L7.67 7.4l3.6-5.4h3.43l1.2 2.15-4.03 6.6zM23.73 10H20.3l-4.45-8h5.86L25 7.76a.4.4 0 0 0 .14.15L23.73 10zm-7.644 11.175a.514.514 0 0 0-.375-.169l-7.741.024 2.752-4.875 1.1 1.872a.494.494 0 0 0 .437.238.495.495 0 0 0 .421-.752l-3.445-5.86a.512.512 0 0 0-.406-.249l-6.853-.369a.5.5 0 0 0-.518.474.486.486 0 0 0 .464.518l2.785.157-3.179 5.784a.498.498 0 0 0 .013.5l3.648 5.948s.001.02.011.019l2.091 3.417a.506.506 0 0 0 .407.239l7.199.269.04.001a.504.504 0 0 0 .479-.434l.793-6.354a.468.468 0 0 0-.123-.398M2.544 18.191l3.188-5.815a.237.237 0 0 0 .046-.131l2.725.148 1.633 2.778-4.531 8.021-3.061-5.001zm11.935 9.15L8 27.102l-1.798-2.934 1.203-2.142 7.743-.016-.669 5.331zm17.355-9.549l-3.291-6.418a.507.507 0 0 0-.639-.24l-5.923 2.418a.489.489 0 0 0-.283.302.515.515 0 0 0 .036.406l3.799 6.735-5.541-.004-.551.996 9.141.021.855.003a.506.506 0 0 0 .441-.275l1.944-3.472a.487.487 0 0 0 .012-.472m-2.69 3.212L26.679 21l-3.798-6.738 4.986-2.026 2.959 5.771-1.682 2.997z"/><path fill="#4D5152" d="M29.879 21.736l-3.418 6.129a.518.518 0 0 1-.43.256l-6.654.064 1.27 2.492a.496.496 0 1 1-.883.448l-3.023-5.919a.536.536 0 0 1 .01-.472l1.944-3.471.003-.021 1.47-2.617a.498.498 0 0 1 .685-.197.503.503 0 0 1 .188.685l-1.048 1.878-.551.996-1.682 3.007 1.137 2.236a.633.633 0 0 1 .195-.04l6.635-.068 2.855-5.113.855.003a.508.508 0 0 0 .442-.276"/></svg>