<svg enable-background="new 0 0 32 32" height="32" viewBox="0 0 32 32" width="32" xmlns="http://www.w3.org/2000/svg"><path d="m6 8h19v2h-19z" fill="#aaa"/><path d="m26 10-1.5 18.08c-.05.52-.48.92-1 .92h-16c-.52 0-.95-.4-1-.92l-1.5-18.08z" fill="#bfbfbf"/><g fill="#4d5152"><path d="m10 13h1v13h-1z"/><path d="m15 13h1v13h-1z"/><path d="m20 13h1v13h-1z"/><path d="m5 10 1.5 18.08c.05.52.48.92 1 .92h16c.52 0 .95-.4 1-.92l1.5-18.08zm18.5 18h-16l-1.41-17h18.82z"/><path d="m10 13h1v13h-1z"/><path d="m15 13h1v13h-1z"/><path d="m20 13h1v13h-1z"/><path d="m24.5 7h-3.5v-1.5c0-.83-.67-1.5-1.5-1.5h-8c-.83 0-1.5.67-1.5 1.5v1.5h-3.5c-1.1 0-1.5.9-1.5 1.5v1.5h1v-1.5c.01-.24.11-.5.5-.5h18c.39 0 .49.26.5.5v1.5h1v-1.5c0-.6-.4-1.5-1.5-1.5zm-4.5 0h-9v-1.5c0-.28.22-.5.5-.5h8c.28 0 .5.22.5.5z"/></g></svg>