<svg xmlns="http://www.w3.org/2000/svg" width="32" height="32" viewBox="0 0 32 32"><path fill="#BF9171" d="M2 27s-2.001 3 13 3c15 0 15-3 15-3l-2-2V10H4v15l-2 2z"/><path fill="#C9A287" d="M28 10c0 2.21-5.37 4-12 4S4 12.21 4 10s5.37-4 12-4 12 1.79 12 4"/><path fill="#4D5152" d="M2.5 27.5a.5.5 0 0 1-.224-.947C2.343 26.518 4 25.63 4 23V10a.5.5 0 1 1 1 0v13c0 3.271-2.184 4.4-2.277 4.447a.494.494 0 0 1-.223.053m26.999 0a.497.497 0 0 1-.223-.053C29.184 27.4 27 26.271 27 23V10a.5.5 0 0 1 1 0v13c0 2.63 1.656 3.518 1.727 3.555a.502.502 0 0 1 .218.671.504.504 0 0 1-.446.274M16 12c-3.23 0-6.5-.859-6.5-2.5a.5.5 0 0 1 1 0c0 .509 1.941 1.5 5.5 1.5 4.512 0 5.5-.722 5.5-1s-.988-1-5.5-1a.5.5 0 0 1 0-1c5.826 0 6.5 1.142 6.5 2s-.674 2-6.5 2M7 26.5a.5.5 0 0 1-1 0v-8a.5.5 0 0 1 1 0v8zm2-6a.5.5 0 0 1-1 0v-8c0-.276.224.5.5.5s.5-.776.5-.5v8zm14 4a.5.5 0 0 1-1 0v-8a.5.5 0 0 1 1 0v8zm-2-7a.5.5 0 0 1-1 0v-4a.5.5 0 0 1 1 0v4zm4 9a.5.5 0 0 1-1 0v-12a.5.5 0 0 1 1 0v12z"/><path fill="#4D5152" d="M16 7c7.117 0 11 1.982 11 3s-3.883 3-11 3-11-1.982-11-3 3.883-3 11-3m0-1C9.373 6 4 7.791 4 10s5.373 4 12 4 12-1.791 12-4-5.373-4-12-4"/></svg>