<svg xmlns="http://www.w3.org/2000/svg" width="32" height="32" viewBox="0 0 32 32"><path fill="#AAA" d="M32 17h-5.5c-.98 2.35-3.3 4-6 4s-5.02-1.65-6-4H12v4H6v-4c0-4.4 3.59-6 6-6h3.02c.9-1.4 2.31-2.43 3.98-2.82V6.5c-.14-.11-.28-.23-.4-.37-.98.46-2.14.87-3.1.87C13.52 7 13 5.36 13 4.5S13.52 2 15.5 2c.96 0 2.12.41 3.1.87a2.512 2.512 0 0 1 3.8 0c.98-.46 2.14-.87 3.1-.87C27.48 2 28 3.64 28 4.5S27.48 7 25.5 7c-.96 0-2.12-.41-3.1-.87-.12.14-.26.26-.4.37v1.68c2.04.48 3.71 1.92 4.5 3.82H32v5z"/><path fill="#4D5152" d="M32 12h-5.5A6.495 6.495 0 0 0 22 8.18V6.5c.14-.11.28-.23.4-.37.98.46 2.14.87 3.1.87C27.48 7 28 5.36 28 4.5S27.48 2 25.5 2c-.96 0-2.12.41-3.1.87a2.512 2.512 0 0 0-3.8 0c-.98-.46-2.14-.87-3.1-.87C13.52 2 13 3.64 13 4.5S13.52 7 15.5 7c.96 0 2.12-.41 3.1-.87.12.14.26.26.4.37v1.68A6.486 6.486 0 0 0 15.02 11H12c-2.41 0-6 1.6-6 6v4h6v-4h2.5c.98 2.35 3.3 4 6 4s5.02-1.65 6-4H32v-1h-5.18c.12-.48.18-.98.18-1.5s-.06-1.02-.18-1.5H32v-1zm-9.11-8.25c.86-.4 1.83-.75 2.61-.75C26.91 3 27 4.25 27 4.5S26.91 6 25.5 6c-.78 0-1.75-.35-2.61-.75a2.615 2.615 0 0 0 0-1.5m-4.78 1.5c-.86.4-1.83.75-2.61.75C14.09 6 14 4.75 14 4.5S14.09 3 15.5 3c.78 0 1.75.35 2.61.75a2.615 2.615 0 0 0 0 1.5M20.5 3c.83 0 1.5.67 1.5 1.5S21.33 6 20.5 6 19 5.33 19 4.5 19.67 3 20.5 3m.5 3.95v1.07c-.17-.01-.33-.02-.5-.02s-.33.01-.5.02V6.95c.16.03.33.05.5.05s.34-.02.5-.05M20.5 20c-2.13 0-3.98-1.22-4.89-3-.17-.32-.3-.65-.39-1H12c-1 .04-1 .66-1 1v3H7v-3c0-3.67 2.99-5 5-5h3.61c.11-.23.24-.44.39-.65A5.481 5.481 0 0 1 20.5 9c3.03 0 5.5 2.47 5.5 5.5S23.53 20 20.5 20"/><path fill="#67DDE0" d="M31 25.5c0 .28-.22.5-.5.5-1.83 0-2.69-.7-3.38-1.26-.52-.43-.9-.74-1.62-.74s-1.1.31-1.62.74c-.69.56-1.55 1.26-3.38 1.26s-2.69-.7-3.38-1.26c-.52-.43-.9-.74-1.62-.74-.72 0-1.1.31-1.62.74-.69.56-1.55 1.26-3.38 1.26-.28 0-.5-.22-.5-.5s.22-.5.5-.5c1.47 0 2.09-.5 2.75-1.04.57-.47 1.17-.96 2.25-.96s1.68.49 2.25.96c.66.54 1.28 1.04 2.75 1.04s2.09-.5 2.75-1.04c.57-.47 1.17-.96 2.25-.96s1.68.49 2.25.96c.66.54 1.28 1.04 2.75 1.04.28 0 .5.22.5.5z"/><path fill="#ACF0F2" d="M22 28.5c0 .28-.22.5-.5.5-1.83 0-2.69-.7-3.38-1.26-.52-.43-.9-.74-1.62-.74s-1.1.31-1.62.74c-.69.56-1.55 1.26-3.38 1.26s-2.69-.7-3.38-1.26c-.52-.43-.9-.74-1.62-.74-.72 0-1.1.31-1.62.74C4.19 28.3 3.33 29 1.5 29c-.28 0-.5-.22-.5-.5s.22-.5.5-.5c1.47 0 2.09-.5 2.75-1.04.57-.47 1.17-.96 2.25-.96s1.68.49 2.25.96c.66.54 1.28 1.04 2.75 1.04s2.09-.5 2.75-1.04c.57-.47 1.17-.96 2.25-.96s1.68.49 2.25.96c.66.54 1.28 1.04 2.75 1.04.28 0 .5.22.5.5z"/><path fill="#4D5152" d="M31 24.5c0 .28-.22.5-.5.5-1.83 0-2.69-.7-3.38-1.26-.52-.43-.9-.74-1.62-.74s-1.1.31-1.62.74c-.69.56-1.55 1.26-3.38 1.26s-2.69-.7-3.38-1.26c-.52-.43-.9-.74-1.62-.74-.72 0-1.1.31-1.62.74-.69.56-1.55 1.26-3.38 1.26-.28 0-.5-.22-.5-.5s.22-.5.5-.5c1.47 0 2.09-.5 2.75-1.04.57-.47 1.17-.96 2.25-.96s1.68.49 2.25.96c.66.54 1.28 1.04 2.75 1.04s2.09-.5 2.75-1.04c.57-.47 1.17-.96 2.25-.96s1.68.49 2.25.96c.66.54 1.28 1.04 2.75 1.04.28 0 .5.22.5.5zm-9 3c0 .28-.22.5-.5.5-1.83 0-2.69-.7-3.38-1.26-.52-.43-.9-.74-1.62-.74s-1.1.31-1.62.74c-.69.56-1.55 1.26-3.38 1.26s-2.69-.7-3.38-1.26c-.52-.43-.9-.74-1.62-.74-.72 0-1.1.31-1.62.74C4.19 27.3 3.33 28 1.5 28c-.28 0-.5-.22-.5-.5s.22-.5.5-.5c1.47 0 2.09-.5 2.75-1.04.57-.47 1.17-.96 2.25-.96s1.68.49 2.25.96c.66.54 1.28 1.04 2.75 1.04s2.09-.5 2.75-1.04c.57-.47 1.17-.96 2.25-.96s1.68.49 2.25.96c.66.54 1.28 1.04 2.75 1.04.28 0 .5.22.5.5z"/><path fill="#67DDE0" d="M31 31.5c0 .28-.22.5-.5.5-1.83 0-2.69-.7-3.38-1.26-.52-.43-.9-.74-1.62-.74s-1.1.31-1.62.74c-.69.56-1.55 1.26-3.38 1.26s-2.69-.7-3.38-1.26c-.52-.43-.9-.74-1.62-.74-.72 0-1.1.31-1.62.74-.69.56-1.55 1.26-3.38 1.26-.28 0-.5-.22-.5-.5s.22-.5.5-.5c1.47 0 2.09-.5 2.75-1.04.57-.47 1.17-.96 2.25-.96s1.68.49 2.25.96c.66.54 1.28 1.04 2.75 1.04s2.09-.5 2.75-1.04c.57-.47 1.17-.96 2.25-.96s1.68.49 2.25.96c.66.54 1.28 1.04 2.75 1.04.28 0 .5.22.5.5z"/><path fill="#4D5152" d="M31 30.5c0 .28-.22.5-.5.5-1.83 0-2.69-.7-3.38-1.26-.52-.43-.9-.74-1.62-.74s-1.1.31-1.62.74c-.69.56-1.55 1.26-3.38 1.26s-2.69-.7-3.38-1.26c-.52-.43-.9-.74-1.62-.74-.72 0-1.1.31-1.62.74-.69.56-1.55 1.26-3.38 1.26-.28 0-.5-.22-.5-.5s.22-.5.5-.5c1.47 0 2.09-.5 2.75-1.04.57-.47 1.17-.96 2.25-.96s1.68.49 2.25.96c.66.54 1.28 1.04 2.75 1.04s2.09-.5 2.75-1.04c.57-.47 1.17-.96 2.25-.96s1.68.49 2.25.96c.66.54 1.28 1.04 2.75 1.04.28 0 .5.22.5.5z"/></svg>