<svg xmlns="http://www.w3.org/2000/svg" width="32" height="32" viewBox="0 0 32 32"><path fill="#67DDE0" d="M16 6s6 6 6 11c0 6-6 6-6 6s-6 0-6-6c0-5 6-11 6-11m-5 20c0 1.66-1.34 3-3 3s-3-1.34-3-3 1.34-3 3-3 3 1.34 3 3m1-21c0 1.1-.9 2-2 2s-2-.9-2-2 .9-2 2-2 2 .9 2 2m-4 9.5a2.5 2.5 0 0 1-5 0 2.5 2.5 0 0 1 5 0M24 26c0 1.1-.9 2-2 2s-2-.9-2-2 .9-2 2-2 2 .9 2 2m6-7.5a2.5 2.5 0 0 1-5 0 2.5 2.5 0 0 1 5 0"/><path fill="#4D5152" d="M16 6s-6 6-6 11c0 6 6 6 6 6s6 0 6-6c0-5-6-11-6-11m0 16c-.2 0-5-.06-5-5 0-3.55 3.47-7.82 5-9.53 1.53 1.71 5 5.98 5 9.53 0 4.82-4.49 5-5 5m-8 1c-1.66 0-3 1.34-3 3s1.34 3 3 3 3-1.34 3-3-1.34-3-3-3m0 5c-1.1 0-2-.9-2-2s.9-2 2-2 2 .9 2 2-.9 2-2 2"/><path fill="#67DDE0" d="M28 6c0 1.66-1.34 3-3 3s-3-1.34-3-3 1.34-3 3-3 3 1.34 3 3"/><path fill="#4D5152" d="M25 3c-1.66 0-3 1.34-3 3s1.34 3 3 3 3-1.34 3-3-1.34-3-3-3m0 5c-1.1 0-2-.9-2-2s.9-2 2-2 2 .9 2 2-.9 2-2 2M10 3c-1.1 0-2 .9-2 2s.9 2 2 2 2-.9 2-2-.9-2-2-2m0 3c-.55 0-1-.45-1-1s.45-1 1-1 1 .45 1 1-.45 1-1 1m17.5 10a2.5 2.5 0 0 0 0 5 2.5 2.5 0 0 0 0-5m0 4c-.83 0-1.5-.67-1.5-1.5s.67-1.5 1.5-1.5 1.5.67 1.5 1.5-.67 1.5-1.5 1.5m-22-8a2.5 2.5 0 0 0 0 5 2.5 2.5 0 0 0 0-5m0 4c-.83 0-1.5-.67-1.5-1.5S4.67 13 5.5 13s1.5.67 1.5 1.5S6.33 16 5.5 16M22 24c-1.1 0-2 .9-2 2s.9 2 2 2 2-.9 2-2-.9-2-2-2m0 3c-.55 0-1-.45-1-1s.45-1 1-1 1 .45 1 1-.45 1-1 1"/><path fill="#67DDE0" d="M18 16c0-1.66 1.34-3 3-3s3 1.34 3 3-1.34 3-3 3-3-1.34-3-3"/><path fill="#4D5152" d="M21 13c-1.66 0-3 1.34-3 3s1.34 3 3 3 3-1.34 3-3-1.34-3-3-3m0 5c-1.1 0-2-.9-2-2s.9-2 2-2 2 .9 2 2-.9 2-2 2"/></svg>