<svg xmlns="http://www.w3.org/2000/svg" width="32" height="32" viewBox="0 0 32 32"><circle fill="#FFD878" cx="16" cy="16" r="14"/><path fill="none" stroke="#4D5152" stroke-miterlimit="10" d="M12.5 8.5s0-3 3-3c4 0 6 4 4 10s-5 16-5 16"/><path fill="#C9A287" d="M17 12v6l-3-2-2 3-2-3-3 2v-6c0-4 5-4 5-4s5 0 5 4z"/><path fill="#75EA9C" d="M28.01 19s-1 3-4 4c-.43.14-.859.2-1.279.2-2.4 0-4.521-2-4.721-2.2 0 0 2-4 5-4s5 2 5 2z"/><path fill="#4D5152" d="M12.001 9C12.179 9 16 9.04 16 12v4.132l-1.445-.964-.832-.555-.555.832L12 17.197l-1.168-1.752-.555-.832-.832.555L8 16.132V12c0-2.934 3.814-2.999 4.001-3M12 8s-5 0-5 4v6l3-2 2 3 2-3 3 2v-6c0-4-5-4-5-4zm11.01 10c1.721 0 3.081.784 3.779 1.29-.421.803-1.366 2.185-3.096 2.762a3.045 3.045 0 0 1-.961.152c-1.313 0-2.645-.798-3.439-1.413C19.939 19.79 21.331 18 23.01 18m0-1c-3 0-5 4-5 4 .196.195 2.319 2.204 4.725 2.204.42 0 .849-.062 1.275-.204 3-1 4-4 4-4s-2-2-5-2z"/><path fill="#75EA9C" d="M7.01 23s1 3 4 4c.43.14.859.2 1.279.2 2.4 0 4.521-2 4.721-2.2 0 0-2-4-5-4s-5 2-5 2z"/><path fill="#4D5152" d="M12.01 22c1.679 0 3.07 1.79 3.717 2.791-.795.615-2.127 1.413-3.439 1.413-.334 0-.656-.052-.961-.152-1.729-.577-2.675-1.959-3.096-2.762.698-.506 2.058-1.29 3.779-1.29m0-1c-3 0-5 2-5 2s1 3 4 4c.427.143.855.204 1.275.204 2.405 0 4.528-2.009 4.725-2.204 0 0-2-4-5-4z"/></svg>