<?xml version="1.0" encoding="iso-8859-1"?>
<!-- Generator: Adobe Illustrator 16.0.0, SVG Export Plug-In . SVG Version: 6.00 Build 0)  -->
<!DOCTYPE svg PUBLIC "-//W3C//DTD SVG 1.1//EN" "http://www.w3.org/Graphics/SVG/1.1/DTD/svg11.dtd">
<svg version="1.1" id="Layer_1" xmlns="http://www.w3.org/2000/svg" xmlns:xlink="http://www.w3.org/1999/xlink" x="0px" y="0px"
	 width="32px" height="14px" viewBox="0 0 32 14" style="enable-background:new 0 0 32 14;" xml:space="preserve">
<g id="Tongue_6_">
	<g>
		<path style="fill:#666666;" d="M15,0c-1,0-4,1-4,2s1,1,1,1l14,4C26,7,17,0,15,0z"/>
	</g>
</g>
<g id="Upper_7_">
	<g>
		<path style="fill:#E6E6E6;" d="M25,6c-6-3-9-5-10-5s-2,1-3,2S9,5,7,5S3,1,2,1S0,5,0,8v4l27-1C27,11,27,7,25,6z"/>
	</g>
</g>
<g id="Stripes">
	<g>
		<path style="fill:#666666;" d="M19.8,5.399l-4.8,5.6h2L21.2,6.1L19.8,5.399z M17,4l-6,6.999h2l5.4-6.3L17,4z M22.6,6.8L19,10.999
			h2L24,7.5L22.6,6.8z"/>
	</g>
</g>
<g id="Design_5_">
	<g>
		<path style="fill-rule:evenodd;clip-rule:evenodd;fill:#666666;" d="M0.13,5.983C0.993,5.895,1.049,5,2,5c2,0,2,1,4,1c1,0,1-1,1-1
			C5,5,3,1,2,1C1.214,1,0.431,3.47,0.13,5.983z"/>
	</g>
</g>
<g id="Sole_6_">
	<g>
		<path style="fill-rule:evenodd;clip-rule:evenodd;fill:#CCCCCC;" d="M32,10.999L32,10.999L32,10.999C32,8,31,7,29,7c-1,0-2,0-4-1
			c1.448,0.724,1.846,3.014,1.956,4.227c-1.661,0.413-3.905,0.772-6.956,0.772c-2,0-18.286,0-19,0c-1,0-1,0-1,1.001
			c0,0.296,0,0.482,0,1c0,1,0,1,1,1c0.569,0,16,0,19,0C26.998,14,31.997,12.001,32,10.999L32,10.999L32,10.999z"/>
	</g>
</g>
<g>
</g>
<g>
</g>
<g>
</g>
<g>
</g>
<g>
</g>
<g>
</g>
<g>
</g>
<g>
</g>
<g>
</g>
<g>
</g>
<g>
</g>
<g>
</g>
<g>
</g>
<g>
</g>
<g>
</g>
</svg>
