<?xml version="1.0" encoding="iso-8859-1"?>
<!-- Generator: Adobe Illustrator 16.0.0, SVG Export Plug-In . SVG Version: 6.00 Build 0)  -->
<!DOCTYPE svg PUBLIC "-//W3C//DTD SVG 1.1//EN" "http://www.w3.org/Graphics/SVG/1.1/DTD/svg11.dtd">
<svg version="1.1" id="Layer_1" xmlns="http://www.w3.org/2000/svg" xmlns:xlink="http://www.w3.org/1999/xlink" x="0px" y="0px"
	 width="32px" height="32px" viewBox="0 0 32 32" style="enable-background:new 0 0 32 32;" xml:space="preserve">
<g id="Body_47_">
	<g>
		<path style="fill:#E6E6E6;" d="M30,0H2C0.896,0,0,0.895,0,2v28c0,1.104,0.896,2,2,2h28c1.104,0,2-0.896,2-2V2
			C32,0.895,31.104,0,30,0z"/>
	</g>
</g>
<g id="Apple_Logo_3_">
	<g>
		<path style="fill-rule:evenodd;clip-rule:evenodd;fill:#4D4D4D;" d="M18.07,10.987c-0.556,0.019-1.229,0.318-1.628,0.722
			c-0.358,0.357-0.671,0.929-0.587,1.477c0.62,0.042,1.253-0.271,1.64-0.675C17.88,12.106,18.141,11.546,18.07,10.987z
			 M18.678,16.372c-0.012-1.254,1.015-1.855,1.061-1.885c-0.576-0.852-1.476-0.968-1.796-0.98c-0.765-0.079-1.492,0.453-1.88,0.453
			s-0.986-0.443-1.621-0.432c-0.834,0.014-1.603,0.488-2.031,1.242c-0.866,1.515-0.222,3.759,0.622,4.987
			c0.413,0.602,0.905,1.276,1.55,1.252c0.623-0.024,0.858-0.405,1.61-0.405c0.751,0,0.963,0.405,1.62,0.393
			c0.67-0.012,1.094-0.612,1.504-1.216c0.473-0.697,0.668-1.373,0.68-1.407C19.981,18.366,18.691,17.869,18.678,16.372z"/>
	</g>
</g>
<g>
</g>
<g>
</g>
<g>
</g>
<g>
</g>
<g>
</g>
<g>
</g>
<g>
</g>
<g>
</g>
<g>
</g>
<g>
</g>
<g>
</g>
<g>
</g>
<g>
</g>
<g>
</g>
<g>
</g>
</svg>
