<?xml version="1.0" encoding="iso-8859-1"?>
<!-- Generator: Adobe Illustrator 16.0.0, SVG Export Plug-In . SVG Version: 6.00 Build 0)  -->
<!DOCTYPE svg PUBLIC "-//W3C//DTD SVG 1.1//EN" "http://www.w3.org/Graphics/SVG/1.1/DTD/svg11.dtd">
<svg version="1.1" id="Layer_1" xmlns="http://www.w3.org/2000/svg" xmlns:xlink="http://www.w3.org/1999/xlink" x="0px" y="0px"
	 width="18px" height="32px" viewBox="0 0 18 32" style="enable-background:new 0 0 18 32;" xml:space="preserve">
<g id="Buckle_7_">
	<g>
		<path style="fill-rule:evenodd;clip-rule:evenodd;fill:#88C057;" d="M16,6c0,0-0.724-0.099-1-1l-0.889-4c0-0.553-0.455-1-1.016-1
			H4.968C4.407,0,3.952,0.447,3.952,1L3,5C2.733,6.151,2,6,2,6v1h14V6C15.827,5.984,16,6,16,6z M2,26C2.173,26.016,2,26,2,26
			s0.724,0.098,1,1l0.889,4c0,0.552,0.455,1,1.016,1h8.127c0.561,0,1.016-0.448,1.016-1L15,27c0.267-1.151,1-1,1-1v-1H2V26z"/>
	</g>
</g>
<g id="Frame_20_">
	<g>
		<path style="fill:#333333;" d="M15,6H3C1.343,6,0,7.343,0,9v14c0,1.656,1.343,3,3,3h12c1.657,0,3-1.344,3-3V9
			C18,7.343,16.657,6,15,6z"/>
	</g>
</g>
<g id="Display_24_">
	<g>
		<rect x="2.01" y="9.002" style="fill:#4D4D4D;" width="13.983" height="13.995"/>
	</g>
</g>
<g id="App_Shape_42_">
	<g>
		<circle style="fill:#EAF1F6;" cx="9" cy="16" r="2"/>
	</g>
</g>
<g id="App_Shape_43_">
	<g>
		<circle style="fill:#48A0DC;" cx="11" cy="12" r="1"/>
	</g>
</g>
<g id="App_Shape_44_">
	<g>
		<circle style="fill:#FFCC66;" cx="11" cy="20" r="1"/>
	</g>
</g>
<g id="App_Shape_45_">
	<g>
		<circle style="fill:#88C057;" cx="13" cy="16" r="1"/>
	</g>
</g>
<g id="App_Shape_46_">
	<g>
		<circle style="fill:#9B7CAB;" cx="5" cy="16" r="1"/>
	</g>
</g>
<g id="App_Shape_47_">
	<g>
		<circle style="fill:#FF8833;" cx="7" cy="12" r="1"/>
	</g>
</g>
<g id="App_Shape_48_">
	<g>
		<circle style="fill:#F06EAA;" cx="7" cy="20" r="1"/>
	</g>
</g>
<g>
</g>
<g>
</g>
<g>
</g>
<g>
</g>
<g>
</g>
<g>
</g>
<g>
</g>
<g>
</g>
<g>
</g>
<g>
</g>
<g>
</g>
<g>
</g>
<g>
</g>
<g>
</g>
<g>
</g>
</svg>
