<?xml version="1.0" encoding="iso-8859-1"?>
<!-- Generator: Adobe Illustrator 16.0.0, SVG Export Plug-In . SVG Version: 6.00 Build 0)  -->
<!DOCTYPE svg PUBLIC "-//W3C//DTD SVG 1.1//EN" "http://www.w3.org/Graphics/SVG/1.1/DTD/svg11.dtd">
<svg version="1.1" id="Layer_1" xmlns="http://www.w3.org/2000/svg" xmlns:xlink="http://www.w3.org/1999/xlink" x="0px" y="0px"
	 width="28px" height="31.999px" viewBox="0 0 28 31.999" style="enable-background:new 0 0 28 31.999;" xml:space="preserve">
<g id="String_5_">
	<g>
		<path style="fill:#CCCCCC;" d="M17.35,26.026c-0.458-0.112-0.927,0.128-1.047,0.538l-1.301,4.454
			c-0.12,0.41,0.155,0.833,0.613,0.946c0.458,0.112,0.928-0.128,1.047-0.538l1.302-4.454C18.083,26.563,17.808,26.139,17.35,26.026z
			"/>
	</g>
</g>
<g id="Balloon">
	<g>
		<path style="fill:#48A0DC;" d="M22.588,6.294c-3.917-1.1-7.787,0.724-9.151,6.056c-1.365,5.333,0.499,11.353,4.416,12.451
			c3.917,1.1,8.404-3.138,9.769-8.471C28.987,10.998,26.506,7.393,22.588,6.294z"/>
	</g>
</g>
<g id="Balloon_6_">
	<g>
		<path style="fill:#387BA8;" d="M18.15,24.057c-1.418-0.405-2.973,1.272-3.122,1.868s0.231,0.986,0.609,1.095
			s2.922,0.836,3.3,0.944c0.378,0.107,0.891-0.027,1.041-0.623C20.128,26.745,19.568,24.463,18.15,24.057z"/>
	</g>
</g>
<g id="String_2_">
	<g>
		<path style="fill:#CCCCCC;" d="M8.995,23.999c-0.552,0-1,0.448-1,1v6c0,0.553,0.447,1,1,1c0.552,0,1-0.447,1-1v-6
			C9.994,24.447,9.546,23.999,8.995,23.999z"/>
	</g>
</g>
<g id="Balloon_2_">
	<g>
		<path style="fill:#ED7161;" d="M8.995,0C4.027,0,0,3.372,0,10c0,6.627,4.027,13,8.995,13s8.995-6.373,8.995-13
			C17.989,3.372,13.962,0,8.995,0z"/>
	</g>
</g>
<g id="Balloon_3_">
	<g>
		<path style="fill:#D46557;" d="M8.995,21.999c-1.718,0-2.998,2.307-2.998,3c0,0.694,0.541,1.001,1,1.001h3.998
			c0.458,0,0.999-0.307,0.999-1.001C11.993,24.306,10.712,21.999,8.995,21.999z"/>
	</g>
</g>
<g>
</g>
<g>
</g>
<g>
</g>
<g>
</g>
<g>
</g>
<g>
</g>
<g>
</g>
<g>
</g>
<g>
</g>
<g>
</g>
<g>
</g>
<g>
</g>
<g>
</g>
<g>
</g>
<g>
</g>
</svg>
