<?xml version="1.0" encoding="iso-8859-1"?>
<!-- Generator: Adobe Illustrator 16.0.0, SVG Export Plug-In . SVG Version: 6.00 Build 0)  -->
<!DOCTYPE svg PUBLIC "-//W3C//DTD SVG 1.1//EN" "http://www.w3.org/Graphics/SVG/1.1/DTD/svg11.dtd">
<svg version="1.1" id="Layer_1" xmlns="http://www.w3.org/2000/svg" xmlns:xlink="http://www.w3.org/1999/xlink" x="0px" y="0px"
	 width="32px" height="24px" viewBox="0 0 32 24" style="enable-background:new 0 0 32 24;" xml:space="preserve">
<g id="Bedge">
	<g>
		<path style="fill:#CCCCCC;" d="M30,2.001H2C0.896,2.001,0,2.896,0,4v18c0,1.105,0.896,2,2,2h28c1.104,0,2-0.895,2-2V4
			C32,2.896,31.104,2.001,30,2.001z"/>
	</g>
</g>
<g id="Container">
	<g>
		<path style="fill:#FFFFFF;" d="M29,4H3C2.447,4,2,4.447,2,5v16c0,0.553,0.447,1,1,1h26c0.552,0,1-0.447,1-1V5
			C30,4.447,29.552,4,29,4z"/>
	</g>
</g>
<g id="Clips">
	<g>
		<rect x="10" style="fill:#999999;" width="12" height="4"/>
	</g>
</g>
<g id="Text">
	<g>
		<path style="fill-rule:evenodd;clip-rule:evenodd;fill:#CCCCCC;" d="M25,10h-6c-0.553,0-1,0.447-1,1c0,0.552,0.447,1,1,1h6
			c0.553,0,1-0.448,1-1C26,10.447,25.553,10,25,10z M23,14h-4c-0.553,0-1,0.447-1,1c0,0.552,0.447,1,1,1h4c0.553,0,1-0.448,1-1
			C24,14.447,23.553,14,23,14z"/>
	</g>
</g>
<g id="User">
	<g>
		<path style="fill:#48A0DC;" d="M12,15v-0.512c0.604-0.456,1-1.174,1-1.988v-2C13,9.119,11.881,8,10.5,8S8,9.119,8,10.5v2
			c0,0.814,0.396,1.532,1,1.988V15c0,0.5-3,0.5-3,2v1h9v-1C15,15.5,12,15.5,12,15z"/>
	</g>
</g>
<g>
</g>
<g>
</g>
<g>
</g>
<g>
</g>
<g>
</g>
<g>
</g>
<g>
</g>
<g>
</g>
<g>
</g>
<g>
</g>
<g>
</g>
<g>
</g>
<g>
</g>
<g>
</g>
<g>
</g>
</svg>
