<?xml version="1.0" encoding="iso-8859-1"?>
<!-- Generator: Adobe Illustrator 16.0.0, SVG Export Plug-In . SVG Version: 6.00 Build 0)  -->
<!DOCTYPE svg PUBLIC "-//W3C//DTD SVG 1.1//EN" "http://www.w3.org/Graphics/SVG/1.1/DTD/svg11.dtd">
<svg version="1.1" id="Layer_1" xmlns="http://www.w3.org/2000/svg" xmlns:xlink="http://www.w3.org/1999/xlink" x="0px" y="0px"
	 width="32px" height="24px" viewBox="0 0 32 24" style="enable-background:new 0 0 32 24;" xml:space="preserve">
<g id="Antennas">
	<g>
		<path style="fill-rule:evenodd;clip-rule:evenodd;fill:#999999;" d="M12,0c-0.552,0-1,0.447-1,1c0,0.552,0.448,1,1,1s1,0.896,1,2
			v10h2V4C15,1.791,13.657,0,12,0z M20,0c-1.657,0-3,1.791-3,4v10h2V4c0-1.104,0.448-2,1-2s1-0.448,1-1C21,0.447,20.552,0,20,0z"/>
	</g>
</g>
<g id="Wings">
	<g>
		<path style="fill-rule:evenodd;clip-rule:evenodd;fill:#666666;" d="M32,7c0-4-1-5-5-5c-6,0-10,6-10,6v5v1v4c0,0,1,6,5,6
			c0.961,0,4-1,4-5c0-1.191-0.807-2.201-1.928-3.038C24.38,15.984,24.69,16,25,16C29,16,32,11,32,7z M5,2C1,2,0,3,0,7s3,9,7,9
			c0.31,0,0.62-0.016,0.928-0.038C6.807,16.799,6,17.809,6,19c0,4,3.039,5,4,5c4,0,5-6,5-6v-4v-1V8C15,8,11,2,5,2z"/>
	</g>
</g>
<g id="Decoration_5_">
	<g>
		<path style="fill-rule:evenodd;clip-rule:evenodd;fill:#FF8833;" d="M17,15c0,0,2,7,5,7c0.961,0,2-1,2-3S17,15,17,15z M8,19
			c0,2,1.039,3,2,3c3,0,5-7,5-7S8,17,8,19z M4,8c0,4,1,6,3,6c4,0,8-2,8-2v-2c0,0-5-4-9-4C5,6,4,7,4,8z M26,6c-4,0-9,4-9,4v2
			c0,0,4,2,8,2c2,0,3-2,3-6C28,7,27,6,26,6z"/>
	</g>
</g>
<g id="Body_3_">
	<g>
		<ellipse style="fill:#666666;" cx="16" cy="14" rx="2" ry="9"/>
	</g>
</g>
<g>
</g>
<g>
</g>
<g>
</g>
<g>
</g>
<g>
</g>
<g>
</g>
<g>
</g>
<g>
</g>
<g>
</g>
<g>
</g>
<g>
</g>
<g>
</g>
<g>
</g>
<g>
</g>
<g>
</g>
</svg>
