<?xml version="1.0" encoding="iso-8859-1"?>
<!-- Generator: Adobe Illustrator 16.0.0, SVG Export Plug-In . SVG Version: 6.00 Build 0)  -->
<!DOCTYPE svg PUBLIC "-//W3C//DTD SVG 1.1//EN" "http://www.w3.org/Graphics/SVG/1.1/DTD/svg11.dtd">
<svg version="1.1" id="Layer_1" xmlns="http://www.w3.org/2000/svg" xmlns:xlink="http://www.w3.org/1999/xlink" x="0px" y="0px"
	 width="32px" height="22px" viewBox="0 0 32 22" style="enable-background:new 0 0 32 22;" xml:space="preserve">
<g id="Card_7_">
	<g>
		<path style="fill:#9B7CAB;" d="M30,0H2C0.896,0,0,0.896,0,2v18c0,1.104,0.896,2,2,2h28c1.104,0,2-0.896,2-2V2
			C32,0.896,31.104,0,30,0z"/>
	</g>
</g>
<g id="Skrill">
	<g>
		<path style="fill-rule:evenodd;clip-rule:evenodd;fill:#FFFFFF;" d="M13.501,8.853c-0.048,0.12-0.395,1.094-1.233,2.103V6.641
			l-2.234,0.438v7.822h2.234v-2.418c0.647,0.965,0.967,2.418,0.967,2.418h2.676c-0.265-1.094-1.423-3.112-1.423-3.112
			c1.039-1.31,1.496-2.705,1.568-2.937H13.501z M19.375,8.771c-2.001,0.063-3.017,0.957-3.017,2.731v3.399h2.183v-2.772
			c0-1.063,0.14-1.518,1.408-1.562V8.802C19.736,8.757,19.375,8.771,19.375,8.771z M6.287,9.714
			C6.013,9.695,5.379,9.655,5.379,9.088c0-0.685,0.913-0.685,1.254-0.685c0.602,0,1.381,0.177,1.938,0.343
			c0,0,0.31,0.108,0.574,0.22L9.17,8.973V8.947V7.099L9.136,7.088C8.479,6.859,7.716,6.641,6.3,6.641
			c-2.441,0-3.306,1.414-3.306,2.624c0,0.698,0.301,2.342,3.096,2.531c0.237,0.015,0.866,0.051,0.866,0.637
			c0,0.483-0.515,0.77-1.38,0.77c-0.949,0-1.87-0.241-2.429-0.47v1.931c0.837,0.219,1.781,0.327,2.887,0.327
			c2.387,0,3.456-1.338,3.456-2.663C9.489,10.824,8.293,9.848,6.287,9.714z M26.839,7.025v7.876h2.166V6.641L26.839,7.025z
			 M23.679,14.901h2.164V6.641l-2.164,0.385V14.901z M20.596,14.901h2.166V8.859h-2.166V14.901z M21.678,8.064
			c0.589,0,1.067-0.46,1.067-1.027S22.268,6.01,21.678,6.01s-1.067,0.46-1.067,1.027S21.089,8.064,21.678,8.064z"/>
	</g>
</g>
<g>
</g>
<g>
</g>
<g>
</g>
<g>
</g>
<g>
</g>
<g>
</g>
<g>
</g>
<g>
</g>
<g>
</g>
<g>
</g>
<g>
</g>
<g>
</g>
<g>
</g>
<g>
</g>
<g>
</g>
</svg>
