<?xml version="1.0" encoding="iso-8859-1"?>
<!-- Generator: Adobe Illustrator 16.0.0, SVG Export Plug-In . SVG Version: 6.00 Build 0)  -->
<!DOCTYPE svg PUBLIC "-//W3C//DTD SVG 1.1//EN" "http://www.w3.org/Graphics/SVG/1.1/DTD/svg11.dtd">
<svg version="1.1" id="Layer_1" xmlns="http://www.w3.org/2000/svg" xmlns:xlink="http://www.w3.org/1999/xlink" x="0px" y="0px"
	 width="32px" height="23px" viewBox="0 0 32 23" style="enable-background:new 0 0 32 23;" xml:space="preserve">
<g id="Cloud_4_">
	<g>
		<path style="fill-rule:evenodd;clip-rule:evenodd;fill:#48A0DC;" d="M26.976,9.301c0.003-0.102,0.015-0.201,0.015-0.304
			C26.991,4.028,22.96,0,17.989,0c-3.719,0-6.91,2.255-8.283,5.471C9.03,5.173,8.285,5.006,7.5,5.006
			c-3.035,0-5.496,2.463-5.496,5.5c0,0.193,0.011,0.385,0.03,0.573C0.777,12.343,0,14.084,0,16.007C0,19.869,3.133,23,6.998,23
			c0.005,0,0.01-0.001,0.016-0.001V23h17.974v-0.001c0.005,0,0.01,0.001,0.015,0.001C28.867,23,32,19.869,32,16.007
			C32,12.83,29.879,10.152,26.976,9.301z"/>
	</g>
</g>
<g id="Arrow_1_">
	<g>
		<path style="fill-rule:evenodd;clip-rule:evenodd;fill:#FFFFFF;" d="M19.675,13.293c-0.405-0.403-1.062-0.403-1.466,0L17,14.497V9
			c0-0.553-0.448-1-1-1c-0.553,0-1,0.447-1,1v5.545l-1.246-1.25c-0.403-0.404-1.057-0.404-1.46,0s-0.403,1.061,0,1.466l2.921,2.93
			c0.194,0.195,0.446,0.285,0.7,0.292C15.944,17.985,15.97,18,16,18c0.19,0,0.358-0.067,0.51-0.16
			c0.054-0.028,0.104-0.064,0.153-0.103c0.016-0.015,0.035-0.023,0.05-0.038c0.009-0.009,0.021-0.014,0.029-0.022l2.933-2.923
			C20.08,14.351,20.08,13.696,19.675,13.293z"/>
	</g>
</g>
<g>
</g>
<g>
</g>
<g>
</g>
<g>
</g>
<g>
</g>
<g>
</g>
<g>
</g>
<g>
</g>
<g>
</g>
<g>
</g>
<g>
</g>
<g>
</g>
<g>
</g>
<g>
</g>
<g>
</g>
</svg>
