<?xml version="1.0" encoding="iso-8859-1"?>
<!-- Generator: Adobe Illustrator 16.0.0, SVG Export Plug-In . SVG Version: 6.00 Build 0)  -->
<!DOCTYPE svg PUBLIC "-//W3C//DTD SVG 1.1//EN" "http://www.w3.org/Graphics/SVG/1.1/DTD/svg11.dtd">
<svg version="1.1" id="Layer_1" xmlns="http://www.w3.org/2000/svg" xmlns:xlink="http://www.w3.org/1999/xlink" x="0px" y="0px"
	 width="32px" height="32px" viewBox="0 0 32 32" style="enable-background:new 0 0 32 32;" xml:space="preserve">
<g id="Pins_9_">
	<g>
		<path style="fill-rule:evenodd;clip-rule:evenodd;fill:#FFCC66;" d="M31,13c0.553,0,1-0.448,1-1c0-0.553-0.447-1-1-1h-6V9h6
			c0.553,0,1-0.448,1-1c0-0.553-0.447-1-1-1h-6V1c0-0.553-0.448-1-1-1c-0.553,0-1,0.447-1,1v6h-2V1c0-0.553-0.448-1-1-1
			c-0.553,0-1,0.447-1,1v6h-2V1c0-0.553-0.447-1-1-1s-1,0.447-1,1v6h-2V1c0-0.553-0.447-1-1-1s-1,0.447-1,1v6H9V1
			c0-0.553-0.448-1-1-1C7.447,0,7,0.447,7,1v6H1C0.447,7,0,7.447,0,8c0,0.552,0.447,1,1,1h6v2H1c-0.553,0-1,0.447-1,1
			c0,0.552,0.447,1,1,1h6v2H1c-0.553,0-1,0.447-1,1c0,0.552,0.447,1,1,1h6v2H1c-0.553,0-1,0.447-1,1c0,0.552,0.447,1,1,1h6v2H1
			c-0.553,0-1,0.447-1,1c0,0.552,0.447,1,1,1h6v6c0,0.552,0.447,1,1,1c0.552,0,1-0.448,1-1v-6h2v6c0,0.552,0.447,1,1,1s1-0.448,1-1
			v-6h2v6c0,0.552,0.447,1,1,1s1-0.448,1-1v-6h2v6c0,0.552,0.447,1,1,1c0.552,0,1-0.448,1-1v-6h2v6c0,0.552,0.447,1,1,1
			c0.552,0,1-0.448,1-1v-6h6c0.553,0,1-0.448,1-1c0-0.553-0.447-1-1-1h-6v-2h6c0.553,0,1-0.448,1-1c0-0.553-0.447-1-1-1h-6v-2h6
			c0.553,0,1-0.448,1-1c0-0.553-0.447-1-1-1h-6v-2H31z M23,9v2h-2V9H23z M19,9v2h-2V9H19z M15,17v2h-2v-2H15z M13,15v-2h2v2H13z
			 M17,17h2v2h-2V17z M17,15v-2h2v2H17z M15,9v2h-2V9H15z M9,9h2v2H9V9z M9,13h2v2H9V13z M9,17h2v2H9V17z M9,23v-2h2v2H9z M13,23v-2
			h2v2H13z M17,23v-2h2v2H17z M23,23h-2v-2h2V23z M23,19h-2v-2h2V19z M23,15h-2v-2h2V15z"/>
	</g>
</g>
<g id="Body_25_">
	<g>
		<path style="fill:#4D4D4D;" d="M25,5H7C5.896,5,5,5.896,5,7v18c0,1.104,0.896,2,2,2h18c1.104,0,2-0.896,2-2V7
			C27,5.896,26.104,5,25,5z"/>
	</g>
</g>
<g id="Shape_6_">
	<g>
		<path style="fill:#808080;" d="M24,7H8C7.447,7,7,7.447,7,8v16c0,0.552,0.447,1,1,1h16c0.552,0,1-0.448,1-1V8
			C25,7.447,24.552,7,24,7z"/>
	</g>
</g>
<g id="_x36_4">
	<g>
		<path style="fill-rule:evenodd;clip-rule:evenodd;fill:#FFFFFF;" d="M23,15.999v-4c0-0.446-0.297-0.811-0.701-0.938
			c-0.057-0.021-0.114-0.025-0.174-0.035C22.082,11.02,22.045,11,22,11c-0.014,0-0.024,0.007-0.037,0.008
			c-0.291,0-0.58,0.115-0.782,0.365l-3.938,4.879c-0.152,0.188-0.214,0.417-0.222,0.646C17.017,16.933,17,16.963,17,16.999
			c0,0.449,0.301,0.814,0.707,0.94c0.028,0.01,0.057,0.011,0.086,0.018c0.069,0.016,0.134,0.042,0.207,0.042h3v1
			C21,19.552,21.448,20,22,20c0.553,0,1-0.448,1-1.001v-1c0.552,0,1-0.447,1-1C24,16.447,23.552,15.999,23,15.999z M21,15.999
			h-0.887L21,14.9V15.999z M12,13.994c-0.147,0-0.289,0.023-0.431,0.044c0.285-0.492,0.663-0.862,1.124-1.323
			c0.003-0.003,0.004-0.008,0.007-0.011c0.188-0.182,0.305-0.435,0.305-0.717c0-0.554-0.449-1.003-1.005-1.003
			c-0.19,0-0.359,0.067-0.511,0.159c-0.065,0.035-0.134,0.067-0.183,0.116c-1.106,1.104-2.322,2.423-2.322,5.745
			c0,1.66,1.353,3.01,3.016,3.01s3.016-1.35,3.016-3.01S13.663,13.994,12,13.994z M12,18.008c-0.555,0-1.005-0.45-1.005-1.003
			c0-0.554,0.45-1.004,1.005-1.004c0.554,0,1.005,0.45,1.005,1.004C13.005,17.558,12.554,18.008,12,18.008z"/>
	</g>
</g>
<g>
</g>
<g>
</g>
<g>
</g>
<g>
</g>
<g>
</g>
<g>
</g>
<g>
</g>
<g>
</g>
<g>
</g>
<g>
</g>
<g>
</g>
<g>
</g>
<g>
</g>
<g>
</g>
<g>
</g>
</svg>
