<?xml version="1.0" encoding="iso-8859-1"?>
<!-- Generator: Adobe Illustrator 16.0.0, SVG Export Plug-In . SVG Version: 6.00 Build 0)  -->
<!DOCTYPE svg PUBLIC "-//W3C//DTD SVG 1.1//EN" "http://www.w3.org/Graphics/SVG/1.1/DTD/svg11.dtd">
<svg version="1.1" id="Layer_1" xmlns="http://www.w3.org/2000/svg" xmlns:xlink="http://www.w3.org/1999/xlink" x="0px" y="0px"
	 width="28px" height="32.001px" viewBox="0 0 28 32.001" style="enable-background:new 0 0 28 32.001;" xml:space="preserve">
<g id="Cream">
	<g>
		<ellipse style="fill:#E6E6E6;" cx="14" cy="16.001" rx="12" ry="5"/>
	</g>
</g>
<g id="Cake">
	<g>
		<path style="fill:#FFCC66;" d="M22,16.001c-4,0-4,1-8,1s-4-1-8-1s-6,1-6,3s1.024,2,1.024,2l0.976,1h24l1-1c0,0,1,0,1-2
			S26,16.001,22,16.001z"/>
	</g>
</g>
<g id="Cup_1_">
	<g>
		<path style="fill:#48A0DC;" d="M26.812,20.416c-0.188-0.261-0.448-0.415-0.812-0.415c-2,0-2,2-4,2s-2-2-4-2s-2,2-4,2
			c-2,0-2-2-4.001-2c-2,0-2,2-3.999,2c-2,0-2-2-4-2c-0.321,0-0.623,0.154-0.811,0.415s-0.239,0.596-0.138,0.901l4,10
			C5.188,31.726,5.569,32.001,6,32.001h16c0.431,0,0.813-0.275,0.948-0.684l4-10C27.051,21.012,26.999,20.677,26.812,20.416z"/>
	</g>
</g>
<g id="Lines">
	<g>
		<path style="fill-rule:evenodd;clip-rule:evenodd;fill:#408EC2;" d="M13,21.77v10.231h2V21.77c-0.276,0.134-0.589,0.231-1,0.231
			C13.59,22.001,13.277,21.903,13,21.77z M3.09,20.271L7,32.001h2L5.651,21.956C4.41,21.782,4.009,20.768,3.09,20.271z M10,20.001
			c-0.906,0-1.399,0.413-1.856,0.862L10,32.001h2L10,20.001L10,20.001z M22.349,21.956L19,32.001h2l3.91-11.729
			C23.991,20.768,23.59,21.782,22.349,21.956z M18,20.001l-2,12h2l1.856-11.138C19.399,20.414,18.906,20.001,18,20.001z"/>
	</g>
</g>
<g id="Candle_2_">
	<g>
		<path style="fill:#F06EAA;" d="M15,6.001h-2c-0.552,0-1,0.447-1,1v4h4v-4C16,6.448,15.552,6.001,15,6.001z"/>
	</g>
</g>
<g id="Fire_1_">
	<g>
		<path style="fill:#FFCC66;" d="M14,0c0,3.02-2,2.476-2,4.2c0,0.994,0.896,1.801,2,1.801c1.104,0,2-0.807,2-1.801S15.833,1.65,14,0
			z"/>
	</g>
</g>
<g>
</g>
<g>
</g>
<g>
</g>
<g>
</g>
<g>
</g>
<g>
</g>
<g>
</g>
<g>
</g>
<g>
</g>
<g>
</g>
<g>
</g>
<g>
</g>
<g>
</g>
<g>
</g>
<g>
</g>
</svg>
