<?xml version="1.0" encoding="iso-8859-1"?>
<!-- Generator: Adobe Illustrator 16.0.0, SVG Export Plug-In . SVG Version: 6.00 Build 0)  -->
<!DOCTYPE svg PUBLIC "-//W3C//DTD SVG 1.1//EN" "http://www.w3.org/Graphics/SVG/1.1/DTD/svg11.dtd">
<svg version="1.1" id="Layer_1" xmlns="http://www.w3.org/2000/svg" xmlns:xlink="http://www.w3.org/1999/xlink" x="0px" y="0px"
	 width="30px" height="32px" viewBox="0 0 30 32" style="enable-background:new 0 0 30 32;" xml:space="preserve">
<g id="Blade_Stroke">
	<g>
		<polygon style="fill:#D9D9D9;" points="19,3 0,22 0,32 24,8 		"/>
	</g>
</g>
<g id="Handle_5_">
	<g>
		<path style="fill-rule:evenodd;clip-rule:evenodd;fill:#FFCC66;" d="M17.255,1.256C16.005,2.005,14.998,3.002,14,4C12,6,4,14,4,14
			v6L20,4L17.255,1.256z M22.91,6.91L23,7L7,23h6c0,0,4-4,5-5s3-2,4-2c2.72,0,5.119-1.36,6.565-3.436L22.91,6.91z"/>
	</g>
</g>
<g id="Handle_6_">
	<g>
		<path style="fill:#666666;" d="M22,0L22,0c-1.987,0-3.489,0.502-4.745,1.255l11.31,11.31C29.467,11.27,30,9.698,30,8.001V7.999
			C30,3.581,26.418,0,22,0z"/>
	</g>
</g>
<g id="Lock">
	<g>
		
			<rect x="13.464" y="7.879" transform="matrix(0.7071 -0.7071 0.7071 0.7071 -2.0919 14.9497)" style="fill:#999999;" width="7.071" height="4.243"/>
	</g>
</g>
<g>
</g>
<g>
</g>
<g>
</g>
<g>
</g>
<g>
</g>
<g>
</g>
<g>
</g>
<g>
</g>
<g>
</g>
<g>
</g>
<g>
</g>
<g>
</g>
<g>
</g>
<g>
</g>
<g>
</g>
</svg>
