<?xml version="1.0" encoding="iso-8859-1"?>
<!-- Generator: Adobe Illustrator 16.0.0, SVG Export Plug-In . SVG Version: 6.00 Build 0)  -->
<!DOCTYPE svg PUBLIC "-//W3C//DTD SVG 1.1//EN" "http://www.w3.org/Graphics/SVG/1.1/DTD/svg11.dtd">
<svg version="1.1" id="Layer_1" xmlns="http://www.w3.org/2000/svg" xmlns:xlink="http://www.w3.org/1999/xlink" x="0px" y="0px"
	 width="32px" height="26.001px" viewBox="0 0 32 26.001" style="enable-background:new 0 0 32 26.001;" xml:space="preserve">
<g id="Nerve">
	<g>
		<path style="fill:#F06EAA;" d="M27,23.001c0-1.734,5-2.623,5-8c0-2.318-2.701-4-4-4c-2.419,0-4-3-4-3V18c0,0,0.983-1.999,2-1.999
			c1.11,0,2,0.23,2,0.999c0,1.195-4,3.131-4,6.001c0,1.907,0.971,3,3,3c2.309,0,5-1.001,5-1.001S27,24.76,27,23.001z"/>
	</g>
</g>
<g id="Eye_3_">
	<g>
		<circle style="fill:#CCCCCC;" cx="13" cy="13" r="13"/>
	</g>
</g>
<g id="Eye_4_">
	<g>
		<circle style="fill:#E6E6E6;" cx="13" cy="13" r="11"/>
	</g>
</g>
<g id="Iris">
	<g>
		<circle style="fill:#48A0DC;" cx="13" cy="13.001" r="7"/>
	</g>
</g>
<g id="Pupil">
	<g>
		<circle style="fill:#4D4D4D;" cx="13" cy="13" r="4"/>
	</g>
</g>
<g id="Highlight">
	<g>
		<circle style="fill:#FFFFFF;" cx="16" cy="10" r="2"/>
	</g>
</g>
<g>
</g>
<g>
</g>
<g>
</g>
<g>
</g>
<g>
</g>
<g>
</g>
<g>
</g>
<g>
</g>
<g>
</g>
<g>
</g>
<g>
</g>
<g>
</g>
<g>
</g>
<g>
</g>
<g>
</g>
</svg>
