<?xml version="1.0" encoding="iso-8859-1"?>
<!-- Generator: Adobe Illustrator 16.0.0, SVG Export Plug-In . SVG Version: 6.00 Build 0)  -->
<!DOCTYPE svg PUBLIC "-//W3C//DTD SVG 1.1//EN" "http://www.w3.org/Graphics/SVG/1.1/DTD/svg11.dtd">
<svg version="1.1" id="Layer_1" xmlns="http://www.w3.org/2000/svg" xmlns:xlink="http://www.w3.org/1999/xlink" x="0px" y="0px"
	 width="32px" height="32px" viewBox="0 0 32 32" style="enable-background:new 0 0 32 32;" xml:space="preserve">
<g id="Ends">
	<g>
		<path style="fill:#CCCCCC;" d="M20,3c-1,0-2,2-4,2L5,16c0,2-2,3-2,4s8,9,9,9s2-2,4-2l11-11c0-2,2-3,2-4S21,3,20,3z"/>
	</g>
</g>
<g id="Strap_21_">
	<g>
		<path style="fill:#A67C52;" d="M26,0c-1,0-1,0-2,1L1,24c-1,1-1,1-1,2s5,6,6,6s1,0,2-1L31,8c1-1.001,1-1.001,1-2
			C32,4.999,27,0,26,0z"/>
	</g>
</g>
<g id="Case_1_">
	<g>
		<path style="fill-rule:evenodd;clip-rule:evenodd;fill:#CCCCCC;" d="M27,16c0-6.075-4.925-11-11-11S5,9.925,5,16s4.925,11,11,11
			c2.386,0,4.588-0.768,6.391-2.059C23.156,25.582,23.757,26,24,26c0.5,0,2-1.5,2-2c0-0.243-0.418-0.844-1.058-1.609
			C26.232,20.588,27,18.386,27,16z"/>
	</g>
</g>
<g id="Dial_1_">
	<g>
		<circle style="fill:#FFFFFF;" cx="16" cy="16" r="9"/>
	</g>
</g>
<g id="Axe_1_">
	<g>
		<circle style="fill:#CCCCCC;" cx="16" cy="16" r="2"/>
	</g>
</g>
<g id="Hands_1_">
	<g>
		<path style="fill-rule:evenodd;clip-rule:evenodd;fill:#999999;" d="M23,15h-6.53l-2.704-2.704c-0.406-0.406-1.064-0.406-1.47,0
			c-0.405,0.405-0.405,1.063,0,1.469l2.938,2.939c0.214,0.214,0.497,0.308,0.776,0.296H23c0.552,0,1-0.448,1-1
			C24,15.447,23.552,15,23,15z"/>
	</g>
</g>
<g>
</g>
<g>
</g>
<g>
</g>
<g>
</g>
<g>
</g>
<g>
</g>
<g>
</g>
<g>
</g>
<g>
</g>
<g>
</g>
<g>
</g>
<g>
</g>
<g>
</g>
<g>
</g>
<g>
</g>
</svg>
