<?xml version="1.0" encoding="iso-8859-1"?>
<!-- Generator: Adobe Illustrator 16.0.0, SVG Export Plug-In . SVG Version: 6.00 Build 0)  -->
<!DOCTYPE svg PUBLIC "-//W3C//DTD SVG 1.1//EN" "http://www.w3.org/Graphics/SVG/1.1/DTD/svg11.dtd">
<svg version="1.1" id="Layer_1" xmlns="http://www.w3.org/2000/svg" xmlns:xlink="http://www.w3.org/1999/xlink" x="0px" y="0px"
	 width="24px" height="32px" viewBox="0 0 24 32" style="enable-background:new 0 0 24 32;" xml:space="preserve">
<g id="Body_28_">
	<g>
		<path style="fill:#4D4D4D;" d="M22,0H2C0.896,0,0,0.896,0,2v28c0,1.104,0.896,2,2,2h20c1.104,0,2-0.896,2-2V2
			C24,0.896,23.104,0,22,0z"/>
	</g>
</g>
<g id="Disk">
	<g>
		<circle style="fill:#ED7161;" cx="12" cy="14" r="10"/>
	</g>
</g>
<g id="Middle">
	<g>
		<circle style="fill:#4D4D4D;" cx="12" cy="14" r="2"/>
	</g>
</g>
<g id="Screws_4_">
	<g>
		<path style="fill-rule:evenodd;clip-rule:evenodd;fill:#CCCCCC;" d="M3,2C2.448,2,2,2.447,2,3c0,0.552,0.448,1,1,1s1-0.448,1-1
			C4,2.447,3.552,2,3,2z M21,4c0.552,0,1-0.448,1-1c0-0.553-0.448-1-1-1s-1,0.447-1,1C20,3.552,20.448,4,21,4z M21,28
			c-0.552,0-1,0.447-1,1c0,0.552,0.448,1,1,1s1-0.448,1-1C22,28.447,21.552,28,21,28z"/>
	</g>
</g>
<g id="Hand">
	<g>
		<path style="fill:#E6E6E6;" d="M11,17.006c-0.327,0-0.604,0.167-0.786,0.408L3,24.769c0,0-1,0.496-1,2.239
			c0,1.648,1.343,2.986,3,2.986c1.397,0,2.374-1.019,2.895-2.243l3.892-9.163C11.912,18.422,12,18.226,12,18.001
			C12,17.451,11.552,17.006,11,17.006z"/>
	</g>
</g>
<g>
</g>
<g>
</g>
<g>
</g>
<g>
</g>
<g>
</g>
<g>
</g>
<g>
</g>
<g>
</g>
<g>
</g>
<g>
</g>
<g>
</g>
<g>
</g>
<g>
</g>
<g>
</g>
<g>
</g>
</svg>
