<?xml version="1.0" encoding="iso-8859-1"?>
<!-- Generator: Adobe Illustrator 16.0.0, SVG Export Plug-In . SVG Version: 6.00 Build 0)  -->
<!DOCTYPE svg PUBLIC "-//W3C//DTD SVG 1.1//EN" "http://www.w3.org/Graphics/SVG/1.1/DTD/svg11.dtd">
<svg version="1.1" id="Layer_1" xmlns="http://www.w3.org/2000/svg" xmlns:xlink="http://www.w3.org/1999/xlink" x="0px" y="0px"
	 width="26px" height="32px" viewBox="0 0 26 32" style="enable-background:new 0 0 26 32;" xml:space="preserve">
<g id="Lock">
	<g>
		<path style="fill-rule:evenodd;clip-rule:evenodd;fill:#CCCCCC;" d="M13,0C7.477,0,3,4.478,3,10v5h1.349
			c1.73,2.985,4.952,4.999,8.651,4.999c3.699,0,6.921-2.014,8.651-4.999H23v-5C23,4.478,18.522,0,13,0z M19,15h-2.688
			c-0.949,0.63-2.087,0.999-3.313,0.999S10.637,15.63,9.688,15H7v-5c0-3.313,2.687-6,6-6s6,2.688,6,6V15z"/>
	</g>
</g>
<g id="Heart_3_">
	<g>
		<path style="fill-rule:evenodd;clip-rule:evenodd;fill:#ED7161;" d="M26,16.996C26,13.133,22.865,10,19,10
			c-2.551,0-4.777,1.368-6,3.406C11.776,11.368,9.551,10,7,10c-3.866,0-7,3.133-7,6.996c0,1.933,0.784,3.683,2.052,4.949
			l-0.005,0.002l9.226,9.049h0.003C11.621,31.594,12.26,32,13,32s1.379-0.406,1.725-1.004h0.003l9.226-9.049l-0.005-0.002
			C25.216,20.679,26,18.929,26,16.996z"/>
	</g>
</g>
<g id="Keyhole">
	<g>
		<path style="fill-rule:evenodd;clip-rule:evenodd;fill:#FFFFFF;" d="M16,18.999c0-1.656-1.344-3-3-3c-1.657,0-3,1.344-3,3
			c0,1.304,0.837,2.403,2,2.816v2.186c0,0.553,0.447,1,1,1c0.552,0,1-0.447,1-1v-2.186C15.162,21.401,16,20.303,16,18.999z"/>
	</g>
</g>
<g>
</g>
<g>
</g>
<g>
</g>
<g>
</g>
<g>
</g>
<g>
</g>
<g>
</g>
<g>
</g>
<g>
</g>
<g>
</g>
<g>
</g>
<g>
</g>
<g>
</g>
<g>
</g>
<g>
</g>
</svg>
