<?xml version="1.0" encoding="iso-8859-1"?>
<!-- Generator: Adobe Illustrator 16.0.0, SVG Export Plug-In . SVG Version: 6.00 Build 0)  -->
<!DOCTYPE svg PUBLIC "-//W3C//DTD SVG 1.1//EN" "http://www.w3.org/Graphics/SVG/1.1/DTD/svg11.dtd">
<svg version="1.1" id="Layer_1" xmlns="http://www.w3.org/2000/svg" xmlns:xlink="http://www.w3.org/1999/xlink" x="0px" y="0px"
	 width="32px" height="28px" viewBox="0 0 32 28" style="enable-background:new 0 0 32 28;" xml:space="preserve">
<g id="Strap_16_">
	<g>
		<path style="fill-rule:evenodd;clip-rule:evenodd;fill:#ED7161;" d="M27,20c-1,0-1.553,0.106-2,1.001c-1,2-4,6-4,6h4c0,0,3-5,3-6
			S28,20,27,20z M17.975,3.282c0.139-0.522-0.169-1.06-0.689-1.199L5,0c0,0-5,3.001-5,8h3c0,0-1-4,2-6l11.781,1.975
			C17.301,4.115,17.836,3.805,17.975,3.282z M23,18c-1,0-1.293,0.294-2,1.001c-2,2-7,7-7,7l4,1c0,0,6-7,6-8S24,18,23,18z"/>
	</g>
</g>
<g id="Buckle_12_">
	<g>
		<path style="fill:#999999;" d="M14.978,1.435l-2.497-0.449c-0.689-0.124-1.351,0.354-1.478,1.066
			c-0.126,0.713,0.33,1.391,1.019,1.515l2.497,0.448c0.69,0.125,1.352-0.353,1.478-1.065C16.124,2.237,15.667,1.559,14.978,1.435z"
			/>
	</g>
</g>
<g id="Shoe_26_">
	<g>
		<path style="fill:#666666;" d="M30,25.001c-1,0-3,1-13,1c-1,0-3.422-5.739-7-12c-4-7-8-7-9-7S0,7.001,0,8c0,0.845,0,1.001,0,1.001
			s3,4,3,18C3,27.553,3.447,28,4,28c0.552,0,1-0.447,1-0.999v-12c0-1,0-2,1-2c0.594,0,1.496,1.136,2,2C15,27.001,13,28,16,28
			c11,0,16-0.999,16-1.999S31,25.001,30,25.001z"/>
	</g>
</g>
<g>
</g>
<g>
</g>
<g>
</g>
<g>
</g>
<g>
</g>
<g>
</g>
<g>
</g>
<g>
</g>
<g>
</g>
<g>
</g>
<g>
</g>
<g>
</g>
<g>
</g>
<g>
</g>
<g>
</g>
</svg>
