<?xml version="1.0" encoding="iso-8859-1"?>
<!-- Generator: Adobe Illustrator 16.0.0, SVG Export Plug-In . SVG Version: 6.00 Build 0)  -->
<!DOCTYPE svg PUBLIC "-//W3C//DTD SVG 1.1//EN" "http://www.w3.org/Graphics/SVG/1.1/DTD/svg11.dtd">
<svg version="1.1" id="Layer_1" xmlns="http://www.w3.org/2000/svg" xmlns:xlink="http://www.w3.org/1999/xlink" x="0px" y="0px"
	 width="21px" height="32.001px" viewBox="0 0 21 32.001" style="enable-background:new 0 0 21 32.001;" xml:space="preserve">
<g id="Bevel_1_">
	<g>
		<path style="fill:#CCCCCC;" d="M19,0H2C1.104,0,0,1.042,0,2.001v1v1v24V29v1v0.001c0,0.907,1.044,2,2,2h17c0.95,0,1.999-1.024,2-2
			v-28C21,1.042,19.928,0,19,0z"/>
	</g>
</g>
<g id="Apple_Logo_5_">
	<g>
		<path style="fill-rule:evenodd;clip-rule:evenodd;fill:#808080;" d="M12.037,12.001c-0.278,0.01-0.615,0.159-0.814,0.36
			c-0.179,0.178-0.336,0.463-0.294,0.736c0.311,0.021,0.627-0.136,0.82-0.337C11.942,12.559,12.072,12.279,12.037,12.001z
			 M12,15.001c0-1.188,0.849-1.24,0.872-1.255c-0.289-0.424-0.739-0.482-0.898-0.489c-0.383-0.039-0.747,0.227-0.941,0.227
			c-0.193,0-0.493-0.221-0.811-0.215c-0.417,0.007-0.802,0.243-1.017,0.619c-0.434,0.755-0.11,1.875,0.312,2.487
			c0.207,0.3,0.452,0.637,0.775,0.624c0.312-0.012,0.43-0.202,0.806-0.202s0.481,0.202,0.811,0.196
			c0.335-0.006,0.547-0.306,0.752-0.606c0.237-0.348,0.334-0.685,0.34-0.702C12.993,15.681,12,15.748,12,15.001z"/>
	</g>
</g>
<g id="Camera_1_">
	<g>
		<circle style="fill:#808080;" cx="5" cy="4.999" r="1"/>
	</g>
</g>
<g>
</g>
<g>
</g>
<g>
</g>
<g>
</g>
<g>
</g>
<g>
</g>
<g>
</g>
<g>
</g>
<g>
</g>
<g>
</g>
<g>
</g>
<g>
</g>
<g>
</g>
<g>
</g>
<g>
</g>
</svg>
