<?xml version="1.0" encoding="iso-8859-1"?>
<!-- Generator: Adobe Illustrator 16.0.0, SVG Export Plug-In . SVG Version: 6.00 Build 0)  -->
<!DOCTYPE svg PUBLIC "-//W3C//DTD SVG 1.1//EN" "http://www.w3.org/Graphics/SVG/1.1/DTD/svg11.dtd">
<svg version="1.1" id="Layer_1" xmlns="http://www.w3.org/2000/svg" xmlns:xlink="http://www.w3.org/1999/xlink" x="0px" y="0px"
	 width="32px" height="20px" viewBox="0 0 32 20" style="enable-background:new 0 0 32 20;" xml:space="preserve">
<g id="Body_37_">
	<g>
		<path style="fill:#B3B3B3;" d="M30,0H2C0.896,0,0,0.895,0,2v16c0,1.104,0.896,2,2,2h28c1.104,0,2-0.896,2-2V2
			C32,0.895,31.104,0,30,0z"/>
	</g>
</g>
<g id="Keys">
	<g>
		<path style="fill-rule:evenodd;clip-rule:evenodd;fill:#FFFFFF;" d="M5,2H3C2.448,2,2,2.447,2,3v2c0,0.552,0.448,1,1,1h2
			c0.552,0,1-0.448,1-1V3C6,2.447,5.552,2,5,2z M9,6h2c0.552,0,1-0.448,1-1V3c0-0.553-0.448-1-1-1H9C8.448,2,8,2.447,8,3v2
			C8,5.552,8.448,6,9,6z M15,6h2c0.552,0,1-0.448,1-1V3c0-0.553-0.448-1-1-1h-2c-0.552,0-1,0.447-1,1v2C14,5.552,14.448,6,15,6z
			 M21,6h2c0.552,0,1-0.448,1-1V3c0-0.553-0.448-1-1-1h-2c-0.552,0-1,0.447-1,1v2C20,5.552,20.448,6,21,6z M29,2h-2
			c-0.552,0-1,0.447-1,1v2c0,0.552,0.448,1,1,1h2c0.552,0,1-0.448,1-1V3C30,2.447,29.552,2,29,2z M5,8H3C2.448,8,2,8.447,2,9v2
			c0,0.552,0.448,1,1,1h2c0.552,0,1-0.448,1-1V9C6,8.447,5.552,8,5,8z M9,12h2c0.552,0,1-0.448,1-1V9c0-0.553-0.448-1-1-1H9
			C8.448,8,8,8.447,8,9v2C8,11.552,8.448,12,9,12z M15,12h2c0.552,0,1-0.448,1-1V9c0-0.553-0.448-1-1-1h-2c-0.552,0-1,0.447-1,1v2
			C14,11.552,14.448,12,15,12z M29,8h-8c-0.552,0-1,0.447-1,1v2c0,0.552,0.448,1,1,1h8c0.552,0,1-0.448,1-1V9
			C30,8.447,29.552,8,29,8z M5,14H3c-0.552,0-1,0.447-1,1v2c0,0.552,0.448,1,1,1h2c0.552,0,1-0.448,1-1v-2C6,14.447,5.552,14,5,14z
			 M23,14H9c-0.552,0-1,0.447-1,1v2c0,0.552,0.448,1,1,1h14c0.552,0,1-0.448,1-1v-2C24,14.447,23.552,14,23,14z M29,14h-2
			c-0.552,0-1,0.447-1,1v2c0,0.552,0.448,1,1,1h2c0.552,0,1-0.448,1-1v-2C30,14.447,29.552,14,29,14z"/>
	</g>
</g>
<g>
</g>
<g>
</g>
<g>
</g>
<g>
</g>
<g>
</g>
<g>
</g>
<g>
</g>
<g>
</g>
<g>
</g>
<g>
</g>
<g>
</g>
<g>
</g>
<g>
</g>
<g>
</g>
<g>
</g>
</svg>
