<?xml version="1.0" encoding="iso-8859-1"?>
<!-- Generator: Adobe Illustrator 16.0.0, SVG Export Plug-In . SVG Version: 6.00 Build 0)  -->
<!DOCTYPE svg PUBLIC "-//W3C//DTD SVG 1.1//EN" "http://www.w3.org/Graphics/SVG/1.1/DTD/svg11.dtd">
<svg version="1.1" id="Layer_1" xmlns="http://www.w3.org/2000/svg" xmlns:xlink="http://www.w3.org/1999/xlink" x="0px" y="0px"
	 width="32px" height="32px" viewBox="0 0 32 32" style="enable-background:new 0 0 32 32;" xml:space="preserve">
<g id="Suit_5_">
	<g>
		<path style="fill:#666666;" d="M30,24c-0.94-0.94-9-5-9-5l-1,13h12C32,32,31.88,25.88,30,24z M2,24c-1.88,1.88-2,8-2,8h12l-1-13
			C11,19,2.94,23.06,2,24z"/>
	</g>
</g>
<g id="Collar_4_">
	<g>
		<path style="fill:#4D4D4D;" d="M7,22l2,1l-2,2l4,7h1l-1-13L7,22z M25,22l-4-3l-1,13h1l4-7l-2-2L25,22z"/>
	</g>
</g>
<g id="Shirt_4_">
	<g>
		<polygon style="fill:#FFFFFF;" points="20,18 12,18 11,19 12,32 20,32 21,19 		"/>
	</g>
</g>
<g id="Tie_3_">
	<g>
		<path style="fill-rule:evenodd;clip-rule:evenodd;fill:#48A0DC;" d="M18,22c-1-1-2-2-2-2s-1,1-2,2c0,1,1,1,1,1l-1,9h4l-1-9
			C17,23,18,23,18,22z"/>
	</g>
</g>
<g id="Neck_6_">
	<g>
		<path style="fill:#DBB59A;" d="M19,15h-6l-1,3c0,0.552,2.447,2,3,2h2c0.552,0,3-1.448,3-2L19,15z"/>
	</g>
</g>
<g id="Head_7_">
	<g>
		<path style="fill:#F6CBAD;" d="M16,1c-3.866,0-7,2-7,6c0,3,1,5,2,7s3.041,4,5,4c1.959,0,4-2,5-4s2-4,2-7C23,3,19.866,1,16,1z"/>
	</g>
</g>
<g id="Hair_6_">
	<g>
		<path style="fill:#8C6845;" d="M16,0c-2.342,0-5,0.865-5,2C9.521,2,9,5.309,9,8c0,0.449,0.04,0.921,0.103,1.401
			C9.36,8.079,10.155,6,12,6c1.727,0,1.054,0,4,0c1.531,0,4-0.749,4-2c1.298-0.018,3,1.83,3,4C23,4.068,22.357,0,16,0z"/>
	</g>
</g>
<g>
</g>
<g>
</g>
<g>
</g>
<g>
</g>
<g>
</g>
<g>
</g>
<g>
</g>
<g>
</g>
<g>
</g>
<g>
</g>
<g>
</g>
<g>
</g>
<g>
</g>
<g>
</g>
<g>
</g>
</svg>
