<?xml version="1.0" encoding="iso-8859-1"?>
<!-- Generator: Adobe Illustrator 16.0.0, SVG Export Plug-In . SVG Version: 6.00 Build 0)  -->
<!DOCTYPE svg PUBLIC "-//W3C//DTD SVG 1.1//EN" "http://www.w3.org/Graphics/SVG/1.1/DTD/svg11.dtd">
<svg version="1.1" id="Layer_1" xmlns="http://www.w3.org/2000/svg" xmlns:xlink="http://www.w3.org/1999/xlink" x="0px" y="0px"
	 width="30px" height="32px" viewBox="0 0 30 32" style="enable-background:new 0 0 30 32;" xml:space="preserve">
<g id="Cuffs_2_">
	<g>
		<path style="fill-rule:evenodd;clip-rule:evenodd;fill:#638C3F;" d="M7,30c0,1,2,2,8,2s8-1,8-2v-1H7V30z M1,31c0.5,0,3-0.469,3-1
			s0-2,0-2l-4,1C0,29,0.5,31,1,31z M26,28c0,0,0,1.469,0,2s2.5,1,3,1s1-2,1-2L26,28z"/>
	</g>
</g>
<g id="Hoodie">
	<g>
		<path style="fill:#88C057;" d="M28,8c-1-1-4-3-4-3H6c0,0-3,2-4,3s-2,6-2,8s0,12,0,13c0.762,0,4-0.275,4-1c0-1.686,0.552-5.643,1-8
			c0.633-3.334,1-3,1-3s0,10.499,0,11c0,1,2,2,9,2s9-1,9-2c0-0.501,0-11,0-11s0.367-0.334,1,3c0.447,2.357,1,6.314,1,8
			c0,0.725,3.237,1,4,1c0-1,0-11,0-13S29,9,28,8z"/>
	</g>
</g>
<g id="String_1_">
	<g>
		<path style="fill-rule:evenodd;clip-rule:evenodd;fill:#E6E6E6;" d="M13,6c-0.553,0-1,0.447-1,1v5c0,0.552,0.447,1,1,1
			c0.552,0,1-0.448,1-1V7C14,6.447,13.552,6,13,6z M17,6c-0.553,0-1,0.447-1,1v4c0,0.552,0.447,1,1,1c0.552,0,1-0.448,1-1V7
			C18,6.447,17.552,6,17,6z"/>
	</g>
</g>
<g id="Pockets_11_">
	<g>
		<path style="fill-rule:evenodd;clip-rule:evenodd;fill:#75A64B;" d="M22,21c-0.375,0-1,0.594-1,1c0,0.479,1.813,5,3,5v-3
			C23.406,24,22.427,21,22,21z M8,21c-0.428,0-1.406,3-2,3v3c1.188,0,3-4.521,3-5C9,21.594,8.375,21,8,21z"/>
	</g>
</g>
<g id="Interior_7_">
	<g>
		<path style="fill:#517334;" d="M17,0h-4c0,0-4,1.519-4,3c0,1.992,5,5,5,5s0.188,2,1,2s1-2,1-2s5-3.008,5-5C21,1.519,17,0,17,0z"/>
	</g>
</g>
<g id="Hood_1_">
	<g>
		<path style="fill-rule:evenodd;clip-rule:evenodd;fill:#75A64B;" d="M13,0c-3,0-7,3.147-7,5c0,0,3.612,3,8,3c0,0-3-3.138-3-5
			C11,1.662,13,0,13,0z M24,5c0-1.853-4-5-7-5c0,0,2,1.662,2,3c0,1.862-3,5-3,5C20.388,8,24,5,24,5z"/>
	</g>
</g>
<g>
</g>
<g>
</g>
<g>
</g>
<g>
</g>
<g>
</g>
<g>
</g>
<g>
</g>
<g>
</g>
<g>
</g>
<g>
</g>
<g>
</g>
<g>
</g>
<g>
</g>
<g>
</g>
<g>
</g>
</svg>
