<?xml version="1.0" encoding="iso-8859-1"?>
<!-- Generator: Adobe Illustrator 16.0.0, SVG Export Plug-In . SVG Version: 6.00 Build 0)  -->
<!DOCTYPE svg PUBLIC "-//W3C//DTD SVG 1.1//EN" "http://www.w3.org/Graphics/SVG/1.1/DTD/svg11.dtd">
<svg version="1.1" id="Layer_1" xmlns="http://www.w3.org/2000/svg" xmlns:xlink="http://www.w3.org/1999/xlink" x="0px" y="0px"
	 width="28px" height="32px" viewBox="0 0 28 32" style="enable-background:new 0 0 28 32;" xml:space="preserve">
<g id="Steam">
	<g>
		<path style="fill-rule:evenodd;clip-rule:evenodd;fill:#CCCCCC;" d="M11.5,2c0-1.463-0.5-2-0.5-2s0.02,2.317-2.031,3
			C6.918,3.682,4,5.244,4,7.999h2.484c0-1.03,1.068-2.485,2.484-2.999C10.58,4.415,11.5,3.105,11.5,2z M12.6,3
			c0,0-0.036,1.668-2,2.727C9.76,6.18,9,7.191,9,7.999h0.4H11c0-0.586,0.6-1.202,1.2-1.817c0.716-0.734,0.8-1.19,0.8-1.818
			C13,3.532,12.6,3,12.6,3z"/>
	</g>
</g>
<g id="Mug">
	<g>
		<path style="fill:#48A0DC;" d="M18,7.999H2c-1.104,0-2,0.896-2,2v20C0,31.104,0.896,32,2,32h16c1.104,0,2-0.896,2-2.001v-20
			C20,8.895,19.104,7.999,18,7.999z"/>
	</g>
</g>
<g id="Handle_7_">
	<g>
		<path style="fill:#387BA8;" d="M22,11h-2v3c0-0.553,0.447-1,1-1c2.209,0,4,1.79,4,4v4c0,2.209-1.791,4-4,4c-0.553,0-1-0.448-1-1v3
			h2c3.313,0,6-2.687,6-6v-4C28,13.686,25.313,11,22,11z"/>
	</g>
</g>
<g id="Tea">
	<g>
		<polygon style="fill-rule:evenodd;clip-rule:evenodd;fill:#FFCC66;" points="14,15 14,7.999 13,7.999 13,15 11,17 11,22 16,22 
			16,17 		"/>
	</g>
</g>
<g>
</g>
<g>
</g>
<g>
</g>
<g>
</g>
<g>
</g>
<g>
</g>
<g>
</g>
<g>
</g>
<g>
</g>
<g>
</g>
<g>
</g>
<g>
</g>
<g>
</g>
<g>
</g>
<g>
</g>
</svg>
