<?xml version="1.0" encoding="iso-8859-1"?>
<!-- Generator: Adobe Illustrator 16.0.0, SVG Export Plug-In . SVG Version: 6.00 Build 0)  -->
<!DOCTYPE svg PUBLIC "-//W3C//DTD SVG 1.1//EN" "http://www.w3.org/Graphics/SVG/1.1/DTD/svg11.dtd">
<svg version="1.1" id="Layer_1" xmlns="http://www.w3.org/2000/svg" xmlns:xlink="http://www.w3.org/1999/xlink" x="0px" y="0px"
	 width="31.985px" height="32.017px" viewBox="0 0 31.985 32.017" style="enable-background:new 0 0 31.985 32.017;"
	 xml:space="preserve">
<g id="Nib">
	<g>
		<path style="fill-rule:evenodd;clip-rule:evenodd;fill:#999999;" d="M13,14.017l-7,1l-6,16l8.187-8.187
			c-0.113-0.25-0.179-0.524-0.179-0.816c0-1.102,0.893-1.995,1.995-1.995s1.995,0.894,1.995,1.995s-0.893,1.995-1.995,1.995
			c-0.292,0-0.566-0.066-0.816-0.179L1,32.017l16-6l1-7L13,14.017z"/>
	</g>
</g>
<g id="Ring">
	<g>
		
			<rect x="15.086" y="10.567" transform="matrix(0.7071 -0.7071 0.7071 0.7071 -6.1392 16.212)" style="fill:#333333;" width="2.828" height="9.899"/>
	</g>
</g>
<g id="Barrel">
	<g>
		<path style="fill:#666666;" d="M31.692,8.792l-8.5-8.499c-0.391-0.391-1.025-0.391-1.417,0l-8.499,9.499
			c-0.391,0.392-0.391,1.025,0,1.417l7.499,7.499c0.391,0.392,1.025,0.392,1.417,0l9.5-8.499
			C32.083,9.817,32.083,9.184,31.692,8.792z"/>
	</g>
</g>
<g>
</g>
<g>
</g>
<g>
</g>
<g>
</g>
<g>
</g>
<g>
</g>
<g>
</g>
<g>
</g>
<g>
</g>
<g>
</g>
<g>
</g>
<g>
</g>
<g>
</g>
<g>
</g>
<g>
</g>
</svg>
