<?xml version="1.0" encoding="iso-8859-1"?>
<!-- Generator: Adobe Illustrator 16.0.0, SVG Export Plug-In . SVG Version: 6.00 Build 0)  -->
<!DOCTYPE svg PUBLIC "-//W3C//DTD SVG 1.1//EN" "http://www.w3.org/Graphics/SVG/1.1/DTD/svg11.dtd">
<svg version="1.1" id="Layer_1" xmlns="http://www.w3.org/2000/svg" xmlns:xlink="http://www.w3.org/1999/xlink" x="0px" y="0px"
	 width="32px" height="28px" viewBox="0 0 32 28" style="enable-background:new 0 0 32 28;" xml:space="preserve">
<g id="Clips">
	<g>
		<path style="fill-rule:evenodd;clip-rule:evenodd;fill:#666666;" d="M25,5h-3.531l-1.843-1.843C19.859,2.83,20,2.433,20,2
			c0-1.104-0.896-2-2-2s-2,0.896-2,2c0,0.909,0.611,1.668,1.441,1.911L18.53,5h-5.07l1.084-1.084C15.382,3.677,16,2.915,16,2
			c0-1.104-0.896-2-2-2s-2,0.896-2,2c0,0.435,0.142,0.834,0.377,1.162L10.539,5H7c-3.314,0-6,2.687-6,6v2c0,3.313,2.686,6,6,6h18
			c3.313,0,6-2.687,6-6v-2C31,7.687,28.313,5,25,5z"/>
	</g>
</g>
<g id="Bag_4_">
	<g>
		<path style="fill:#88C057;" d="M27,8H5c0,0-5,8.037-5,14c0,5,2,6,6,6c3.427,0,16.573,0,20,0c4,0,6-1,6-6C32,16.037,27,8,27,8z"/>
	</g>
</g>
<g id="Shadows">
	<g>
		<path style="fill-rule:evenodd;clip-rule:evenodd;fill:#75A64B;" d="M2.616,20C5.315,20,7,8,7,8S-0.083,20,2.616,20z M25,8
			c0,0,1.685,12,4.383,12C32.083,20,25,8,25,8z"/>
	</g>
</g>
<g>
</g>
<g>
</g>
<g>
</g>
<g>
</g>
<g>
</g>
<g>
</g>
<g>
</g>
<g>
</g>
<g>
</g>
<g>
</g>
<g>
</g>
<g>
</g>
<g>
</g>
<g>
</g>
<g>
</g>
</svg>
