<?xml version="1.0" encoding="iso-8859-1"?>
<!-- Generator: Adobe Illustrator 16.0.0, SVG Export Plug-In . SVG Version: 6.00 Build 0)  -->
<!DOCTYPE svg PUBLIC "-//W3C//DTD SVG 1.1//EN" "http://www.w3.org/Graphics/SVG/1.1/DTD/svg11.dtd">
<svg version="1.1" id="Layer_1" xmlns="http://www.w3.org/2000/svg" xmlns:xlink="http://www.w3.org/1999/xlink" x="0px" y="0px"
	 width="32px" height="32px" viewBox="0 0 32 32" style="enable-background:new 0 0 32 32;" xml:space="preserve">
<g id="Ribbon_5_">
	<g>
		<path style="fill-rule:evenodd;clip-rule:evenodd;fill:#ED7161;" d="M3,28h4l2,4l7-18l-3-2L3,28z M19,12l-3,2l7,18l2-4h4L19,12z"
			/>
	</g>
</g>
<g id="Bow_3_">
	<g>
		<path style="fill-rule:evenodd;clip-rule:evenodd;fill:#ED7161;" d="M32,4c0-2.209-2-4-5-4c-4,0-11,8-11,8S9,0,5,0
			C2,0,0,1.791,0,4c0,0,1,3.154,1,6c0,3.14-1,6-1,6c0,2.209,2,3,5,3c4,0,11-5,11-5s7,5,11,5c3,0,5-0.791,5-3c0,0-1-2.86-1-6
			C31,7.154,32,4,32,4z"/>
	</g>
</g>
<g id="Interior_10_">
	<g>
		<path style="fill-rule:evenodd;clip-rule:evenodd;fill:#BA594C;" d="M3,15c0,1.841,0.75,2,3.375,2C9.875,17,16,12.833,16,12.833
			S11.5,12,8,12C5.375,12,3,13.159,3,15z M24,12c-3.5,0-8,0.833-8,0.833S22.125,17,25.625,17C28.25,17,29,16.841,29,15
			S26.625,12,24,12z"/>
	</g>
</g>
<g id="Knot_2_">
	<g>
		<path style="fill:#BA594C;" d="M17,6h-2c-1.104,0-2,0.896-2,2v4c0,1.104,0.896,2,2,2h2c1.104,0,2-0.896,2-2V8
			C19,6.896,18.104,6,17,6z"/>
	</g>
</g>
<g>
</g>
<g>
</g>
<g>
</g>
<g>
</g>
<g>
</g>
<g>
</g>
<g>
</g>
<g>
</g>
<g>
</g>
<g>
</g>
<g>
</g>
<g>
</g>
<g>
</g>
<g>
</g>
<g>
</g>
</svg>
