<?xml version="1.0" encoding="iso-8859-1"?>
<!-- Generator: Adobe Illustrator 16.0.0, SVG Export Plug-In . SVG Version: 6.00 Build 0)  -->
<!DOCTYPE svg PUBLIC "-//W3C//DTD SVG 1.1//EN" "http://www.w3.org/Graphics/SVG/1.1/DTD/svg11.dtd">
<svg version="1.1" id="Layer_1" xmlns="http://www.w3.org/2000/svg" xmlns:xlink="http://www.w3.org/1999/xlink" x="0px" y="0px"
	 width="32px" height="32px" viewBox="0 0 32 32" style="enable-background:new 0 0 32 32;" xml:space="preserve">
<g id="Body_13_">
	<g>
		<path style="fill-rule:evenodd;clip-rule:evenodd;fill:#333333;" d="M30,23.999c-0.521-0.52-3.528-2.302-6.11-3.791
			c0.036-0.069,0.081-0.15,0.11-0.209c1-2,1-6.999,1-9.999c0-4-2.094-10-9-10S7,6,7,10c0,3,0,7.999,1,9.999
			c0.029,0.059,0.074,0.14,0.11,0.209c-2.583,1.488-5.59,3.271-6.11,3.791C0.12,25.88,0,32,0,32h32C32,32,31.88,25.88,30,23.999z"/>
	</g>
</g>
<g id="Face_1_">
	<g>
		<path style="fill:#FFFFFF;" d="M22,10c0-4-2.594-7-6-7s-6,3-6,7c0,1-1,1-1,3c0,1,2,3,3,3c0,8,0.809,13,4,13s4-5,4-13c1,0,3-2,3-3
			C23,11,22,11.004,22,10z"/>
	</g>
</g>
<g id="Mouth_2_">
	<g>
		<path style="fill:#333333;" d="M16,17c-1.82,0-2,0.896-2,2s0.896,7,2,7s2-5.896,2-7S17.82,17,16,17z"/>
	</g>
</g>
<g id="Nose_3_">
	<g>
		<path style="fill:#666666;" d="M16,13c-0.875,0-1,2-1,2h2C17,15,16.875,13,16,13z"/>
	</g>
</g>
<g id="Eyes_4_">
	<g>
		<path style="fill-rule:evenodd;clip-rule:evenodd;fill:#666666;" d="M19,10c-0.604-0.604-0.428-2-1-2c-0.5,0-1,0.374-1,1
			c0,1.45,0.818,3,2,3c0.668,0,1-0.552,1-1C20,10.644,19.399,10.399,19,10z M14,8c-0.572,0-0.397,1.396-1,2
			c-0.619,0.618-1,0.644-1,1c0,0.448,0.332,1,1,1c1.182,0,2-1.55,2-3C15,8.374,14.5,8,14,8z"/>
	</g>
</g>
<g>
</g>
<g>
</g>
<g>
</g>
<g>
</g>
<g>
</g>
<g>
</g>
<g>
</g>
<g>
</g>
<g>
</g>
<g>
</g>
<g>
</g>
<g>
</g>
<g>
</g>
<g>
</g>
<g>
</g>
</svg>
