<?xml version="1.0" encoding="iso-8859-1"?>
<!-- Generator: Adobe Illustrator 16.0.0, SVG Export Plug-In . SVG Version: 6.00 Build 0)  -->
<!DOCTYPE svg PUBLIC "-//W3C//DTD SVG 1.1//EN" "http://www.w3.org/Graphics/SVG/1.1/DTD/svg11.dtd">
<svg version="1.1" id="Layer_1" xmlns="http://www.w3.org/2000/svg" xmlns:xlink="http://www.w3.org/1999/xlink" x="0px" y="0px"
	 width="30px" height="24px" viewBox="0 0 30 24" style="enable-background:new 0 0 30 24;" xml:space="preserve">
<g id="Signal_4_">
	<g>
		<path style="fill-rule:evenodd;clip-rule:evenodd;fill:#48A0DC;" d="M20,4h-2c-1.104,0-2,0.895-2,2v16c0,1.104,0.896,2,2,2h2
			c1.104,0,2-0.896,2-2V6C22,4.895,21.104,4,20,4z M12,7.999h-2c-1.104,0-2,0.896-2,2.001v12c0,1.104,0.896,2,2,2h2
			c1.104,0,2-0.896,2-2V10C14,8.896,13.104,7.999,12,7.999z M4,11.999H2c-1.104,0-2,0.896-2,2.001v8c0,1.104,0.896,2,2,2h2
			c1.104,0,2-0.896,2-2v-8C6,12.895,5.104,11.999,4,11.999z"/>
	</g>
</g>
<g id="Signal_5_">
	<g>
		<path style="fill:#CCCCCC;" d="M28,0h-2c-1.104,0-2,0.895-2,2v20c0,1.104,0.896,2,2,2h2c1.105,0,2-0.896,2-2V2
			C30,0.895,29.105,0,28,0z"/>
	</g>
</g>
<g>
</g>
<g>
</g>
<g>
</g>
<g>
</g>
<g>
</g>
<g>
</g>
<g>
</g>
<g>
</g>
<g>
</g>
<g>
</g>
<g>
</g>
<g>
</g>
<g>
</g>
<g>
</g>
<g>
</g>
</svg>
