<?xml version="1.0" encoding="iso-8859-1"?>
<!-- Generator: Adobe Illustrator 16.0.0, SVG Export Plug-In . SVG Version: 6.00 Build 0)  -->
<!DOCTYPE svg PUBLIC "-//W3C//DTD SVG 1.1//EN" "http://www.w3.org/Graphics/SVG/1.1/DTD/svg11.dtd">
<svg version="1.1" id="Layer_1" xmlns="http://www.w3.org/2000/svg" xmlns:xlink="http://www.w3.org/1999/xlink" x="0px" y="0px"
	 width="32.021px" height="24px" viewBox="0 0 32.021 24" style="enable-background:new 0 0 32.021 24;" xml:space="preserve">
<g id="Tape">
	<g>
		<path style="fill-rule:evenodd;clip-rule:evenodd;fill:#FFCC66;" d="M12,0C7.029,0,3,4.029,3,8.999C3,13.971,7.029,18,12,18
			s9-4.029,9-9.001C21,4.029,16.971,0,12,0z M12,14c-2.762,0-5-2.239-5-5.001C7,6.238,9.238,4,12,4c2.761,0,5,2.238,5,4.999
			C17,11.761,14.761,14,12,14z"/>
	</g>
</g>
<g id="Tape_1_">
	<g>
		<path style="fill:#FFCC66;" d="M31.688,6.964L13.656,0.032c-0.262-0.101-0.552,0.042-0.647,0.319
			c-0.095,0.276,0.04,0.583,0.302,0.684l18.032,6.932c0.262,0.101,0.552-0.042,0.647-0.319C32.086,7.371,31.951,7.064,31.688,6.964z
			"/>
	</g>
</g>
<g id="Base_3_">
	<g>
		<path style="fill:#ED7261;" d="M30,6.999c0,0-1.651,6.001-7,6.001S10.029,5,5,5c-5.029,0-5,6.604-5,9c0,2.396,3,10,3,10
			s15.641,0,20,0c9,0,9-16,9-16L30,6.999z"/>
	</g>
</g>
<g id="Tape_Shade">
	<g>
		<path style="fill:#A14D42;" d="M16.684,10.698C15.986,12.619,14.162,14,12,14c-2.762,0-5-2.239-5-5.001
			c0-1.227,0.459-2.335,1.192-3.205C7.055,5.308,5.977,5,5,5C4.59,5,4.225,5.058,3.879,5.14C3.321,6.311,3,7.616,3,8.999
			C3,13.971,7.029,18,12,18c3.748,0,6.959-2.293,8.313-5.551C19.147,12.032,17.928,11.415,16.684,10.698z"/>
	</g>
</g>
<g>
</g>
<g>
</g>
<g>
</g>
<g>
</g>
<g>
</g>
<g>
</g>
<g>
</g>
<g>
</g>
<g>
</g>
<g>
</g>
<g>
</g>
<g>
</g>
<g>
</g>
<g>
</g>
<g>
</g>
</svg>
