<?xml version="1.0" encoding="iso-8859-1"?>
<!-- Generator: Adobe Illustrator 16.0.0, SVG Export Plug-In . SVG Version: 6.00 Build 0)  -->
<!DOCTYPE svg PUBLIC "-//W3C//DTD SVG 1.1//EN" "http://www.w3.org/Graphics/SVG/1.1/DTD/svg11.dtd">
<svg version="1.1" id="Layer_1" xmlns="http://www.w3.org/2000/svg" xmlns:xlink="http://www.w3.org/1999/xlink" x="0px" y="0px"
	 width="32px" height="30px" viewBox="0 0 32 30" style="enable-background:new 0 0 32 30;" xml:space="preserve">
<g id="Frame_8_">
	<g>
		<path style="fill:#4D4D4D;" d="M30,0H2C0.896,0,0,0.895,0,2v18c0,1.104,0.896,2,2,2h28c1.104,0,2-0.896,2-2V2
			C32,0.895,31.104,0,30,0z"/>
	</g>
</g>
<g id="Display_2_">
	<g>
		<path style="fill:#808080;" d="M29,2H3C2.447,2,2,2.447,2,3v16c0,0.552,0.447,1,1,1h26c0.552,0,1-0.448,1-1V3
			C30,2.447,29.552,2,29,2z"/>
	</g>
</g>
<g id="Leg_3_">
	<g>
		<polygon style="fill-rule:evenodd;clip-rule:evenodd;fill:#B3B3B3;" points="20,22 16,22 12,22 11,28 16,28 21,28 		"/>
	</g>
</g>
<g id="Stand_4_">
	<g>
		<path style="fill-rule:evenodd;clip-rule:evenodd;fill:#CCCCCC;" d="M22,26H10c-1.104,0-2,0.895-2,2h16C24,26.895,23.104,26,22,26
			z"/>
	</g>
</g>
<g>
</g>
<g>
</g>
<g>
</g>
<g>
</g>
<g>
</g>
<g>
</g>
<g>
</g>
<g>
</g>
<g>
</g>
<g>
</g>
<g>
</g>
<g>
</g>
<g>
</g>
<g>
</g>
<g>
</g>
</svg>
