<?xml version="1.0" encoding="iso-8859-1"?>
<!-- Generator: Adobe Illustrator 16.0.0, SVG Export Plug-In . SVG Version: 6.00 Build 0)  -->
<!DOCTYPE svg PUBLIC "-//W3C//DTD SVG 1.1//EN" "http://www.w3.org/Graphics/SVG/1.1/DTD/svg11.dtd">
<svg version="1.1" id="Layer_1" xmlns="http://www.w3.org/2000/svg" xmlns:xlink="http://www.w3.org/1999/xlink" x="0px" y="0px"
	 width="30px" height="32px" viewBox="0 0 30 32" style="enable-background:new 0 0 30 32;" xml:space="preserve">
<g id="Red_3_">
	<g>
		<path style="fill:#D46557;" d="M16,7c-1.104,0-2,0.447-2,1v16c0,0.553,0.896,1,2,1c0.188,0,14-1,14-1V6L16,7z"/>
	</g>
</g>
<g id="Stripes_3_">
	<g>
		<path style="fill-rule:evenodd;clip-rule:evenodd;fill:#E6E6E6;" d="M14,22c0,0.553,0.896,1,2,1c0.188,0,14-1,14-1v-2l-14,1
			C14.896,21,14,21.447,14,22z M14,18c0,0.553,0.896,1,2,1c0.188,0,14-1,14-1v-2l-14,1C14.896,17,14,17.447,14,18z M14,14
			c0,0.553,0.896,1,2,1c0.188,0,14-1,14-1v-2l-14,1C14.896,13,14,13.447,14,14z M16,9c-1.104,0-2,0.447-2,1s0.896,1,2,1
			c0.188,0,14-1,14-1V8L16,9z"/>
	</g>
</g>
<g id="Back_2_">
	<g>
		<path style="fill:#874137;" d="M14,18v4v2c0-0.553,0.896-1,2-1s2-0.447,2-1v-4H14z"/>
	</g>
</g>
<g id="Red_2_">
	<g>
		<path style="fill:#ED7161;" d="M16,13c-0.271,0-10,1-10,1v8c0,0,9.729-1,10-1c1.104,0,2,0.447,2,1v-8C18,13.447,17.104,13,16,13z"
			/>
	</g>
</g>
<g id="Stripes_4_">
	<g>
		<path style="fill-rule:evenodd;clip-rule:evenodd;fill:#FFFFFF;" d="M16,17c-0.271,0-10,1-10,1v2c0,0,9.729-1,10-1
			c1.104,0,2,0.447,2,1v-2C18,17.447,17.104,17,16,17z M16,13c-0.271,0-10,1-10,1v2c0,0,9.729-1,10-1c1.104,0,2,0.447,2,1v-2
			C18,13.447,17.104,13,16,13z"/>
	</g>
</g>
<g id="Blue_1_">
	<g>
		<path style="fill:#48A0DC;" d="M16,3C15.729,3,6,4,6,4v10c0,0,9.729-1,10-1c1.104,0,2,0.447,2,1V4C18,3.447,17.104,3,16,3z"/>
	</g>
</g>
<g id="Pole_1_">
	<g>
		<path style="fill-rule:evenodd;clip-rule:evenodd;fill:#CCCCCC;" d="M9,30H6V3.723C6.596,3.376,7,2.738,7,2c0-1.104-0.896-2-2-2
			S3,0.896,3,2c0,0.738,0.404,1.376,1,1.723V30H1c-0.553,0-1,0.447-1,1c0,0.552,0.447,1,1,1h8c0.553,0,1-0.448,1-1
			C10,30.447,9.553,30,9,30z"/>
	</g>
</g>
<g>
</g>
<g>
</g>
<g>
</g>
<g>
</g>
<g>
</g>
<g>
</g>
<g>
</g>
<g>
</g>
<g>
</g>
<g>
</g>
<g>
</g>
<g>
</g>
<g>
</g>
<g>
</g>
<g>
</g>
</svg>
