<?xml version="1.0" encoding="iso-8859-1"?>
<!-- Generator: Adobe Illustrator 16.0.0, SVG Export Plug-In . SVG Version: 6.00 Build 0)  -->
<!DOCTYPE svg PUBLIC "-//W3C//DTD SVG 1.1//EN" "http://www.w3.org/Graphics/SVG/1.1/DTD/svg11.dtd">
<svg version="1.1" id="Layer_1" xmlns="http://www.w3.org/2000/svg" xmlns:xlink="http://www.w3.org/1999/xlink" x="0px" y="0px"
	 width="31.998px" height="31.997px" viewBox="0 0 31.998 31.997" style="enable-background:new 0 0 31.998 31.997;"
	 xml:space="preserve">
<g id="USB">
	<g>
		<path style="fill:#CCCCCC;" d="M31.704,8.792l-8.5-8.499c-0.391-0.391-1.025-0.391-1.417,0l-8.499,8.499
			c-0.391,0.392-0.391,1.025,0,1.417l8.499,8.499c0.391,0.392,1.025,0.392,1.417,0l8.5-8.499
			C32.095,9.817,32.095,9.184,31.704,8.792z"/>
	</g>
</g>
<g id="Line">
	<g>
		
			<rect x="15.501" y="8.488" transform="matrix(0.7071 -0.7071 0.7071 0.7071 -0.1352 18.7057)" style="fill:#B3B3B3;" width="14.023" height="2.056"/>
	</g>
</g>
<g id="Holes_4_">
	<g>
		<path style="fill-rule:evenodd;clip-rule:evenodd;fill:#808080;" d="M21.247,3.313l-0.938,0.938c-0.406,0.406-0.406,1.063,0,1.47
			c0.406,0.405,1.063,0.405,1.469,0l0.938-0.938c0.406-0.406,0.406-1.064,0-1.47C22.311,2.906,21.652,2.906,21.247,3.313z
			 M28.716,9.313c-0.406-0.405-1.063-0.405-1.469,0l-0.938,0.938c-0.406,0.406-0.406,1.063,0,1.47c0.406,0.405,1.063,0.405,1.469,0
			l0.938-0.939C29.122,10.376,29.122,9.718,28.716,9.313z"/>
	</g>
</g>
<g id="Body_35_">
	<g>
		<path style="fill:#F06EAA;" d="M13.772,5.454L2.645,16.582c-3.526,3.526-3.526,9.244,0,12.771c3.527,3.526,9.244,3.526,12.771,0
			l11.127-11.128L13.772,5.454z"/>
	</g>
</g>
<g>
</g>
<g>
</g>
<g>
</g>
<g>
</g>
<g>
</g>
<g>
</g>
<g>
</g>
<g>
</g>
<g>
</g>
<g>
</g>
<g>
</g>
<g>
</g>
<g>
</g>
<g>
</g>
<g>
</g>
</svg>
