<?xml version="1.0" encoding="iso-8859-1"?>
<!-- Generator: Adobe Illustrator 16.0.0, SVG Export Plug-In . SVG Version: 6.00 Build 0)  -->
<!DOCTYPE svg PUBLIC "-//W3C//DTD SVG 1.1//EN" "http://www.w3.org/Graphics/SVG/1.1/DTD/svg11.dtd">
<svg version="1.1" id="Layer_1" xmlns="http://www.w3.org/2000/svg" xmlns:xlink="http://www.w3.org/1999/xlink" x="0px" y="0px"
	 width="26px" height="32px" viewBox="0 0 26 32" style="enable-background:new 0 0 26 32;" xml:space="preserve">
<g id="Triangle">
	<g>
		<path style="fill-rule:evenodd;clip-rule:evenodd;fill:#9B7CAB;" d="M25,7h-5c-0.553,0-1,0.447-1,1v5c0,0.553,0.447,1,1,1h1v1
			c0,1.104-0.896,2-2,2h-2h-3V9h2.25c0.263,0,0.506-0.144,0.642-0.378c0.136-0.235,0.145-0.526,0.021-0.77l-3.75-7.435
			C13.034,0.161,12.778,0,12.5,0s-0.534,0.161-0.664,0.418l-3.75,7.435c-0.122,0.243-0.113,0.534,0.021,0.77
			C8.244,8.856,8.487,9,8.75,9H11v11H9H7c-1.104,0-2-0.896-2-2v-1.35c1.179-0.563,2-1.756,2-3.15C7,11.567,5.433,10,3.5,10
			S0,11.567,0,13.5c0,1.394,0.821,2.587,2,3.15V18c0,2.762,2.238,5,5,5h2h2v2.35c-1.179,0.563-2,1.756-2,3.15
			c0,1.933,1.567,3.5,3.5,3.5s3.5-1.567,3.5-3.5c0-1.394-0.821-2.587-2-3.15V20h3h2c2.762,0,5-2.238,5-5v-1h1c0.553,0,1-0.447,1-1V8
			C26,7.447,25.553,7,25,7z"/>
	</g>
</g>
<g>
</g>
<g>
</g>
<g>
</g>
<g>
</g>
<g>
</g>
<g>
</g>
<g>
</g>
<g>
</g>
<g>
</g>
<g>
</g>
<g>
</g>
<g>
</g>
<g>
</g>
<g>
</g>
<g>
</g>
</svg>
