<?xml version="1.0" encoding="iso-8859-1"?>
<!-- Generator: Adobe Illustrator 16.0.0, SVG Export Plug-In . SVG Version: 6.00 Build 0)  -->
<!DOCTYPE svg PUBLIC "-//W3C//DTD SVG 1.1//EN" "http://www.w3.org/Graphics/SVG/1.1/DTD/svg11.dtd">
<svg version="1.1" id="Layer_1" xmlns="http://www.w3.org/2000/svg" xmlns:xlink="http://www.w3.org/1999/xlink" x="0px" y="0px"
	 width="32px" height="30px" viewBox="0 0 32 30" style="enable-background:new 0 0 32 30;" xml:space="preserve">
<g id="Line_3_">
	<g>
		<path style="fill:#CCCCCC;" d="M30,26H2c-1.105,0-2,0.896-2,2s0.895,2,2,2h28c1.104,0,2-0.896,2-2S31.104,26,30,26z"/>
	</g>
</g>
<g id="Line_4_">
	<g>
		<path style="fill:#4D4D4D;" d="M21,26H11c-1.105,0-2,0.896-2,2s0.895,2,2,2h10c1.104,0,2-0.896,2-2S22.104,26,21,26z"/>
	</g>
</g>
<g id="Leg_6_">
	<g>
		<rect x="14" y="22" style="fill:#808080;" width="4" height="4"/>
	</g>
</g>
<g id="Frame_25_">
	<g>
		<path style="fill:#9B7CAB;" d="M30,0H2C0.895,0,0,0.895,0,2v18c0,1.104,0.895,2,2,2h28c1.104,0,2-0.896,2-2V2
			C32,0.895,31.104,0,30,0z"/>
	</g>
</g>
<g id="VPN">
	<g>
		<path style="fill-rule:evenodd;clip-rule:evenodd;fill:#FFFFFF;" d="M11.287,7.063c-0.549-0.19-1.16,0.088-1.364,0.623L8,11.704
			L6.076,7.687C5.872,7.151,5.262,6.873,4.712,7.063c-0.549,0.191-0.829,0.78-0.625,1.315l2.842,5.934
			C7.097,14.753,7.542,15.003,8,14.977c0.458,0.026,0.902-0.224,1.07-0.665l2.842-5.934C12.116,7.844,11.836,7.255,11.287,7.063z
			 M16,6.999C15.997,6.999,15.995,7,15.992,7L14,6.999c-0.552,0-1,0.448-1,1v6c0,0.553,0.448,1,1,1s1-0.447,1-1V13h1v-0.001
			c1.657,0,3-1.343,3-3S17.657,6.999,16,6.999z M16,10.999L16,10.999h-1v-2L15.995,9C15.997,9,15.998,8.999,16,8.999
			c0.552,0,1,0.448,1,1C17,10.552,16.552,10.999,16,10.999z M26,6.999c-0.552,0-1,0.448-1,1v3.261l-3.172-3.789
			c-0.147-0.23-0.379-0.388-0.658-0.438c-0.047-0.01-0.092-0.026-0.141-0.028c-0.01,0-0.019-0.006-0.029-0.006
			c-0.033,0-0.06,0.016-0.092,0.019c-0.098,0.007-0.193,0.021-0.286,0.058c-0.015,0.006-0.027,0.016-0.042,0.023
			c-0.082,0.037-0.166,0.07-0.238,0.13C20.11,7.422,20.004,7.7,20.003,7.981C20.003,7.987,20,7.993,20,7.999v6c0,0.553,0.448,1,1,1
			s1-0.447,1-1V10.74l3.179,3.796c0.146,0.223,0.371,0.375,0.643,0.426c0.051,0.011,0.1,0.028,0.152,0.031
			c0.009,0,0.017,0.005,0.027,0.005c0.03,0,0.056-0.015,0.086-0.018c0.1-0.006,0.197-0.021,0.293-0.059
			c0.014-0.006,0.025-0.015,0.039-0.021c0.083-0.037,0.167-0.07,0.24-0.131c0.23-0.194,0.337-0.471,0.338-0.75
			c0-0.007,0.004-0.014,0.004-0.021v-6C27,7.447,26.552,6.999,26,6.999z"/>
	</g>
</g>
<g>
</g>
<g>
</g>
<g>
</g>
<g>
</g>
<g>
</g>
<g>
</g>
<g>
</g>
<g>
</g>
<g>
</g>
<g>
</g>
<g>
</g>
<g>
</g>
<g>
</g>
<g>
</g>
<g>
</g>
</svg>
