<?xml version="1.0" encoding="iso-8859-1"?>
<!-- Generator: Adobe Illustrator 16.0.0, SVG Export Plug-In . SVG Version: 6.00 Build 0)  -->
<!DOCTYPE svg PUBLIC "-//W3C//DTD SVG 1.1//EN" "http://www.w3.org/Graphics/SVG/1.1/DTD/svg11.dtd">
<svg version="1.1" id="Layer_1" xmlns="http://www.w3.org/2000/svg" xmlns:xlink="http://www.w3.org/1999/xlink" x="0px" y="0px"
	 width="31.99px" height="22.018px" viewBox="0 0 31.99 22.018" style="enable-background:new 0 0 31.99 22.018;"
	 xml:space="preserve">
<g id="Wash_5_">
	<g>
		<path style="fill:#87CFFF;" d="M25.995,1.018c-3,0-3,2-5,2s-2-2-5-2s-3,2-5,2s-2-2-5-2s-5,3-5,3l5,17h20l5-17
			C30.995,4.018,28.995,1.018,25.995,1.018z"/>
	</g>
</g>
<g id="Wash_6_">
	<g>
		<path style="fill-rule:evenodd;clip-rule:evenodd;fill:#48A0DC;" d="M31.268,0.034c-0.52-0.142-1.053,0.171-1.193,0.696
			l-4.853,19.287H6.768L1.915,0.73C1.775,0.205,1.241-0.107,0.722,0.034C0.202,0.175-0.106,0.715,0.033,1.24l5.042,20.035
			c0.115,0.434,0.499,0.705,0.92,0.715v0.027h20V21.99c0.421-0.01,0.806-0.281,0.92-0.715L31.957,1.24
			C32.096,0.715,31.788,0.175,31.268,0.034z"/>
	</g>
</g>
<g id="_x33_0">
	<g>
		<path style="fill-rule:evenodd;clip-rule:evenodd;fill:#FFFFFF;" d="M13.995,7.018h-4c-0.552,0-1,0.447-1,0.999
			c0,0.553,0.448,1,1,1h2.155l-0.862,1.293h0c-0.181,0.182-0.293,0.432-0.293,0.708c0,0.552,0.447,0.999,1,0.999
			c0.552,0,1,0.448,1,1.001c0,0.552-0.448,1-1,1c-0.553,0-1-0.448-1-1c0-0.553-0.448-1.001-1-1.001s-1,0.448-1,1.001
			c0,1.656,1.343,3,3,3c1.657,0,3-1.344,3-3c0-1.088-0.584-2.031-1.45-2.557l1.157-1.736h0c0.181-0.182,0.293-0.432,0.293-0.708
			C14.995,7.465,14.547,7.018,13.995,7.018z M18.995,7.018c-1.657,0-3,1.343-3,3v3c0,1.656,1.343,3,3,3c1.657,0,3-1.344,3-3v-3
			C21.995,8.36,20.652,7.018,18.995,7.018z M19.995,13.018c0,0.552-0.448,1-1,1s-1-0.448-1-1v-3c0-0.553,0.448-1.001,1-1.001
			s1,0.448,1,1.001V13.018z M23.995,7.018c-0.552,0-1,0.447-1,1c0,0.552,0.448,1,1,1s1-0.448,1-1
			C24.995,7.465,24.547,7.018,23.995,7.018z"/>
	</g>
</g>
<g>
</g>
<g>
</g>
<g>
</g>
<g>
</g>
<g>
</g>
<g>
</g>
<g>
</g>
<g>
</g>
<g>
</g>
<g>
</g>
<g>
</g>
<g>
</g>
<g>
</g>
<g>
</g>
<g>
</g>
</svg>
