<?xml version="1.0" encoding="iso-8859-1"?>
<!-- Generator: Adobe Illustrator 16.0.0, SVG Export Plug-In . SVG Version: 6.00 Build 0)  -->
<!DOCTYPE svg PUBLIC "-//W3C//DTD SVG 1.1//EN" "http://www.w3.org/Graphics/SVG/1.1/DTD/svg11.dtd">
<svg version="1.1" id="Layer_1" xmlns="http://www.w3.org/2000/svg" xmlns:xlink="http://www.w3.org/1999/xlink" x="0px" y="0px"
	 width="32.004px" height="26.003px" viewBox="0 0 32.004 26.003" style="enable-background:new 0 0 32.004 26.003;"
	 xml:space="preserve">
<g id="WiFi_2_">
	<g>
		<path style="fill-rule:evenodd;clip-rule:evenodd;fill:#CCCCCC;" d="M31.457,6.664C27.328,2.367,21.84,0,16.002,0
			S4.675,2.367,0.547,6.666c-0.729,0.759-0.729,1.987,0,2.747c0.364,0.379,0.842,0.569,1.319,0.569s0.955-0.19,1.319-0.569
			c3.424-3.564,7.975-5.319,12.816-5.319c4.841,0,9.393,1.754,12.815,5.317c0.729,0.759,1.911,0.759,2.64,0
			S32.186,7.423,31.457,6.664z M15.985,7.994c-4.314,0-8.37,1.667-11.421,4.696c-0.761,0.756-0.761,1.981,0,2.738
			c0.381,0.378,0.88,0.566,1.379,0.566s0.997-0.188,1.378-0.566c2.314-2.299,5.391-3.689,8.664-3.689
			c3.272,0,6.349,1.391,8.663,3.689c0.762,0.755,1.996,0.755,2.756-0.001c0.762-0.756,0.762-1.981,0-2.737
			C24.354,9.661,20.299,7.994,15.985,7.994z"/>
	</g>
</g>
<g id="WiFi_3_">
	<g>
		<path style="fill-rule:evenodd;clip-rule:evenodd;fill:#48A0DC;" d="M16.008,22.008c-1.109,0-2.008,0.894-2.008,1.997
			s0.898,1.998,2.008,1.998c1.108,0,2.008-0.895,2.008-1.998S17.116,22.008,16.008,22.008z M22.461,17.747
			c-1.725-1.778-4.02-2.757-6.459-2.757s-4.733,0.979-6.459,2.758c-0.715,0.737-0.715,1.931,0,2.667
			c0.357,0.367,0.826,0.552,1.294,0.552s0.937-0.185,1.294-0.552c1.034-1.066,2.409-1.716,3.871-1.716
			c1.463,0,2.838,0.649,3.872,1.715c0.714,0.736,1.873,0.736,2.588,0C23.176,19.678,23.176,18.483,22.461,17.747z"/>
	</g>
</g>
<g>
</g>
<g>
</g>
<g>
</g>
<g>
</g>
<g>
</g>
<g>
</g>
<g>
</g>
<g>
</g>
<g>
</g>
<g>
</g>
<g>
</g>
<g>
</g>
<g>
</g>
<g>
</g>
<g>
</g>
</svg>
