<?xml version="1.0" encoding="iso-8859-1"?>
<!-- Generator: Adobe Illustrator 16.0.0, SVG Export Plug-In . SVG Version: 6.00 Build 0)  -->
<!DOCTYPE svg PUBLIC "-//W3C//DTD SVG 1.1//EN" "http://www.w3.org/Graphics/SVG/1.1/DTD/svg11.dtd">
<svg version="1.1" id="Layer_1" xmlns="http://www.w3.org/2000/svg" xmlns:xlink="http://www.w3.org/1999/xlink" x="0px" y="0px"
	 width="26px" height="33px" viewBox="0 0 26 33" style="enable-background:new 0 0 26 33;" xml:space="preserve">
<g id="Brain">
	<g>
		<path style="fill-rule:evenodd;clip-rule:evenodd;fill:#F09EC4;" d="M11.916,3.976C11.966,3.826,12,3.667,12,3.5
			C12,2.672,11.328,2,10.5,2c-0.313,0-0.602,0.096-0.842,0.259C9.481,2.103,9.255,2,9,2C8.447,2,8,2.447,8,3C7.447,3,7,3.447,7,4
			c0,0.016,0.008,0.029,0.009,0.044C6.914,4.141,6.834,4.25,6.751,4.357C6.567,4.143,6.305,4,6,4C5.447,4,5,4.447,5,5
			c0,0.089,0.029,0.168,0.051,0.25C4.959,5.3,4.873,5.354,4.791,5.417C4.608,5.17,4.33,5,4,5C3.447,5,3,5.447,3,6
			c0,0.089,0.029,0.168,0.051,0.25C2.428,6.589,2,7.241,2,8c0,1.104,0.896,2,2,2c0.749,0,1.395-0.417,1.737-1.026
			C5.824,8.985,5.91,9,6,9c0.314,0,0.608-0.079,0.874-0.209C7.516,9.526,8.448,10,9.5,10c1.933,0,3.5-1.567,3.5-3.5
			C13,5.505,12.581,4.613,11.916,3.976z"/>
	</g>
</g>
<g id="Head_11_">
	<g>
		<path style="fill-rule:evenodd;clip-rule:evenodd;fill:#88C057;" d="M13,1c-0.421,0-0.836,0.021-1.246,0.057
			C11.905,1.339,12,1.657,12,2c0,1.104-0.896,2-2,2c0,0.552-0.447,1-1,1c0,0.759-0.428,1.411-1.051,1.75C7.971,6.832,8,6.911,8,7
			c0,0.552-0.448,1-1,1C6.67,8,6.392,7.83,6.209,7.583C5.873,7.841,5.457,8,5,8C4.91,8,4.824,7.985,4.737,7.974
			C4.395,8.583,3.749,9,3,9C2.288,9,1.667,8.625,1.313,8.064C0.473,9.8,0,11.8,0,14c0,7.362,2,8.906,2,11c0,1.201,3,1,3,3
			s3.906,5,8,5s8-3,8-5s3-1.799,3-3c0-2.094,2-3.638,2-11C26,6.268,20.18,1,13,1z"/>
	</g>
</g>
<g id="Mouth_1_">
	<g>
		<path style="fill:#333333;" d="M13,25c-2.938,0-6,1.291-6,2c0,0.545,0.388,1,1,1c1.383,0,1.393-1,5-1s3.617,1,5,1
			c0.612,0,1-0.455,1-1C19,26.291,15.938,25,13,25z"/>
	</g>
</g>
<g id="Eyelid">
	<g>
		<path style="fill-rule:evenodd;clip-rule:evenodd;fill:#638C3F;" d="M18,15c1.6,0,3.007,0.306,3.922,0.773
			C21.971,15.522,22,15.265,22,15c0-2.209-1.791-4-4-4s-4,1.791-4,4c0,0.265,0.029,0.522,0.078,0.773C14.993,15.306,16.4,15,18,15z"
			/>
	</g>
</g>
<g id="Eyes_2_">
	<g>
		<path style="fill-rule:evenodd;clip-rule:evenodd;fill:#FFD57F;" d="M18,15c-1.6,0-3.007,0.306-3.922,0.773
			C14.438,17.612,16.056,19,18,19s3.562-1.388,3.922-3.227C21.007,15.306,19.6,15,18,15z M8,11c-2.209,0-4,1.791-4,4s1.791,4,4,4
			s4-1.791,4-4S10.209,11,8,11z"/>
	</g>
</g>
<g id="Pupil_1_">
	<g>
		<circle style="fill:#333333;" cx="8" cy="15" r="1"/>
	</g>
</g>
<g id="Nose_1_">
	<g>
		<path style="fill-rule:evenodd;clip-rule:evenodd;fill:#333333;" d="M11,20c-0.553,0-1,0.447-1,1c0,0.552,0.447,1,1,1s1-0.448,1-1
			C12,20.447,11.553,20,11,20z M15,20c-0.553,0-1,0.447-1,1c0,0.552,0.447,1,1,1s1-0.448,1-1C16,20.447,15.553,20,15,20z"/>
	</g>
</g>
<g id="Teeth">
	<g>
		<path style="fill-rule:evenodd;clip-rule:evenodd;fill:#FFD57F;" d="M10,24c-0.553,0-1,0.447-1,1v1c0,0.552,0.447,1,1,1
			s1-0.448,1-1v-1C11,24.447,10.553,24,10,24z M13,25c-0.553,0-1,0.447-1,1v1c0,0.552,0.447,1,1,1s1-0.448,1-1v-1
			C14,25.447,13.553,25,13,25z M17,24c-0.553,0-1,0.447-1,1v1c0,0.552,0.447,1,1,1s1-0.448,1-1v-1C18,24.447,17.553,24,17,24z"/>
	</g>
</g>
<g>
</g>
<g>
</g>
<g>
</g>
<g>
</g>
<g>
</g>
<g>
</g>
<g>
</g>
<g>
</g>
<g>
</g>
<g>
</g>
<g>
</g>
<g>
</g>
<g>
</g>
<g>
</g>
<g>
</g>
</svg>
